<svg width="20" height="20" viewBox="0 0 20 20" fill="none" xmlns="http://www.w3.org/2000/svg">
<path d="M10.96 9.70398L10.7998 9.7365V9.89998V16.8H9.19976V9.89998V9.7365L9.03954 9.70398C6.84868 9.25926 5.19976 7.32197 5.19976 5C5.19976 2.34903 7.34879 0.2 9.99976 0.2C12.6507 0.2 14.7998 2.34903 14.7998 5C14.7998 7.32197 13.1508 9.25926 10.96 9.70398ZM13.1998 14.0085V12.3815C15.1191 12.6102 16.7601 13.0487 17.9279 13.6604C19.1462 14.2985 19.7998 15.0955 19.7998 16C19.7998 17.1164 18.7982 18.0704 16.9989 18.753C15.2191 19.4282 12.7453 19.8 9.99976 19.8C7.25423 19.8 4.78036 19.4282 3.0006 18.753C1.20128 18.0704 0.199756 17.1164 0.199756 16C0.199756 15.0955 0.853323 14.2985 2.0716 13.6604C3.23938 13.0487 4.88041 12.6102 6.79976 12.3815V14.0085C5.39732 14.1945 4.19554 14.4873 3.32969 14.8122C2.88 14.981 2.51211 15.1616 2.25269 15.3461C2.12302 15.4383 2.01352 15.5362 1.93482 15.6402C1.85625 15.7441 1.79976 15.8657 1.79976 16C1.79976 16.1758 1.89593 16.3303 2.01859 16.4568C2.14389 16.5861 2.31942 16.71 2.53077 16.8277C2.95462 17.0637 3.55689 17.2936 4.28877 17.4954C5.75481 17.8997 7.7728 18.2 9.99976 18.2C12.2267 18.2 14.2447 17.8997 15.7107 17.4954C16.4426 17.2936 17.0449 17.0637 17.4687 16.8277C17.6801 16.71 17.8556 16.5861 17.9809 16.4568C18.1036 16.3303 18.1998 16.1758 18.1998 16C18.1998 15.8657 18.1433 15.7441 18.0647 15.6402C17.986 15.5362 17.8765 15.4383 17.7468 15.3461C17.4874 15.1616 17.1195 14.981 16.6698 14.8122C15.804 14.4873 14.6022 14.1945 13.1998 14.0085ZM9.99976 8.2C11.7671 8.2 13.1998 6.76731 13.1998 5C13.1998 3.23269 11.7671 1.8 9.99976 1.8C8.23244 1.8 6.79976 3.23269 6.79976 5C6.79976 6.76731 8.23244 8.2 9.99976 8.2Z" fill="#CACACA" stroke="#1F2029" stroke-width="0.4"/>
</svg>
