<svg width="17" height="21" viewBox="0 0 17 21" fill="none" xmlns="http://www.w3.org/2000/svg">
<path d="M14.8795 0.000489591H1.83703C1.47881 -8.61852e-06 1.13504 0.141686 0.88122 0.394455C0.627396 0.647224 0.484271 0.9904 0.483278 1.34861L0.125062 19.65C0.122482 19.9165 0.200147 20.1775 0.347953 20.3992C0.49576 20.6209 0.706867 20.793 0.953812 20.8931C1.20006 20.9972 1.47161 21.026 1.73421 20.976C1.99682 20.9259 2.23873 20.7992 2.42944 20.6119L7.83881 15.2981C7.88191 15.256 7.93979 15.2324 8.00006 15.2324C8.06034 15.2324 8.11822 15.256 8.16131 15.2981L13.5726 20.61C13.7631 20.7976 14.0051 20.9244 14.2677 20.9745C14.5304 21.0245 14.802 20.9956 15.0482 20.8913C15.2945 20.791 15.505 20.6191 15.6524 20.3977C15.7998 20.1764 15.8774 19.9159 15.8751 19.65L16.2333 1.34861C16.2323 0.9904 16.0892 0.647224 15.8353 0.394455C15.5815 0.141686 15.2377 -8.61852e-06 14.8795 0.000489591ZM14.7501 19.65C14.7509 19.6943 14.7381 19.7377 14.7132 19.7743C14.6883 19.8109 14.6527 19.8389 14.6113 19.8544C14.5698 19.8738 14.5232 19.8797 14.4782 19.8713C14.4331 19.8629 14.3918 19.8406 14.3601 19.8075L8.94881 14.4956C8.69464 14.2481 8.35389 14.1096 7.99912 14.1096C7.64436 14.1096 7.3036 14.2481 7.04944 14.4956L1.64006 19.8075C1.60818 19.8404 1.56689 19.8625 1.52189 19.8709C1.47689 19.8793 1.4304 19.8735 1.38881 19.8544C1.34738 19.8389 1.31178 19.8109 1.28692 19.7743C1.26207 19.7377 1.24919 19.6943 1.25006 19.65L1.60828 1.34861C1.60926 1.28877 1.63386 1.23174 1.67671 1.18995C1.71955 1.14816 1.77718 1.12499 1.83703 1.12549H14.8795C14.9394 1.12499 14.997 1.14816 15.0398 1.18995C15.0827 1.23174 15.1073 1.28877 15.1083 1.34861L14.7501 19.65Z" fill="#CACACA"/>
</svg>
