<svg width="16" height="18" viewBox="0 0 16 18" fill="none" xmlns="http://www.w3.org/2000/svg">
<path d="M10.8085 11.0341L10.4492 10.6909L10.1376 11.0172L10.4323 11.3587L10.8085 11.0341ZM10.0572 11.6941L10.4333 11.3695L10.1333 11.0219L9.76314 11.2936L10.0572 11.6941ZM14.2817 16.5896L13.9056 16.9142L14.2302 17.2904L14.6063 16.9658L14.2817 16.5896ZM15.0388 15.9363L15.3634 16.3124L15.7396 15.9878L15.415 15.6117L15.0388 15.9363ZM11.8875 7.10258C11.8875 8.49456 11.3407 9.75778 10.4492 10.6909L11.1677 11.3774C12.2288 10.2668 12.8812 8.76033 12.8812 7.10258H11.8875ZM6.69218 1.90725C9.56149 1.90725 11.8875 4.23328 11.8875 7.10258H12.8812C12.8812 3.68447 10.1103 0.913547 6.69218 0.913547V1.90725ZM1.49685 7.10258C1.49685 4.23328 3.82288 1.90725 6.69218 1.90725V0.913547C3.27407 0.913547 0.503147 3.68447 0.503147 7.10258H1.49685ZM6.69218 12.2979C3.82288 12.2979 1.49685 9.97189 1.49685 7.10258H0.503147C0.503147 10.5207 3.27407 13.2916 6.69218 13.2916V12.2979ZM9.76314 11.2936C8.90293 11.9251 7.84182 12.2979 6.69218 12.2979V13.2916C8.0604 13.2916 9.32623 12.8471 10.3512 12.0946L9.76314 11.2936ZM14.6579 16.265L10.4333 11.3695L9.681 12.0187L13.9056 16.9142L14.6579 16.265ZM14.7142 15.5601L13.9571 16.2134L14.6063 16.9658L15.3634 16.3124L14.7142 15.5601ZM10.4323 11.3587L14.6626 16.2609L15.415 15.6117L11.1846 10.7095L10.4323 11.3587Z" fill="#CACACA"/>
</svg>
