<svg width="17" height="17" viewBox="0 0 17 17" fill="none" xmlns="http://www.w3.org/2000/svg">
<path d="M11.7098 6.64515L12.6911 5.66381C13.9438 6.38648 14.7778 7.38515 14.7778 8.49182C14.7778 10.7011 11.4725 12.4871 8.11112 12.4918C7.4271 12.4918 6.74496 12.4203 6.07579 12.2785L7.24046 11.1145C7.52446 11.1438 7.81512 11.1591 8.10912 11.1585H8.11046C7.83379 11.1585 7.56712 11.1165 7.31646 11.0385L8.63712 9.71715C8.95046 9.58248 9.20179 9.33115 9.33712 9.01781L10.6571 7.69715C10.7814 8.09523 10.8106 8.51691 10.7423 8.92831C10.6741 9.33972 10.5103 9.72938 10.2641 10.066C10.0179 10.4026 9.69624 10.6768 9.32487 10.8665C8.95351 11.0563 8.54281 11.1563 8.12579 11.1585C10.9558 11.1485 13.4445 9.70248 13.4445 8.49182C13.4445 7.86315 12.7631 7.16781 11.7098 6.64515ZM5.50846 9.07515C5.42109 8.68542 5.42238 8.28105 5.51223 7.89188C5.60209 7.50272 5.77821 7.13871 6.0276 6.82674C6.27698 6.51477 6.59326 6.2628 6.95308 6.08944C7.3129 5.91608 7.70706 5.82576 8.10646 5.82515C5.29446 5.81515 2.77779 7.27715 2.77779 8.49182C2.77779 9.08915 3.38046 9.74315 4.32912 10.2545L3.35712 11.2251C2.20046 10.5105 1.44446 9.54848 1.44446 8.49182C1.44446 6.28248 4.76712 4.48048 8.11112 4.49181C8.72046 4.49381 9.32912 4.55448 9.91712 4.66648L8.73246 5.85048C8.53912 5.83581 8.34312 5.82715 8.14579 5.82515C8.33379 5.82781 8.51712 5.84981 8.69446 5.88915L5.50779 9.07515H5.50846ZM14.1725 2.29648C14.2974 2.4215 14.3676 2.59104 14.3676 2.76781C14.3676 2.94459 14.2974 3.11413 14.1725 3.23915L2.85912 14.5525C2.79767 14.6162 2.72414 14.667 2.64283 14.702C2.56152 14.737 2.47406 14.7555 2.38554 14.7563C2.29702 14.7571 2.20922 14.7403 2.12727 14.7069C2.04532 14.6734 1.97085 14.624 1.90821 14.5614C1.84557 14.4989 1.79601 14.4245 1.76244 14.3426C1.72886 14.2606 1.71193 14.1729 1.71263 14.0844C1.71334 13.9958 1.73167 13.9083 1.76655 13.827C1.80143 13.7456 1.85216 13.672 1.91579 13.6105L13.2291 2.29715C13.291 2.23516 13.3646 2.18599 13.4455 2.15244C13.5264 2.11889 13.6132 2.10162 13.7008 2.10162C13.7884 2.10162 13.8752 2.11889 13.9561 2.15244C14.037 2.18599 14.1105 2.2345 14.1725 2.29648Z" fill="black" fill-opacity="0.45"/>
</svg>
