<svg width="17" height="18" viewBox="0 0 17 18" fill="none" xmlns="http://www.w3.org/2000/svg">
<path d="M10.7727 11.0712L10.2351 10.5483L9.75592 11.0409L10.2049 11.5612L10.7727 11.0712ZM10.0572 11.6941L10.625 11.2041L10.1721 10.6793L9.61333 11.0895L10.0572 11.6941ZM14.2817 16.5896L13.7139 17.0796L14.2039 17.6474L14.7717 17.1574L14.2817 16.5896ZM15 15.9698L15.4899 16.5376L16.0578 16.0476L15.5678 15.4798L15 15.9698ZM11.6344 7.10258C11.6344 8.4429 11.1018 9.6573 10.2351 10.5483L11.3103 11.5942C12.4384 10.4345 13.1344 8.84906 13.1344 7.10258H11.6344ZM6.69218 2.1604C9.42168 2.1604 11.6344 4.37309 11.6344 7.10258H13.1344C13.1344 3.54466 10.2501 0.6604 6.69218 0.6604V2.1604ZM1.75 7.10258C1.75 4.37309 3.96269 2.1604 6.69218 2.1604V0.6604C3.13426 0.6604 0.25 3.54466 0.25 7.10258H1.75ZM6.69218 12.0448C3.96269 12.0448 1.75 9.83208 1.75 7.10258H0.25C0.25 10.6605 3.13426 13.5448 6.69218 13.5448V12.0448ZM9.61333 11.0895C8.79509 11.6902 7.78614 12.0448 6.69218 12.0448V13.5448C8.11608 13.5448 9.43407 13.0819 10.501 12.2987L9.61333 11.0895ZM14.8495 16.0996L10.625 11.2041L9.48935 12.1841L13.7139 17.0796L14.8495 16.0996ZM14.51 15.402L13.7917 16.0218L14.7717 17.1574L15.4899 16.5376L14.51 15.402ZM10.2049 11.5612L14.4321 16.4598L15.5678 15.4798L11.3405 10.5812L10.2049 11.5612Z" fill="white"/>
</svg>
