<svg width="102" height="102" viewBox="0 0 102 102" fill="none" xmlns="http://www.w3.org/2000/svg">
<g clip-path="url(#clip0_1044_4652)">
<path d="M76.5001 76.5V82.875H84.3388C82.5573 84.8849 80.3685 86.4929 77.9179 87.592C75.4673 88.6911 72.8109 89.2563 70.1251 89.25C65.0545 89.2444 60.1932 87.2277 56.6078 83.6423C53.0224 80.0568 51.0056 75.1956 51.0001 70.125H44.6251C44.6148 75.3101 46.1885 80.3746 49.1357 84.6407C52.0828 88.9067 56.2627 92.1708 61.1159 93.996C65.9692 95.8212 71.2641 96.1204 76.2921 94.8536C81.32 93.5868 85.8411 90.8144 89.2501 86.9075V95.625H95.625V76.5H76.5001Z" fill="#F4F4F4" stroke="#1F2029" stroke-width="2.35385"/>
<path d="M70.125 44.625C66.5021 44.6437 62.9243 45.4303 59.6277 46.9329C56.3311 48.4356 53.3905 50.6201 51 53.3425V44.625H44.625V63.75H63.75V57.375H55.9113C57.6928 55.3651 59.8815 53.7571 62.3321 52.658C64.7828 51.5589 67.4392 50.9937 70.125 51C75.1956 51.0056 80.0568 53.0223 83.6423 56.6077C87.2277 60.1932 89.2444 65.0544 89.25 70.125H95.625C95.6172 63.3644 92.9281 56.8828 88.1477 52.1023C83.3672 47.3219 76.8856 44.6328 70.125 44.625Z" fill="#F4F4F4" stroke="#1F2029" stroke-width="2.35385"/>
<path d="M38.25 89.25H19.125V76.5H25.5V70.125H19.125V54.1875H25.5V47.8125H19.125V31.875H25.5V25.5H19.125V12.75H76.5V38.25H82.875V12.75C82.875 11.0592 82.2033 9.43774 81.0078 8.24219C79.8123 7.04665 78.1908 6.375 76.5 6.375H19.125C17.4342 6.375 15.8127 7.04665 14.6172 8.24219C13.4216 9.43774 12.75 11.0592 12.75 12.75V25.5H6.375V31.875H12.75V47.8125H6.375V54.1875H12.75V70.125H6.375V76.5H12.75V89.25C12.75 90.9408 13.4216 92.5623 14.6172 93.7578C15.8127 94.9533 17.4342 95.625 19.125 95.625H38.25V89.25Z" fill="#F4F4F4" stroke="#1F2029" stroke-width="2.35385"/>
</g>
<defs>
<clipPath id="clip0_1044_4652">
<rect width="102" height="102" fill="white"/>
</clipPath>
</defs>
</svg>
