<svg width="22" height="22" viewBox="0 0 22 22" fill="none" xmlns="http://www.w3.org/2000/svg">
<path d="M11.0172 17.792C10.9075 17.7917 10.7991 17.7683 10.699 17.7234C10.5989 17.6785 10.5094 17.613 10.4363 17.5312L3.11911 9.41671C3.01856 9.3043 2.95266 9.16521 2.92933 9.01621C2.90601 8.8672 2.92626 8.71463 2.98765 8.57687C3.04903 8.43911 3.14894 8.32203 3.27533 8.23974C3.40172 8.15745 3.5492 8.11345 3.70002 8.11305H6.63013V0.972627C6.63013 0.765175 6.71254 0.56622 6.85923 0.41953C7.00592 0.27284 7.20488 0.19043 7.41233 0.19043H14.6242C14.8316 0.19043 15.0306 0.27284 15.1773 0.41953C15.324 0.56622 15.4064 0.765175 15.4064 0.972627V8.11096H18.3349C18.4858 8.11137 18.6332 8.15536 18.7596 8.23766C18.886 8.31995 18.9859 8.43703 19.0473 8.57479C19.1087 8.71255 19.1289 8.86512 19.1056 9.01412C19.0823 9.16313 19.0164 9.30221 18.9158 9.41462L11.5981 17.5333C11.5248 17.6147 11.4352 17.6798 11.3351 17.7243C11.2351 17.7689 11.1268 17.7919 11.0172 17.792ZM5.4584 9.67536L11.0172 15.8417L16.5766 9.67536H14.6242C14.4167 9.67536 14.2178 9.59295 14.0711 9.44625C13.9244 9.29956 13.842 9.10061 13.842 8.89316V1.75482H8.19453V8.89316C8.19453 9.10061 8.11211 9.29956 7.96542 9.44625C7.81873 9.59295 7.61978 9.67536 7.41233 9.67536H5.4584Z" fill="#F4F4F4"/>
<path d="M18.0954 21.1533H3.94228C3.03956 21.1524 2.17408 20.7934 1.53571 20.1551C0.897342 19.5168 0.538214 18.6514 0.537109 17.7487V15.7583C0.537109 15.5508 0.619519 15.3519 0.76621 15.2052C0.9129 15.0585 1.11185 14.9761 1.31931 14.9761C1.52676 14.9761 1.72571 15.0585 1.8724 15.2052C2.01909 15.3519 2.1015 15.5508 2.1015 15.7583V17.7487C2.10219 18.2366 2.29637 18.7044 2.64145 19.0494C2.98652 19.3944 3.45433 19.5884 3.94228 19.589H18.0954C18.5833 19.5884 19.051 19.3943 19.396 19.0493C19.741 18.7044 19.9351 18.2366 19.9356 17.7487V15.7583C19.9356 15.5508 20.018 15.3519 20.1647 15.2052C20.3114 15.0585 20.5104 14.9761 20.7178 14.9761C20.9253 14.9761 21.1242 15.0585 21.2709 15.2052C21.4176 15.3519 21.5 15.5508 21.5 15.7583V17.7487C21.4989 18.6513 21.1398 19.5167 20.5016 20.1549C19.8633 20.7932 18.998 21.1522 18.0954 21.1533Z" fill="#F4F4F4"/>
</svg>
