<svg width="23" height="23" viewBox="0 0 23 23" fill="none" xmlns="http://www.w3.org/2000/svg">
<g clip-path="url(#clip0_1052_4801)">
<path d="M4.36257 20.0231H4.27227V19.9328V7.38163H2.64694V19.9328C2.64694 20.8807 3.41466 21.6485 4.36257 21.6485H15.1079V20.0231H4.36257ZM17.907 3.58917H17.9973V3.67947V16.321V16.4113H17.907H7.97443H7.88413V16.321V3.67947V3.58917H7.97443H17.907ZM7.97443 18.0366H17.907C18.855 18.0366 19.6227 17.2689 19.6227 16.321V3.67947C19.6227 2.73156 18.855 1.96384 17.907 1.96384H7.97443C7.02652 1.96384 6.2588 2.73156 6.2588 3.67947V16.321C6.2588 17.2689 7.02652 18.0366 7.97443 18.0366Z" fill="white" stroke="#EDEDED" stroke-width="0.180593"/>
</g>
<defs>
<clipPath id="clip0_1052_4801">
<rect width="21.6712" height="21.6712" fill="white" transform="matrix(1 0 0 -1 0.750977 22.6421)"/>
</clipPath>
</defs>
</svg>
