<svg width="21" height="21" viewBox="0 0 21 21" fill="none" xmlns="http://www.w3.org/2000/svg">
<g clip-path="url(#clip0_1052_4804)">
<path d="M15.5189 20.1583H6.0829C5.25518 20.1583 4.67578 19.4962 4.67578 18.7512V6.33545H16.926V18.6684C16.926 19.4962 16.2638 20.1583 15.5189 20.1583Z" stroke="white" stroke-width="1.24158" stroke-miterlimit="10" stroke-linecap="round" stroke-linejoin="round"/>
<path d="M17.7543 5.8388V4.34891C17.7543 3.76951 17.2577 3.27288 16.6783 3.27288H13.6157L13.2846 2.0313C13.1191 1.70021 12.8708 1.53467 12.4569 1.53467H9.14603C8.81494 1.53467 8.48385 1.70021 8.31831 2.0313L7.98722 3.1901H4.92467C4.34526 3.1901 3.84863 3.68673 3.84863 4.26614V5.8388C3.84863 6.08712 4.09695 6.33543 4.34526 6.33543H17.2577C17.5887 6.33543 17.7543 6.08712 17.7543 5.8388Z" stroke="white" stroke-width="1.24158" stroke-miterlimit="10" stroke-linecap="round" stroke-linejoin="round"/>
<path d="M8.15332 9.31592V17.1792" stroke="white" stroke-width="1.24158" stroke-miterlimit="10" stroke-linecap="round" stroke-linejoin="round"/>
<path d="M10.8008 9.31592V17.1792" stroke="white" stroke-width="1.24158" stroke-miterlimit="10" stroke-linecap="round" stroke-linejoin="round"/>
<path d="M13.4492 9.31592V17.1792" stroke="white" stroke-width="1.24158" stroke-miterlimit="10" stroke-linecap="round" stroke-linejoin="round"/>
</g>
<defs>
<clipPath id="clip0_1052_4804">
<rect width="19.8652" height="19.8652" fill="white" transform="translate(0.870117 0.873535)"/>
</clipPath>
</defs>
</svg>
