<svg width="42" height="42" viewBox="0 0 42 42" fill="none" xmlns="http://www.w3.org/2000/svg">
<path d="M32.1012 18.4325C31.5034 19.0331 31.0455 19.7579 30.7603 20.5553C30.4751 21.3527 30.3695 22.203 30.4511 23.0458L30.4227 23.0175C30.5066 24.0095 30.3726 25.0079 30.0301 25.9429C29.6877 26.8779 29.145 27.727 28.4399 28.4309C27.7348 29.1349 26.8843 29.6768 25.9478 30.0187C25.0113 30.3606 24.0114 30.4944 23.0177 30.4107L23.0461 30.439C21.8576 30.3286 20.6638 30.5868 19.6277 31.1785C18.5915 31.7702 17.7633 32.6666 17.2561 33.7455C16.7489 34.8243 16.5873 36.0331 16.7933 37.207C16.9994 38.3809 17.5631 39.4628 18.4075 40.3051C19.252 41.1475 20.3361 41.7093 21.512 41.9139C22.688 42.1186 23.8985 41.9562 24.9787 41.4488C26.0588 40.9414 26.9558 40.1137 27.5476 39.0787C28.1393 38.0436 28.3969 36.8515 28.2852 35.665L28.3151 35.6933C28.2313 34.7013 28.3652 33.7029 28.7077 32.7679C29.0502 31.8329 29.5929 30.9838 30.298 30.2798C31.0031 29.5759 31.8536 29.034 32.79 28.6921C33.7265 28.3501 34.7265 28.2164 35.7201 28.3001L35.6901 28.2718C36.661 28.3589 37.6383 28.2 38.5312 27.8097C39.4242 27.4194 40.2041 26.8104 40.7986 26.039C41.393 25.2677 41.7829 24.359 41.9319 23.3971C42.081 22.4353 41.9844 21.4515 41.6512 20.5369C41.318 19.6222 40.759 18.8063 40.0259 18.1648C39.2928 17.5233 38.4094 17.077 37.4575 16.8671C36.5056 16.6573 35.5161 16.6907 34.5806 16.9644C33.6451 17.238 32.7939 17.743 32.106 18.4325H32.1012Z" fill="url(#paint0_angular_999_123)"/>
<path d="M20.4637 26.7251L20.4337 26.6967C21.2782 26.7817 22.1311 26.6782 22.9306 26.3937C23.7302 26.1093 24.4564 25.651 25.0568 25.052C25.6572 24.453 26.1168 23.7283 26.4023 22.9302C26.6878 22.1322 26.7921 21.2808 26.7076 20.4375L26.7376 20.4659C26.6537 19.4739 26.7877 18.4755 27.1301 17.5405C27.4726 16.6055 28.0153 15.7564 28.7204 15.0524C29.4255 14.3484 30.276 13.8066 31.2125 13.4646C32.149 13.1227 33.1489 12.989 34.1426 13.0727L34.1126 13.0443C35.3012 13.1558 36.4954 12.8984 37.5321 12.3074C38.5689 11.7163 39.3978 10.8204 39.9058 9.74168C40.4138 8.66299 40.5762 7.45411 40.3707 6.27991C40.1653 5.10571 39.602 4.02338 38.7578 3.18052C37.9136 2.33767 36.8296 1.77533 35.6535 1.57022C34.4775 1.3651 33.2666 1.52719 32.1862 2.03438C31.1058 2.54157 30.2084 3.36916 29.6164 4.40428C29.0244 5.4394 28.7667 6.63164 28.8783 7.8184L28.8499 7.78847C28.9341 8.78057 28.8003 9.77905 28.4579 10.7142C28.1155 11.6493 27.5728 12.4985 26.8677 13.2026C26.1625 13.9066 25.3119 14.4485 24.3753 14.7903C23.4387 15.1321 22.4386 15.2657 21.4449 15.1817L21.4733 15.2116C20.6288 15.1266 19.776 15.2301 18.9764 15.5146C18.1769 15.799 17.4507 16.2573 16.8503 16.8563C16.2498 17.4553 15.7903 18.18 15.5048 18.9781C15.2193 19.7761 15.115 20.6275 15.1994 21.4708L15.171 21.4424C15.2546 22.4344 15.1205 23.4326 14.7779 24.3675C14.4353 25.3024 13.8926 26.1514 13.1876 26.8553C12.4825 27.5592 11.6322 28.1011 10.6958 28.4431C9.75946 28.7851 8.75963 28.9191 7.76607 28.8356L7.79447 28.8639C6.60582 28.7525 5.41168 29.0099 4.37491 29.6009C3.33814 30.192 2.50923 31.0879 2.00123 32.1666C1.49323 33.2453 1.33088 34.4542 1.53633 35.6284C1.74177 36.8026 2.305 37.8849 3.1492 38.7278C3.9934 39.5706 5.07746 40.133 6.25353 40.3381C7.4296 40.5432 8.64041 40.3811 9.72082 39.8739C10.8012 39.3667 11.6986 38.5391 12.2906 37.504C12.8826 36.4689 13.1404 35.2767 13.0287 34.0899L13.0587 34.1182C12.9748 33.1262 13.1088 32.1279 13.4513 31.1929C13.7938 30.2578 14.3365 29.4087 15.0416 28.7048C15.7467 28.0008 16.5971 27.4589 17.5336 27.117C18.4701 26.7751 19.4701 26.6413 20.4637 26.7251Z" fill="url(#paint1_angular_999_123)"/>
<path d="M9.89102 23.564C10.4889 22.9636 10.9467 22.2388 11.2317 21.4413C11.5167 20.6438 11.6218 19.7934 11.5395 18.9507L11.5695 18.9791C11.4856 17.9867 11.6196 16.9881 11.9623 16.0528C12.3049 15.1176 12.8479 14.2683 13.5534 13.5643C14.2588 12.8603 15.1097 12.3185 16.0466 11.9768C16.9835 11.635 17.9838 11.5016 18.9776 11.5859L18.9477 11.5575C20.1359 11.6687 21.3296 11.4112 22.3659 10.8202C23.4021 10.2292 24.2306 9.3334 24.7383 8.25504C25.246 7.17669 25.4082 5.96824 25.2028 4.79449C24.9973 3.62073 24.4343 2.53881 23.5904 1.69626C22.7465 0.853715 21.6628 0.291557 20.4872 0.0864507C19.3116 -0.118656 18.1012 0.0432743 17.0211 0.550156C15.9411 1.05704 15.0439 1.8842 14.4519 2.91884C13.86 3.95347 13.6021 5.14523 13.7134 6.33158L13.685 6.30322C13.7689 7.29526 13.6349 8.29362 13.2924 9.22862C12.95 10.1636 12.4072 11.0127 11.7021 11.7167C10.997 12.4207 10.1466 12.9625 9.21008 13.3045C8.27359 13.6464 7.27364 13.7802 6.28003 13.6964L6.30842 13.7248C5.33756 13.6378 4.36042 13.797 3.46756 14.1875C2.57471 14.578 1.79501 15.1871 1.20074 15.9586C0.606462 16.73 0.21683 17.6387 0.0679487 18.6005C-0.0809323 19.5623 0.0157537 20.546 0.349048 21.4606C0.682342 22.3751 1.24146 23.1909 1.97459 23.8323C2.70772 24.4736 3.59115 24.9199 4.543 25.1296C5.49485 25.3394 6.48433 25.3059 7.41975 25.0322C8.35517 24.7585 9.20627 24.2535 9.89417 23.564H9.89102Z" fill="url(#paint2_angular_999_123)"/>
<defs>
<radialGradient id="paint0_angular_999_123" cx="0" cy="0" r="1" gradientUnits="userSpaceOnUse" gradientTransform="translate(21 21) rotate(90) scale(21)">
<stop stop-color="#A29BDD"/>
<stop offset="1" stop-color="#8DC7DE"/>
</radialGradient>
<radialGradient id="paint1_angular_999_123" cx="0" cy="0" r="1" gradientUnits="userSpaceOnUse" gradientTransform="translate(21 21) rotate(90) scale(21)">
<stop stop-color="#A29BDD"/>
<stop offset="1" stop-color="#8DC7DE"/>
</radialGradient>
<radialGradient id="paint2_angular_999_123" cx="0" cy="0" r="1" gradientUnits="userSpaceOnUse" gradientTransform="translate(21 21) rotate(90) scale(21)">
<stop stop-color="#A29BDD"/>
<stop offset="1" stop-color="#8DC7DE"/>
</radialGradient>
</defs>
</svg>
