<svg width="278" height="416" viewBox="0 0 278 416" fill="none" xmlns="http://www.w3.org/2000/svg">
<g filter="url(#filter0_d_599_719)">
<rect x="12" y="8" width="254.77" height="392.809" rx="14.823" fill="white"/>
<mask id="path-2-inside-1_599_719" fill="white">
<path d="M24.9701 88.8234C24.9701 88.1882 25.485 87.6733 26.1202 87.6733H252.65C253.285 87.6733 253.8 88.1882 253.8 88.8234V132.845C253.8 133.48 253.285 133.995 252.65 133.995H26.1201C25.485 133.995 24.9701 133.48 24.9701 132.845V88.8234Z"/>
</mask>
<path d="M24.9701 88.8234C24.9701 88.1882 25.485 87.6733 26.1202 87.6733H252.65C253.285 87.6733 253.8 88.1882 253.8 88.8234V132.845C253.8 133.48 253.285 133.995 252.65 133.995H26.1201C25.485 133.995 24.9701 133.48 24.9701 132.845V88.8234Z" fill="white"/>
<path d="M24.9701 87.6733H253.8H24.9701ZM253.8 133.995H24.9701H253.8ZM26.1202 133.995C24.2147 133.995 22.67 132.45 22.67 130.545V91.1235C22.67 89.218 24.2147 87.6733 26.1202 87.6733H27.2702C27.2702 87.6733 27.2702 88.1882 27.2702 88.8234V132.845C27.2702 133.48 27.2702 133.995 27.2702 133.995H26.1202ZM253.8 87.6733V133.995V87.6733Z" fill="#FF8F28" mask="url(#path-2-inside-1_599_719)"/>
<path d="M47.1752 116.834H45.9581V106.367H51.7928V107.448H47.1752V111.279H51.5136V112.36H47.1752V116.834ZM54.5419 116.834H53.3535V108.988H54.5419V116.834ZM53.2533 106.861C53.2533 106.589 53.3201 106.391 53.4537 106.267C53.5874 106.138 53.7544 106.074 53.9549 106.074C54.1458 106.074 54.3104 106.138 54.4488 106.267C54.5872 106.396 54.6565 106.594 54.6565 106.861C54.6565 107.129 54.5872 107.329 54.4488 107.463C54.3104 107.592 54.1458 107.656 53.9549 107.656C53.7544 107.656 53.5874 107.592 53.4537 107.463C53.3201 107.329 53.2533 107.129 53.2533 106.861ZM62.4312 116.834V111.758C62.4312 111.119 62.2857 110.641 61.9945 110.326C61.7034 110.011 61.2476 109.854 60.6271 109.854C59.8062 109.854 59.2049 110.076 58.8231 110.52C58.4412 110.964 58.2503 111.696 58.2503 112.718V116.834H57.0619V108.988H58.0284L58.2217 110.061H58.279C58.5224 109.675 58.8636 109.377 59.3027 109.167C59.7418 108.952 60.231 108.844 60.7703 108.844C61.7153 108.844 62.4265 109.074 62.9037 109.532C63.381 109.985 63.6197 110.713 63.6197 111.715V116.834H62.4312ZM69.3827 116.977C68.223 116.977 67.3066 116.624 66.6336 115.918C65.9654 115.211 65.6314 114.23 65.6314 112.975C65.6314 111.71 65.9416 110.706 66.562 109.961C67.1873 109.217 68.0249 108.844 69.0749 108.844C70.0581 108.844 70.836 109.169 71.4088 109.818C71.9815 110.462 72.2678 111.314 72.2678 112.374V113.126H66.8627C66.8866 114.047 67.1181 114.746 67.5572 115.223C68.001 115.7 68.6239 115.939 69.4257 115.939C70.2705 115.939 71.1057 115.763 71.9314 115.409V116.469C71.5114 116.65 71.1128 116.779 70.7358 116.855C70.3635 116.937 69.9125 116.977 69.3827 116.977ZM69.0606 109.84C68.4306 109.84 67.927 110.045 67.55 110.455C67.1777 110.866 66.9582 111.434 66.8914 112.159H70.9935C70.9935 111.41 70.8265 110.837 70.4924 110.441C70.1583 110.04 69.681 109.84 69.0606 109.84ZM82.9349 116.834L82.6987 115.717H82.6414C82.25 116.209 81.8587 116.543 81.4673 116.719C81.0807 116.891 80.5963 116.977 80.014 116.977C79.236 116.977 78.6251 116.777 78.1813 116.376C77.7422 115.975 77.5226 115.405 77.5226 114.665C77.5226 113.08 78.7898 112.25 81.3241 112.173L82.6557 112.13V111.644C82.6557 111.028 82.5221 110.575 82.2548 110.283C81.9923 109.987 81.5699 109.84 80.9876 109.84C80.3338 109.84 79.594 110.04 78.7683 110.441L78.4032 109.532C78.7898 109.322 79.2122 109.157 79.6704 109.038C80.1333 108.918 80.5963 108.859 81.0592 108.859C81.9947 108.859 82.6867 109.066 83.1354 109.482C83.5888 109.897 83.8155 110.563 83.8155 111.479V116.834H82.9349ZM80.2502 115.996C80.99 115.996 81.5699 115.794 81.9899 115.388C82.4147 114.982 82.6271 114.414 82.6271 113.684V112.975L81.4387 113.025C80.4937 113.059 79.8112 113.207 79.3912 113.469C78.9759 113.727 78.7683 114.13 78.7683 114.679C78.7683 115.109 78.8972 115.436 79.1549 115.66C79.4174 115.884 79.7825 115.996 80.2502 115.996ZM89.8506 108.844C90.199 108.844 90.5116 108.873 90.7884 108.93L90.6238 110.033C90.2992 109.961 90.0129 109.925 89.7647 109.925C89.1299 109.925 88.5858 110.183 88.1324 110.699C87.6838 111.214 87.4595 111.856 87.4595 112.624V116.834H86.2711V108.988H87.2519L87.3879 110.441H87.4451C87.7363 109.93 88.0871 109.536 88.4975 109.26C88.908 108.983 89.359 108.844 89.8506 108.844ZM94.7904 115.996C95.0004 115.996 95.2032 115.982 95.3989 115.953C95.5946 115.92 95.7497 115.887 95.8642 115.853V116.762C95.7354 116.824 95.5445 116.875 95.2915 116.913C95.0433 116.956 94.819 116.977 94.6186 116.977C93.1008 116.977 92.342 116.178 92.342 114.579V109.911H91.218V109.338L92.342 108.844L92.8431 107.169H93.5304V108.988H95.807V109.911H93.5304V114.529C93.5304 115.001 93.6425 115.364 93.8669 115.617C94.0912 115.87 94.399 115.996 94.7904 115.996ZM102.501 114.693C102.501 115.424 102.229 115.987 101.685 116.383C101.141 116.779 100.377 116.977 99.3937 116.977C98.3532 116.977 97.5419 116.813 96.9596 116.483V115.381C97.3366 115.572 97.7399 115.722 98.1695 115.832C98.6038 115.941 99.0214 115.996 99.4223 115.996C100.043 115.996 100.52 115.899 100.854 115.703C101.188 115.502 101.355 115.199 101.355 114.794C101.355 114.488 101.222 114.228 100.954 114.013C100.692 113.794 100.176 113.536 99.408 113.24C98.6778 112.968 98.1575 112.732 97.8473 112.531C97.5419 112.326 97.3128 112.095 97.16 111.837C97.0121 111.579 96.9381 111.271 96.9381 110.913C96.9381 110.274 97.1982 109.77 97.7185 109.403C98.2387 109.031 98.9522 108.844 99.859 108.844C100.704 108.844 101.529 109.016 102.336 109.36L101.914 110.326C101.126 110.002 100.413 109.84 99.7731 109.84C99.2099 109.84 98.7852 109.928 98.4988 110.104C98.2124 110.281 98.0693 110.524 98.0693 110.835C98.0693 111.045 98.1218 111.224 98.2268 111.372C98.3365 111.52 98.5107 111.66 98.7494 111.794C98.988 111.928 99.4462 112.121 100.124 112.374C101.055 112.713 101.682 113.054 102.007 113.398C102.336 113.741 102.501 114.173 102.501 114.693Z" fill="#808080"/>
<mask id="path-5-inside-2_599_719" fill="white">
<path d="M24.6506 88.5041C24.6506 87.8689 25.1655 87.354 25.8007 87.354H252.33C252.965 87.354 253.48 87.8689 253.48 88.5041V132.526C253.48 133.161 252.965 133.676 252.33 133.676H25.8007C25.1655 133.676 24.6506 133.161 24.6506 132.526V88.5041Z"/>
</mask>
<path d="M24.6506 88.5041C24.6506 87.8689 25.1655 87.354 25.8007 87.354H252.33C252.965 87.354 253.48 87.8689 253.48 88.5041V132.526C253.48 133.161 252.965 133.676 252.33 133.676H25.8007C25.1655 133.676 24.6506 133.161 24.6506 132.526V88.5041Z" fill="white"/>
<path d="M24.6506 87.354H253.48H24.6506ZM253.48 133.676H24.6506H253.48ZM25.8007 133.676C22.6249 133.676 20.0504 131.101 20.0504 127.925V93.1043C20.0504 89.9285 22.6249 87.354 25.8007 87.354H29.2509C29.2509 87.354 29.2509 87.8689 29.2509 88.5041V132.526C29.2509 133.161 29.2509 133.676 29.2509 133.676H25.8007ZM253.48 87.354V133.676V87.354Z" fill="#A379DE" mask="url(#path-5-inside-2_599_719)"/>
<path d="M47.2781 116.515H45.5743V106.048H51.4877V107.494H47.2781V110.759H51.2156V112.198H47.2781V116.515ZM54.9026 108.59V116.515H53.2202V108.59H54.9026ZM54.0721 105.554C54.3298 105.554 54.5518 105.623 54.7379 105.762C54.9288 105.9 55.0243 106.139 55.0243 106.478C55.0243 106.812 54.9288 107.05 54.7379 107.193C54.5518 107.332 54.3298 107.401 54.0721 107.401C53.8048 107.401 53.5781 107.332 53.392 107.193C53.2106 107.05 53.1199 106.812 53.1199 106.478C53.1199 106.139 53.2106 105.9 53.392 105.762C53.5781 105.623 53.8048 105.554 54.0721 105.554ZM61.446 108.439C62.3385 108.439 63.0329 108.671 63.5293 109.134C64.0304 109.592 64.281 110.329 64.281 111.346V116.515H62.5986V111.661C62.5986 111.045 62.4721 110.585 62.2192 110.279C61.9662 109.969 61.5748 109.814 61.0451 109.814C60.2767 109.814 59.7421 110.05 59.4414 110.522C59.1455 110.995 58.9976 111.68 58.9976 112.577V116.515H57.3152V108.59H58.6253L58.8615 109.663H58.9546C59.1264 109.387 59.3388 109.16 59.5918 108.983C59.8495 108.802 60.1359 108.666 60.4509 108.575C60.7706 108.485 61.1023 108.439 61.446 108.439ZM69.7935 108.439C70.4999 108.439 71.106 108.585 71.6119 108.876C72.1178 109.167 72.5068 109.58 72.7788 110.114C73.0509 110.649 73.1869 111.289 73.1869 112.033V112.935H67.8963C67.9154 113.704 68.1207 114.295 68.512 114.711C68.9082 115.126 69.4618 115.333 70.1729 115.333C70.6788 115.333 71.1323 115.286 71.5332 115.19C71.9388 115.09 72.3565 114.944 72.786 114.754V116.121C72.3899 116.307 71.9866 116.443 71.5761 116.529C71.1657 116.615 70.6741 116.658 70.1013 116.658C69.3234 116.658 68.6385 116.507 68.0467 116.207C67.4596 115.901 66.9991 115.448 66.665 114.847C66.3357 114.245 66.171 113.498 66.171 112.606C66.171 111.718 66.3213 110.964 66.622 110.344C66.9227 109.723 67.3451 109.251 67.8892 108.926C68.4333 108.601 69.068 108.439 69.7935 108.439ZM69.7935 109.706C69.2637 109.706 68.8342 109.878 68.5049 110.222C68.1803 110.565 67.9894 111.069 67.9321 111.732H71.5403C71.5355 111.336 71.4687 110.985 71.3399 110.68C71.2158 110.375 71.0249 110.136 70.7671 109.964C70.5142 109.792 70.1896 109.706 69.7935 109.706ZM81.9998 108.439C83.002 108.439 83.7585 108.661 84.2692 109.105C84.7847 109.549 85.0424 110.241 85.0424 111.181V116.515H83.8468L83.5247 115.391H83.4674C83.2431 115.677 83.0116 115.913 82.773 116.099C82.5343 116.286 82.2575 116.424 81.9425 116.515C81.6323 116.61 81.2528 116.658 80.8042 116.658C80.3317 116.658 79.9093 116.572 79.537 116.4C79.1648 116.224 78.8712 115.956 78.6565 115.598C78.4417 115.24 78.3343 114.787 78.3343 114.238C78.3343 113.422 78.6374 112.809 79.2435 112.398C79.8544 111.988 80.7756 111.761 82.0069 111.718L83.3815 111.668V111.253C83.3815 110.704 83.2526 110.312 82.9949 110.079C82.7419 109.845 82.384 109.728 81.921 109.728C81.5249 109.728 81.1407 109.785 80.7684 109.9C80.3961 110.014 80.0334 110.155 79.6802 110.322L79.1361 109.134C79.5227 108.928 79.9618 108.761 80.4534 108.632C80.9498 108.504 81.4652 108.439 81.9998 108.439ZM83.3743 112.727L82.3506 112.763C81.5106 112.792 80.9211 112.935 80.5823 113.193C80.2434 113.451 80.074 113.804 80.074 114.252C80.074 114.644 80.1909 114.93 80.4248 115.111C80.6586 115.288 80.9665 115.376 81.3483 115.376C81.9306 115.376 82.4126 115.212 82.7944 114.882C83.181 114.548 83.3743 114.059 83.3743 113.415V112.727ZM91.414 108.439C91.5476 108.439 91.6932 108.446 91.8507 108.461C92.0082 108.475 92.1442 108.494 92.2588 108.518L92.1013 110.093C92.001 110.064 91.8769 110.043 91.729 110.029C91.5858 110.014 91.4569 110.007 91.3424 110.007C91.0417 110.007 90.7554 110.057 90.4833 110.157C90.2113 110.253 89.9702 110.401 89.7602 110.601C89.5502 110.797 89.3856 111.043 89.2663 111.339C89.1469 111.635 89.0873 111.978 89.0873 112.37V116.515H87.3977V108.59H88.715L88.9441 109.986H89.0228C89.1803 109.704 89.376 109.446 89.6099 109.212C89.8438 108.978 90.111 108.792 90.4117 108.654C90.7172 108.511 91.0513 108.439 91.414 108.439ZM96.6759 115.298C96.8955 115.298 97.1126 115.279 97.3274 115.24C97.5422 115.197 97.7379 115.147 97.9145 115.09V116.364C97.7283 116.445 97.4873 116.515 97.1914 116.572C96.8955 116.629 96.5876 116.658 96.2679 116.658C95.8192 116.658 95.4159 116.584 95.058 116.436C94.7 116.283 94.416 116.023 94.206 115.656C93.996 115.288 93.891 114.78 93.891 114.131V109.871H92.81V109.119L93.9698 108.525L94.521 106.828H95.5806V108.59H97.85V109.871H95.5806V114.109C95.5806 114.51 95.6808 114.808 95.8813 115.004C96.0817 115.2 96.3466 115.298 96.6759 115.298ZM104.852 114.252C104.852 114.773 104.725 115.212 104.472 115.57C104.219 115.928 103.849 116.2 103.363 116.386C102.88 116.567 102.289 116.658 101.587 116.658C101.033 116.658 100.556 116.617 100.155 116.536C99.7591 116.46 99.3845 116.34 99.0313 116.178V114.725C99.4083 114.901 99.8307 115.054 100.298 115.183C100.771 115.312 101.217 115.376 101.637 115.376C102.191 115.376 102.589 115.29 102.833 115.119C103.076 114.942 103.198 114.708 103.198 114.417C103.198 114.245 103.148 114.092 103.048 113.959C102.952 113.82 102.771 113.68 102.503 113.536C102.241 113.389 101.854 113.212 101.344 113.007C100.843 112.806 100.42 112.606 100.077 112.405C99.7329 112.205 99.4728 111.964 99.2962 111.682C99.1196 111.396 99.0313 111.031 99.0313 110.587C99.0313 109.885 99.3081 109.353 99.8617 108.99C100.42 108.623 101.158 108.439 102.074 108.439C102.561 108.439 103.019 108.489 103.448 108.59C103.883 108.685 104.308 108.826 104.723 109.012L104.193 110.279C103.835 110.122 103.475 109.993 103.112 109.892C102.754 109.787 102.389 109.735 102.017 109.735C101.582 109.735 101.251 109.802 101.022 109.935C100.797 110.069 100.685 110.26 100.685 110.508C100.685 110.694 100.74 110.852 100.85 110.981C100.959 111.11 101.148 111.238 101.415 111.367C101.687 111.496 102.064 111.656 102.546 111.847C103.019 112.028 103.427 112.219 103.771 112.42C104.119 112.615 104.386 112.856 104.572 113.143C104.759 113.429 104.852 113.799 104.852 114.252Z" fill="#808080"/>
<mask id="path-8-inside-3_599_719" fill="white">
<path d="M24.9701 143.483C24.9701 142.848 25.485 142.333 26.1202 142.333H252.65C253.285 142.333 253.8 142.848 253.8 143.483V187.505C253.8 188.14 253.285 188.655 252.65 188.655H26.1201C25.485 188.655 24.9701 188.14 24.9701 187.505V143.483Z"/>
</mask>
<path d="M24.9701 143.483C24.9701 142.848 25.485 142.333 26.1202 142.333H252.65C253.285 142.333 253.8 142.848 253.8 143.483V187.505C253.8 188.14 253.285 188.655 252.65 188.655H26.1201C25.485 188.655 24.9701 188.14 24.9701 187.505V143.483Z" fill="white"/>
<path d="M24.9701 142.333H253.8H24.9701ZM253.8 188.655H24.9701H253.8ZM26.1202 188.655C22.9444 188.655 20.3699 186.08 20.3699 182.904V148.083C20.3699 144.907 22.9444 142.333 26.1202 142.333H29.5703C29.5703 142.333 29.5703 142.848 29.5703 143.483V187.505C29.5703 188.14 29.5703 188.655 29.5703 188.655H26.1202ZM253.8 142.333V188.655V142.333Z" fill="#A379DE" mask="url(#path-8-inside-3_599_719)"/>
<path d="M45.8937 171.494V161.027H47.6119V170.033H52.0577V171.494H45.8937ZM55.3795 163.569V171.494H53.6971V163.569H55.3795ZM54.5491 160.533C54.8068 160.533 55.0287 160.602 55.2149 160.741C55.4058 160.879 55.5012 161.118 55.5012 161.457C55.5012 161.791 55.4058 162.029 55.2149 162.173C55.0287 162.311 54.8068 162.38 54.5491 162.38C54.2818 162.38 54.0551 162.311 53.869 162.173C53.6876 162.029 53.5969 161.791 53.5969 161.457C53.5969 161.118 53.6876 160.879 53.869 160.741C54.0551 160.602 54.2818 160.533 54.5491 160.533ZM60.7417 170.277C60.9612 170.277 61.1784 170.258 61.3932 170.219C61.6079 170.176 61.8036 170.126 61.9802 170.069V171.343C61.7941 171.424 61.5531 171.494 61.2571 171.551C60.9612 171.608 60.6534 171.637 60.3336 171.637C59.885 171.637 59.4817 171.563 59.1237 171.415C58.7658 171.262 58.4818 171.002 58.2718 170.635C58.0618 170.267 57.9568 169.759 57.9568 169.11V164.85H56.8758V164.098L58.0356 163.504L58.5868 161.807H59.6463V163.569H61.9158V164.85H59.6463V169.088C59.6463 169.489 59.7466 169.787 59.947 169.983C60.1475 170.179 60.4124 170.277 60.7417 170.277ZM66.7482 163.418C67.4545 163.418 68.0607 163.564 68.5666 163.855C69.0725 164.146 69.4615 164.559 69.7335 165.093C70.0056 165.628 70.1416 166.268 70.1416 167.012V167.914H64.851C64.8701 168.683 65.0753 169.274 65.4667 169.69C65.8628 170.105 66.4165 170.312 67.1276 170.312C67.6335 170.312 68.0869 170.265 68.4878 170.169C68.8935 170.069 69.3111 169.923 69.7407 169.733V171.1C69.3445 171.286 68.9413 171.422 68.5308 171.508C68.1203 171.594 67.6287 171.637 67.056 171.637C66.2781 171.637 65.5932 171.486 65.0014 171.186C64.4143 170.88 63.9537 170.427 63.6197 169.826C63.2903 169.224 63.1257 168.477 63.1257 167.585C63.1257 166.697 63.276 165.943 63.5767 165.323C63.8774 164.702 64.2998 164.23 64.8439 163.905C65.388 163.58 66.0227 163.418 66.7482 163.418ZM66.7482 164.685C66.2184 164.685 65.7889 164.857 65.4595 165.201C65.135 165.544 64.9441 166.048 64.8868 166.711H68.495C68.4902 166.315 68.4234 165.964 68.2945 165.659C68.1705 165.354 67.9795 165.115 67.7218 164.943C67.4689 164.771 67.1443 164.685 66.7482 164.685ZM76.055 163.418C76.1886 163.418 76.3342 163.425 76.4917 163.44C76.6492 163.454 76.7852 163.473 76.8998 163.497L76.7423 165.072C76.6421 165.043 76.518 165.022 76.37 165.008C76.2268 164.993 76.098 164.986 75.9834 164.986C75.6827 164.986 75.3964 165.036 75.1243 165.136C74.8523 165.232 74.6113 165.38 74.4013 165.58C74.1913 165.776 74.0266 166.022 73.9073 166.318C73.788 166.614 73.7283 166.957 73.7283 167.349V171.494H72.0388V163.569H73.356L73.5851 164.965H73.6639C73.8214 164.683 74.0171 164.425 74.2509 164.191C74.4848 163.958 74.7521 163.771 75.0527 163.633C75.3582 163.49 75.6923 163.418 76.055 163.418ZM81.4745 163.418C82.4767 163.418 83.2332 163.64 83.7439 164.084C84.2593 164.528 84.5171 165.22 84.5171 166.16V171.494H83.3215L82.9993 170.37H82.9421C82.7178 170.656 82.4863 170.892 82.2476 171.078C82.009 171.265 81.7322 171.403 81.4172 171.494C81.107 171.589 80.7275 171.637 80.2789 171.637C79.8064 171.637 79.384 171.551 79.0117 171.379C78.6394 171.203 78.3459 170.935 78.1312 170.577C77.9164 170.219 77.809 169.766 77.809 169.217C77.809 168.401 78.1121 167.788 78.7182 167.377C79.3291 166.967 80.2502 166.74 81.4816 166.697L82.8562 166.647V166.232C82.8562 165.683 82.7273 165.291 82.4696 165.058C82.2166 164.824 81.8587 164.707 81.3957 164.707C80.9996 164.707 80.6154 164.764 80.2431 164.879C79.8708 164.993 79.5081 165.134 79.1549 165.301L78.6108 164.113C78.9974 163.907 79.4365 163.74 79.9281 163.611C80.4245 163.483 80.9399 163.418 81.4745 163.418ZM82.849 167.706L81.8252 167.742C80.9852 167.771 80.3958 167.914 80.057 168.172C79.7181 168.43 79.5487 168.783 79.5487 169.231C79.5487 169.623 79.6656 169.909 79.8995 170.09C80.1333 170.267 80.4412 170.355 80.823 170.355C81.4052 170.355 81.8873 170.191 82.2691 169.861C82.6557 169.527 82.849 169.038 82.849 168.394V167.706ZM89.822 170.277C90.0415 170.277 90.2587 170.258 90.4734 170.219C90.6882 170.176 90.8839 170.126 91.0605 170.069V171.343C90.8744 171.424 90.6333 171.494 90.3374 171.551C90.0415 171.608 89.7337 171.637 89.4139 171.637C88.9653 171.637 88.562 171.563 88.204 171.415C87.8461 171.262 87.5621 171.002 87.3521 170.635C87.1421 170.267 87.0371 169.759 87.0371 169.11V164.85H85.9561V164.098L87.1158 163.504L87.6671 161.807H88.7266V163.569H90.9961V164.85H88.7266V169.088C88.7266 169.489 88.8269 169.787 89.0273 169.983C89.2278 170.179 89.4927 170.277 89.822 170.277ZM99.5798 163.569V171.494H98.2554L98.0263 170.427H97.9332C97.7662 170.699 97.5538 170.926 97.2961 171.107C97.0383 171.284 96.752 171.415 96.437 171.501C96.122 171.591 95.7903 171.637 95.4419 171.637C94.8453 171.637 94.3346 171.537 93.9098 171.336C93.4898 171.131 93.1677 170.816 92.9433 170.391C92.719 169.966 92.6069 169.418 92.6069 168.745V163.569H94.2964V168.43C94.2964 169.045 94.4205 169.506 94.6687 169.811C94.9216 170.117 95.313 170.269 95.8428 170.269C96.3535 170.269 96.7591 170.164 97.0598 169.954C97.3605 169.744 97.5729 169.434 97.697 169.024C97.8258 168.613 97.8903 168.11 97.8903 167.513V163.569H99.5798ZM106.009 163.418C106.142 163.418 106.288 163.425 106.445 163.44C106.603 163.454 106.739 163.473 106.853 163.497L106.696 165.072C106.596 165.043 106.472 165.022 106.324 165.008C106.181 164.993 106.052 164.986 105.937 164.986C105.636 164.986 105.35 165.036 105.078 165.136C104.806 165.232 104.565 165.38 104.355 165.58C104.145 165.776 103.98 166.022 103.861 166.318C103.742 166.614 103.682 166.957 103.682 167.349V171.494H101.992V163.569H103.31L103.539 164.965H103.618C103.775 164.683 103.971 164.425 104.205 164.191C104.438 163.958 104.706 163.771 105.006 163.633C105.312 163.49 105.646 163.418 106.009 163.418ZM111.478 163.418C112.185 163.418 112.791 163.564 113.297 163.855C113.803 164.146 114.192 164.559 114.464 165.093C114.736 165.628 114.872 166.268 114.872 167.012V167.914H109.581C109.6 168.683 109.805 169.274 110.197 169.69C110.593 170.105 111.147 170.312 111.858 170.312C112.364 170.312 112.817 170.265 113.218 170.169C113.624 170.069 114.041 169.923 114.471 169.733V171.1C114.075 171.286 113.671 171.422 113.261 171.508C112.85 171.594 112.359 171.637 111.786 171.637C111.008 171.637 110.323 171.486 109.731 171.186C109.144 170.88 108.684 170.427 108.35 169.826C108.02 169.224 107.856 168.477 107.856 167.585C107.856 166.697 108.006 165.943 108.307 165.323C108.607 164.702 109.03 164.23 109.574 163.905C110.118 163.58 110.753 163.418 111.478 163.418ZM111.478 164.685C110.948 164.685 110.519 164.857 110.19 165.201C109.865 165.544 109.674 166.048 109.617 166.711H113.225C113.22 166.315 113.153 165.964 113.025 165.659C112.901 165.354 112.71 165.115 112.452 164.943C112.199 164.771 111.874 164.685 111.478 164.685Z" fill="#808080"/>
<mask id="path-11-inside-4_599_719" fill="white">
<path d="M24.9701 198.143C24.9701 197.508 25.485 196.993 26.1202 196.993H252.65C253.285 196.993 253.8 197.508 253.8 198.143V242.164C253.8 242.8 253.285 243.314 252.65 243.314H26.1201C25.485 243.314 24.9701 242.8 24.9701 242.164V198.143Z"/>
</mask>
<path d="M24.9701 198.143C24.9701 197.508 25.485 196.993 26.1202 196.993H252.65C253.285 196.993 253.8 197.508 253.8 198.143V242.164C253.8 242.8 253.285 243.314 252.65 243.314H26.1201C25.485 243.314 24.9701 242.8 24.9701 242.164V198.143Z" fill="white"/>
<path d="M24.9701 196.993H253.8H24.9701ZM253.8 243.314H24.9701H253.8ZM26.1202 243.314C22.9444 243.314 20.3699 240.74 20.3699 237.564V202.743C20.3699 199.567 22.9444 196.993 26.1202 196.993H29.5703C29.5703 196.993 29.5703 197.508 29.5703 198.143V242.164C29.5703 242.8 29.5703 243.314 29.5703 243.314H26.1202ZM253.8 196.993V243.314V196.993Z" fill="#A379DE" mask="url(#path-11-inside-4_599_719)"/>
<path d="M50.4111 226.153L47.3971 217.412H47.3327C47.347 217.608 47.3637 217.875 47.3828 218.214C47.4019 218.553 47.4186 218.915 47.4329 219.302C47.4472 219.689 47.4544 220.059 47.4544 220.412V226.153H45.8937V215.687H48.3063L51.2058 224.041H51.2487L54.2484 215.687H56.6538V226.153H55.0144V220.326C55.0144 220.006 55.0192 219.66 55.0287 219.288C55.043 218.915 55.0574 218.562 55.0717 218.228C55.0908 217.894 55.1051 217.627 55.1146 217.426H55.0574L51.9288 226.153H50.4111ZM66.1468 218.228V226.153H64.8224L64.5933 225.087H64.5002C64.3332 225.359 64.1208 225.585 63.8631 225.767C63.6053 225.943 63.319 226.075 63.004 226.16C62.689 226.251 62.3573 226.297 62.0089 226.297C61.4123 226.297 60.9016 226.196 60.4768 225.996C60.0568 225.791 59.7346 225.476 59.5103 225.051C59.286 224.626 59.1738 224.077 59.1738 223.404V218.228H60.8634V223.089C60.8634 223.705 60.9875 224.165 61.2357 224.471C61.4886 224.776 61.88 224.929 62.4098 224.929C62.9204 224.929 63.3261 224.824 63.6268 224.614C63.9275 224.404 64.1399 224.094 64.264 223.683C64.3928 223.273 64.4573 222.769 64.4573 222.173V218.228H66.1468ZM73.8858 223.891C73.8858 224.411 73.7593 224.85 73.5064 225.208C73.2534 225.566 72.8835 225.838 72.3967 226.024C71.9147 226.206 71.3228 226.297 70.6213 226.297C70.0676 226.297 69.5903 226.256 69.1894 226.175C68.7933 226.098 68.4186 225.979 68.0655 225.817V224.364C68.4425 224.54 68.8649 224.693 69.3326 224.822C69.8051 224.951 70.2514 225.015 70.6714 225.015C71.225 225.015 71.6235 224.929 71.8669 224.757C72.1103 224.581 72.2321 224.347 72.2321 224.056C72.2321 223.884 72.1819 223.731 72.0817 223.598C71.9863 223.459 71.8049 223.318 71.5376 223.175C71.2751 223.027 70.8885 222.851 70.3778 222.645C69.8767 222.445 69.4543 222.244 69.1107 222.044C68.767 221.844 68.5069 221.603 68.3303 221.321C68.1537 221.035 68.0655 220.669 68.0655 220.226C68.0655 219.524 68.3423 218.992 68.8959 218.629C69.4543 218.262 70.1917 218.078 71.1081 218.078C71.5949 218.078 72.0531 218.128 72.4826 218.228C72.9169 218.324 73.3417 218.464 73.7569 218.651L73.2272 219.918C72.8692 219.76 72.5089 219.631 72.1461 219.531C71.7882 219.426 71.4231 219.374 71.0508 219.374C70.6165 219.374 70.2848 219.44 70.0557 219.574C69.8314 219.708 69.7192 219.899 69.7192 220.147C69.7192 220.333 69.7741 220.49 69.8839 220.619C69.9936 220.748 70.1822 220.877 70.4494 221.006C70.7215 221.135 71.0985 221.295 71.5806 221.486C72.0531 221.667 72.4611 221.858 72.8048 222.058C73.1532 222.254 73.4205 222.495 73.6066 222.781C73.7927 223.068 73.8858 223.438 73.8858 223.891ZM77.3866 218.228V226.153H75.7042V218.228H77.3866ZM76.5562 215.193C76.8139 215.193 77.0358 215.262 77.2219 215.4C77.4129 215.539 77.5083 215.777 77.5083 216.116C77.5083 216.45 77.4129 216.689 77.2219 216.832C77.0358 216.971 76.8139 217.04 76.5562 217.04C76.2889 217.04 76.0622 216.971 75.876 216.832C75.6947 216.689 75.604 216.45 75.604 216.116C75.604 215.777 75.6947 215.539 75.876 215.4C76.0622 215.262 76.2889 215.193 76.5562 215.193ZM82.9922 226.297C82.2429 226.297 81.5938 226.151 81.0449 225.86C80.496 225.569 80.0737 225.122 79.7777 224.521C79.4818 223.92 79.3339 223.156 79.3339 222.23C79.3339 221.266 79.4962 220.479 79.8207 219.868C80.1452 219.257 80.5939 218.806 81.1666 218.515C81.7441 218.223 82.4051 218.078 83.1497 218.078C83.6222 218.078 84.0493 218.126 84.4312 218.221C84.8178 218.312 85.1447 218.424 85.412 218.558L84.9108 219.903C84.6197 219.784 84.3214 219.684 84.0159 219.603C83.7105 219.522 83.417 219.481 83.1354 219.481C82.6724 219.481 82.2858 219.584 81.9756 219.789C81.6701 219.994 81.441 220.3 81.2883 220.705C81.1404 221.111 81.0664 221.614 81.0664 222.216C81.0664 222.798 81.1427 223.29 81.2955 223.691C81.4482 224.087 81.6749 224.387 81.9756 224.593C82.2763 224.793 82.6462 224.893 83.0853 224.893C83.5196 224.893 83.9085 224.841 84.2522 224.736C84.5958 224.631 84.9204 224.495 85.2258 224.328V225.788C84.9251 225.96 84.603 226.087 84.2593 226.168C83.9157 226.254 83.4933 226.297 82.9922 226.297Z" fill="#808080"/>
<mask id="path-14-inside-5_599_719" fill="white">
<path d="M24.9701 252.802C24.9701 252.167 25.485 251.652 26.1202 251.652H252.65C253.285 251.652 253.8 252.167 253.8 252.802V296.824C253.8 297.459 253.285 297.974 252.65 297.974H26.1201C25.485 297.974 24.9701 297.459 24.9701 296.824V252.802Z"/>
</mask>
<path d="M24.9701 252.802C24.9701 252.167 25.485 251.652 26.1202 251.652H252.65C253.285 251.652 253.8 252.167 253.8 252.802V296.824C253.8 297.459 253.285 297.974 252.65 297.974H26.1201C25.485 297.974 24.9701 297.459 24.9701 296.824V252.802Z" fill="white"/>
<path d="M24.9701 251.652H253.8H24.9701ZM253.8 297.974H24.9701H253.8ZM26.1202 297.974C22.9444 297.974 20.3699 295.4 20.3699 292.224V257.403C20.3699 254.227 22.9444 251.652 26.1202 251.652H29.5703C29.5703 251.652 29.5703 252.167 29.5703 252.802V296.824C29.5703 297.459 29.5703 297.974 29.5703 297.974H26.1202ZM253.8 251.652V297.974V251.652Z" fill="#A379DE" mask="url(#path-14-inside-5_599_719)"/>
<path d="M45.8937 280.813V270.346H47.6119V279.353H52.0577V280.813H45.8937ZM56.8042 272.738C57.8065 272.738 58.5629 272.959 59.0736 273.403C59.5891 273.847 59.8468 274.539 59.8468 275.479V280.813H58.6512L58.3291 279.689H58.2718C58.0475 279.975 57.816 280.212 57.5774 280.398C57.3387 280.584 57.0619 280.722 56.7469 280.813C56.4367 280.908 56.0573 280.956 55.6086 280.956C55.1361 280.956 54.7137 280.87 54.3415 280.698C53.9692 280.522 53.6757 280.255 53.4609 279.897C53.2461 279.539 53.1387 279.085 53.1387 278.536C53.1387 277.72 53.4418 277.107 54.0479 276.697C54.6588 276.286 55.58 276.059 56.8113 276.016L58.1859 275.966V275.551C58.1859 275.002 58.057 274.611 57.7993 274.377C57.5463 274.143 57.1884 274.026 56.7254 274.026C56.3293 274.026 55.9451 274.083 55.5728 274.198C55.2005 274.313 54.8378 274.453 54.4846 274.62L53.9405 273.432C54.3271 273.227 54.7662 273.06 55.2578 272.931C55.7542 272.802 56.2696 272.738 56.8042 272.738ZM58.1787 277.026L57.155 277.062C56.315 277.09 55.7255 277.233 55.3867 277.491C55.0478 277.749 54.8784 278.102 54.8784 278.551C54.8784 278.942 54.9953 279.228 55.2292 279.41C55.463 279.586 55.7709 279.675 56.1527 279.675C56.735 279.675 57.217 279.51 57.5988 279.181C57.9854 278.847 58.1787 278.357 58.1787 277.713V277.026ZM66.333 272.738C67.2255 272.738 67.9199 272.969 68.4163 273.432C68.9174 273.89 69.168 274.628 69.168 275.644V280.813H67.4856V275.959C67.4856 275.343 67.3591 274.883 67.1061 274.577C66.8532 274.267 66.4618 274.112 65.932 274.112C65.1636 274.112 64.6291 274.348 64.3284 274.821C64.0325 275.293 63.8845 275.978 63.8845 276.875V280.813H62.2021V272.888H63.5123L63.7485 273.962H63.8416C64.0134 273.685 64.2258 273.458 64.4787 273.282C64.7365 273.1 65.0228 272.964 65.3378 272.874C65.6576 272.783 65.9893 272.738 66.333 272.738ZM73.7856 284.335C72.7117 284.335 71.8884 284.142 71.3157 283.755C70.743 283.369 70.4566 282.827 70.4566 282.13C70.4566 281.643 70.6093 281.231 70.9148 280.892C71.2202 280.558 71.6569 280.326 72.2249 280.197C72.0101 280.102 71.824 279.954 71.6665 279.753C71.5138 279.548 71.4374 279.322 71.4374 279.073C71.4374 278.777 71.5209 278.524 71.688 278.314C71.855 278.104 72.1056 277.902 72.4397 277.706C72.0244 277.529 71.6903 277.243 71.4374 276.847C71.1892 276.446 71.0651 275.976 71.0651 275.437C71.0651 274.864 71.1868 274.377 71.4302 273.976C71.6736 273.57 72.0292 273.263 72.4969 273.053C72.9647 272.838 73.5302 272.73 74.1936 272.73C74.3368 272.73 74.4919 272.74 74.659 272.759C74.8308 272.773 74.9883 272.792 75.1315 272.816C75.2794 272.835 75.3916 272.857 75.468 272.881H78.2099V273.819L76.864 274.069C76.9929 274.25 77.0955 274.458 77.1718 274.692C77.2482 274.921 77.2864 275.172 77.2864 275.444C77.2864 276.265 77.0024 276.911 76.4344 277.384C75.8713 277.852 75.0933 278.085 74.1006 278.085C73.8619 278.076 73.6305 278.057 73.4061 278.028C73.2343 278.133 73.1031 278.25 73.0124 278.379C72.9217 278.503 72.8764 278.644 72.8764 278.801C72.8764 278.93 72.9217 279.035 73.0124 279.116C73.1031 279.193 73.2367 279.25 73.4133 279.288C73.5947 279.326 73.8142 279.345 74.0719 279.345H75.4393C76.308 279.345 76.9714 279.529 77.4296 279.897C77.8877 280.264 78.1168 280.803 78.1168 281.515C78.1168 282.417 77.7446 283.111 77 283.598C76.2555 284.089 75.184 284.335 73.7856 284.335ZM73.85 283.154C74.4371 283.154 74.931 283.097 75.3319 282.982C75.7329 282.868 76.0359 282.703 76.2411 282.488C76.4464 282.278 76.549 282.028 76.549 281.737C76.549 281.479 76.4846 281.281 76.3557 281.142C76.2268 281.004 76.0335 280.908 75.7758 280.856C75.5181 280.803 75.1983 280.777 74.8165 280.777H73.5708C73.2606 280.777 72.9861 280.825 72.7475 280.92C72.5089 281.021 72.3227 281.164 72.1891 281.35C72.0602 281.536 71.9958 281.76 71.9958 282.023C71.9958 282.386 72.1557 282.665 72.4755 282.86C72.8 283.056 73.2582 283.154 73.85 283.154ZM74.1793 276.983C74.6709 276.983 75.036 276.849 75.2747 276.582C75.5133 276.31 75.6326 275.928 75.6326 275.437C75.6326 274.902 75.5085 274.501 75.2604 274.234C75.0169 273.966 74.6542 273.833 74.1722 273.833C73.6997 273.833 73.3393 273.969 73.0911 274.241C72.8477 274.513 72.726 274.916 72.726 275.451C72.726 275.933 72.8477 276.31 73.0911 276.582C73.3393 276.849 73.7021 276.983 74.1793 276.983ZM86.5646 272.888V280.813H85.2401L85.0111 279.746H84.918C84.7509 280.018 84.5385 280.245 84.2808 280.426C84.0231 280.603 83.7367 280.734 83.4217 280.82C83.1067 280.911 82.775 280.956 82.4266 280.956C81.83 280.956 81.3193 280.856 80.8946 280.655C80.4746 280.45 80.1524 280.135 79.9281 279.71C79.7038 279.286 79.5916 278.737 79.5916 278.064V272.888H81.2812V277.749C81.2812 278.365 81.4052 278.825 81.6534 279.131C81.9064 279.436 82.2978 279.589 82.8275 279.589C83.3382 279.589 83.7439 279.484 84.0446 279.274C84.3453 279.064 84.5576 278.754 84.6817 278.343C84.8106 277.933 84.875 277.429 84.875 276.833V272.888H86.5646ZM92.0842 272.738C93.0865 272.738 93.843 272.959 94.3537 273.403C94.8691 273.847 95.1269 274.539 95.1269 275.479V280.813H93.9313L93.6091 279.689H93.5519C93.3275 279.975 93.0961 280.212 92.8574 280.398C92.6188 280.584 92.342 280.722 92.027 280.813C91.7167 280.908 91.3373 280.956 90.8887 280.956C90.4162 280.956 89.9938 280.87 89.6215 280.698C89.2492 280.522 88.9557 280.255 88.7409 279.897C88.5262 279.539 88.4188 279.085 88.4188 278.536C88.4188 277.72 88.7219 277.107 89.328 276.697C89.9389 276.286 90.86 276.059 92.0914 276.016L93.466 275.966V275.551C93.466 275.002 93.3371 274.611 93.0794 274.377C92.8264 274.143 92.4684 274.026 92.0055 274.026C91.6094 274.026 91.2252 274.083 90.8529 274.198C90.4806 274.313 90.1179 274.453 89.7647 274.62L89.2206 273.432C89.6072 273.227 90.0463 273.06 90.5379 272.931C91.0342 272.802 91.5497 272.738 92.0842 272.738ZM93.4588 277.026L92.435 277.062C91.595 277.09 91.0056 277.233 90.6667 277.491C90.3279 277.749 90.1584 278.102 90.1584 278.551C90.1584 278.942 90.2754 279.228 90.5092 279.41C90.7431 279.586 91.0509 279.675 91.4328 279.675C92.015 279.675 92.4971 279.51 92.8789 279.181C93.2655 278.847 93.4588 278.357 93.4588 277.713V277.026ZM99.7445 284.335C98.6706 284.335 97.8473 284.142 97.2746 283.755C96.7019 283.369 96.4155 282.827 96.4155 282.13C96.4155 281.643 96.5682 281.231 96.8737 280.892C97.1791 280.558 97.6158 280.326 98.1838 280.197C97.969 280.102 97.7829 279.954 97.6254 279.753C97.4727 279.548 97.3963 279.322 97.3963 279.073C97.3963 278.777 97.4798 278.524 97.6469 278.314C97.8139 278.104 98.0645 277.902 98.3986 277.706C97.9833 277.529 97.6493 277.243 97.3963 276.847C97.1481 276.446 97.024 275.976 97.024 275.437C97.024 274.864 97.1457 274.377 97.3891 273.976C97.6326 273.57 97.9881 273.263 98.4558 273.053C98.9236 272.838 99.4891 272.73 100.153 272.73C100.296 272.73 100.451 272.74 100.618 272.759C100.79 272.773 100.947 272.792 101.09 272.816C101.238 272.835 101.351 272.857 101.427 272.881H104.169V273.819L102.823 274.069C102.952 274.25 103.054 274.458 103.131 274.692C103.207 274.921 103.245 275.172 103.245 275.444C103.245 276.265 102.961 276.911 102.393 277.384C101.83 277.852 101.052 278.085 100.059 278.085C99.8208 278.076 99.5894 278.057 99.3651 278.028C99.1932 278.133 99.062 278.25 98.9713 278.379C98.8806 278.503 98.8353 278.644 98.8353 278.801C98.8353 278.93 98.8806 279.035 98.9713 279.116C99.062 279.193 99.1956 279.25 99.3722 279.288C99.5536 279.326 99.7731 279.345 100.031 279.345H101.398C102.267 279.345 102.93 279.529 103.388 279.897C103.847 280.264 104.076 280.803 104.076 281.515C104.076 282.417 103.703 283.111 102.959 283.598C102.214 284.089 101.143 284.335 99.7445 284.335ZM99.8089 283.154C100.396 283.154 100.89 283.097 101.291 282.982C101.692 282.868 101.995 282.703 102.2 282.488C102.405 282.278 102.508 282.028 102.508 281.737C102.508 281.479 102.443 281.281 102.315 281.142C102.186 281.004 101.992 280.908 101.735 280.856C101.477 280.803 101.157 280.777 100.775 280.777H99.5297C99.2195 280.777 98.9451 280.825 98.7064 280.92C98.4678 281.021 98.2816 281.164 98.148 281.35C98.0191 281.536 97.9547 281.76 97.9547 282.023C97.9547 282.386 98.1146 282.665 98.4344 282.86C98.7589 283.056 99.2171 283.154 99.8089 283.154ZM100.138 276.983C100.63 276.983 100.995 276.849 101.234 276.582C101.472 276.31 101.592 275.928 101.592 275.437C101.592 274.902 101.467 274.501 101.219 274.234C100.976 273.966 100.613 273.833 100.131 273.833C99.6586 273.833 99.2982 273.969 99.0501 274.241C98.8066 274.513 98.6849 274.916 98.6849 275.451C98.6849 275.933 98.8066 276.31 99.0501 276.582C99.2982 276.849 99.661 276.983 100.138 276.983ZM108.772 272.738C109.478 272.738 110.085 272.883 110.591 273.174C111.096 273.465 111.485 273.878 111.757 274.413C112.03 274.947 112.166 275.587 112.166 276.331V277.233H106.875C106.894 278.002 107.099 278.594 107.491 279.009C107.887 279.424 108.44 279.632 109.152 279.632C109.657 279.632 110.111 279.584 110.512 279.489C110.917 279.388 111.335 279.243 111.765 279.052V280.419C111.368 280.605 110.965 280.741 110.555 280.827C110.144 280.913 109.653 280.956 109.08 280.956C108.302 280.956 107.617 280.806 107.025 280.505C106.438 280.2 105.978 279.746 105.644 279.145C105.314 278.544 105.15 277.797 105.15 276.904C105.15 276.016 105.3 275.262 105.601 274.642C105.901 274.021 106.324 273.549 106.868 273.224C107.412 272.9 108.047 272.738 108.772 272.738ZM108.772 274.005C108.242 274.005 107.813 274.177 107.483 274.52C107.159 274.864 106.968 275.367 106.911 276.031H110.519C110.514 275.635 110.447 275.284 110.318 274.978C110.194 274.673 110.003 274.434 109.746 274.262C109.493 274.091 109.168 274.005 108.772 274.005ZM119.389 278.551C119.389 279.071 119.263 279.51 119.01 279.868C118.757 280.226 118.387 280.498 117.9 280.684C117.418 280.865 116.826 280.956 116.125 280.956C115.571 280.956 115.094 280.916 114.693 280.834C114.297 280.758 113.922 280.639 113.569 280.477V279.023C113.946 279.2 114.368 279.353 114.836 279.481C115.308 279.61 115.755 279.675 116.175 279.675C116.728 279.675 117.127 279.589 117.37 279.417C117.614 279.24 117.735 279.007 117.735 278.715C117.735 278.544 117.685 278.391 117.585 278.257C117.49 278.119 117.308 277.978 117.041 277.835C116.778 277.687 116.392 277.51 115.881 277.305C115.38 277.105 114.958 276.904 114.614 276.704C114.27 276.503 114.01 276.262 113.834 275.981C113.657 275.694 113.569 275.329 113.569 274.885C113.569 274.184 113.846 273.651 114.399 273.289C114.958 272.921 115.695 272.738 116.611 272.738C117.098 272.738 117.556 272.788 117.986 272.888C118.42 272.983 118.845 273.124 119.26 273.31L118.73 274.577C118.372 274.42 118.012 274.291 117.649 274.191C117.291 274.086 116.926 274.033 116.554 274.033C116.12 274.033 115.788 274.1 115.559 274.234C115.335 274.367 115.222 274.558 115.222 274.807C115.222 274.993 115.277 275.15 115.387 275.279C115.497 275.408 115.685 275.537 115.953 275.666C116.225 275.794 116.602 275.954 117.084 276.145C117.556 276.327 117.964 276.518 118.308 276.718C118.656 276.914 118.924 277.155 119.11 277.441C119.296 277.727 119.389 278.097 119.389 278.551ZM128.123 272.738C129.125 272.738 129.882 272.959 130.393 273.403C130.908 273.847 131.166 274.539 131.166 275.479V280.813H129.97L129.648 279.689H129.591C129.366 279.975 129.135 280.212 128.896 280.398C128.658 280.584 128.381 280.722 128.066 280.813C127.756 280.908 127.376 280.956 126.928 280.956C126.455 280.956 126.033 280.87 125.66 280.698C125.288 280.522 124.995 280.255 124.78 279.897C124.565 279.539 124.458 279.085 124.458 278.536C124.458 277.72 124.761 277.107 125.367 276.697C125.978 276.286 126.899 276.059 128.13 276.016L129.505 275.966V275.551C129.505 275.002 129.376 274.611 129.118 274.377C128.865 274.143 128.507 274.026 128.044 274.026C127.648 274.026 127.264 274.083 126.892 274.198C126.52 274.313 126.157 274.453 125.804 274.62L125.26 273.432C125.646 273.227 126.085 273.06 126.577 272.931C127.073 272.802 127.589 272.738 128.123 272.738ZM129.498 277.026L128.474 277.062C127.634 277.09 127.045 277.233 126.706 277.491C126.367 277.749 126.197 278.102 126.197 278.551C126.197 278.942 126.314 279.228 126.548 279.41C126.782 279.586 127.09 279.675 127.472 279.675C128.054 279.675 128.536 279.51 128.918 279.181C129.304 278.847 129.498 278.357 129.498 277.713V277.026ZM137.652 272.738C138.544 272.738 139.239 272.969 139.735 273.432C140.236 273.89 140.487 274.628 140.487 275.644V280.813H138.805V275.959C138.805 275.343 138.678 274.883 138.425 274.577C138.172 274.267 137.781 274.112 137.251 274.112C136.483 274.112 135.948 274.348 135.647 274.821C135.351 275.293 135.204 275.978 135.204 276.875V280.813H133.521V272.888H134.831L135.068 273.962H135.161C135.332 273.685 135.545 273.458 135.798 273.282C136.055 273.1 136.342 272.964 136.657 272.874C136.977 272.783 137.308 272.738 137.652 272.738ZM145.505 280.956C144.56 280.956 143.802 280.613 143.229 279.925C142.661 279.233 142.377 278.214 142.377 276.868C142.377 275.508 142.666 274.48 143.243 273.783C143.825 273.086 144.591 272.738 145.541 272.738C145.942 272.738 146.293 272.792 146.594 272.902C146.894 273.007 147.152 273.15 147.367 273.332C147.586 273.513 147.773 273.716 147.925 273.94H148.004C147.98 273.792 147.951 273.58 147.918 273.303C147.889 273.021 147.875 272.761 147.875 272.523V269.673H149.565V280.813H148.247L147.947 279.732H147.875C147.732 279.961 147.551 280.169 147.331 280.355C147.116 280.536 146.859 280.682 146.558 280.792C146.262 280.901 145.911 280.956 145.505 280.956ZM145.978 279.589C146.699 279.589 147.207 279.381 147.503 278.966C147.799 278.551 147.951 277.928 147.961 277.097V276.875C147.961 275.988 147.818 275.308 147.531 274.835C147.245 274.358 146.723 274.119 145.964 274.119C145.358 274.119 144.895 274.365 144.575 274.857C144.26 275.343 144.102 276.024 144.102 276.897C144.102 277.77 144.26 278.439 144.575 278.902C144.895 279.36 145.362 279.589 145.978 279.589ZM157.475 280.813H155.786V269.673H157.475V280.813ZM161.563 272.888V280.813H159.881V272.888H161.563ZM160.733 269.852C160.991 269.852 161.213 269.922 161.399 270.06C161.59 270.198 161.685 270.437 161.685 270.776C161.685 271.11 161.59 271.349 161.399 271.492C161.213 271.63 160.991 271.699 160.733 271.699C160.466 271.699 160.239 271.63 160.053 271.492C159.871 271.349 159.781 271.11 159.781 270.776C159.781 270.437 159.871 270.198 160.053 270.06C160.239 269.922 160.466 269.852 160.733 269.852ZM168.107 272.738C168.999 272.738 169.694 272.969 170.19 273.432C170.691 273.89 170.942 274.628 170.942 275.644V280.813H169.259V275.959C169.259 275.343 169.133 274.883 168.88 274.577C168.627 274.267 168.236 274.112 167.706 274.112C166.937 274.112 166.403 274.348 166.102 274.821C165.806 275.293 165.658 275.978 165.658 276.875V280.813H163.976V272.888H165.286L165.522 273.962H165.615C165.787 273.685 166 273.458 166.253 273.282C166.51 273.1 166.797 272.964 167.112 272.874C167.431 272.783 167.763 272.738 168.107 272.738ZM175.559 284.335C174.486 284.335 173.662 284.142 173.089 283.755C172.517 283.369 172.23 282.827 172.23 282.13C172.23 281.643 172.383 281.231 172.689 280.892C172.994 280.558 173.431 280.326 173.999 280.197C173.784 280.102 173.598 279.954 173.44 279.753C173.288 279.548 173.211 279.322 173.211 279.073C173.211 278.777 173.295 278.524 173.462 278.314C173.629 278.104 173.879 277.902 174.213 277.706C173.798 277.529 173.464 277.243 173.211 276.847C172.963 276.446 172.839 275.976 172.839 275.437C172.839 274.864 172.961 274.377 173.204 273.976C173.447 273.57 173.803 273.263 174.271 273.053C174.738 272.838 175.304 272.73 175.967 272.73C176.111 272.73 176.266 272.74 176.433 272.759C176.605 272.773 176.762 272.792 176.905 272.816C177.053 272.835 177.165 272.857 177.242 272.881H179.984V273.819L178.638 274.069C178.767 274.25 178.869 274.458 178.946 274.692C179.022 274.921 179.06 275.172 179.06 275.444C179.06 276.265 178.776 276.911 178.208 277.384C177.645 277.852 176.867 278.085 175.874 278.085C175.636 278.076 175.404 278.057 175.18 278.028C175.008 278.133 174.877 278.25 174.786 278.379C174.696 278.503 174.65 278.644 174.65 278.801C174.65 278.93 174.696 279.035 174.786 279.116C174.877 279.193 175.011 279.25 175.187 279.288C175.368 279.326 175.588 279.345 175.846 279.345H177.213C178.082 279.345 178.745 279.529 179.203 279.897C179.662 280.264 179.891 280.803 179.891 281.515C179.891 282.417 179.518 283.111 178.774 283.598C178.029 284.089 176.958 284.335 175.559 284.335ZM175.624 283.154C176.211 283.154 176.705 283.097 177.106 282.982C177.507 282.868 177.81 282.703 178.015 282.488C178.22 282.278 178.323 282.028 178.323 281.737C178.323 281.479 178.258 281.281 178.129 281.142C178.001 281.004 177.807 280.908 177.55 280.856C177.292 280.803 176.972 280.777 176.59 280.777H175.345C175.034 280.777 174.76 280.825 174.521 280.92C174.283 281.021 174.097 281.164 173.963 281.35C173.834 281.536 173.77 281.76 173.77 282.023C173.77 282.386 173.929 282.665 174.249 282.86C174.574 283.056 175.032 283.154 175.624 283.154ZM175.953 276.983C176.445 276.983 176.81 276.849 177.048 276.582C177.287 276.31 177.406 275.928 177.406 275.437C177.406 274.902 177.282 274.501 177.034 274.234C176.791 273.966 176.428 273.833 175.946 273.833C175.473 273.833 175.113 273.969 174.865 274.241C174.622 274.513 174.5 274.916 174.5 275.451C174.5 275.933 174.622 276.31 174.865 276.582C175.113 276.849 175.476 276.983 175.953 276.983ZM188.338 272.888V280.813H187.014L186.785 279.746H186.692C186.525 280.018 186.312 280.245 186.055 280.426C185.797 280.603 185.511 280.734 185.196 280.82C184.881 280.911 184.549 280.956 184.2 280.956C183.604 280.956 183.093 280.856 182.668 280.655C182.248 280.45 181.926 280.135 181.702 279.71C181.478 279.286 181.365 278.737 181.365 278.064V272.888H183.055V277.749C183.055 278.365 183.179 278.825 183.427 279.131C183.68 279.436 184.072 279.589 184.601 279.589C185.112 279.589 185.518 279.484 185.818 279.274C186.119 279.064 186.331 278.754 186.456 278.343C186.584 277.933 186.649 277.429 186.649 276.833V272.888H188.338ZM192.433 272.888V280.813H190.751V272.888H192.433ZM191.603 269.852C191.861 269.852 192.083 269.922 192.269 270.06C192.46 270.198 192.555 270.437 192.555 270.776C192.555 271.11 192.46 271.349 192.269 271.492C192.083 271.63 191.861 271.699 191.603 271.699C191.336 271.699 191.109 271.63 190.923 271.492C190.741 271.349 190.651 271.11 190.651 270.776C190.651 270.437 190.741 270.198 190.923 270.06C191.109 269.922 191.336 269.852 191.603 269.852ZM200.172 278.551C200.172 279.071 200.046 279.51 199.793 279.868C199.54 280.226 199.17 280.498 198.683 280.684C198.201 280.865 197.609 280.956 196.908 280.956C196.354 280.956 195.877 280.916 195.476 280.834C195.08 280.758 194.705 280.639 194.352 280.477V279.023C194.729 279.2 195.151 279.353 195.619 279.481C196.092 279.61 196.538 279.675 196.958 279.675C197.512 279.675 197.91 279.589 198.154 279.417C198.397 279.24 198.519 279.007 198.519 278.715C198.519 278.544 198.469 278.391 198.368 278.257C198.273 278.119 198.091 277.978 197.824 277.835C197.562 277.687 197.175 277.51 196.664 277.305C196.163 277.105 195.741 276.904 195.397 276.704C195.054 276.503 194.794 276.262 194.617 275.981C194.44 275.694 194.352 275.329 194.352 274.885C194.352 274.184 194.629 273.651 195.182 273.289C195.741 272.921 196.478 272.738 197.395 272.738C197.881 272.738 198.34 272.788 198.769 272.888C199.204 272.983 199.628 273.124 200.044 273.31L199.514 274.577C199.156 274.42 198.795 274.291 198.433 274.191C198.075 274.086 197.71 274.033 197.337 274.033C196.903 274.033 196.571 274.1 196.342 274.234C196.118 274.367 196.006 274.558 196.006 274.807C196.006 274.993 196.061 275.15 196.17 275.279C196.28 275.408 196.469 275.537 196.736 275.666C197.008 275.794 197.385 275.954 197.867 276.145C198.34 276.327 198.748 276.518 199.091 276.718C199.44 276.914 199.707 277.155 199.893 277.441C200.079 277.727 200.172 278.097 200.172 278.551ZM204.94 279.596C205.16 279.596 205.377 279.577 205.592 279.539C205.807 279.496 206.002 279.446 206.179 279.388V280.663C205.993 280.744 205.752 280.813 205.456 280.87C205.16 280.928 204.852 280.956 204.532 280.956C204.084 280.956 203.68 280.882 203.322 280.734C202.964 280.582 202.68 280.321 202.47 279.954C202.26 279.586 202.155 279.078 202.155 278.429V274.169H201.074V273.418L202.234 272.823L202.785 271.127H203.845V272.888H206.114V274.169H203.845V278.408C203.845 278.808 203.945 279.107 204.146 279.302C204.346 279.498 204.611 279.596 204.94 279.596ZM209.472 272.888V280.813H207.79V272.888H209.472ZM208.642 269.852C208.899 269.852 209.121 269.922 209.307 270.06C209.498 270.198 209.594 270.437 209.594 270.776C209.594 271.11 209.498 271.349 209.307 271.492C209.121 271.63 208.899 271.699 208.642 271.699C208.374 271.699 208.148 271.63 207.961 271.492C207.78 271.349 207.689 271.11 207.689 270.776C207.689 270.437 207.78 270.198 207.961 270.06C208.148 269.922 208.374 269.852 208.642 269.852ZM215.078 280.956C214.328 280.956 213.679 280.811 213.13 280.519C212.581 280.228 212.159 279.782 211.863 279.181C211.567 278.579 211.419 277.816 211.419 276.89C211.419 275.926 211.582 275.138 211.906 274.527C212.231 273.916 212.679 273.465 213.252 273.174C213.83 272.883 214.491 272.738 215.235 272.738C215.708 272.738 216.135 272.785 216.517 272.881C216.903 272.971 217.23 273.084 217.497 273.217L216.996 274.563C216.705 274.444 216.407 274.344 216.101 274.262C215.796 274.181 215.502 274.141 215.221 274.141C214.758 274.141 214.371 274.243 214.061 274.449C213.756 274.654 213.526 274.959 213.374 275.365C213.226 275.771 213.152 276.274 213.152 276.875C213.152 277.458 213.228 277.949 213.381 278.35C213.534 278.746 213.76 279.047 214.061 279.252C214.362 279.453 214.732 279.553 215.171 279.553C215.605 279.553 215.994 279.5 216.338 279.395C216.681 279.29 217.006 279.154 217.311 278.987V280.448C217.011 280.62 216.688 280.746 216.345 280.827C216.001 280.913 215.579 280.956 215.078 280.956ZM224.499 278.551C224.499 279.071 224.373 279.51 224.12 279.868C223.867 280.226 223.497 280.498 223.01 280.684C222.528 280.865 221.936 280.956 221.234 280.956C220.681 280.956 220.204 280.916 219.803 280.834C219.407 280.758 219.032 280.639 218.679 280.477V279.023C219.056 279.2 219.478 279.353 219.946 279.481C220.418 279.61 220.865 279.675 221.285 279.675C221.838 279.675 222.237 279.589 222.48 279.417C222.724 279.24 222.845 279.007 222.845 278.715C222.845 278.544 222.795 278.391 222.695 278.257C222.599 278.119 222.418 277.978 222.151 277.835C221.888 277.687 221.502 277.51 220.991 277.305C220.49 277.105 220.068 276.904 219.724 276.704C219.38 276.503 219.12 276.262 218.944 275.981C218.767 275.694 218.679 275.329 218.679 274.885C218.679 274.184 218.955 273.651 219.509 273.289C220.068 272.921 220.805 272.738 221.721 272.738C222.208 272.738 222.666 272.788 223.096 272.888C223.53 272.983 223.955 273.124 224.37 273.31L223.84 274.577C223.482 274.42 223.122 274.291 222.759 274.191C222.401 274.086 222.036 274.033 221.664 274.033C221.23 274.033 220.898 274.1 220.669 274.234C220.445 274.367 220.332 274.558 220.332 274.807C220.332 274.993 220.387 275.15 220.497 275.279C220.607 275.408 220.795 275.537 221.063 275.666C221.335 275.794 221.712 275.954 222.194 276.145C222.666 276.327 223.074 276.518 223.418 276.718C223.766 276.914 224.034 277.155 224.22 277.441C224.406 277.727 224.499 278.097 224.499 278.551Z" fill="#808080"/>
<mask id="path-17-inside-6_599_719" fill="white">
<path d="M24.9701 307.462C24.9701 306.827 25.485 306.312 26.1202 306.312H252.65C253.285 306.312 253.8 306.827 253.8 307.462V351.484C253.8 352.119 253.285 352.634 252.65 352.634H26.1201C25.485 352.634 24.9701 352.119 24.9701 351.484V307.462Z"/>
</mask>
<path d="M24.9701 307.462C24.9701 306.827 25.485 306.312 26.1202 306.312H252.65C253.285 306.312 253.8 306.827 253.8 307.462V351.484C253.8 352.119 253.285 352.634 252.65 352.634H26.1201C25.485 352.634 24.9701 352.119 24.9701 351.484V307.462Z" fill="white"/>
<path d="M24.9701 306.312H253.8H24.9701ZM253.8 352.634H24.9701H253.8ZM26.1202 352.634C22.9444 352.634 20.3699 350.059 20.3699 346.883V312.062C20.3699 308.887 22.9444 306.312 26.1202 306.312H29.5703C29.5703 306.312 29.5703 306.827 29.5703 307.462V351.484C29.5703 352.119 29.5703 352.634 29.5703 352.634H26.1202ZM253.8 306.312V352.634V306.312Z" fill="#A379DE" mask="url(#path-17-inside-6_599_719)"/>
<path d="M50.3538 326.316C49.8527 326.316 49.4041 326.407 49.0079 326.588C48.6166 326.77 48.2849 327.032 48.0128 327.376C47.7408 327.715 47.5331 328.127 47.39 328.614C47.2468 329.096 47.1752 329.64 47.1752 330.247C47.1752 331.058 47.2897 331.757 47.5188 332.344C47.7479 332.926 48.0963 333.375 48.5641 333.69C49.0318 334 49.6236 334.155 50.3395 334.155C50.7834 334.155 51.2153 334.112 51.6353 334.027C52.0553 333.941 52.4896 333.824 52.9383 333.676V335.136C52.5135 335.303 52.084 335.425 51.6496 335.501C51.2153 335.578 50.7142 335.616 50.1462 335.616C49.0771 335.616 48.1894 335.394 47.483 334.95C46.7814 334.506 46.2564 333.881 45.908 333.074C45.5644 332.268 45.3926 331.323 45.3926 330.239C45.3926 329.447 45.5023 328.722 45.7219 328.063C45.9414 327.404 46.2612 326.836 46.6812 326.359C47.1012 325.877 47.6191 325.507 48.2347 325.249C48.8552 324.987 49.5639 324.856 50.361 324.856C50.886 324.856 51.4014 324.915 51.9074 325.035C52.418 325.149 52.8905 325.314 53.3249 325.529L52.7235 326.946C52.3608 326.774 51.9813 326.626 51.5852 326.502C51.1891 326.378 50.7786 326.316 50.3538 326.316ZM61.9229 327.548V335.473H60.5985L60.3694 334.406H60.2764C60.1093 334.678 59.8969 334.905 59.6392 335.086C59.3815 335.263 59.0951 335.394 58.7801 335.48C58.4651 335.57 58.1334 335.616 57.785 335.616C57.1884 335.616 56.6777 335.516 56.2529 335.315C55.8329 335.11 55.5108 334.795 55.2865 334.37C55.0621 333.945 54.95 333.397 54.95 332.724V327.548H56.6395V332.409C56.6395 333.024 56.7636 333.485 57.0118 333.79C57.2648 334.096 57.6561 334.248 58.1859 334.248C58.6966 334.248 59.1023 334.143 59.4029 333.933C59.7036 333.723 59.916 333.413 60.0401 333.003C60.169 332.592 60.2334 332.089 60.2334 331.492V327.548H61.9229ZM66.0251 335.473H64.3356V324.333H66.0251V335.473ZM71.3801 334.256C71.5997 334.256 71.8168 334.237 72.0316 334.198C72.2464 334.155 72.4421 334.105 72.6186 334.048V335.322C72.4325 335.403 72.1915 335.473 71.8956 335.53C71.5997 335.587 71.2918 335.616 70.9721 335.616C70.5234 335.616 70.1201 335.542 69.7622 335.394C69.4042 335.241 69.1202 334.981 68.9102 334.614C68.7002 334.246 68.5952 333.738 68.5952 333.089V328.829H67.5142V328.077L68.674 327.483L69.2252 325.786H70.2848V327.548H72.5542V328.829H70.2848V333.067C70.2848 333.468 70.385 333.766 70.5855 333.962C70.7859 334.158 71.0508 334.256 71.3801 334.256ZM81.138 327.548V335.473H79.8135L79.5845 334.406H79.4914C79.3243 334.678 79.1119 334.905 78.8542 335.086C78.5965 335.263 78.3101 335.394 77.9951 335.48C77.6801 335.57 77.3484 335.616 77 335.616C76.4034 335.616 75.8927 335.516 75.468 335.315C75.048 335.11 74.7258 334.795 74.5015 334.37C74.2772 333.945 74.165 333.397 74.165 332.724V327.548H75.8546V332.409C75.8546 333.024 75.9786 333.485 76.2268 333.79C76.4798 334.096 76.8712 334.248 77.4009 334.248C77.9116 334.248 78.3173 334.143 78.618 333.933C78.9187 333.723 79.131 333.413 79.2551 333.003C79.384 332.592 79.4484 332.089 79.4484 331.492V327.548H81.138ZM87.5669 327.397C87.7005 327.397 87.8461 327.404 88.0036 327.419C88.1611 327.433 88.2971 327.452 88.4116 327.476L88.2541 329.051C88.1539 329.022 88.0298 329.001 87.8819 328.987C87.7387 328.972 87.6098 328.965 87.4953 328.965C87.1946 328.965 86.9082 329.015 86.6362 329.115C86.3641 329.211 86.1231 329.359 85.9131 329.559C85.7031 329.755 85.5384 330.001 85.4191 330.297C85.2998 330.593 85.2401 330.936 85.2401 331.328V335.473H83.5506V327.548H84.8679L85.097 328.944H85.1757C85.3332 328.662 85.5289 328.404 85.7628 328.17C85.9966 327.937 86.2639 327.75 86.5646 327.612C86.87 327.469 87.2041 327.397 87.5669 327.397ZM92.9863 327.397C93.9886 327.397 94.745 327.619 95.2557 328.063C95.7712 328.507 96.0289 329.199 96.0289 330.139V335.473H94.8333L94.5112 334.349H94.4539C94.2296 334.635 93.9981 334.871 93.7595 335.057C93.5208 335.244 93.244 335.382 92.929 335.473C92.6188 335.568 92.2394 335.616 91.7907 335.616C91.3182 335.616 90.8958 335.53 90.5236 335.358C90.1513 335.182 89.8578 334.914 89.643 334.556C89.4282 334.198 89.3208 333.745 89.3208 333.196C89.3208 332.38 89.6239 331.767 90.23 331.356C90.8409 330.946 91.7621 330.719 92.9934 330.676L94.368 330.626V330.211C94.368 329.662 94.2391 329.27 93.9814 329.037C93.7285 328.803 93.3705 328.686 92.9075 328.686C92.5114 328.686 92.1272 328.743 91.7549 328.858C91.3827 328.972 91.0199 329.113 90.6667 329.28L90.1226 328.092C90.5092 327.886 90.9483 327.719 91.4399 327.59C91.9363 327.462 92.4517 327.397 92.9863 327.397ZM94.3608 331.685L93.3371 331.721C92.4971 331.75 91.9077 331.893 91.5688 332.151C91.2299 332.409 91.0605 332.762 91.0605 333.21C91.0605 333.602 91.1774 333.888 91.4113 334.069C91.6452 334.246 91.953 334.334 92.3348 334.334C92.9171 334.334 93.3991 334.17 93.781 333.84C94.1675 333.506 94.3608 333.017 94.3608 332.373V331.685ZM100.074 335.473H98.3843V324.333H100.074V335.473ZM111.614 333.21C111.614 333.731 111.488 334.17 111.235 334.528C110.982 334.886 110.612 335.158 110.125 335.344C109.643 335.525 109.051 335.616 108.35 335.616C107.796 335.616 107.319 335.575 106.918 335.494C106.522 335.418 106.147 335.298 105.794 335.136V333.683C106.171 333.859 106.593 334.012 107.061 334.141C107.534 334.27 107.98 334.334 108.4 334.334C108.953 334.334 109.352 334.248 109.595 334.077C109.839 333.9 109.961 333.666 109.961 333.375C109.961 333.203 109.91 333.05 109.81 332.917C109.715 332.778 109.533 332.638 109.266 332.494C109.004 332.347 108.617 332.17 108.106 331.965C107.605 331.764 107.183 331.564 106.839 331.363C106.496 331.163 106.235 330.922 106.059 330.64C105.882 330.354 105.794 329.989 105.794 329.545C105.794 328.843 106.071 328.311 106.624 327.948C107.183 327.581 107.92 327.397 108.837 327.397C109.323 327.397 109.782 327.447 110.211 327.548C110.645 327.643 111.07 327.784 111.485 327.97L110.956 329.237C110.598 329.08 110.237 328.951 109.875 328.85C109.517 328.745 109.152 328.693 108.779 328.693C108.345 328.693 108.013 328.76 107.784 328.893C107.56 329.027 107.448 329.218 107.448 329.466C107.448 329.652 107.503 329.81 107.612 329.939C107.722 330.068 107.911 330.196 108.178 330.325C108.45 330.454 108.827 330.614 109.309 330.805C109.782 330.986 110.19 331.177 110.533 331.378C110.882 331.573 111.149 331.814 111.335 332.101C111.521 332.387 111.614 332.757 111.614 333.21ZM116.382 334.256C116.602 334.256 116.819 334.237 117.034 334.198C117.248 334.155 117.444 334.105 117.621 334.048V335.322C117.435 335.403 117.194 335.473 116.898 335.53C116.602 335.587 116.294 335.616 115.974 335.616C115.526 335.616 115.122 335.542 114.764 335.394C114.406 335.241 114.122 334.981 113.912 334.614C113.702 334.246 113.597 333.738 113.597 333.089V328.829H112.516V328.077L113.676 327.483L114.227 325.786H115.287V327.548H117.556V328.829H115.287V333.067C115.287 333.468 115.387 333.766 115.588 333.962C115.788 334.158 116.053 334.256 116.382 334.256ZM126.14 327.548V335.473H124.816L124.587 334.406H124.494C124.326 334.678 124.114 334.905 123.856 335.086C123.599 335.263 123.312 335.394 122.997 335.48C122.682 335.57 122.351 335.616 122.002 335.616C121.406 335.616 120.895 335.516 120.47 335.315C120.05 335.11 119.728 334.795 119.504 334.37C119.279 333.945 119.167 333.397 119.167 332.724V327.548H120.857V332.409C120.857 333.024 120.981 333.485 121.229 333.79C121.482 334.096 121.873 334.248 122.403 334.248C122.914 334.248 123.319 334.143 123.62 333.933C123.921 333.723 124.133 333.413 124.257 333.003C124.386 332.592 124.451 332.089 124.451 331.492V327.548H126.14ZM131.216 335.616C130.271 335.616 129.512 335.272 128.939 334.585C128.371 333.893 128.087 332.874 128.087 331.528C128.087 330.168 128.376 329.139 128.954 328.442C129.536 327.746 130.302 327.397 131.252 327.397C131.653 327.397 132.003 327.452 132.304 327.562C132.605 327.667 132.862 327.81 133.077 327.991C133.297 328.173 133.483 328.376 133.636 328.6H133.714C133.691 328.452 133.662 328.24 133.629 327.963C133.6 327.681 133.586 327.421 133.586 327.182V324.333H135.275V335.473H133.958L133.657 334.392H133.586C133.442 334.621 133.261 334.828 133.041 335.014C132.827 335.196 132.569 335.341 132.268 335.451C131.972 335.561 131.622 335.616 131.216 335.616ZM131.688 334.248C132.409 334.248 132.917 334.041 133.213 333.626C133.509 333.21 133.662 332.588 133.671 331.757V331.535C133.671 330.647 133.528 329.967 133.242 329.495C132.956 329.018 132.433 328.779 131.674 328.779C131.068 328.779 130.605 329.025 130.285 329.516C129.97 330.003 129.813 330.683 129.813 331.557C129.813 332.43 129.97 333.098 130.285 333.561C130.605 334.019 131.073 334.248 131.688 334.248ZM139.37 327.548V335.473H137.688V327.548H139.37ZM138.54 324.512C138.797 324.512 139.019 324.581 139.205 324.72C139.396 324.858 139.492 325.097 139.492 325.436C139.492 325.77 139.396 326.008 139.205 326.152C139.019 326.29 138.797 326.359 138.54 326.359C138.272 326.359 138.046 326.29 137.86 326.152C137.678 326.008 137.588 325.77 137.588 325.436C137.588 325.097 137.678 324.858 137.86 324.72C138.046 324.581 138.272 324.512 138.54 324.512ZM144.94 327.397C145.646 327.397 146.252 327.543 146.758 327.834C147.264 328.125 147.653 328.538 147.925 329.072C148.197 329.607 148.333 330.247 148.333 330.991V331.893H143.043C143.062 332.662 143.267 333.253 143.658 333.669C144.055 334.084 144.608 334.291 145.319 334.291C145.825 334.291 146.279 334.244 146.68 334.148C147.085 334.048 147.503 333.902 147.932 333.712V335.079C147.536 335.265 147.133 335.401 146.723 335.487C146.312 335.573 145.82 335.616 145.248 335.616C144.47 335.616 143.785 335.465 143.193 335.165C142.606 334.859 142.145 334.406 141.811 333.805C141.482 333.203 141.317 332.456 141.317 331.564C141.317 330.676 141.468 329.922 141.768 329.302C142.069 328.681 142.491 328.209 143.036 327.884C143.58 327.559 144.214 327.397 144.94 327.397ZM144.94 328.664C144.41 328.664 143.981 328.836 143.651 329.18C143.327 329.523 143.136 330.027 143.079 330.69H146.687C146.682 330.294 146.615 329.943 146.486 329.638C146.362 329.333 146.171 329.094 145.914 328.922C145.661 328.75 145.336 328.664 144.94 328.664ZM155.557 333.21C155.557 333.731 155.43 334.17 155.177 334.528C154.924 334.886 154.555 335.158 154.068 335.344C153.586 335.525 152.994 335.616 152.292 335.616C151.739 335.616 151.261 335.575 150.86 335.494C150.464 335.418 150.09 335.298 149.736 335.136V333.683C150.114 333.859 150.536 334.012 151.004 334.141C151.476 334.27 151.922 334.334 152.342 334.334C152.896 334.334 153.295 334.248 153.538 334.077C153.781 333.9 153.903 333.666 153.903 333.375C153.903 333.203 153.853 333.05 153.753 332.917C153.657 332.778 153.476 332.638 153.209 332.494C152.946 332.347 152.56 332.17 152.049 331.965C151.548 331.764 151.125 331.564 150.782 331.363C150.438 331.163 150.178 330.922 150.001 330.64C149.825 330.354 149.736 329.989 149.736 329.545C149.736 328.843 150.013 328.311 150.567 327.948C151.125 327.581 151.863 327.397 152.779 327.397C153.266 327.397 153.724 327.447 154.154 327.548C154.588 327.643 155.013 327.784 155.428 327.97L154.898 329.237C154.54 329.08 154.18 328.951 153.817 328.85C153.459 328.745 153.094 328.693 152.722 328.693C152.288 328.693 151.956 328.76 151.727 328.893C151.502 329.027 151.39 329.218 151.39 329.466C151.39 329.652 151.445 329.81 151.555 329.939C151.665 330.068 151.853 330.196 152.12 330.325C152.393 330.454 152.77 330.614 153.252 330.805C153.724 330.986 154.132 331.177 154.476 331.378C154.824 331.573 155.092 331.814 155.278 332.101C155.464 332.387 155.557 332.757 155.557 333.21Z" fill="#808080"/>
<rect x="24.9701" y="34.1133" width="13.8007" height="13.8007" rx="6.90034" fill="#D9D9D9"/>
<path d="M63.3577 47.0137H61.6395V42.2958H56.8143V47.0137H55.1033V36.5471H56.8143V40.8282H61.6395V36.5471H63.3577V47.0137ZM70.8891 47.0137L70.5526 45.9112H70.4953C70.1135 46.3932 69.7293 46.7225 69.3427 46.8991C68.9561 47.0709 68.4598 47.1569 67.8536 47.1569C67.0757 47.1569 66.4671 46.9469 66.0281 46.5269C65.5937 46.1069 65.3766 45.5126 65.3766 44.7442C65.3766 43.9281 65.6796 43.3124 66.2858 42.8972C66.8919 42.482 67.8154 42.2553 69.0564 42.2171L70.4237 42.1741V41.7517C70.4237 41.2458 70.3044 40.8688 70.0658 40.6206C69.8319 40.3676 69.4668 40.2412 68.9704 40.2412C68.5648 40.2412 68.1758 40.3008 67.8035 40.4201C67.4312 40.5395 67.0733 40.6803 66.7296 40.8425L66.1856 39.6398C66.6151 39.4155 67.0852 39.246 67.5959 39.1315C68.1066 39.0122 68.5886 38.9525 69.042 38.9525C70.0491 38.9525 70.8079 39.1721 71.3186 39.6112C71.8341 40.0503 72.0918 40.7399 72.0918 41.6801V47.0137H70.8891ZM68.3834 45.8682C68.9943 45.8682 69.4835 45.6988 69.851 45.3599C70.2233 45.0163 70.4094 44.5366 70.4094 43.9209V43.2337L69.3928 43.2766C68.6006 43.3053 68.0231 43.4389 67.6603 43.6775C67.3024 43.9114 67.1234 44.2717 67.1234 44.7586C67.1234 45.1117 67.2284 45.3862 67.4384 45.5819C67.6484 45.7728 67.9634 45.8682 68.3834 45.8682ZM78.4849 38.9525C79.4729 38.9525 80.2413 39.3105 80.7901 40.0264C81.3438 40.7423 81.6206 41.747 81.6206 43.0404C81.6206 44.3386 81.3414 45.3504 80.783 46.0758C80.2246 46.7965 79.449 47.1569 78.4563 47.1569C77.454 47.1569 76.676 46.7965 76.1224 46.0758H76.0078L75.7 47.0137H74.44V35.8741H76.1224V38.523C76.1224 38.7187 76.1128 39.0098 76.0938 39.3964C76.0747 39.783 76.0603 40.0288 76.0508 40.1338H76.1224C76.6569 39.3463 77.4444 38.9525 78.4849 38.9525ZM78.0482 40.3271C77.3705 40.3271 76.8813 40.5275 76.5806 40.9284C76.2847 41.3246 76.1319 41.9904 76.1224 42.9258V43.0404C76.1224 44.0045 76.2751 44.7037 76.5806 45.138C76.886 45.5675 77.3848 45.7823 78.0768 45.7823C78.6734 45.7823 79.1244 45.5461 79.4299 45.0736C79.7401 44.6011 79.8952 43.9186 79.8952 43.0261C79.8952 41.2267 79.2796 40.3271 78.0482 40.3271ZM85.2574 47.0137H83.575V39.0957H85.2574V47.0137ZM83.4748 36.9981C83.4748 36.6974 83.5559 36.4659 83.7182 36.3037C83.8852 36.1414 84.1215 36.0602 84.427 36.0602C84.7229 36.0602 84.952 36.1414 85.1142 36.3037C85.2813 36.4659 85.3648 36.6974 85.3648 36.9981C85.3648 37.2845 85.2813 37.5112 85.1142 37.6782C84.952 37.8405 84.7229 37.9216 84.427 37.9216C84.1215 37.9216 83.8852 37.8405 83.7182 37.6782C83.5559 37.5112 83.4748 37.2845 83.4748 36.9981ZM90.6196 45.7966C91.03 45.7966 91.4405 45.7322 91.8509 45.6033V46.8705C91.6648 46.9516 91.4238 47.0184 91.1279 47.0709C90.8367 47.1282 90.5337 47.1569 90.2187 47.1569C88.6246 47.1569 87.8275 46.3169 87.8275 44.6368V40.37H86.7465V39.6255L87.9063 39.0098L88.479 37.3346H89.5171V39.0957H91.7722V40.37H89.5171V44.6082C89.5171 45.0139 89.6173 45.3146 89.8178 45.5103C90.023 45.7012 90.2903 45.7966 90.6196 45.7966ZM98.7595 44.7586C98.7595 45.5317 98.4779 46.1259 97.9147 46.5412C97.3515 46.9516 96.5449 47.1569 95.4949 47.1569C94.4402 47.1569 93.593 46.997 92.9534 46.6772V45.2239C93.8841 45.6534 94.7504 45.8682 95.5522 45.8682C96.5879 45.8682 97.1057 45.5556 97.1057 44.9304C97.1057 44.7299 97.0485 44.5629 96.9339 44.4292C96.8194 44.2956 96.6308 44.1572 96.3683 44.014C96.1058 43.8708 95.7407 43.7086 95.273 43.5272C94.3614 43.174 93.7433 42.8208 93.4188 42.4676C93.099 42.1145 92.9391 41.6563 92.9391 41.0931C92.9391 40.4154 93.2112 39.8904 93.7553 39.5181C94.3041 39.141 95.0487 38.9525 95.9889 38.9525C96.9196 38.9525 97.8002 39.141 98.6306 39.5181L98.0865 40.7853C97.2322 40.4321 96.5139 40.2555 95.9316 40.2555C95.0439 40.2555 94.6 40.5084 94.6 41.0143C94.6 41.2625 94.7146 41.4725 94.9437 41.6443C95.1775 41.8162 95.6834 42.0524 96.4614 42.3531C97.1153 42.6061 97.5902 42.8375 97.8861 43.0475C98.182 43.2575 98.4015 43.5009 98.5447 43.7778C98.6879 44.0498 98.7595 44.3767 98.7595 44.7586Z" fill="black"/>
<path d="M34.864 77.8364H32.6518V73.319H28.5067V77.8364H26.2874V67.3698H28.5067V71.472H32.6518V67.3698H34.864V77.8364ZM40.6414 69.6822C41.3811 69.6822 42.0183 69.8254 42.5528 70.1118C43.0874 70.3933 43.5002 70.8038 43.7914 71.3431C44.0825 71.8824 44.2281 72.5411 44.2281 73.319V74.3786H39.0664C39.0902 74.9943 39.274 75.4787 39.6176 75.8319C39.966 76.1803 40.4481 76.3545 41.0638 76.3545C41.5744 76.3545 42.0422 76.302 42.4669 76.197C42.8917 76.092 43.3284 75.9345 43.7771 75.7245V77.414C43.3809 77.6097 42.9657 77.7529 42.5314 77.8436C42.1018 77.9343 41.5792 77.9796 40.9635 77.9796C40.1617 77.9796 39.4506 77.8317 38.8301 77.5357C38.2144 77.2398 37.73 76.7888 37.3768 76.1827C37.0284 75.5765 36.8542 74.8129 36.8542 73.8918C36.8542 72.9563 37.0117 72.1783 37.3267 71.5579C37.6465 70.9327 38.0903 70.4649 38.6583 70.1547C39.2263 69.8397 39.8873 69.6822 40.6414 69.6822ZM40.6557 71.2357C40.2309 71.2357 39.8777 71.3718 39.5961 71.6438C39.3193 71.9158 39.1594 72.343 39.1165 72.9253H42.1806C42.1758 72.6007 42.1161 72.312 42.0016 72.059C41.8918 71.8061 41.7248 71.6056 41.5005 71.4577C41.2809 71.3097 40.9993 71.2357 40.6557 71.2357ZM49.2824 69.6679C50.3563 69.6679 51.1796 69.9018 51.7523 70.3695C52.325 70.8372 52.6114 71.5483 52.6114 72.5029V77.8364H51.0865L50.6641 76.7482H50.6068C50.3778 77.0346 50.1439 77.2685 49.9052 77.4498C49.6666 77.6312 49.3922 77.7648 49.082 77.8507C48.7717 77.9367 48.3947 77.9796 47.9508 77.9796C47.4783 77.9796 47.0535 77.8889 46.6765 77.7076C46.3042 77.5262 46.0107 77.2494 45.7959 76.8771C45.5812 76.5001 45.4738 76.0228 45.4738 75.4453C45.4738 74.5957 45.7721 73.9705 46.3687 73.5696C46.9652 73.1639 47.8601 72.9396 49.0533 72.8966L50.4422 72.8537V72.5029C50.4422 72.0829 50.3324 71.7751 50.1129 71.5794C49.8933 71.3837 49.5879 71.2858 49.1965 71.2858C48.8099 71.2858 48.4305 71.3407 48.0582 71.4505C47.6859 71.5603 47.3137 71.6987 46.9414 71.8657L46.2183 70.391C46.6431 70.1666 47.118 69.99 47.643 69.8612C48.1727 69.7323 48.7192 69.6679 49.2824 69.6679ZM50.4422 74.128L49.5974 74.1566C48.891 74.1757 48.3995 74.3022 48.1226 74.5361C47.8506 74.7699 47.7146 75.0778 47.7146 75.4596C47.7146 75.7937 47.8124 76.0323 48.0081 76.1755C48.2038 76.3139 48.4591 76.3831 48.7741 76.3831C49.2418 76.3831 49.6356 76.2447 49.9554 75.9679C50.2799 75.6911 50.4422 75.2973 50.4422 74.7866V74.128ZM57.05 77.8364H54.8665V66.6969H57.05V77.8364ZM62.72 76.2399C62.9587 76.2399 63.1902 76.2161 63.4145 76.1684C63.6436 76.1206 63.8703 76.061 64.0946 75.9894V77.6145C63.8607 77.7195 63.5696 77.8054 63.2212 77.8722C62.8775 77.9438 62.5005 77.9796 62.09 77.9796C61.6128 77.9796 61.1832 77.9032 60.8014 77.7505C60.4244 77.593 60.1261 77.3234 59.9065 76.9415C59.6917 76.5549 59.5844 76.018 59.5844 75.3307V71.472H58.5391V70.5485L59.7419 69.8182L60.3719 68.1287H61.7679V69.8325H64.0087V71.472H61.7679V75.3307C61.7679 75.6362 61.8538 75.8653 62.0256 76.018C62.2022 76.166 62.4337 76.2399 62.72 76.2399ZM67.9032 66.6969V68.9663C67.9032 69.3624 67.8889 69.7395 67.8603 70.0974C67.8364 70.4554 67.8173 70.7083 67.803 70.8563H67.9176C68.0894 70.5795 68.2922 70.3552 68.5261 70.1833C68.7647 70.0115 69.0272 69.885 69.3136 69.8039C69.5999 69.7228 69.9078 69.6822 70.2371 69.6822C70.8146 69.6822 71.3181 69.7848 71.7477 69.99C72.1772 70.1905 72.5113 70.5079 72.7499 70.9422C72.9886 71.3718 73.1079 71.9302 73.1079 72.6174V77.8364H70.9244V73.1615C70.9244 72.5888 70.8194 72.1569 70.6094 71.8657C70.3994 71.5746 70.0748 71.429 69.6357 71.429C69.1966 71.429 68.8506 71.5316 68.5977 71.7369C68.3447 71.9373 68.1657 72.2356 68.0607 72.6318C67.9557 73.0231 67.9032 73.5028 67.9032 74.0707V77.8364H65.7197V66.6969H67.9032ZM82.4434 69.6679C83.5172 69.6679 84.3405 69.9018 84.9133 70.3695C85.486 70.8372 85.7724 71.5483 85.7724 72.5029V77.8364H84.2475L83.8251 76.7482H83.7678C83.5387 77.0346 83.3049 77.2685 83.0662 77.4498C82.8276 77.6312 82.5531 77.7648 82.2429 77.8507C81.9327 77.9367 81.5556 77.9796 81.1118 77.9796C80.6393 77.9796 80.2145 77.8889 79.8375 77.7076C79.4652 77.5262 79.1717 77.2494 78.9569 76.8771C78.7421 76.5001 78.6347 76.0228 78.6347 75.4453C78.6347 74.5957 78.933 73.9705 79.5296 73.5696C80.1262 73.1639 81.0211 72.9396 82.2143 72.8966L83.6031 72.8537V72.5029C83.6031 72.0829 83.4934 71.7751 83.2738 71.5794C83.0543 71.3837 82.7488 71.2858 82.3575 71.2858C81.9709 71.2858 81.5914 71.3407 81.2192 71.4505C80.8469 71.5603 80.4746 71.6987 80.1023 71.8657L79.3793 70.391C79.804 70.1666 80.2789 69.99 80.8039 69.8612C81.3337 69.7323 81.8802 69.6679 82.4434 69.6679ZM83.6031 74.128L82.7584 74.1566C82.052 74.1757 81.5604 74.3022 81.2836 74.5361C81.0116 74.7699 80.8755 75.0778 80.8755 75.4596C80.8755 75.7937 80.9734 76.0323 81.1691 76.1755C81.3647 76.3139 81.6201 76.3831 81.9351 76.3831C82.4028 76.3831 82.7966 76.2447 83.1163 75.9679C83.4409 75.6911 83.6031 75.2973 83.6031 74.7866V74.128ZM92.5735 69.6822C93.4278 69.6822 94.1151 69.9161 94.6353 70.3838C95.1556 70.8468 95.4157 71.5913 95.4157 72.6174V77.8364H93.2321V73.1615C93.2321 72.5888 93.1271 72.1569 92.9171 71.8657C92.7119 71.5746 92.3874 71.429 91.9435 71.429C91.2753 71.429 90.8195 71.6557 90.5761 72.1091C90.3327 72.5626 90.211 73.2164 90.211 74.0707V77.8364H88.0275V69.8325H89.6955L89.9891 70.8563H90.1108C90.2826 70.5795 90.495 70.3552 90.7479 70.1833C91.0057 70.0115 91.2896 69.885 91.5999 69.8039C91.9149 69.7228 92.2394 69.6822 92.5735 69.6822ZM100.198 77.9796C99.3054 77.9796 98.5776 77.6312 98.0144 76.9344C97.456 76.2328 97.1768 75.2043 97.1768 73.8488C97.1768 72.479 97.4608 71.4433 98.0287 70.7418C98.5967 70.0354 99.3389 69.6822 100.255 69.6822C100.637 69.6822 100.974 69.7347 101.265 69.8397C101.556 69.9447 101.806 70.0855 102.016 70.2621C102.231 70.4387 102.412 70.6368 102.56 70.8563H102.632C102.603 70.7036 102.568 70.4793 102.525 70.1833C102.486 69.8827 102.467 69.5748 102.467 69.2598V66.6969H104.658V77.8364H102.983L102.56 76.7984H102.467C102.329 77.0179 102.155 77.2184 101.945 77.3997C101.74 77.5763 101.494 77.7171 101.207 77.8221C100.921 77.9271 100.585 77.9796 100.198 77.9796ZM100.964 76.2399C101.561 76.2399 101.981 76.0634 102.224 75.7102C102.472 75.3522 102.603 74.8153 102.618 74.0994V73.8631C102.618 73.0852 102.498 72.491 102.26 72.0805C102.021 71.6653 101.577 71.4577 100.928 71.4577C100.446 71.4577 100.069 71.6653 99.797 72.0805C99.525 72.4957 99.389 73.0947 99.389 73.8774C99.389 74.6602 99.525 75.2496 99.797 75.6457C100.074 76.0419 100.463 76.2399 100.964 76.2399ZM115.354 77.8364L112.834 69.6249H112.769C112.779 69.8206 112.793 70.1165 112.812 70.5127C112.836 70.904 112.858 71.3216 112.877 71.7655C112.896 72.2094 112.905 72.6103 112.905 72.9682V77.8364H110.922V67.3698H113.943L116.42 75.3737H116.463L119.091 67.3698H122.112V77.8364H120.043V72.8823C120.043 72.553 120.048 72.1736 120.057 71.744C120.072 71.3145 120.088 70.9064 120.107 70.5198C120.126 70.1285 120.141 69.8349 120.15 69.6393H120.086L117.387 77.8364H115.354ZM127.882 69.6822C128.622 69.6822 129.259 69.8254 129.794 70.1118C130.328 70.3933 130.741 70.8038 131.032 71.3431C131.323 71.8824 131.469 72.5411 131.469 73.319V74.3786H126.307C126.331 74.9943 126.515 75.4787 126.858 75.8319C127.207 76.1803 127.689 76.3545 128.305 76.3545C128.815 76.3545 129.283 76.302 129.708 76.197C130.133 76.092 130.569 75.9345 131.018 75.7245V77.414C130.622 77.6097 130.207 77.7529 129.772 77.8436C129.343 77.9343 128.82 77.9796 128.204 77.9796C127.403 77.9796 126.691 77.8317 126.071 77.5357C125.455 77.2398 124.971 76.7888 124.618 76.1827C124.269 75.5765 124.095 74.8129 124.095 73.8918C124.095 72.9563 124.253 72.1783 124.568 71.5579C124.887 70.9327 125.331 70.4649 125.899 70.1547C126.467 69.8397 127.128 69.6822 127.882 69.6822ZM127.897 71.2357C127.472 71.2357 127.119 71.3718 126.837 71.6438C126.56 71.9158 126.4 72.343 126.357 72.9253H129.421C129.417 72.6007 129.357 72.312 129.242 72.059C129.133 71.8061 128.966 71.6056 128.741 71.4577C128.522 71.3097 128.24 71.2357 127.897 71.2357ZM135.779 77.9796C134.886 77.9796 134.158 77.6312 133.595 76.9344C133.037 76.2328 132.758 75.2043 132.758 73.8488C132.758 72.479 133.042 71.4433 133.609 70.7418C134.177 70.0354 134.92 69.6822 135.836 69.6822C136.218 69.6822 136.554 69.7347 136.845 69.8397C137.137 69.9447 137.387 70.0855 137.597 70.2621C137.812 70.4387 137.993 70.6368 138.141 70.8563H138.213C138.184 70.7036 138.148 70.4793 138.105 70.1833C138.067 69.8827 138.048 69.5748 138.048 69.2598V66.6969H140.239V77.8364H138.564L138.141 76.7984H138.048C137.91 77.0179 137.736 77.2184 137.526 77.3997C137.32 77.5763 137.074 77.7171 136.788 77.8221C136.502 77.9271 136.165 77.9796 135.779 77.9796ZM136.545 76.2399C137.141 76.2399 137.561 76.0634 137.805 75.7102C138.053 75.3522 138.184 74.8153 138.198 74.0994V73.8631C138.198 73.0852 138.079 72.491 137.841 72.0805C137.602 71.6653 137.158 71.4577 136.509 71.4577C136.027 71.4577 135.65 71.6653 135.378 72.0805C135.106 72.4957 134.97 73.0947 134.97 73.8774C134.97 74.6602 135.106 75.2496 135.378 75.6457C135.655 76.0419 136.044 76.2399 136.545 76.2399ZM144.706 69.8325V77.8364H142.523V69.8325H144.706ZM143.618 66.6969C143.942 66.6969 144.222 66.7732 144.456 66.926C144.689 67.0739 144.806 67.3531 144.806 67.7636C144.806 68.1693 144.689 68.4508 144.456 68.6083C144.222 68.7611 143.942 68.8374 143.618 68.8374C143.289 68.8374 143.007 68.7611 142.773 68.6083C142.544 68.4508 142.429 68.1693 142.429 67.7636C142.429 67.3531 142.544 67.0739 142.773 66.926C143.007 66.7732 143.289 66.6969 143.618 66.6969ZM150.254 77.9796C149.462 77.9796 148.787 77.8364 148.228 77.5501C147.67 77.2589 147.245 76.8103 146.954 76.2042C146.663 75.598 146.517 74.8224 146.517 73.8774C146.517 72.899 146.682 72.102 147.011 71.4863C147.345 70.8658 147.806 70.41 148.393 70.1189C148.985 69.8278 149.67 69.6822 150.448 69.6822C151.001 69.6822 151.479 69.7371 151.88 69.8469C152.285 69.9519 152.638 70.0783 152.939 70.2263L152.295 71.9158C151.951 71.7774 151.631 71.6653 151.335 71.5794C151.04 71.4887 150.744 71.4433 150.448 71.4433C150.066 71.4433 149.748 71.534 149.496 71.7154C149.243 71.892 149.054 72.1593 148.93 72.5172C148.806 72.8752 148.744 73.3238 148.744 73.8631C148.744 74.3929 148.811 74.832 148.944 75.1804C149.078 75.5288 149.271 75.7889 149.524 75.9607C149.777 76.1278 150.085 76.2113 150.448 76.2113C150.901 76.2113 151.304 76.1517 151.658 76.0323C152.011 75.9082 152.354 75.7364 152.688 75.5169V77.3854C152.354 77.5954 152.004 77.7457 151.636 77.8364C151.273 77.9319 150.813 77.9796 150.254 77.9796ZM156.733 69.8325V77.8364H154.55V69.8325H156.733ZM155.645 66.6969C155.97 66.6969 156.249 66.7732 156.483 66.926C156.717 67.0739 156.834 67.3531 156.834 67.7636C156.834 68.1693 156.717 68.4508 156.483 68.6083C156.249 68.7611 155.97 68.8374 155.645 68.8374C155.316 68.8374 155.034 68.7611 154.8 68.6083C154.571 68.4508 154.457 68.1693 154.457 67.7636C154.457 67.3531 154.571 67.0739 154.8 66.926C155.034 66.7732 155.316 66.6969 155.645 66.6969ZM163.577 69.6822C164.432 69.6822 165.119 69.9161 165.639 70.3838C166.16 70.8468 166.42 71.5913 166.42 72.6174V77.8364H164.236V73.1615C164.236 72.5888 164.131 72.1569 163.921 71.8657C163.716 71.5746 163.391 71.429 162.947 71.429C162.279 71.429 161.824 71.6557 161.58 72.1091C161.337 72.5626 161.215 73.2164 161.215 74.0707V77.8364H159.031V69.8325H160.7L160.993 70.8563H161.115C161.287 70.5795 161.499 70.3552 161.752 70.1833C162.01 70.0115 162.294 69.885 162.604 69.8039C162.919 69.7228 163.243 69.6822 163.577 69.6822ZM171.968 69.6822C172.708 69.6822 173.345 69.8254 173.879 70.1118C174.414 70.3933 174.827 70.8038 175.118 71.3431C175.409 71.8824 175.555 72.5411 175.555 73.319V74.3786H170.393C170.417 74.9943 170.601 75.4787 170.944 75.8319C171.293 76.1803 171.775 76.3545 172.39 76.3545C172.901 76.3545 173.369 76.302 173.794 76.197C174.218 76.092 174.655 75.9345 175.104 75.7245V77.414C174.708 77.6097 174.292 77.7529 173.858 77.8436C173.428 77.9343 172.906 77.9796 172.29 77.9796C171.488 77.9796 170.777 77.8317 170.157 77.5357C169.541 77.2398 169.057 76.7888 168.703 76.1827C168.355 75.5765 168.181 74.8129 168.181 73.8918C168.181 72.9563 168.338 72.1783 168.653 71.5579C168.973 70.9327 169.417 70.4649 169.985 70.1547C170.553 69.8397 171.214 69.6822 171.968 69.6822ZM171.982 71.2357C171.558 71.2357 171.204 71.3718 170.923 71.6438C170.646 71.9158 170.486 72.343 170.443 72.9253H173.507C173.502 72.6007 173.443 72.312 173.328 72.059C173.218 71.8061 173.051 71.6056 172.827 71.4577C172.608 71.3097 172.326 71.2357 171.982 71.2357Z" fill="#A379DE"/>
</g>
<defs>
<filter id="filter0_d_599_719" x="0.882778" y="0.588519" width="277.004" height="415.043" filterUnits="userSpaceOnUse" color-interpolation-filters="sRGB">
<feFlood flood-opacity="0" result="BackgroundImageFix"/>
<feColorMatrix in="SourceAlpha" type="matrix" values="0 0 0 0 0 0 0 0 0 0 0 0 0 0 0 0 0 0 127 0" result="hardAlpha"/>
<feOffset dy="3.70574"/>
<feGaussianBlur stdDeviation="5.55861"/>
<feComposite in2="hardAlpha" operator="out"/>
<feColorMatrix type="matrix" values="0 0 0 0 0 0 0 0 0 0 0 0 0 0 0 0 0 0 0.15 0"/>
<feBlend mode="normal" in2="BackgroundImageFix" result="effect1_dropShadow_599_719"/>
<feBlend mode="normal" in="SourceGraphic" in2="effect1_dropShadow_599_719" result="shape"/>
</filter>
</defs>
</svg>
