<svg width="732" height="398" viewBox="0 0 732 398" fill="none" xmlns="http://www.w3.org/2000/svg">
<g filter="url(#filter0_d_599_882)">
<path d="M12 19C12 10.1634 19.1634 3 28 3H732V377H28C19.1634 377 12 369.837 12 361V19Z" fill="#1F2029"/>
<mask id="path-2-inside-1_599_882" fill="white">
<path d="M120 86H732V284H120V86Z"/>
</mask>
<path d="M120 284H119V285H120V284ZM732 283H120V285H732V283ZM121 284V86H119V284H121Z" fill="#6B6B6B" fill-opacity="0.45" mask="url(#path-2-inside-1_599_882)"/>
<circle cx="169.5" cy="158.5" r="4.5" fill="#FF9000"/>
<circle cx="169.5" cy="143.5" r="4.5" fill="#709CEE"/>
<circle cx="279.5" cy="140.5" r="4.5" fill="#709CEE"/>
<circle cx="279.5" cy="122.5" r="4.5" fill="#FF9000"/>
<circle cx="389.5" cy="174.5" r="4.5" fill="#709CEE"/>
<circle cx="389.5" cy="169.5" r="4.5" fill="#FF9000"/>
<circle cx="499.5" cy="117.5" r="4.5" fill="#709CEE"/>
<circle cx="609.5" cy="124.5" r="4.5" fill="#FF9000"/>
<circle cx="719.5" cy="109.5" r="4.5" fill="#709CEE"/>
<path d="M719.5 144H720V148H719.5V152H720V156H719.5V160H720V164H719.5V168H720V172H719.5V176H720V180H719.5V184H720V188H719.5V192H720V196H719.5V200H720V204H719.5V208H720V212H719.5V216H720V220H719.5V224H720V228H719.5V232H720V236H719.5V240H720V244H719.5V248H720V252H719.5V256H720V260H719.5V264H720V268H719.5V269.5H718.004V270H714.012V269.5H710.019V270H706.026V269.5H702.033V270H698.041V269.5H694.048V270H690.055V269.5H686.062V270H682.07V269.5H678.077V270H674.084V269.5H670.091V270H666.099V269.5H662.106V270H658.113V269.5H654.12V270H650.128V269.5H646.135V270H642.142V269.5H638.149V270H634.156V269.5H630.164V270H626.171V269.5H622.178V270H618.185V269.5H614.193V270H610.2V269.5H606.207V270H602.214V269.5H598.222V270H594.229V269.5H590.236V270H586.243V269.5H582.25V270H578.258V269.5H574.265V270H570.272V269.5H566.279V270H562.287V269.5H558.294V270H554.301V269.5H550.308V270H546.316V269.5H542.323V270H538.33V269.5H534.337V270H530.344V269.5H526.352V270H522.359V269.5H518.366V270H514.373V269.5H510.381V270H506.388V269.5H502.395V270H498.402V269.5H494.41V270H490.417V269.5H486.424V270H482.431V269.5H478.439V270H474.446V269.5H470.453V270H466.46V269.5H462.467V270H458.475V269.5H454.482V270H450.489V269.5H446.496V270H442.504V269.5H438.511V270H434.518V269.5H430.525V270H426.533V269.5H422.54V270H418.547V269.5H414.554V270H410.562V269.5H406.569V270H402.576V269.5H398.583V270H394.591V269.5H390.598V270H386.605V269.5H382.612V270H378.619V269.5H374.627V270H370.634V269.5H366.641V270H362.648V269.5H358.656V270H354.663V269.5H350.67V270H346.677V269.5H342.685V270H338.692V269.5H334.699V270H330.706V269.5H326.714V270H322.721V269.5H318.728V270H314.735V269.5H310.743V270H306.75V269.5H302.757V270H298.764V269.5H294.772V270H290.779V269.5H286.786V270H282.793V269.5H278.801V270H274.808V269.5H270.815V270H266.822V269.5H262.83V270H258.837V269.5H254.844V270H250.851V269.5H246.859V270H242.866V269.5H238.873V270H234.88V269.5H230.888V270H226.895V269.5H222.902V270H218.909V269.5H214.917V270H210.924V269.5H206.931V270H202.938V269.5H198.946V270H194.953V269.5H190.96V270H186.967V269.5H182.975V270H178.982V269.5H174.989V270H170.996V269.5H169.5V268.016H169V264.048H169.5V260.079H169V256.111H169.5V252.143H169V248.175H169.5V244.206H169V240.238H169.5V236.27H169V232.302H169.5V228.333H169V224.365H169.5V220.397H169V216.429H169.5V212.46H169V208.492H169.5V204.524H169V200.555H169.5V196.587H169V192.619H169.5V188.651H169V184.682H169.5V180.714H169V176.746H169.5V172.778H169V168.809H169.5V164.841H169V160.873H169.5V159.173C169.554 159.141 169.616 159.105 169.687 159.063C169.972 158.895 170.395 158.647 170.946 158.328L170.696 157.896C171.538 157.409 172.679 156.756 174.086 155.969L174.33 156.405C175.349 155.835 176.508 155.194 177.794 154.493L177.555 154.054C178.618 153.475 179.768 152.855 180.997 152.201L181.232 152.643C182.329 152.06 183.49 151.449 184.709 150.816L184.479 150.372C185.599 149.791 186.769 149.19 187.984 148.574L188.21 149.02C189.344 148.446 190.517 147.858 191.727 147.26L191.505 146.811C192.652 146.244 193.831 145.667 195.041 145.084L195.258 145.534C196.414 144.977 197.597 144.413 198.805 143.845L198.592 143.392C199.759 142.843 200.949 142.291 202.161 141.737L202.369 142.191C203.544 141.654 204.738 141.114 205.951 140.575L205.748 140.118C206.933 139.591 208.136 139.064 209.354 138.538L209.552 138.997C210.744 138.483 211.952 137.97 213.172 137.461L212.979 136.999C214.182 136.497 215.397 135.998 216.623 135.503L216.81 135.967C218.016 135.48 219.233 134.998 220.459 134.522L220.278 134.056C221.495 133.584 222.72 133.117 223.953 132.657L224.128 133.126C225.351 132.67 226.581 132.221 227.818 131.781L227.65 131.31C228.884 130.87 230.123 130.439 231.368 130.018L231.528 130.491C232.767 130.072 234.011 129.662 235.257 129.262L235.105 128.786C236.354 128.386 237.607 127.997 238.861 127.62L239.005 128.099C240.261 127.722 241.518 127.357 242.776 127.006L242.641 126.524C243.909 126.17 245.177 125.83 246.443 125.506L246.568 125.99C247.84 125.664 249.111 125.353 250.379 125.06L250.266 124.573C251.55 124.275 252.832 123.995 254.108 123.734L254.208 124.224C255.496 123.96 256.779 123.716 258.055 123.492L257.968 123C259.271 122.772 260.566 122.565 261.854 122.381L261.924 122.876C263.231 122.69 264.528 122.528 265.815 122.391L265.762 121.893C267.081 121.753 268.389 121.64 269.684 121.554L269.717 122.053C271.035 121.967 272.338 121.91 273.626 121.884L273.616 121.384C274.945 121.358 276.257 121.365 277.55 121.408L277.534 121.908C278.184 121.929 278.829 121.959 279.469 121.999C280.153 122.041 280.832 122.094 281.505 122.158L281.551 121.66C282.924 121.789 284.274 121.961 285.602 122.173L285.523 122.667C286.871 122.882 288.196 123.138 289.501 123.432L289.611 122.945C290.95 123.247 292.267 123.589 293.564 123.968L293.423 124.448C294.728 124.83 296.013 125.248 297.278 125.701L297.447 125.231C298.734 125.691 300.002 126.187 301.252 126.714L301.057 127.175C302.307 127.702 303.539 128.261 304.756 128.848L304.973 128.397C306.201 128.99 307.413 129.611 308.61 130.256L308.373 130.696C309.566 131.34 310.745 132.008 311.912 132.697L312.166 132.267C313.338 132.959 314.498 133.673 315.647 134.404L315.379 134.826C316.524 135.554 317.658 136.3 318.784 137.06L319.063 136.645C320.192 137.407 321.312 138.182 322.425 138.968L322.136 139.376C323.247 140.16 324.351 140.954 325.45 141.754L325.744 141.35C326.845 142.152 327.942 142.96 329.035 143.772L328.737 144.173C329.817 144.975 330.895 145.779 331.972 146.583L332.012 146.613L332.311 146.213C333.404 147.029 334.496 147.844 335.588 148.654L335.29 149.055C336.387 149.869 337.485 150.678 338.586 151.479L338.88 151.074C339.984 151.878 341.09 152.672 342.201 153.454L341.914 153.863C343.033 154.651 344.157 155.426 345.288 156.185L345.567 155.77C346.701 156.531 347.841 157.275 348.99 157.999L348.724 158.422C349.884 159.153 351.053 159.863 352.233 160.548L352.484 160.116C353.664 160.801 354.855 161.461 356.059 162.092L355.827 162.535C357.041 163.171 358.269 163.778 359.513 164.352L359.723 163.898C360.959 164.469 362.21 165.006 363.478 165.505L363.295 165.97C364.568 166.472 365.858 166.936 367.169 167.358L367.322 166.883C368.611 167.298 369.919 167.673 371.248 168.004L371.127 168.489C372.449 168.818 373.791 169.103 375.156 169.341L375.242 168.848C376.568 169.079 377.915 169.265 379.286 169.402L379.236 169.899C380.583 170.034 381.953 170.121 383.346 170.159L383.36 169.659C384.697 169.695 386.058 169.685 387.441 169.625L387.463 170.124C388.149 170.095 388.841 170.053 389.539 169.998C390.203 169.947 390.861 169.891 391.513 169.83L391.466 169.332C392.784 169.21 394.075 169.07 395.342 168.913L395.404 169.409C396.721 169.245 398.013 169.064 399.28 168.865L399.203 168.371C400.509 168.166 401.789 167.943 403.044 167.703L403.138 168.194C404.442 167.944 405.72 167.677 406.973 167.392L406.863 166.904C408.151 166.611 409.413 166.3 410.652 165.973L410.779 166.456C412.061 166.118 413.317 165.761 414.551 165.389L414.407 164.91C415.668 164.529 416.906 164.132 418.122 163.719L418.283 164.192C419.534 163.768 420.763 163.327 421.972 162.872L421.796 162.404C423.025 161.942 424.234 161.465 425.425 160.975L425.615 161.438C426.832 160.938 428.031 160.425 429.214 159.901L429.012 159.444C430.208 158.914 431.389 158.373 432.559 157.823L432.772 158.275C433.957 157.717 435.13 157.15 436.294 156.576L436.073 156.127C437.243 155.55 438.404 154.965 439.56 154.376L439.787 154.821C440.949 154.228 442.105 153.631 443.258 153.03L443.028 152.587C444.108 152.025 445.186 151.46 446.266 150.895C446.339 150.856 446.412 150.818 446.486 150.78L446.717 151.223C447.868 150.621 449.019 150.018 450.175 149.418L449.945 148.974C451.095 148.376 452.251 147.78 453.415 147.188L453.642 147.633C454.793 147.048 455.952 146.466 457.123 145.89L456.902 145.442C458.061 144.872 459.232 144.307 460.417 143.751L460.629 144.204C461.794 143.657 462.972 143.118 464.168 142.589L463.965 142.132C465.143 141.61 466.338 141.098 467.552 140.597L467.743 141.059C468.928 140.57 470.132 140.092 471.357 139.626L471.179 139.158C472.381 138.702 473.602 138.257 474.847 137.826L475.011 138.298C476.219 137.88 477.449 137.474 478.703 137.083L478.554 136.606C479.778 136.224 481.025 135.856 482.297 135.503L482.43 135.985C483.659 135.644 484.912 135.317 486.19 135.005L486.071 134.519C487.314 134.216 488.581 133.928 489.874 133.655L489.977 134.145C491.223 133.882 492.493 133.634 493.788 133.401L493.7 132.909C494.958 132.683 496.24 132.472 497.547 132.277L497.621 132.772C498.263 132.676 498.912 132.584 499.567 132.495C500.206 132.409 500.841 132.324 501.471 132.24L501.405 131.745C502.693 131.573 503.963 131.406 505.216 131.243L505.28 131.739C506.567 131.572 507.837 131.409 509.09 131.25L509.027 130.754C510.316 130.591 511.587 130.433 512.842 130.279L512.903 130.775C514.191 130.617 515.462 130.463 516.717 130.314L516.658 129.817C517.947 129.664 519.219 129.516 520.476 129.372L520.533 129.869C521.82 129.721 523.092 129.579 524.35 129.441L524.295 128.944C525.582 128.802 526.855 128.666 528.115 128.533L528.167 129.031C529.454 128.896 530.727 128.765 531.989 128.639L531.939 128.142C533.225 128.014 534.5 127.89 535.764 127.77L535.811 128.268C537.095 128.147 538.369 128.03 539.635 127.918L539.591 127.42C540.875 127.305 542.151 127.196 543.42 127.09L543.462 127.588C544.743 127.482 546.018 127.379 547.29 127.28L547.251 126.782C548.531 126.682 549.808 126.587 551.083 126.495L551.119 126.993C551.758 126.947 552.396 126.902 553.035 126.858C553.7 126.812 554.365 126.767 555.03 126.722L554.997 126.223C556.327 126.135 557.658 126.05 558.993 125.968L559.023 126.467C560.35 126.386 561.681 126.308 563.017 126.233L562.989 125.734C564.315 125.66 565.647 125.588 566.987 125.519L567.013 126.019C568.336 125.95 569.668 125.885 571.01 125.822L570.986 125.322C572.308 125.26 573.64 125.199 574.985 125.141L575.007 125.641C576.327 125.583 577.66 125.528 579.007 125.474L578.987 124.974C580.306 124.921 581.638 124.87 582.986 124.819L583.005 125.319C584.322 125.27 585.655 125.222 587.004 125.175L586.987 124.675C588.304 124.629 589.637 124.584 590.989 124.54L591.005 125.039C592.322 124.996 593.655 124.953 595.007 124.911L594.992 124.411C596.308 124.37 597.641 124.329 598.994 124.289L599.009 124.789C600.324 124.749 601.658 124.71 603.01 124.671L602.996 124.171C604.311 124.133 605.645 124.095 606.998 124.056L607.013 124.556L609.014 124.5C609.673 124.481 610.338 124.467 611.006 124.458L610.999 123.958C612.326 123.939 613.67 123.937 615.03 123.951L615.024 124.451C616.35 124.465 617.69 124.494 619.044 124.538L619.06 124.038C620.391 124.081 621.735 124.138 623.088 124.208L623.062 124.707C624.392 124.776 625.731 124.857 627.079 124.95L627.113 124.451C628.446 124.543 629.786 124.647 631.133 124.761L631.091 125.259C632.419 125.372 633.754 125.495 635.093 125.628L635.142 125.131C636.474 125.263 637.81 125.404 639.148 125.555L639.092 126.052C640.422 126.201 641.755 126.359 643.088 126.525L643.15 126.029C644.482 126.195 645.815 126.369 647.146 126.55L647.079 127.045C648.409 127.226 649.738 127.414 651.064 127.608L651.137 127.113C652.468 127.308 653.796 127.51 655.12 127.717L655.043 128.211C656.372 128.418 657.696 128.632 659.014 128.85L659.096 128.357C660.428 128.577 661.753 128.803 663.07 129.033L662.985 129.525C664.315 129.757 665.637 129.994 666.95 130.233L667.04 129.742C668.372 129.985 669.693 130.232 671.003 130.482L670.909 130.973C672.24 131.227 673.559 131.484 674.863 131.742L674.96 131.252C676.293 131.516 677.61 131.783 678.911 132.051L678.81 132.54C680.143 132.815 681.457 133.09 682.751 133.365L682.855 132.876C684.191 133.161 685.505 133.445 686.794 133.729L686.687 134.217C688.024 134.511 689.336 134.804 690.618 135.094L690.728 134.607C692.071 134.911 693.382 135.212 694.657 135.51L694.544 135.997C695.89 136.311 697.198 136.621 698.463 136.924L698.58 136.438C699.933 136.763 701.238 137.08 702.49 137.389L702.37 137.874C703.733 138.21 705.033 138.535 706.263 138.847L706.386 138.362C707.788 138.717 709.1 139.055 710.313 139.371L710.187 139.855C711.629 140.23 712.93 140.575 714.078 140.883L714.207 140.4C715.819 140.833 717.127 141.192 718.089 141.46L717.955 141.942C718.576 142.115 719.053 142.25 719.374 142.341L719.5 142.377V144Z" fill="url(#paint0_linear_599_882)" stroke="#FF9000" stroke-dasharray="4 4"/>
<circle cx="499.5" cy="131.5" r="4.5" fill="#FF9000"/>
<path d="M169 148.953V144.984H169.5V143.464L169.533 143.462C169.86 143.438 170.345 143.402 170.976 143.357L170.941 142.858C171.918 142.789 173.245 142.696 174.879 142.587L174.913 143.086C176.075 143.008 177.392 142.922 178.85 142.829L178.818 142.33C180.046 142.252 181.373 142.169 182.791 142.084L182.821 142.583C184.061 142.508 185.371 142.43 186.743 142.351L186.714 141.852C187.976 141.779 189.291 141.705 190.655 141.63L190.682 142.13C191.956 142.06 193.273 141.99 194.628 141.919L194.602 141.42C195.885 141.353 197.202 141.287 198.55 141.22L198.575 141.72C199.863 141.657 201.179 141.594 202.521 141.532L202.498 141.032C203.79 140.973 205.107 140.914 206.445 140.856L206.466 141.355C207.763 141.299 209.079 141.245 210.412 141.191L210.392 140.691C211.692 140.639 213.009 140.588 214.34 140.539L214.359 141.039C215.662 140.99 216.978 140.944 218.307 140.899L218.29 140.399C219.596 140.355 220.913 140.313 222.241 140.273L222.256 140.773C223.564 140.733 224.881 140.696 226.206 140.66L226.192 140.16C227.503 140.125 228.821 140.093 230.144 140.062L230.155 140.562C231.466 140.532 232.782 140.505 234.102 140.48L234.092 139.98C235.406 139.955 236.722 139.933 238.041 139.914L238.049 140.414C239.363 140.395 240.68 140.379 241.997 140.365L241.992 139.865C243.309 139.852 244.627 139.842 245.944 139.835L245.946 140.335C247.264 140.329 248.581 140.325 249.895 140.326L249.895 139.826C251.215 139.826 252.532 139.83 253.845 139.837L253.842 140.337C255.162 140.345 256.477 140.357 257.786 140.373L257.792 139.873C259.116 139.889 260.434 139.909 261.743 139.934L261.734 140.434C263.06 140.46 264.377 140.489 265.683 140.524L265.696 140.024C267.025 140.06 268.343 140.1 269.647 140.146L269.63 140.646C270.959 140.693 272.275 140.745 273.575 140.804L273.597 140.304C274.93 140.364 276.246 140.43 277.544 140.502L277.516 141.001C278.172 141.038 278.823 141.076 279.469 141.116C280.124 141.157 280.774 141.204 281.418 141.258L281.46 140.76C282.772 140.869 284.063 141.005 285.335 141.166L285.272 141.662C286.57 141.826 287.847 142.016 289.105 142.231L289.189 141.738C290.484 141.959 291.759 142.205 293.015 142.475L292.91 142.963C294.186 143.237 295.443 143.536 296.682 143.856L296.808 143.372C298.077 143.7 299.327 144.051 300.56 144.423L300.416 144.901C301.663 145.277 302.893 145.675 304.108 146.091L304.27 145.618C305.507 146.042 306.728 146.485 307.934 146.945L307.756 147.412C308.972 147.876 310.173 148.357 311.361 148.853L311.553 148.391C312.758 148.893 313.95 149.411 315.13 149.94L314.925 150.396C316.111 150.928 317.287 151.473 318.453 152.027L318.667 151.575C319.844 152.135 321.012 152.704 322.172 153.28L321.95 153.728C323.115 154.306 324.272 154.891 325.425 155.481L325.653 155.035C326.812 155.629 327.966 156.226 329.117 156.824L328.886 157.267C329.692 157.686 330.496 158.105 331.299 158.524C331.647 158.706 331.995 158.887 332.343 159.069L332.574 158.625C333.728 159.227 334.881 159.827 336.035 160.421L335.805 160.865C336.963 161.462 338.121 162.054 339.283 162.638L339.508 162.191C340.669 162.775 341.834 163.35 343.004 163.915L342.786 164.365C343.96 164.931 345.138 165.486 346.324 166.027L346.532 165.572C347.713 166.111 348.902 166.635 350.1 167.142L349.905 167.603C351.104 168.11 352.313 168.601 353.534 169.071L353.713 168.604C354.922 169.07 356.142 169.515 357.375 169.938L357.213 170.411C358.442 170.832 359.685 171.231 360.944 171.604L361.086 171.124C362.324 171.491 363.577 171.833 364.846 172.147L364.726 172.632C365.984 172.944 367.259 173.228 368.553 173.483L368.65 172.992C369.912 173.24 371.191 173.46 372.491 173.649L372.419 174.143C373.697 174.329 374.995 174.485 376.313 174.609L376.36 174.111C377.636 174.23 378.931 174.32 380.247 174.376L380.225 174.876C381.512 174.931 382.818 174.955 384.146 174.947L384.142 174.447C385.42 174.438 386.717 174.399 388.036 174.327L388.063 174.827C388.717 174.791 389.375 174.748 390.039 174.696C390.708 174.644 391.37 174.584 392.026 174.515L391.974 174.018C393.295 173.881 394.59 173.71 395.859 173.509L395.937 174.003C397.256 173.795 398.549 173.553 399.816 173.28L399.711 172.791C401.006 172.512 402.274 172.201 403.518 171.859L403.651 172.341C404.935 171.988 406.193 171.603 407.427 171.188L407.268 170.714C408.519 170.294 409.745 169.842 410.949 169.363L411.134 169.827C412.366 169.336 413.574 168.815 414.761 168.268L414.551 167.814C415.745 167.263 416.917 166.685 418.07 166.082L418.302 166.525C419.472 165.913 420.622 165.275 421.754 164.616L421.502 164.184C422.635 163.524 423.75 162.841 424.849 162.139L425.118 162.56C426.227 161.852 427.32 161.123 428.399 160.378L428.115 159.967C429.191 159.223 430.255 158.463 431.307 157.688L431.604 158.091C432.66 157.313 433.706 156.521 434.743 155.719L434.436 155.323C435.47 154.523 436.495 153.711 437.514 152.891L437.827 153.281C438.848 152.46 439.861 151.631 440.871 150.796L440.553 150.411C441.56 149.578 442.564 148.741 443.567 147.9L443.888 148.283C444.64 147.653 445.391 147.021 446.142 146.389C446.392 146.179 446.642 145.969 446.891 145.759L446.57 145.376C447.57 144.535 448.571 143.694 449.576 142.857L449.896 143.241C450.899 142.405 451.905 141.572 452.917 140.746L452.601 140.358C453.612 139.532 454.63 138.711 455.656 137.899L455.967 138.291C456.989 137.482 458.018 136.682 459.058 135.894L458.756 135.495C459.797 134.707 460.848 133.929 461.912 133.166L462.204 133.573C463.26 132.815 464.329 132.071 465.413 131.345L465.135 130.93C466.218 130.204 467.316 129.494 468.431 128.805L468.694 129.23C469.797 128.548 470.916 127.885 472.054 127.245L471.808 126.809C472.942 126.171 474.094 125.554 475.268 124.962L475.493 125.408C476.646 124.826 477.819 124.267 479.014 123.735L478.81 123.278C479.994 122.75 481.201 122.247 482.431 121.772L482.611 122.239C483.81 121.776 485.032 121.339 486.279 120.931L486.124 120.456C487.351 120.054 488.603 119.681 489.88 119.336L490.01 119.819C491.246 119.486 492.507 119.181 493.793 118.906L493.689 118.417C494.948 118.147 496.231 117.907 497.54 117.697L497.62 118.19C498.262 118.087 498.911 117.991 499.567 117.903C500.236 117.813 500.901 117.73 501.561 117.656L501.505 117.159C502.853 117.006 504.182 116.885 505.492 116.793L505.527 117.292C506.872 117.198 508.197 117.135 509.504 117.101L509.492 116.601C510.845 116.566 512.179 116.562 513.495 116.587L513.486 117.087C514.829 117.113 516.154 117.169 517.463 117.252L517.495 116.753C518.841 116.839 520.169 116.954 521.482 117.095L521.429 117.592C522.761 117.736 524.077 117.907 525.379 118.102L525.453 117.608C526.785 117.808 528.101 118.034 529.404 118.282L529.311 118.773C530.624 119.024 531.925 119.297 533.215 119.591L533.326 119.104C534.633 119.401 535.929 119.72 537.216 120.056L537.09 120.539C538.381 120.876 539.663 121.231 540.938 121.6L541.077 121.12C542.362 121.492 543.639 121.878 544.912 122.276L544.762 122.753C546.035 123.151 547.303 123.56 548.569 123.978L548.725 123.503C549.993 123.921 551.258 124.347 552.523 124.778L552.361 125.251C553.623 125.681 554.884 126.116 556.148 126.552L556.311 126.08C556.579 126.172 556.847 126.265 557.116 126.358C558.108 126.701 559.102 127.044 560.098 127.387L559.936 127.859C561.196 128.292 562.461 128.724 563.732 129.15L563.891 128.676C565.152 129.099 566.42 129.517 567.695 129.928L567.542 130.404C568.81 130.811 570.087 131.211 571.374 131.6L571.518 131.121C572.79 131.505 574.072 131.879 575.366 132.238L575.232 132.72C576.515 133.076 577.81 133.419 579.12 133.746L579.24 133.26C580.527 133.581 581.827 133.886 583.143 134.172L583.036 134.66C584.335 134.942 585.648 135.206 586.978 135.449L587.068 134.957C588.368 135.195 589.684 135.412 591.018 135.607L590.946 136.101C592.258 136.293 593.588 136.462 594.936 136.608L594.99 136.111C596.301 136.252 597.63 136.37 598.979 136.463L598.944 136.962C600.265 137.053 601.604 137.12 602.963 137.161L602.978 136.661C604.294 136.701 605.628 136.716 606.983 136.704L606.987 137.204C607.658 137.198 608.333 137.186 609.014 137.166C609.688 137.148 610.367 137.123 611.051 137.093L611.029 136.594C612.374 136.535 613.737 136.456 615.116 136.358L615.152 136.856C616.502 136.76 617.867 136.645 619.244 136.512L619.196 136.015C620.542 135.885 621.9 135.74 623.268 135.578L623.326 136.075C624.675 135.916 626.033 135.742 627.399 135.555L627.33 135.059C628.674 134.875 630.026 134.677 631.383 134.466L631.46 134.96C632.803 134.752 634.152 134.532 635.505 134.3L635.421 133.807C636.76 133.578 638.103 133.338 639.448 133.088L639.539 133.58C640.88 133.331 642.222 133.072 643.565 132.804L643.467 132.314C644.804 132.048 646.141 131.772 647.477 131.489L647.581 131.978C648.918 131.695 650.253 131.404 651.586 131.106L651.477 130.618C652.81 130.32 654.141 130.015 655.467 129.703L655.581 130.19C656.914 129.878 658.242 129.559 659.564 129.235L659.445 128.749C660.775 128.423 662.099 128.092 663.415 127.757L663.538 128.242C664.87 127.902 666.194 127.559 667.507 127.212L667.379 126.729C668.709 126.378 670.028 126.023 671.335 125.667L671.466 126.149C672.797 125.786 674.114 125.421 675.417 125.054L675.281 124.573C676.61 124.199 677.923 123.824 679.219 123.449L679.358 123.929C680.687 123.544 681.999 123.159 683.29 122.775L683.147 122.296C684.477 121.901 685.784 121.506 687.067 121.115L687.213 121.593C688.545 121.187 689.851 120.783 691.128 120.384L690.979 119.907C692.313 119.49 693.616 119.078 694.883 118.672L695.035 119.148C696.375 118.72 697.675 118.299 698.933 117.887L698.777 117.412C700.12 116.972 701.414 116.544 702.655 116.128L702.814 116.602C704.171 116.148 705.465 115.71 706.689 115.291L706.527 114.818C707.915 114.343 709.213 113.893 710.414 113.473L710.579 113.945C712.01 113.443 713.302 112.984 714.441 112.576L714.272 112.105C715.866 111.533 717.158 111.06 718.109 110.708L718.283 111.177C718.786 110.991 719.193 110.839 719.5 110.723V112H720V116H719.5V120H720V124H719.5V128H720V132H719.5V136H720V140H719.5V144H720V148H719.5V152H720V156H719.5V160H720V164H719.5V168H720V172H719.5V176H720V180H719.5V184H720V188H719.5V192H720V196H719.5V200H720V204H719.5V208H720V212H719.5V216H720V220H719.5V224H720V228H719.5V232H720V236H719.5V240H720V244H719.5V248H720V252H719.5V256H720V260H719.5V264H720V268H719.5V269.5H718.004V270H714.012V269.5H710.019V270H706.026V269.5H702.033V270H698.041V269.5H694.048V270H690.055V269.5H686.062V270H682.07V269.5H678.077V270H674.084V269.5H670.091V270H666.099V269.5H662.106V270H658.113V269.5H654.12V270H650.128V269.5H646.135V270H642.142V269.5H638.149V270H634.156V269.5H630.164V270H626.171V269.5H622.178V270H618.185V269.5H614.193V270H610.2V269.5H606.207V270H602.214V269.5H598.222V270H594.229V269.5H590.236V270H586.243V269.5H582.25V270H578.258V269.5H574.265V270H570.272V269.5H566.279V270H562.287V269.5H558.294V270H554.301V269.5H550.308V270H546.316V269.5H542.323V270H538.33V269.5H534.337V270H530.344V269.5H526.352V270H522.359V269.5H518.366V270H514.373V269.5H510.381V270H506.388V269.5H502.395V270H498.402V269.5H494.41V270H490.417V269.5H486.424V270H482.431V269.5H478.439V270H474.446V269.5H470.453V270H466.46V269.5H462.467V270H458.475V269.5H454.482V270H450.489V269.5H446.496V270H442.504V269.5H438.511V270H434.518V269.5H430.525V270H426.533V269.5H422.54V270H418.547V269.5H414.554V270H410.562V269.5H406.569V270H402.576V269.5H398.583V270H394.591V269.5H390.598V270H386.605V269.5H382.612V270H378.619V269.5H374.627V270H370.634V269.5H366.641V270H362.648V269.5H358.656V270H354.663V269.5H350.67V270H346.677V269.5H342.685V270H338.692V269.5H334.699V270H330.706V269.5H326.714V270H322.721V269.5H318.728V270H314.735V269.5H310.743V270H306.75V269.5H302.757V270H298.764V269.5H294.772V270H290.779V269.5H286.786V270H282.793V269.5H278.801V270H274.808V269.5H270.815V270H266.822V269.5H262.83V270H258.837V269.5H254.844V270H250.851V269.5H246.859V270H242.866V269.5H238.873V270H234.88V269.5H230.888V270H226.895V269.5H222.902V270H218.909V269.5H214.917V270H210.924V269.5H206.931V270H202.938V269.5H198.946V270H194.953V269.5H190.96V270H186.967V269.5H182.975V270H178.982V269.5H174.989V270H170.996V269.5H169.5V268.016H169V264.047H169.5V260.078H169V256.109H169.5V252.141H169V248.172H169.5V244.203H169V240.234H169.5V236.266H169V232.297H169.5V228.328H169V224.359H169.5V220.391H169V216.422H169.5V212.453H169V208.484H169.5V204.516H169V200.547H169.5V196.578H169V192.609H169.5V188.641H169V184.672H169.5V180.703H169V176.734H169.5V172.766H169V168.797H169.5V164.828H169V160.859H169.5V156.891H169V152.922H169.5V148.953H169Z" fill="url(#paint1_linear_599_882)" stroke="#709CEE" stroke-dasharray="4 4"/>
<rect x="150" y="263" width="574" height="14" fill="#1F2029"/>
<path d="M80.248 110H78.4375V105.043C78.4375 104.906 78.4395 104.738 78.4434 104.539C78.4473 104.336 78.4531 104.129 78.4609 103.918C78.4688 103.703 78.4766 103.51 78.4844 103.338C78.4414 103.389 78.3535 103.477 78.2207 103.602C78.0918 103.723 77.9707 103.832 77.8574 103.93L76.873 104.721L76 103.631L78.7598 101.434H80.248V110ZM88.5801 105.717C88.5801 106.408 88.5254 107.025 88.416 107.568C88.3105 108.111 88.1387 108.572 87.9004 108.951C87.666 109.33 87.3574 109.619 86.9746 109.818C86.5918 110.018 86.127 110.117 85.5801 110.117C84.8926 110.117 84.3281 109.943 83.8867 109.596C83.4453 109.244 83.1191 108.74 82.9082 108.084C82.6973 107.424 82.5918 106.635 82.5918 105.717C82.5918 104.791 82.6875 104 82.8789 103.344C83.0742 102.684 83.3906 102.178 83.8281 101.826C84.2656 101.475 84.8496 101.299 85.5801 101.299C86.2637 101.299 86.8262 101.475 87.2676 101.826C87.7129 102.174 88.043 102.678 88.2578 103.338C88.4727 103.994 88.5801 104.787 88.5801 105.717ZM84.3906 105.717C84.3906 106.369 84.4258 106.914 84.4961 107.352C84.5703 107.785 84.6934 108.111 84.8652 108.33C85.0371 108.549 85.2754 108.658 85.5801 108.658C85.8809 108.658 86.1172 108.551 86.2891 108.336C86.4648 108.117 86.5898 107.791 86.6641 107.357C86.7383 106.92 86.7754 106.373 86.7754 105.717C86.7754 105.064 86.7383 104.52 86.6641 104.082C86.5898 103.645 86.4648 103.316 86.2891 103.098C86.1172 102.875 85.8809 102.764 85.5801 102.764C85.2754 102.764 85.0371 102.875 84.8652 103.098C84.6934 103.316 84.5703 103.645 84.4961 104.082C84.4258 104.52 84.3906 105.064 84.3906 105.717ZM95.4473 105.717C95.4473 106.408 95.3926 107.025 95.2832 107.568C95.1777 108.111 95.0059 108.572 94.7676 108.951C94.5332 109.33 94.2246 109.619 93.8418 109.818C93.459 110.018 92.9941 110.117 92.4473 110.117C91.7598 110.117 91.1953 109.943 90.7539 109.596C90.3125 109.244 89.9863 108.74 89.7754 108.084C89.5645 107.424 89.459 106.635 89.459 105.717C89.459 104.791 89.5547 104 89.7461 103.344C89.9414 102.684 90.2578 102.178 90.6953 101.826C91.1328 101.475 91.7168 101.299 92.4473 101.299C93.1309 101.299 93.6934 101.475 94.1348 101.826C94.5801 102.174 94.9102 102.678 95.125 103.338C95.3398 103.994 95.4473 104.787 95.4473 105.717ZM91.2578 105.717C91.2578 106.369 91.293 106.914 91.3633 107.352C91.4375 107.785 91.5605 108.111 91.7324 108.33C91.9043 108.549 92.1426 108.658 92.4473 108.658C92.748 108.658 92.9844 108.551 93.1562 108.336C93.332 108.117 93.457 107.791 93.5312 107.357C93.6055 106.92 93.6426 106.373 93.6426 105.717C93.6426 105.064 93.6055 104.52 93.5312 104.082C93.457 103.645 93.332 103.316 93.1562 103.098C92.9844 102.875 92.748 102.764 92.4473 102.764C92.1426 102.764 91.9043 102.875 91.7324 103.098C91.5605 103.316 91.4375 103.645 91.3633 104.082C91.293 104.52 91.2578 105.064 91.2578 105.717ZM98.2832 101.311C98.9551 101.311 99.4648 101.545 99.8125 102.014C100.16 102.482 100.334 103.141 100.334 103.988C100.334 104.836 100.17 105.498 99.8418 105.975C99.5137 106.451 98.9941 106.689 98.2832 106.689C97.623 106.689 97.1211 106.451 96.7773 105.975C96.4336 105.498 96.2617 104.836 96.2617 103.988C96.2617 103.141 96.4219 102.482 96.7422 102.014C97.0664 101.545 97.5801 101.311 98.2832 101.311ZM98.2949 102.535C98.1035 102.535 97.9629 102.656 97.873 102.898C97.7832 103.141 97.7383 103.508 97.7383 104C97.7383 104.492 97.7832 104.861 97.873 105.107C97.9629 105.354 98.1035 105.477 98.2949 105.477C98.4863 105.477 98.627 105.355 98.7168 105.113C98.8105 104.867 98.8574 104.496 98.8574 104C98.8574 103.508 98.8105 103.141 98.7168 102.898C98.627 102.656 98.4863 102.535 98.2949 102.535ZM104.365 101.434L99.6133 110H98.207L102.959 101.434H104.365ZM104.283 104.732C104.955 104.732 105.465 104.967 105.812 105.436C106.16 105.904 106.334 106.562 106.334 107.41C106.334 108.254 106.17 108.914 105.842 109.391C105.514 109.867 104.994 110.105 104.283 110.105C103.623 110.105 103.121 109.867 102.777 109.391C102.434 108.914 102.262 108.254 102.262 107.41C102.262 106.562 102.422 105.904 102.742 105.436C103.066 104.967 103.58 104.732 104.283 104.732ZM104.295 105.957C104.104 105.957 103.963 106.078 103.873 106.32C103.783 106.562 103.738 106.93 103.738 107.422C103.738 107.914 103.783 108.283 103.873 108.529C103.963 108.775 104.104 108.898 104.295 108.898C104.486 108.898 104.627 108.777 104.717 108.535C104.811 108.289 104.857 107.918 104.857 107.422C104.857 106.93 104.811 106.562 104.717 106.32C104.627 106.078 104.486 105.957 104.295 105.957Z" fill="#838383"/>
<path d="M85.6582 175.09C85.6582 175.582 85.6211 176.07 85.5469 176.555C85.4766 177.039 85.3516 177.496 85.1719 177.926C84.9922 178.352 84.7402 178.73 84.416 179.062C84.0918 179.391 83.6797 179.648 83.1797 179.836C82.6797 180.023 82.0742 180.117 81.3633 180.117C81.1953 180.117 80.998 180.109 80.7715 180.094C80.5449 180.082 80.3574 180.062 80.209 180.035V178.582C80.3652 178.621 80.5312 178.652 80.707 178.676C80.8828 178.695 81.0605 178.705 81.2402 178.705C81.9551 178.705 82.5059 178.592 82.8926 178.365C83.2832 178.139 83.5566 177.824 83.7129 177.422C83.873 177.02 83.9648 176.555 83.9883 176.027H83.918C83.8047 176.215 83.6699 176.385 83.5137 176.537C83.3613 176.686 83.166 176.805 82.9277 176.895C82.6895 176.98 82.3867 177.023 82.0195 177.023C81.5312 177.023 81.1055 176.918 80.7422 176.707C80.3828 176.492 80.1035 176.184 79.9043 175.781C79.709 175.375 79.6113 174.885 79.6113 174.311C79.6113 173.689 79.7285 173.158 79.9629 172.717C80.2012 172.271 80.5391 171.93 80.9766 171.691C81.4141 171.453 81.9297 171.334 82.5234 171.334C82.9609 171.334 83.3691 171.41 83.748 171.562C84.127 171.711 84.459 171.939 84.7441 172.248C85.0332 172.557 85.2578 172.947 85.418 173.42C85.5781 173.893 85.6582 174.449 85.6582 175.09ZM82.5586 172.787C82.207 172.787 81.9199 172.908 81.6973 173.15C81.4746 173.393 81.3633 173.771 81.3633 174.287C81.3633 174.701 81.459 175.029 81.6504 175.271C81.8418 175.514 82.1328 175.635 82.5234 175.635C82.793 175.635 83.0273 175.576 83.2266 175.459C83.4258 175.338 83.5801 175.188 83.6895 175.008C83.8027 174.824 83.8594 174.637 83.8594 174.445C83.8594 174.246 83.832 174.049 83.7773 173.854C83.7227 173.658 83.6406 173.48 83.5312 173.32C83.4219 173.16 83.2852 173.031 83.1211 172.934C82.9609 172.836 82.7734 172.787 82.5586 172.787ZM92.5137 175.717C92.5137 176.408 92.459 177.025 92.3496 177.568C92.2441 178.111 92.0723 178.572 91.834 178.951C91.5996 179.33 91.291 179.619 90.9082 179.818C90.5254 180.018 90.0605 180.117 89.5137 180.117C88.8262 180.117 88.2617 179.943 87.8203 179.596C87.3789 179.244 87.0527 178.74 86.8418 178.084C86.6309 177.424 86.5254 176.635 86.5254 175.717C86.5254 174.791 86.6211 174 86.8125 173.344C87.0078 172.684 87.3242 172.178 87.7617 171.826C88.1992 171.475 88.7832 171.299 89.5137 171.299C90.1973 171.299 90.7598 171.475 91.2012 171.826C91.6465 172.174 91.9766 172.678 92.1914 173.338C92.4062 173.994 92.5137 174.787 92.5137 175.717ZM88.3242 175.717C88.3242 176.369 88.3594 176.914 88.4297 177.352C88.5039 177.785 88.627 178.111 88.7988 178.33C88.9707 178.549 89.209 178.658 89.5137 178.658C89.8145 178.658 90.0508 178.551 90.2227 178.336C90.3984 178.117 90.5234 177.791 90.5977 177.357C90.6719 176.92 90.709 176.373 90.709 175.717C90.709 175.064 90.6719 174.52 90.5977 174.082C90.5234 173.645 90.3984 173.316 90.2227 173.098C90.0508 172.875 89.8145 172.764 89.5137 172.764C89.209 172.764 88.9707 172.875 88.7988 173.098C88.627 173.316 88.5039 173.645 88.4297 174.082C88.3594 174.52 88.3242 175.064 88.3242 175.717ZM95.3496 171.311C96.0215 171.311 96.5312 171.545 96.8789 172.014C97.2266 172.482 97.4004 173.141 97.4004 173.988C97.4004 174.836 97.2363 175.498 96.9082 175.975C96.5801 176.451 96.0605 176.689 95.3496 176.689C94.6895 176.689 94.1875 176.451 93.8438 175.975C93.5 175.498 93.3281 174.836 93.3281 173.988C93.3281 173.141 93.4883 172.482 93.8086 172.014C94.1328 171.545 94.6465 171.311 95.3496 171.311ZM95.3613 172.535C95.1699 172.535 95.0293 172.656 94.9395 172.898C94.8496 173.141 94.8047 173.508 94.8047 174C94.8047 174.492 94.8496 174.861 94.9395 175.107C95.0293 175.354 95.1699 175.477 95.3613 175.477C95.5527 175.477 95.6934 175.355 95.7832 175.113C95.877 174.867 95.9238 174.496 95.9238 174C95.9238 173.508 95.877 173.141 95.7832 172.898C95.6934 172.656 95.5527 172.535 95.3613 172.535ZM101.432 171.434L96.6797 180H95.2734L100.025 171.434H101.432ZM101.35 174.732C102.021 174.732 102.531 174.967 102.879 175.436C103.227 175.904 103.4 176.562 103.4 177.41C103.4 178.254 103.236 178.914 102.908 179.391C102.58 179.867 102.061 180.105 101.35 180.105C100.689 180.105 100.188 179.867 99.8438 179.391C99.5 178.914 99.3281 178.254 99.3281 177.41C99.3281 176.562 99.4883 175.904 99.8086 175.436C100.133 174.967 100.646 174.732 101.35 174.732ZM101.361 175.957C101.17 175.957 101.029 176.078 100.939 176.32C100.85 176.562 100.805 176.93 100.805 177.422C100.805 177.914 100.85 178.283 100.939 178.529C101.029 178.775 101.17 178.898 101.361 178.898C101.553 178.898 101.693 178.777 101.783 178.535C101.877 178.289 101.924 177.918 101.924 177.422C101.924 176.93 101.877 176.562 101.783 176.32C101.693 176.078 101.553 175.957 101.361 175.957Z" fill="#838383"/>
<line x1="169.5" y1="270" x2="169.5" y2="151" stroke="#606060" stroke-dasharray="4 4"/>
<line x1="279.5" y1="270" x2="279.5" y2="131" stroke="#606060" stroke-dasharray="4 4"/>
<line x1="389.5" y1="270" x2="389.5" y2="165" stroke="#606060" stroke-dasharray="4 4"/>
<line x1="499.5" y1="270" x2="499.5" y2="108" stroke="#606060" stroke-dasharray="4 4"/>
<line x1="609.5" y1="270" x2="609.5" y2="116" stroke="#606060" stroke-dasharray="4 4"/>
<circle cx="609.5" cy="136.5" r="4.5" fill="#709CEE"/>
<line x1="719.5" y1="270" x2="719.5" y2="102" stroke="#606060" stroke-dasharray="4 4"/>
<circle cx="719.5" cy="142.5" r="4.5" fill="#FF9000"/>
</g>
<defs>
<filter id="filter0_d_599_882" x="0" y="0" width="744" height="398" filterUnits="userSpaceOnUse" color-interpolation-filters="sRGB">
<feFlood flood-opacity="0" result="BackgroundImageFix"/>
<feColorMatrix in="SourceAlpha" type="matrix" values="0 0 0 0 0 0 0 0 0 0 0 0 0 0 0 0 0 0 127 0" result="hardAlpha"/>
<feOffset dy="9"/>
<feGaussianBlur stdDeviation="6"/>
<feComposite in2="hardAlpha" operator="out"/>
<feColorMatrix type="matrix" values="0 0 0 0 0 0 0 0 0 0 0 0 0 0 0 0 0 0 0.25 0"/>
<feBlend mode="normal" in2="BackgroundImageFix" result="effect1_dropShadow_599_882"/>
<feBlend mode="normal" in="SourceGraphic" in2="effect1_dropShadow_599_882" result="shape"/>
</filter>
<linearGradient id="paint0_linear_599_882" x1="464" y1="130.5" x2="464" y2="270" gradientUnits="userSpaceOnUse">
<stop stop-color="#FF9000" stop-opacity="0.15"/>
<stop offset="0.527455" stop-color="#1F2029" stop-opacity="0.03"/>
<stop offset="1" stop-color="#1F2029"/>
</linearGradient>
<linearGradient id="paint1_linear_599_882" x1="464" y1="130.5" x2="464" y2="270" gradientUnits="userSpaceOnUse">
<stop stop-color="#709CEE" stop-opacity="0"/>
<stop offset="1"/>
</linearGradient>
</defs>
</svg>
