<svg width="278" height="416" viewBox="0 0 278 416" fill="none" xmlns="http://www.w3.org/2000/svg">
<g filter="url(#filter0_d_599_703)">
<rect x="11.7137" y="8.35742" width="254.77" height="392.809" rx="14.823" fill="white"/>
<mask id="path-2-inside-1_599_703" fill="white">
<path d="M24.6838 89.1808C24.6838 88.5457 25.1987 88.0308 25.8339 88.0308H252.363C252.998 88.0308 253.513 88.5457 253.513 89.1808V133.202C253.513 133.838 252.998 134.353 252.363 134.353H25.8339C25.1987 134.353 24.6838 133.838 24.6838 133.202V89.1808Z"/>
</mask>
<path d="M24.6838 89.1808C24.6838 88.5457 25.1987 88.0308 25.8339 88.0308H252.363C252.998 88.0308 253.513 88.5457 253.513 89.1808V133.202C253.513 133.838 252.998 134.353 252.363 134.353H25.8339C25.1987 134.353 24.6838 133.838 24.6838 133.202V89.1808Z" fill="white"/>
<path d="M24.6838 88.0308H253.513H24.6838ZM253.513 134.353H24.6838H253.513ZM25.8339 134.353C22.6581 134.353 20.0836 131.778 20.0836 128.602V93.781C20.0836 90.6053 22.6581 88.0308 25.8339 88.0308H29.2841C29.2841 88.0308 29.2841 88.5457 29.2841 89.1808V133.202C29.2841 133.838 29.2841 134.353 29.2841 134.353H25.8339ZM253.513 88.0308V134.353V88.0308Z" fill="#098CF3" mask="url(#path-2-inside-1_599_703)"/>
<path d="M47.3113 117.191H45.6075V106.725H51.5209V108.171H47.3113V111.435H51.2488V112.874H47.3113V117.191ZM54.9358 109.266V117.191H53.2534V109.266H54.9358ZM54.1053 106.231C54.363 106.231 54.585 106.3 54.7711 106.438C54.962 106.577 55.0575 106.815 55.0575 107.154C55.0575 107.488 54.962 107.727 54.7711 107.87C54.585 108.009 54.363 108.078 54.1053 108.078C53.838 108.078 53.6113 108.009 53.4252 107.87C53.2438 107.727 53.1532 107.488 53.1532 107.154C53.1532 106.815 53.2438 106.577 53.4252 106.438C53.6113 106.3 53.838 106.231 54.1053 106.231ZM61.4792 109.116C62.3717 109.116 63.0661 109.347 63.5625 109.81C64.0636 110.269 64.3142 111.006 64.3142 112.023V117.191H62.6318V112.338C62.6318 111.722 62.5053 111.261 62.2524 110.956C61.9994 110.646 61.6081 110.49 61.0783 110.49C60.3099 110.49 59.7753 110.727 59.4746 111.199C59.1787 111.672 59.0308 112.357 59.0308 113.254V117.191H57.3484V109.266H58.6585L58.8948 110.34H58.9878C59.1596 110.063 59.372 109.837 59.625 109.66C59.8827 109.479 60.1691 109.343 60.4841 109.252C60.8038 109.161 61.1356 109.116 61.4792 109.116ZM69.8267 109.116C70.5331 109.116 71.1392 109.262 71.6451 109.553C72.151 109.844 72.54 110.257 72.812 110.791C73.0841 111.326 73.2201 111.965 73.2201 112.71V113.612H67.9295C67.9486 114.38 68.1539 114.972 68.5452 115.387C68.9414 115.803 69.495 116.01 70.2061 116.01C70.712 116.01 71.1655 115.962 71.5664 115.867C71.972 115.767 72.3897 115.621 72.8192 115.43V116.798C72.4231 116.984 72.0198 117.12 71.6093 117.206C71.1989 117.292 70.7073 117.335 70.1345 117.335C69.3566 117.335 68.6717 117.184 68.0799 116.884C67.4928 116.578 67.0323 116.125 66.6982 115.523C66.3689 114.922 66.2042 114.175 66.2042 113.283C66.2042 112.395 66.3545 111.641 66.6552 111.02C66.9559 110.4 67.3783 109.927 67.9224 109.603C68.4665 109.278 69.1012 109.116 69.8267 109.116ZM69.8267 110.383C69.2969 110.383 68.8674 110.555 68.5381 110.899C68.2135 111.242 68.0226 111.746 67.9653 112.409H71.5735C71.5688 112.013 71.5019 111.662 71.3731 111.357C71.249 111.051 71.0581 110.813 70.8003 110.641C70.5474 110.469 70.2228 110.383 69.8267 110.383ZM82.033 109.116C83.0352 109.116 83.7917 109.338 84.3024 109.782C84.8179 110.226 85.0756 110.918 85.0756 111.858V117.191H83.88L83.5579 116.067H83.5006C83.2763 116.354 83.0448 116.59 82.8062 116.776C82.5675 116.962 82.2907 117.101 81.9757 117.191C81.6655 117.287 81.286 117.335 80.8374 117.335C80.3649 117.335 79.9425 117.249 79.5702 117.077C79.198 116.9 78.9044 116.633 78.6897 116.275C78.4749 115.917 78.3675 115.464 78.3675 114.915C78.3675 114.099 78.6706 113.485 79.2767 113.075C79.8876 112.664 80.8088 112.438 82.0401 112.395L83.4147 112.345V111.929C83.4147 111.381 83.2858 110.989 83.0281 110.755C82.7751 110.522 82.4172 110.405 81.9542 110.405C81.5581 110.405 81.1739 110.462 80.8016 110.576C80.4293 110.691 80.0666 110.832 79.7134 110.999L79.1693 109.81C79.5559 109.605 79.995 109.438 80.4866 109.309C80.983 109.18 81.4984 109.116 82.033 109.116ZM83.4075 113.404L82.3838 113.44C81.5438 113.469 80.9543 113.612 80.6155 113.87C80.2766 114.127 80.1072 114.48 80.1072 114.929C80.1072 115.32 80.2241 115.607 80.458 115.788C80.6918 115.965 80.9997 116.053 81.3815 116.053C81.9638 116.053 82.4458 115.888 82.8276 115.559C83.2142 115.225 83.4075 114.736 83.4075 114.092V113.404ZM91.4472 109.116C91.5808 109.116 91.7264 109.123 91.8839 109.137C92.0414 109.152 92.1774 109.171 92.292 109.195L92.1345 110.77C92.0342 110.741 91.9101 110.72 91.7622 110.705C91.619 110.691 91.4901 110.684 91.3756 110.684C91.0749 110.684 90.7886 110.734 90.5165 110.834C90.2445 110.93 90.0034 111.078 89.7934 111.278C89.5834 111.474 89.4188 111.719 89.2995 112.015C89.1801 112.311 89.1205 112.655 89.1205 113.046V117.191H87.4309V109.266H88.7482L88.9773 110.662H89.0561C89.2136 110.381 89.4092 110.123 89.6431 109.889C89.877 109.655 90.1442 109.469 90.4449 109.331C90.7504 109.188 91.0845 109.116 91.4472 109.116ZM96.7091 115.974C96.9287 115.974 97.1458 115.955 97.3606 115.917C97.5754 115.874 97.7711 115.824 97.9477 115.767V117.041C97.7615 117.122 97.5205 117.191 97.2246 117.249C96.9287 117.306 96.6208 117.335 96.3011 117.335C95.8524 117.335 95.4491 117.261 95.0912 117.113C94.7332 116.96 94.4492 116.7 94.2392 116.332C94.0292 115.965 93.9242 115.457 93.9242 114.807V110.548H92.8432V109.796L94.003 109.202L94.5542 107.505H95.6138V109.266H97.8832V110.548H95.6138V114.786C95.6138 115.187 95.714 115.485 95.9145 115.681C96.1149 115.877 96.3798 115.974 96.7091 115.974ZM104.885 114.929C104.885 115.449 104.758 115.888 104.505 116.246C104.252 116.604 103.883 116.876 103.396 117.063C102.914 117.244 102.322 117.335 101.62 117.335C101.067 117.335 100.589 117.294 100.188 117.213C99.7923 117.137 99.4177 117.017 99.0645 116.855V115.402C99.4415 115.578 99.8639 115.731 100.332 115.86C100.804 115.989 101.25 116.053 101.67 116.053C102.224 116.053 102.623 115.967 102.866 115.795C103.109 115.619 103.231 115.385 103.231 115.094C103.231 114.922 103.181 114.769 103.081 114.636C102.985 114.497 102.804 114.356 102.537 114.213C102.274 114.065 101.888 113.889 101.377 113.683C100.876 113.483 100.453 113.283 100.11 113.082C99.7661 112.882 99.506 112.641 99.3294 112.359C99.1528 112.073 99.0645 111.708 99.0645 111.264C99.0645 110.562 99.3413 110.03 99.8949 109.667C100.453 109.3 101.191 109.116 102.107 109.116C102.594 109.116 103.052 109.166 103.482 109.266C103.916 109.362 104.341 109.503 104.756 109.689L104.226 110.956C103.868 110.798 103.508 110.669 103.145 110.569C102.787 110.464 102.422 110.412 102.05 110.412C101.616 110.412 101.284 110.479 101.055 110.612C100.83 110.746 100.718 110.937 100.718 111.185C100.718 111.371 100.773 111.529 100.883 111.657C100.993 111.786 101.181 111.915 101.448 112.044C101.721 112.173 102.098 112.333 102.58 112.524C103.052 112.705 103.46 112.896 103.804 113.096C104.152 113.292 104.419 113.533 104.606 113.819C104.792 114.106 104.885 114.476 104.885 114.929Z" fill="#808080"/>
<mask id="path-5-inside-2_599_703" fill="white">
<path d="M24.6838 143.84C24.6838 143.205 25.1987 142.69 25.8339 142.69H252.363C252.998 142.69 253.513 143.205 253.513 143.84V187.862C253.513 188.497 252.998 189.012 252.363 189.012H25.8339C25.1987 189.012 24.6838 188.497 24.6838 187.862V143.84Z"/>
</mask>
<path d="M24.6838 143.84C24.6838 143.205 25.1987 142.69 25.8339 142.69H252.363C252.998 142.69 253.513 143.205 253.513 143.84V187.862C253.513 188.497 252.998 189.012 252.363 189.012H25.8339C25.1987 189.012 24.6838 188.497 24.6838 187.862V143.84Z" fill="white"/>
<path d="M24.6838 142.69H253.513H24.6838ZM253.513 189.012H24.6838H253.513ZM25.8339 189.012C22.6581 189.012 20.0836 186.438 20.0836 183.262V148.441C20.0836 145.265 22.6581 142.69 25.8339 142.69H29.2841C29.2841 142.69 29.2841 143.205 29.2841 143.84V187.862C29.2841 188.497 29.2841 189.012 29.2841 189.012H25.8339ZM253.513 142.69V189.012V142.69Z" fill="#098CF3" mask="url(#path-5-inside-2_599_703)"/>
<path d="M45.6075 171.851V161.384H47.3256V170.391H51.7714V171.851H45.6075ZM55.0933 163.926V171.851H53.4109V163.926H55.0933ZM54.2628 160.89C54.5205 160.89 54.7425 160.96 54.9286 161.098C55.1195 161.237 55.215 161.475 55.215 161.814C55.215 162.148 55.1195 162.387 54.9286 162.53C54.7425 162.668 54.5205 162.738 54.2628 162.738C53.9955 162.738 53.7688 162.668 53.5827 162.53C53.4013 162.387 53.3107 162.148 53.3107 161.814C53.3107 161.475 53.4013 161.237 53.5827 161.098C53.7688 160.96 53.9955 160.89 54.2628 160.89ZM60.4554 170.634C60.675 170.634 60.8921 170.615 61.1069 170.577C61.3217 170.534 61.5174 170.484 61.694 170.426V171.701C61.5078 171.782 61.2668 171.851 60.9709 171.908C60.675 171.966 60.3671 171.994 60.0474 171.994C59.5987 171.994 59.1954 171.92 58.8375 171.772C58.4795 171.62 58.1955 171.359 57.9855 170.992C57.7755 170.624 57.6705 170.116 57.6705 169.467V165.207H56.5895V164.456L57.7493 163.862L58.3005 162.165H59.3601V163.926H61.6295V165.207H59.3601V169.446C59.3601 169.847 59.4603 170.145 59.6608 170.341C59.8612 170.536 60.1261 170.634 60.4554 170.634ZM66.4619 163.776C67.1683 163.776 67.7744 163.921 68.2803 164.212C68.7862 164.503 69.1752 164.916 69.4473 165.451C69.7193 165.985 69.8553 166.625 69.8553 167.369V168.272H64.5648C64.5839 169.04 64.7891 169.632 65.1804 170.047C65.5766 170.462 66.1302 170.67 66.8414 170.67C67.3473 170.67 67.8007 170.622 68.2016 170.527C68.6073 170.426 69.0249 170.281 69.4544 170.09V171.457C69.0583 171.643 68.655 171.779 68.2445 171.865C67.8341 171.951 67.3425 171.994 66.7698 171.994C65.9918 171.994 65.3069 171.844 64.7151 171.543C64.1281 171.238 63.6675 170.784 63.3334 170.183C63.0041 169.582 62.8394 168.835 62.8394 167.942C62.8394 167.054 62.9898 166.3 63.2904 165.68C63.5911 165.059 64.0135 164.587 64.5576 164.262C65.1017 163.938 65.7365 163.776 66.4619 163.776ZM66.4619 165.043C65.9322 165.043 65.5026 165.215 65.1733 165.558C64.8487 165.902 64.6578 166.405 64.6006 167.069H68.2087C68.204 166.673 68.1372 166.322 68.0083 166.016C67.8842 165.711 67.6933 165.472 67.4356 165.3C67.1826 165.129 66.8581 165.043 66.4619 165.043ZM75.7688 163.776C75.9024 163.776 76.048 163.783 76.2055 163.797C76.363 163.811 76.499 163.83 76.6135 163.854L76.456 165.429C76.3558 165.401 76.2317 165.379 76.0838 165.365C75.9406 165.351 75.8117 165.343 75.6972 165.343C75.3965 165.343 75.1101 165.394 74.8381 165.494C74.566 165.589 74.325 165.737 74.115 165.938C73.905 166.133 73.7403 166.379 73.621 166.675C73.5017 166.971 73.442 167.315 73.442 167.706V171.851H71.7525V163.926H73.0698L73.2989 165.322H73.3776C73.5351 165.04 73.7308 164.783 73.9647 164.549C74.1985 164.315 74.4658 164.129 74.7665 163.99C75.0719 163.847 75.406 163.776 75.7688 163.776ZM81.1882 163.776C82.1905 163.776 82.947 163.998 83.4576 164.441C83.9731 164.885 84.2308 165.577 84.2308 166.518V171.851H83.0352L82.7131 170.727H82.6558C82.4315 171.013 82.2 171.25 81.9614 171.436C81.7227 171.622 81.4459 171.76 81.1309 171.851C80.8207 171.947 80.4413 171.994 79.9926 171.994C79.5201 171.994 79.0977 171.908 78.7255 171.737C78.3532 171.56 78.0597 171.293 77.8449 170.935C77.6301 170.577 77.5227 170.123 77.5227 169.574C77.5227 168.758 77.8258 168.145 78.4319 167.735C79.0429 167.324 79.964 167.097 81.1954 167.054L82.5699 167.004V166.589C82.5699 166.04 82.441 165.649 82.1833 165.415C81.9304 165.181 81.5724 165.064 81.1094 165.064C80.7133 165.064 80.3291 165.122 79.9568 165.236C79.5846 165.351 79.2218 165.491 78.8686 165.658L78.3246 164.47C78.7111 164.265 79.1502 164.098 79.6418 163.969C80.1382 163.84 80.6537 163.776 81.1882 163.776ZM82.5627 168.064L81.539 168.1C80.699 168.128 80.1096 168.272 79.7707 168.529C79.4318 168.787 79.2624 169.14 79.2624 169.589C79.2624 169.98 79.3793 170.267 79.6132 170.448C79.8471 170.624 80.1549 170.713 80.5367 170.713C81.119 170.713 81.601 170.548 81.9829 170.219C82.3694 169.885 82.5627 169.396 82.5627 168.751V168.064ZM89.5357 170.634C89.7553 170.634 89.9724 170.615 90.1872 170.577C90.402 170.534 90.5976 170.484 90.7742 170.426V171.701C90.5881 171.782 90.3471 171.851 90.0512 171.908C89.7553 171.966 89.4474 171.994 89.1276 171.994C88.679 171.994 88.2757 171.92 87.9178 171.772C87.5598 171.62 87.2758 171.359 87.0658 170.992C86.8558 170.624 86.7508 170.116 86.7508 169.467V165.207H85.6698V164.456L86.8296 163.862L87.3808 162.165H88.4404V163.926H90.7098V165.207H88.4404V169.446C88.4404 169.847 88.5406 170.145 88.7411 170.341C88.9415 170.536 89.2064 170.634 89.5357 170.634ZM99.2936 163.926V171.851H97.9691L97.74 170.784H97.647C97.4799 171.056 97.2675 171.283 97.0098 171.464C96.7521 171.641 96.4657 171.772 96.1507 171.858C95.8357 171.949 95.504 171.994 95.1556 171.994C94.559 171.994 94.0483 171.894 93.6236 171.694C93.2036 171.488 92.8814 171.173 92.6571 170.749C92.4328 170.324 92.3206 169.775 92.3206 169.102V163.926H94.0102V168.787C94.0102 169.403 94.1342 169.863 94.3824 170.169C94.6354 170.474 95.0267 170.627 95.5565 170.627C96.0672 170.627 96.4729 170.522 96.7736 170.312C97.0742 170.102 97.2866 169.792 97.4107 169.381C97.5396 168.971 97.604 168.467 97.604 167.871V163.926H99.2936ZM105.722 163.776C105.856 163.776 106.002 163.783 106.159 163.797C106.317 163.811 106.453 163.83 106.567 163.854L106.41 165.429C106.309 165.401 106.185 165.379 106.037 165.365C105.894 165.351 105.765 165.343 105.651 165.343C105.35 165.343 105.064 165.394 104.792 165.494C104.52 165.589 104.279 165.737 104.069 165.938C103.859 166.133 103.694 166.379 103.575 166.675C103.455 166.971 103.396 167.315 103.396 167.706V171.851H101.706V163.926H103.023L103.253 165.322H103.331C103.489 165.04 103.684 164.783 103.918 164.549C104.152 164.315 104.419 164.129 104.72 163.99C105.026 163.847 105.36 163.776 105.722 163.776ZM111.192 163.776C111.898 163.776 112.504 163.921 113.01 164.212C113.516 164.503 113.905 164.916 114.177 165.451C114.449 165.985 114.585 166.625 114.585 167.369V168.272H109.295C109.314 169.04 109.519 169.632 109.911 170.047C110.307 170.462 110.86 170.67 111.571 170.67C112.077 170.67 112.531 170.622 112.932 170.527C113.337 170.426 113.755 170.281 114.185 170.09V171.457C113.788 171.643 113.385 171.779 112.975 171.865C112.564 171.951 112.073 171.994 111.5 171.994C110.722 171.994 110.037 171.844 109.445 171.543C108.858 171.238 108.398 170.784 108.063 170.183C107.734 169.582 107.569 168.835 107.569 167.942C107.569 167.054 107.72 166.3 108.021 165.68C108.321 165.059 108.744 164.587 109.288 164.262C109.832 163.938 110.467 163.776 111.192 163.776ZM111.192 165.043C110.662 165.043 110.233 165.215 109.903 165.558C109.579 165.902 109.388 166.405 109.331 167.069H112.939C112.934 166.673 112.867 166.322 112.738 166.016C112.614 165.711 112.423 165.472 112.166 165.3C111.913 165.129 111.588 165.043 111.192 165.043Z" fill="#808080"/>
<mask id="path-8-inside-3_599_703" fill="white">
<path d="M24.6838 198.5C24.6838 197.865 25.1987 197.35 25.8339 197.35H252.363C252.998 197.35 253.513 197.865 253.513 198.5V242.522C253.513 243.157 252.998 243.672 252.363 243.672H25.8339C25.1987 243.672 24.6838 243.157 24.6838 242.522V198.5Z"/>
</mask>
<path d="M24.6838 198.5C24.6838 197.865 25.1987 197.35 25.8339 197.35H252.363C252.998 197.35 253.513 197.865 253.513 198.5V242.522C253.513 243.157 252.998 243.672 252.363 243.672H25.8339C25.1987 243.672 24.6838 243.157 24.6838 242.522V198.5Z" fill="white"/>
<path d="M24.6838 197.35H253.513H24.6838ZM253.513 243.672H24.6838H253.513ZM25.8339 243.672C22.6581 243.672 20.0836 241.097 20.0836 237.922V203.1C20.0836 199.925 22.6581 197.35 25.8339 197.35H29.2841C29.2841 197.35 29.2841 197.865 29.2841 198.5V242.522C29.2841 243.157 29.2841 243.672 29.2841 243.672H25.8339ZM253.513 197.35V243.672V197.35Z" fill="#098CF3" mask="url(#path-8-inside-3_599_703)"/>
<path d="M50.1249 226.511L47.1109 217.769H47.0464C47.0608 217.965 47.0775 218.232 47.0966 218.571C47.1156 218.91 47.1323 219.273 47.1467 219.659C47.161 220.046 47.1681 220.416 47.1681 220.769V226.511H45.6075V216.044H48.0201L50.9195 224.399H50.9625L53.9621 216.044H56.3676V226.511H54.7282V220.683C54.7282 220.363 54.7329 220.017 54.7425 219.645C54.7568 219.273 54.7711 218.92 54.7854 218.586C54.8045 218.252 54.8188 217.984 54.8284 217.784H54.7711L51.6426 226.511H50.1249ZM65.8606 218.586V226.511H64.5361L64.307 225.444H64.214C64.0469 225.716 63.8345 225.943 63.5768 226.124C63.3191 226.301 63.0327 226.432 62.7177 226.518C62.4027 226.609 62.071 226.654 61.7226 226.654C61.126 226.654 60.6153 226.554 60.1906 226.353C59.7705 226.148 59.4484 225.833 59.2241 225.408C58.9998 224.983 58.8876 224.435 58.8876 223.762V218.586H60.5771V223.447C60.5771 224.062 60.7012 224.523 60.9494 224.828C61.2024 225.134 61.5937 225.287 62.1235 225.287C62.6342 225.287 63.0399 225.182 63.3406 224.972C63.6412 224.762 63.8536 224.451 63.9777 224.041C64.1066 223.63 64.171 223.127 64.171 222.53V218.586H65.8606ZM73.5995 224.248C73.5995 224.769 73.4731 225.208 73.2201 225.566C72.9672 225.924 72.5973 226.196 72.1105 226.382C71.6284 226.563 71.0366 226.654 70.335 226.654C69.7814 226.654 69.3041 226.613 68.9032 226.532C68.507 226.456 68.1324 226.337 67.7792 226.174V224.721C68.1562 224.898 68.5786 225.05 69.0464 225.179C69.5189 225.308 69.9651 225.372 70.3851 225.372C70.9387 225.372 71.3373 225.287 71.5807 225.115C71.8241 224.938 71.9458 224.704 71.9458 224.413C71.9458 224.241 71.8957 224.089 71.7955 223.955C71.7 223.817 71.5186 223.676 71.2514 223.533C70.9889 223.385 70.6023 223.208 70.0916 223.003C69.5905 222.802 69.1681 222.602 68.8244 222.401C68.4808 222.201 68.2207 221.96 68.0441 221.678C67.8675 221.392 67.7792 221.027 67.7792 220.583C67.7792 219.881 68.056 219.349 68.6097 218.987C69.1681 218.619 69.9055 218.435 70.8218 218.435C71.3086 218.435 71.7668 218.485 72.1964 218.586C72.6307 218.681 73.0555 218.822 73.4707 219.008L72.9409 220.275C72.583 220.118 72.2226 219.989 71.8599 219.889C71.5019 219.784 71.1368 219.731 70.7645 219.731C70.3302 219.731 69.9985 219.798 69.7694 219.932C69.5451 220.065 69.433 220.256 69.433 220.504C69.433 220.69 69.4878 220.848 69.5976 220.977C69.7074 221.106 69.8959 221.234 70.1632 221.363C70.4352 221.492 70.8123 221.652 71.2943 221.843C71.7668 222.024 72.1749 222.215 72.5185 222.416C72.8669 222.611 73.1342 222.852 73.3203 223.139C73.5065 223.425 73.5995 223.795 73.5995 224.248ZM77.1004 218.586V226.511H75.418V218.586H77.1004ZM76.2699 215.55C76.5276 215.55 76.7496 215.619 76.9357 215.758C77.1266 215.896 77.2221 216.135 77.2221 216.474C77.2221 216.808 77.1266 217.046 76.9357 217.19C76.7496 217.328 76.5276 217.397 76.2699 217.397C76.0026 217.397 75.7759 217.328 75.5898 217.19C75.4084 217.046 75.3177 216.808 75.3177 216.474C75.3177 216.135 75.4084 215.896 75.5898 215.758C75.7759 215.619 76.0026 215.55 76.2699 215.55ZM82.7059 226.654C81.9566 226.654 81.3075 226.508 80.7587 226.217C80.2098 225.926 79.7874 225.48 79.4915 224.878C79.1956 224.277 79.0476 223.513 79.0476 222.588C79.0476 221.623 79.2099 220.836 79.5344 220.225C79.859 219.614 80.3076 219.163 80.8804 218.872C81.4579 218.581 82.1189 218.435 82.8634 218.435C83.3359 218.435 83.7631 218.483 84.1449 218.578C84.5315 218.669 84.8584 218.781 85.1257 218.915L84.6246 220.261C84.3334 220.142 84.0351 220.041 83.7297 219.96C83.4242 219.879 83.1307 219.838 82.8491 219.838C82.3862 219.838 81.9996 219.941 81.6893 220.146C81.3839 220.352 81.1548 220.657 81.0021 221.063C80.8541 221.468 80.7801 221.972 80.7801 222.573C80.7801 223.156 80.8565 223.647 81.0092 224.048C81.1619 224.444 81.3887 224.745 81.6893 224.95C81.99 225.151 82.3599 225.251 82.799 225.251C83.2333 225.251 83.6223 225.198 83.9659 225.093C84.3096 224.988 84.6341 224.852 84.9396 224.685V226.146C84.6389 226.317 84.3167 226.444 83.9731 226.525C83.6295 226.611 83.2071 226.654 82.7059 226.654Z" fill="#808080"/>
<mask id="path-11-inside-4_599_703" fill="white">
<path d="M24.6838 253.16C24.6838 252.525 25.1987 252.01 25.8339 252.01H252.363C252.998 252.01 253.513 252.525 253.513 253.16V297.181C253.513 297.817 252.998 298.332 252.363 298.332H25.8339C25.1987 298.332 24.6838 297.817 24.6838 297.181V253.16Z"/>
</mask>
<path d="M24.6838 253.16C24.6838 252.525 25.1987 252.01 25.8339 252.01H252.363C252.998 252.01 253.513 252.525 253.513 253.16V297.181C253.513 297.817 252.998 298.332 252.363 298.332H25.8339C25.1987 298.332 24.6838 297.817 24.6838 297.181V253.16Z" fill="white"/>
<path d="M24.6838 252.01H253.513H24.6838ZM253.513 298.332H24.6838H253.513ZM25.8339 298.332C22.6581 298.332 20.0836 295.757 20.0836 292.581V257.76C20.0836 254.584 22.6581 252.01 25.8339 252.01H29.2841C29.2841 252.01 29.2841 252.525 29.2841 253.16V297.181C29.2841 297.817 29.2841 298.332 29.2841 298.332H25.8339ZM253.513 252.01V298.332V252.01Z" fill="#098CF3" mask="url(#path-11-inside-4_599_703)"/>
<path d="M45.6075 281.17V270.704H47.3256V279.71H51.7714V281.17H45.6075ZM56.5179 273.095C57.5202 273.095 58.2767 273.317 58.7874 273.761C59.3028 274.205 59.5605 274.897 59.5605 275.837V281.17H58.365L58.0428 280.046H57.9855C57.7612 280.333 57.5298 280.569 57.2911 280.755C57.0525 280.941 56.7757 281.08 56.4607 281.17C56.1504 281.266 55.771 281.314 55.3224 281.314C54.8499 281.314 54.4275 281.228 54.0552 281.056C53.6829 280.879 53.3894 280.612 53.1746 280.254C52.9599 279.896 52.8525 279.443 52.8525 278.894C52.8525 278.078 53.1555 277.464 53.7617 277.054C54.3726 276.643 55.2937 276.417 56.5251 276.374L57.8996 276.324V275.908C57.8996 275.36 57.7708 274.968 57.513 274.734C57.2601 274.501 56.9021 274.384 56.4392 274.384C56.043 274.384 55.6588 274.441 55.2866 274.555C54.9143 274.67 54.5516 274.811 54.1984 274.978L53.6543 273.789C54.0409 273.584 54.48 273.417 54.9716 273.288C55.4679 273.159 55.9834 273.095 56.5179 273.095ZM57.8925 277.383L56.8687 277.419C56.0287 277.448 55.4393 277.591 55.1004 277.849C54.7616 278.106 54.5921 278.459 54.5921 278.908C54.5921 279.299 54.7091 279.586 54.9429 279.767C55.1768 279.944 55.4846 280.032 55.8665 280.032C56.4487 280.032 56.9308 279.867 57.3126 279.538C57.6992 279.204 57.8925 278.715 57.8925 278.071V277.383ZM66.0467 273.095C66.9392 273.095 67.6336 273.326 68.13 273.789C68.6311 274.248 68.8817 274.985 68.8817 276.002V281.17H67.1993V276.317C67.1993 275.701 67.0728 275.24 66.8199 274.935C66.5669 274.625 66.1756 274.469 65.6458 274.469C64.8774 274.469 64.3428 274.706 64.0421 275.178C63.7462 275.651 63.5983 276.336 63.5983 277.233V281.17H61.9159V273.245H63.226L63.4623 274.319H63.5553C63.7271 274.042 63.9395 273.816 64.1925 273.639C64.4502 273.458 64.7366 273.322 65.0516 273.231C65.3714 273.14 65.7031 273.095 66.0467 273.095ZM73.4993 284.693C72.4255 284.693 71.6022 284.499 71.0294 284.113C70.4567 283.726 70.1703 283.185 70.1703 282.488C70.1703 282.001 70.3231 281.588 70.6285 281.249C70.934 280.915 71.3707 280.684 71.9386 280.555C71.7239 280.459 71.5377 280.311 71.3802 280.111C71.2275 279.906 71.1511 279.679 71.1511 279.431C71.1511 279.135 71.2347 278.882 71.4017 278.672C71.5688 278.462 71.8193 278.259 72.1534 278.063C71.7382 277.887 71.4041 277.6 71.1511 277.204C70.903 276.803 70.7789 276.333 70.7789 275.794C70.7789 275.221 70.9006 274.734 71.144 274.333C71.3874 273.928 71.743 273.62 72.2107 273.41C72.6784 273.195 73.244 273.088 73.9074 273.088C74.0506 273.088 74.2057 273.097 74.3727 273.116C74.5446 273.131 74.7021 273.15 74.8452 273.174C74.9932 273.193 75.1053 273.214 75.1817 273.238H77.9236V274.176L76.5777 274.427C76.7066 274.608 76.8092 274.816 76.8856 275.049C76.9619 275.278 77.0001 275.529 77.0001 275.801C77.0001 276.622 76.7161 277.269 76.1482 277.741C75.585 278.209 74.8071 278.443 73.8143 278.443C73.5757 278.433 73.3442 278.414 73.1199 278.386C72.9481 278.491 72.8168 278.607 72.7261 278.736C72.6355 278.86 72.5901 279.001 72.5901 279.159C72.5901 279.288 72.6355 279.393 72.7261 279.474C72.8168 279.55 72.9505 279.607 73.127 279.646C73.3084 279.684 73.528 279.703 73.7857 279.703H75.1531C76.0217 279.703 76.6851 279.887 77.1433 280.254C77.6015 280.622 77.8306 281.161 77.8306 281.872C77.8306 282.774 77.4583 283.468 76.7138 283.955C75.9692 284.447 74.8977 284.693 73.4993 284.693ZM73.5638 283.511C74.1508 283.511 74.6448 283.454 75.0457 283.34C75.4466 283.225 75.7497 283.06 75.9549 282.846C76.1601 282.636 76.2627 282.385 76.2627 282.094C76.2627 281.836 76.1983 281.638 76.0694 281.5C75.9406 281.361 75.7473 281.266 75.4896 281.213C75.2318 281.161 74.9121 281.135 74.5302 281.135H73.2845C72.9743 281.135 72.6999 281.182 72.4613 281.278C72.2226 281.378 72.0365 281.521 71.9028 281.707C71.774 281.893 71.7095 282.118 71.7095 282.38C71.7095 282.743 71.8694 283.022 72.1892 283.218C72.5138 283.414 72.9719 283.511 73.5638 283.511ZM73.8931 277.34C74.3847 277.34 74.7498 277.207 74.9884 276.939C75.2271 276.667 75.3464 276.286 75.3464 275.794C75.3464 275.259 75.2223 274.858 74.9741 274.591C74.7307 274.324 74.368 274.19 73.8859 274.19C73.4134 274.19 73.0531 274.326 72.8049 274.598C72.5615 274.87 72.4398 275.274 72.4398 275.808C72.4398 276.29 72.5615 276.667 72.8049 276.939C73.0531 277.207 73.4158 277.34 73.8931 277.34ZM86.2783 273.245V281.17H84.9539L84.7248 280.104H84.6317C84.4647 280.376 84.2523 280.602 83.9946 280.784C83.7368 280.96 83.4505 281.092 83.1355 281.178C82.8205 281.268 82.4888 281.314 82.1404 281.314C81.5438 281.314 81.0331 281.213 80.6083 281.013C80.1883 280.808 79.8662 280.493 79.6418 280.068C79.4175 279.643 79.3054 279.094 79.3054 278.421V273.245H80.9949V278.106C80.9949 278.722 81.119 279.183 81.3672 279.488C81.6201 279.793 82.0115 279.946 82.5413 279.946C83.052 279.946 83.4576 279.841 83.7583 279.631C84.059 279.421 84.2714 279.111 84.3955 278.701C84.5243 278.29 84.5888 277.787 84.5888 277.19V273.245H86.2783ZM91.798 273.095C92.8003 273.095 93.5567 273.317 94.0674 273.761C94.5829 274.205 94.8406 274.897 94.8406 275.837V281.17H93.645L93.3229 280.046H93.2656C93.0413 280.333 92.8098 280.569 92.5712 280.755C92.3325 280.941 92.0557 281.08 91.7407 281.17C91.4305 281.266 91.0511 281.314 90.6024 281.314C90.1299 281.314 89.7075 281.228 89.3353 281.056C88.963 280.879 88.6695 280.612 88.4547 280.254C88.2399 279.896 88.1325 279.443 88.1325 278.894C88.1325 278.078 88.4356 277.464 89.0417 277.054C89.6526 276.643 90.5738 276.417 91.8051 276.374L93.1797 276.324V275.908C93.1797 275.36 93.0508 274.968 92.7931 274.734C92.5401 274.501 92.1822 274.384 91.7192 274.384C91.3231 274.384 90.9389 274.441 90.5666 274.555C90.1943 274.67 89.8316 274.811 89.4784 274.978L88.9343 273.789C89.3209 273.584 89.76 273.417 90.2516 273.288C90.748 273.159 91.2634 273.095 91.798 273.095ZM93.1725 277.383L92.1488 277.419C91.3088 277.448 90.7194 277.591 90.3805 277.849C90.0416 278.106 89.8722 278.459 89.8722 278.908C89.8722 279.299 89.9891 279.586 90.223 279.767C90.4569 279.944 90.7647 280.032 91.1465 280.032C91.7288 280.032 92.2108 279.867 92.5926 279.538C92.9792 279.204 93.1725 278.715 93.1725 278.071V277.383ZM99.4582 284.693C98.3844 284.693 97.5611 284.499 96.9883 284.113C96.4156 283.726 96.1292 283.185 96.1292 282.488C96.1292 282.001 96.282 281.588 96.5874 281.249C96.8929 280.915 97.3296 280.684 97.8975 280.555C97.6828 280.459 97.4966 280.311 97.3391 280.111C97.1864 279.906 97.11 279.679 97.11 279.431C97.11 279.135 97.1936 278.882 97.3606 278.672C97.5277 278.462 97.7782 278.259 98.1123 278.063C97.6971 277.887 97.363 277.6 97.11 277.204C96.8619 276.803 96.7378 276.333 96.7378 275.794C96.7378 275.221 96.8595 274.734 97.1029 274.333C97.3463 273.928 97.7019 273.62 98.1696 273.41C98.6373 273.195 99.2029 273.088 99.8663 273.088C100.009 273.088 100.165 273.097 100.332 273.116C100.503 273.131 100.661 273.15 100.804 273.174C100.952 273.193 101.064 273.214 101.141 273.238H103.883V274.176L102.537 274.427C102.666 274.608 102.768 274.816 102.844 275.049C102.921 275.278 102.959 275.529 102.959 275.801C102.959 276.622 102.675 277.269 102.107 277.741C101.544 278.209 100.766 278.443 99.7732 278.443C99.5346 278.433 99.3031 278.414 99.0788 278.386C98.907 278.491 98.7757 278.607 98.685 278.736C98.5944 278.86 98.549 279.001 98.549 279.159C98.549 279.288 98.5944 279.393 98.685 279.474C98.7757 279.55 98.9094 279.607 99.086 279.646C99.2673 279.684 99.4869 279.703 99.7446 279.703H101.112C101.981 279.703 102.644 279.887 103.102 280.254C103.56 280.622 103.789 281.161 103.789 281.872C103.789 282.774 103.417 283.468 102.673 283.955C101.928 284.447 100.857 284.693 99.4582 284.693ZM99.5227 283.511C100.11 283.511 100.604 283.454 101.005 283.34C101.406 283.225 101.709 283.06 101.914 282.846C102.119 282.636 102.222 282.385 102.222 282.094C102.222 281.836 102.157 281.638 102.028 281.5C101.899 281.361 101.706 281.266 101.448 281.213C101.191 281.161 100.871 281.135 100.489 281.135H99.2435C98.9332 281.135 98.6588 281.182 98.4202 281.278C98.1815 281.378 97.9954 281.521 97.8618 281.707C97.7329 281.893 97.6685 282.118 97.6685 282.38C97.6685 282.743 97.8283 283.022 98.1481 283.218C98.4727 283.414 98.9308 283.511 99.5227 283.511ZM99.852 277.34C100.344 277.34 100.709 277.207 100.947 276.939C101.186 276.667 101.305 276.286 101.305 275.794C101.305 275.259 101.181 274.858 100.933 274.591C100.69 274.324 100.327 274.19 99.8448 274.19C99.3723 274.19 99.012 274.326 98.7638 274.598C98.5204 274.87 98.3987 275.274 98.3987 275.808C98.3987 276.29 98.5204 276.667 98.7638 276.939C99.012 277.207 99.3747 277.34 99.852 277.34ZM108.486 273.095C109.192 273.095 109.798 273.241 110.304 273.532C110.81 273.823 111.199 274.236 111.471 274.77C111.743 275.305 111.879 275.944 111.879 276.689V277.591H106.589C106.608 278.359 106.813 278.951 107.204 279.366C107.601 279.782 108.154 279.989 108.865 279.989C109.371 279.989 109.825 279.941 110.226 279.846C110.631 279.746 111.049 279.6 111.478 279.409V280.777C111.082 280.963 110.679 281.099 110.268 281.185C109.858 281.271 109.366 281.314 108.794 281.314C108.016 281.314 107.331 281.163 106.739 280.863C106.152 280.557 105.691 280.104 105.357 279.502C105.028 278.901 104.863 278.154 104.863 277.262C104.863 276.374 105.014 275.62 105.314 274.999C105.615 274.379 106.037 273.906 106.582 273.582C107.126 273.257 107.76 273.095 108.486 273.095ZM108.486 274.362C107.956 274.362 107.527 274.534 107.197 274.878C106.873 275.221 106.682 275.725 106.624 276.388H110.233C110.228 275.992 110.161 275.641 110.032 275.336C109.908 275.03 109.717 274.792 109.459 274.62C109.207 274.448 108.882 274.362 108.486 274.362ZM119.103 278.908C119.103 279.428 118.976 279.867 118.723 280.225C118.47 280.583 118.101 280.855 117.614 281.042C117.132 281.223 116.54 281.314 115.838 281.314C115.285 281.314 114.807 281.273 114.406 281.192C114.01 281.116 113.636 280.996 113.282 280.834V279.381C113.66 279.557 114.082 279.71 114.55 279.839C115.022 279.968 115.468 280.032 115.888 280.032C116.442 280.032 116.841 279.946 117.084 279.774C117.327 279.598 117.449 279.364 117.449 279.073C117.449 278.901 117.399 278.748 117.299 278.615C117.203 278.476 117.022 278.335 116.755 278.192C116.492 278.044 116.106 277.868 115.595 277.662C115.094 277.462 114.671 277.262 114.328 277.061C113.984 276.861 113.724 276.62 113.547 276.338C113.371 276.052 113.282 275.687 113.282 275.243C113.282 274.541 113.559 274.009 114.113 273.646C114.671 273.279 115.409 273.095 116.325 273.095C116.812 273.095 117.27 273.145 117.7 273.245C118.134 273.341 118.559 273.482 118.974 273.668L118.444 274.935C118.086 274.777 117.726 274.648 117.363 274.548C117.005 274.443 116.64 274.391 116.268 274.391C115.833 274.391 115.502 274.458 115.273 274.591C115.048 274.725 114.936 274.916 114.936 275.164C114.936 275.35 114.991 275.508 115.101 275.636C115.211 275.765 115.399 275.894 115.666 276.023C115.938 276.152 116.316 276.312 116.798 276.503C117.27 276.684 117.678 276.875 118.022 277.075C118.37 277.271 118.637 277.512 118.824 277.798C119.01 278.085 119.103 278.455 119.103 278.908ZM127.837 273.095C128.839 273.095 129.596 273.317 130.106 273.761C130.622 274.205 130.88 274.897 130.88 275.837V281.17H129.684L129.362 280.046H129.305C129.08 280.333 128.849 280.569 128.61 280.755C128.371 280.941 128.095 281.08 127.78 281.17C127.469 281.266 127.09 281.314 126.641 281.314C126.169 281.314 125.746 281.228 125.374 281.056C125.002 280.879 124.708 280.612 124.494 280.254C124.279 279.896 124.171 279.443 124.171 278.894C124.171 278.078 124.475 277.464 125.081 277.054C125.692 276.643 126.613 276.417 127.844 276.374L129.219 276.324V275.908C129.219 275.36 129.09 274.968 128.832 274.734C128.579 274.501 128.221 274.384 127.758 274.384C127.362 274.384 126.978 274.441 126.606 274.555C126.233 274.67 125.871 274.811 125.517 274.978L124.973 273.789C125.36 273.584 125.799 273.417 126.291 273.288C126.787 273.159 127.302 273.095 127.837 273.095ZM129.211 277.383L128.188 277.419C127.348 277.448 126.758 277.591 126.419 277.849C126.081 278.106 125.911 278.459 125.911 278.908C125.911 279.299 126.028 279.586 126.262 279.767C126.496 279.944 126.804 280.032 127.185 280.032C127.768 280.032 128.25 279.867 128.632 279.538C129.018 279.204 129.211 278.715 129.211 278.071V277.383ZM137.366 273.095C138.258 273.095 138.953 273.326 139.449 273.789C139.95 274.248 140.201 274.985 140.201 276.002V281.17H138.518V276.317C138.518 275.701 138.392 275.24 138.139 274.935C137.886 274.625 137.495 274.469 136.965 274.469C136.196 274.469 135.662 274.706 135.361 275.178C135.065 275.651 134.917 276.336 134.917 277.233V281.17H133.235V273.245H134.545L134.781 274.319H134.874C135.046 274.042 135.259 273.816 135.511 273.639C135.769 273.458 136.056 273.322 136.371 273.231C136.69 273.14 137.022 273.095 137.366 273.095ZM145.219 281.314C144.274 281.314 143.515 280.97 142.943 280.283C142.375 279.591 142.091 278.572 142.091 277.226C142.091 275.866 142.379 274.837 142.957 274.14C143.539 273.443 144.305 273.095 145.255 273.095C145.656 273.095 146.007 273.15 146.307 273.26C146.608 273.365 146.866 273.508 147.081 273.689C147.3 273.871 147.486 274.073 147.639 274.298H147.718C147.694 274.15 147.665 273.937 147.632 273.661C147.603 273.379 147.589 273.119 147.589 272.88V270.031H149.278V281.17H147.961L147.66 280.089H147.589C147.446 280.318 147.264 280.526 147.045 280.712C146.83 280.894 146.572 281.039 146.272 281.149C145.976 281.259 145.625 281.314 145.219 281.314ZM145.692 279.946C146.412 279.946 146.921 279.739 147.217 279.323C147.513 278.908 147.665 278.285 147.675 277.455V277.233C147.675 276.345 147.532 275.665 147.245 275.193C146.959 274.715 146.436 274.477 145.677 274.477C145.071 274.477 144.608 274.722 144.289 275.214C143.974 275.701 143.816 276.381 143.816 277.254C143.816 278.128 143.974 278.796 144.289 279.259C144.608 279.717 145.076 279.946 145.692 279.946ZM157.189 281.17H155.5V270.031H157.189V281.17ZM161.277 273.245V281.17H159.595V273.245H161.277ZM160.447 270.21C160.704 270.21 160.926 270.279 161.112 270.417C161.303 270.556 161.399 270.794 161.399 271.133C161.399 271.467 161.303 271.706 161.112 271.849C160.926 271.988 160.704 272.057 160.447 272.057C160.179 272.057 159.953 271.988 159.767 271.849C159.585 271.706 159.494 271.467 159.494 271.133C159.494 270.794 159.585 270.556 159.767 270.417C159.953 270.279 160.179 270.21 160.447 270.21ZM167.821 273.095C168.713 273.095 169.407 273.326 169.904 273.789C170.405 274.248 170.656 274.985 170.656 276.002V281.17H168.973V276.317C168.973 275.701 168.847 275.24 168.594 274.935C168.341 274.625 167.949 274.469 167.42 274.469C166.651 274.469 166.117 274.706 165.816 275.178C165.52 275.651 165.372 276.336 165.372 277.233V281.17H163.69V273.245H165L165.236 274.319H165.329C165.501 274.042 165.713 273.816 165.966 273.639C166.224 273.458 166.51 273.322 166.825 273.231C167.145 273.14 167.477 273.095 167.821 273.095ZM175.273 284.693C174.199 284.693 173.376 284.499 172.803 284.113C172.231 283.726 171.944 283.185 171.944 282.488C171.944 282.001 172.097 281.588 172.402 281.249C172.708 280.915 173.144 280.684 173.712 280.555C173.498 280.459 173.312 280.311 173.154 280.111C173.001 279.906 172.925 279.679 172.925 279.431C172.925 279.135 173.008 278.882 173.176 278.672C173.343 278.462 173.593 278.259 173.927 278.063C173.512 277.887 173.178 277.6 172.925 277.204C172.677 276.803 172.553 276.333 172.553 275.794C172.553 275.221 172.674 274.734 172.918 274.333C173.161 273.928 173.517 273.62 173.984 273.41C174.452 273.195 175.018 273.088 175.681 273.088C175.824 273.088 175.979 273.097 176.147 273.116C176.318 273.131 176.476 273.15 176.619 273.174C176.767 273.193 176.879 273.214 176.956 273.238H179.697V274.176L178.352 274.427C178.48 274.608 178.583 274.816 178.659 275.049C178.736 275.278 178.774 275.529 178.774 275.801C178.774 276.622 178.49 277.269 177.922 277.741C177.359 278.209 176.581 278.443 175.588 278.443C175.349 278.433 175.118 278.414 174.894 278.386C174.722 278.491 174.591 278.607 174.5 278.736C174.409 278.86 174.364 279.001 174.364 279.159C174.364 279.288 174.409 279.393 174.5 279.474C174.591 279.55 174.724 279.607 174.901 279.646C175.082 279.684 175.302 279.703 175.559 279.703H176.927C177.796 279.703 178.459 279.887 178.917 280.254C179.375 280.622 179.604 281.161 179.604 281.872C179.604 282.774 179.232 283.468 178.488 283.955C177.743 284.447 176.672 284.693 175.273 284.693ZM175.338 283.511C175.925 283.511 176.419 283.454 176.819 283.34C177.22 283.225 177.523 283.06 177.729 282.846C177.934 282.636 178.037 282.385 178.037 282.094C178.037 281.836 177.972 281.638 177.843 281.5C177.714 281.361 177.521 281.266 177.263 281.213C177.006 281.161 176.686 281.135 176.304 281.135H175.058C174.748 281.135 174.474 281.182 174.235 281.278C173.996 281.378 173.81 281.521 173.677 281.707C173.548 281.893 173.483 282.118 173.483 282.38C173.483 282.743 173.643 283.022 173.963 283.218C174.288 283.414 174.746 283.511 175.338 283.511ZM175.667 277.34C176.158 277.34 176.524 277.207 176.762 276.939C177.001 276.667 177.12 276.286 177.12 275.794C177.12 275.259 176.996 274.858 176.748 274.591C176.504 274.324 176.142 274.19 175.66 274.19C175.187 274.19 174.827 274.326 174.579 274.598C174.335 274.87 174.214 275.274 174.214 275.808C174.214 276.29 174.335 276.667 174.579 276.939C174.827 277.207 175.19 277.34 175.667 277.34ZM188.052 273.245V281.17H186.728L186.499 280.104H186.406C186.238 280.376 186.026 280.602 185.768 280.784C185.511 280.96 185.224 281.092 184.909 281.178C184.594 281.268 184.263 281.314 183.914 281.314C183.318 281.314 182.807 281.213 182.382 281.013C181.962 280.808 181.64 280.493 181.416 280.068C181.191 279.643 181.079 279.094 181.079 278.421V273.245H182.769V278.106C182.769 278.722 182.893 279.183 183.141 279.488C183.394 279.793 183.785 279.946 184.315 279.946C184.826 279.946 185.231 279.841 185.532 279.631C185.833 279.421 186.045 279.111 186.169 278.701C186.298 278.29 186.363 277.787 186.363 277.19V273.245H188.052ZM192.147 273.245V281.17H190.465V273.245H192.147ZM191.317 270.21C191.574 270.21 191.796 270.279 191.982 270.417C192.173 270.556 192.269 270.794 192.269 271.133C192.269 271.467 192.173 271.706 191.982 271.849C191.796 271.988 191.574 272.057 191.317 272.057C191.049 272.057 190.823 271.988 190.637 271.849C190.455 271.706 190.365 271.467 190.365 271.133C190.365 270.794 190.455 270.556 190.637 270.417C190.823 270.279 191.049 270.21 191.317 270.21ZM199.886 278.908C199.886 279.428 199.76 279.867 199.507 280.225C199.254 280.583 198.884 280.855 198.397 281.042C197.915 281.223 197.323 281.314 196.622 281.314C196.068 281.314 195.591 281.273 195.19 281.192C194.794 281.116 194.419 280.996 194.066 280.834V279.381C194.443 279.557 194.865 279.71 195.333 279.839C195.805 279.968 196.252 280.032 196.672 280.032C197.225 280.032 197.624 279.946 197.867 279.774C198.111 279.598 198.232 279.364 198.232 279.073C198.232 278.901 198.182 278.748 198.082 278.615C197.987 278.476 197.805 278.335 197.538 278.192C197.275 278.044 196.889 277.868 196.378 277.662C195.877 277.462 195.455 277.262 195.111 277.061C194.767 276.861 194.507 276.62 194.331 276.338C194.154 276.052 194.066 275.687 194.066 275.243C194.066 274.541 194.343 274.009 194.896 273.646C195.455 273.279 196.192 273.095 197.108 273.095C197.595 273.095 198.053 273.145 198.483 273.245C198.917 273.341 199.342 273.482 199.757 273.668L199.227 274.935C198.87 274.777 198.509 274.648 198.146 274.548C197.789 274.443 197.423 274.391 197.051 274.391C196.617 274.391 196.285 274.458 196.056 274.591C195.832 274.725 195.72 274.916 195.72 275.164C195.72 275.35 195.774 275.508 195.884 275.636C195.994 275.765 196.182 275.894 196.45 276.023C196.722 276.152 197.099 276.312 197.581 276.503C198.053 276.684 198.461 276.875 198.805 277.075C199.154 277.271 199.421 277.512 199.607 277.798C199.793 278.085 199.886 278.455 199.886 278.908ZM204.654 279.953C204.874 279.953 205.091 279.934 205.306 279.896C205.52 279.853 205.716 279.803 205.893 279.746V281.02C205.706 281.101 205.465 281.17 205.17 281.228C204.874 281.285 204.566 281.314 204.246 281.314C203.797 281.314 203.394 281.24 203.036 281.092C202.678 280.939 202.394 280.679 202.184 280.311C201.974 279.944 201.869 279.436 201.869 278.786V274.527H200.788V273.775L201.948 273.181L202.499 271.484H203.559V273.245H205.828V274.527H203.559V278.765C203.559 279.166 203.659 279.464 203.859 279.66C204.06 279.856 204.325 279.953 204.654 279.953ZM209.186 273.245V281.17H207.503V273.245H209.186ZM208.355 270.21C208.613 270.21 208.835 270.279 209.021 270.417C209.212 270.556 209.307 270.794 209.307 271.133C209.307 271.467 209.212 271.706 209.021 271.849C208.835 271.988 208.613 272.057 208.355 272.057C208.088 272.057 207.861 271.988 207.675 271.849C207.494 271.706 207.403 271.467 207.403 271.133C207.403 270.794 207.494 270.556 207.675 270.417C207.861 270.279 208.088 270.21 208.355 270.21ZM214.791 281.314C214.042 281.314 213.393 281.168 212.844 280.877C212.295 280.586 211.873 280.139 211.577 279.538C211.281 278.937 211.133 278.173 211.133 277.247C211.133 276.283 211.295 275.496 211.62 274.885C211.944 274.274 212.393 273.823 212.966 273.532C213.543 273.241 214.204 273.095 214.949 273.095C215.421 273.095 215.849 273.143 216.23 273.238C216.617 273.329 216.944 273.441 217.211 273.575L216.71 274.921C216.419 274.801 216.121 274.701 215.815 274.62C215.51 274.539 215.216 274.498 214.935 274.498C214.472 274.498 214.085 274.601 213.775 274.806C213.469 275.011 213.24 275.317 213.088 275.722C212.94 276.128 212.866 276.632 212.866 277.233C212.866 277.815 212.942 278.307 213.095 278.708C213.247 279.104 213.474 279.404 213.775 279.61C214.075 279.81 214.445 279.91 214.884 279.91C215.319 279.91 215.708 279.858 216.051 279.753C216.395 279.648 216.72 279.512 217.025 279.345V280.805C216.724 280.977 216.402 281.104 216.059 281.185C215.715 281.271 215.293 281.314 214.791 281.314ZM224.213 278.908C224.213 279.428 224.086 279.867 223.833 280.225C223.58 280.583 223.21 280.855 222.724 281.042C222.242 281.223 221.65 281.314 220.948 281.314C220.395 281.314 219.917 281.273 219.516 281.192C219.12 281.116 218.746 280.996 218.392 280.834V279.381C218.769 279.557 219.192 279.71 219.66 279.839C220.132 279.968 220.578 280.032 220.998 280.032C221.552 280.032 221.95 279.946 222.194 279.774C222.437 279.598 222.559 279.364 222.559 279.073C222.559 278.901 222.509 278.748 222.409 278.615C222.313 278.476 222.132 278.335 221.865 278.192C221.602 278.044 221.215 277.868 220.705 277.662C220.204 277.462 219.781 277.262 219.438 277.061C219.094 276.861 218.834 276.62 218.657 276.338C218.481 276.052 218.392 275.687 218.392 275.243C218.392 274.541 218.669 274.009 219.223 273.646C219.781 273.279 220.519 273.095 221.435 273.095C221.922 273.095 222.38 273.145 222.81 273.245C223.244 273.341 223.669 273.482 224.084 273.668L223.554 274.935C223.196 274.777 222.836 274.648 222.473 274.548C222.115 274.443 221.75 274.391 221.378 274.391C220.943 274.391 220.612 274.458 220.383 274.591C220.158 274.725 220.046 274.916 220.046 275.164C220.046 275.35 220.101 275.508 220.211 275.636C220.321 275.765 220.509 275.894 220.776 276.023C221.048 276.152 221.425 276.312 221.908 276.503C222.38 276.684 222.788 276.875 223.132 277.075C223.48 277.271 223.747 277.512 223.934 277.798C224.12 278.085 224.213 278.455 224.213 278.908Z" fill="#808080"/>
<mask id="path-14-inside-5_599_703" fill="white">
<path d="M24.6838 307.819C24.6838 307.184 25.1987 306.669 25.8339 306.669H252.363C252.998 306.669 253.513 307.184 253.513 307.819V351.841C253.513 352.476 252.998 352.991 252.363 352.991H25.8339C25.1987 352.991 24.6838 352.476 24.6838 351.841V307.819Z"/>
</mask>
<path d="M24.6838 307.819C24.6838 307.184 25.1987 306.669 25.8339 306.669H252.363C252.998 306.669 253.513 307.184 253.513 307.819V351.841C253.513 352.476 252.998 352.991 252.363 352.991H25.8339C25.1987 352.991 24.6838 352.476 24.6838 351.841V307.819Z" fill="white"/>
<path d="M24.6838 306.669H253.513H24.6838ZM253.513 352.991H24.6838H253.513ZM25.8339 352.991C22.6581 352.991 20.0836 350.417 20.0836 347.241V312.42C20.0836 309.244 22.6581 306.669 25.8339 306.669H29.2841C29.2841 306.669 29.2841 307.184 29.2841 307.819V351.841C29.2841 352.476 29.2841 352.991 29.2841 352.991H25.8339ZM253.513 306.669V352.991V306.669Z" fill="#098CF3" mask="url(#path-14-inside-5_599_703)"/>
<path d="M50.0676 326.674C49.5664 326.674 49.1178 326.764 48.7217 326.946C48.3303 327.127 47.9986 327.389 47.7266 327.733C47.4545 328.072 47.2469 328.485 47.1037 328.972C46.9605 329.454 46.8889 329.998 46.8889 330.604C46.8889 331.415 47.0035 332.115 47.2326 332.702C47.4617 333.284 47.8101 333.732 48.2778 334.047C48.7455 334.358 49.3374 334.513 50.0533 334.513C50.4971 334.513 50.9291 334.47 51.3491 334.384C51.7691 334.298 52.2034 334.181 52.652 334.033V335.494C52.2272 335.661 51.7977 335.782 51.3634 335.859C50.9291 335.935 50.4279 335.973 49.86 335.973C48.7909 335.973 47.9031 335.751 47.1968 335.307C46.4952 334.864 45.9702 334.238 45.6218 333.432C45.2781 332.625 45.1063 331.68 45.1063 330.597C45.1063 329.805 45.2161 329.079 45.4356 328.42C45.6552 327.762 45.975 327.194 46.395 326.717C46.815 326.234 47.3328 325.865 47.9485 325.607C48.5689 325.344 49.2777 325.213 50.0747 325.213C50.5997 325.213 51.1152 325.273 51.6211 325.392C52.1318 325.507 52.6043 325.671 53.0386 325.886L52.4372 327.304C52.0745 327.132 51.6951 326.984 51.2989 326.86C50.9028 326.736 50.4924 326.674 50.0676 326.674ZM61.6367 327.905V335.83H60.3123L60.0832 334.763H59.9901C59.823 335.035 59.6107 335.262 59.3529 335.443C59.0952 335.62 58.8088 335.751 58.4938 335.837C58.1788 335.928 57.8471 335.973 57.4987 335.973C56.9021 335.973 56.3915 335.873 55.9667 335.673C55.5467 335.467 55.2245 335.152 55.0002 334.728C54.7759 334.303 54.6637 333.754 54.6637 333.081V327.905H56.3533V332.766C56.3533 333.382 56.4774 333.842 56.7255 334.148C56.9785 334.453 57.3699 334.606 57.8996 334.606C58.4103 334.606 58.816 334.501 59.1167 334.291C59.4174 334.081 59.6298 333.771 59.7538 333.36C59.8827 332.95 59.9471 332.446 59.9471 331.85V327.905H61.6367ZM65.7389 335.83H64.0493V324.691H65.7389V335.83ZM71.0939 334.613C71.3134 334.613 71.5306 334.594 71.7453 334.556C71.9601 334.513 72.1558 334.463 72.3324 334.405V335.68C72.1463 335.761 71.9052 335.83 71.6093 335.887C71.3134 335.945 71.0056 335.973 70.6858 335.973C70.2372 335.973 69.8339 335.899 69.4759 335.751C69.118 335.599 68.834 335.338 68.624 334.971C68.414 334.603 68.309 334.095 68.309 333.446V329.186H67.2279V328.435L68.3877 327.841L68.939 326.144H69.9985V327.905H72.268V329.186H69.9985V333.425C69.9985 333.826 70.0987 334.124 70.2992 334.32C70.4997 334.515 70.7645 334.613 71.0939 334.613ZM80.8517 327.905V335.83H79.5273L79.2982 334.763H79.2051C79.0381 335.035 78.8257 335.262 78.568 335.443C78.3102 335.62 78.0239 335.751 77.7089 335.837C77.3939 335.928 77.0622 335.973 76.7138 335.973C76.1172 335.973 75.6065 335.873 75.1817 335.673C74.7617 335.467 74.4396 335.152 74.2152 334.728C73.9909 334.303 73.8788 333.754 73.8788 333.081V327.905H75.5683V332.766C75.5683 333.382 75.6924 333.842 75.9406 334.148C76.1935 334.453 76.5849 334.606 77.1147 334.606C77.6254 334.606 78.031 334.501 78.3317 334.291C78.6324 334.081 78.8448 333.771 78.9689 333.36C79.0977 332.95 79.1622 332.446 79.1622 331.85V327.905H80.8517ZM87.2806 327.755C87.4142 327.755 87.5598 327.762 87.7173 327.776C87.8748 327.79 88.0108 327.809 88.1254 327.833L87.9679 329.408C87.8676 329.38 87.7436 329.358 87.5956 329.344C87.4524 329.33 87.3236 329.322 87.209 329.322C86.9083 329.322 86.622 329.373 86.3499 329.473C86.0779 329.568 85.8368 329.716 85.6268 329.917C85.4168 330.112 85.2522 330.358 85.1329 330.654C85.0135 330.95 84.9539 331.294 84.9539 331.685V335.83H83.2643V327.905H84.5816L84.8107 329.301H84.8895C85.047 329.019 85.2426 328.762 85.4765 328.528C85.7104 328.294 85.9776 328.108 86.2783 327.969C86.5838 327.826 86.9179 327.755 87.2806 327.755ZM92.7 327.755C93.7023 327.755 94.4588 327.977 94.9695 328.42C95.4849 328.864 95.7427 329.556 95.7427 330.497V335.83H94.5471L94.2249 334.706H94.1677C93.9433 334.992 93.7119 335.229 93.4732 335.415C93.2346 335.601 92.9578 335.739 92.6428 335.83C92.3325 335.926 91.9531 335.973 91.5045 335.973C91.032 335.973 90.6096 335.887 90.2373 335.716C89.865 335.539 89.5715 335.272 89.3567 334.914C89.142 334.556 89.0346 334.102 89.0346 333.553C89.0346 332.737 89.3376 332.124 89.9438 331.714C90.5547 331.303 91.4758 331.076 92.7072 331.033L94.0817 330.983V330.568C94.0817 330.019 93.9529 329.628 93.6952 329.394C93.4422 329.16 93.0842 329.043 92.6213 329.043C92.2251 329.043 91.8409 329.101 91.4687 329.215C91.0964 329.33 90.7337 329.47 90.3805 329.637L89.8364 328.449C90.223 328.244 90.6621 328.077 91.1537 327.948C91.65 327.819 92.1655 327.755 92.7 327.755ZM94.0746 332.043L93.0508 332.079C92.2108 332.107 91.6214 332.251 91.2825 332.508C90.9437 332.766 90.7742 333.119 90.7742 333.568C90.7742 333.959 90.8912 334.246 91.125 334.427C91.3589 334.603 91.6667 334.692 92.0486 334.692C92.6308 334.692 93.1129 334.527 93.4947 334.198C93.8813 333.864 94.0746 333.375 94.0746 332.73V332.043ZM99.7875 335.83H98.098V324.691H99.7875V335.83ZM111.328 333.568C111.328 334.088 111.202 334.527 110.949 334.885C110.696 335.243 110.326 335.515 109.839 335.701C109.357 335.883 108.765 335.973 108.063 335.973C107.51 335.973 107.033 335.933 106.632 335.852C106.236 335.775 105.861 335.656 105.508 335.494V334.04C105.885 334.217 106.307 334.37 106.775 334.498C107.247 334.627 107.694 334.692 108.114 334.692C108.667 334.692 109.066 334.606 109.309 334.434C109.553 334.257 109.674 334.024 109.674 333.732C109.674 333.561 109.624 333.408 109.524 333.274C109.428 333.136 109.247 332.995 108.98 332.852C108.717 332.704 108.331 332.527 107.82 332.322C107.319 332.122 106.897 331.921 106.553 331.721C106.209 331.52 105.949 331.279 105.773 330.998C105.596 330.711 105.508 330.346 105.508 329.902C105.508 329.201 105.784 328.669 106.338 328.306C106.897 327.938 107.634 327.755 108.55 327.755C109.037 327.755 109.495 327.805 109.925 327.905C110.359 328 110.784 328.141 111.199 328.327L110.669 329.594C110.311 329.437 109.951 329.308 109.588 329.208C109.23 329.103 108.865 329.05 108.493 329.05C108.059 329.05 107.727 329.117 107.498 329.251C107.274 329.384 107.161 329.575 107.161 329.824C107.161 330.01 107.216 330.167 107.326 330.296C107.436 330.425 107.624 330.554 107.892 330.683C108.164 330.812 108.541 330.971 109.023 331.162C109.495 331.344 109.903 331.535 110.247 331.735C110.595 331.931 110.863 332.172 111.049 332.458C111.235 332.745 111.328 333.114 111.328 333.568ZM116.096 334.613C116.316 334.613 116.533 334.594 116.747 334.556C116.962 334.513 117.158 334.463 117.335 334.405V335.68C117.148 335.761 116.907 335.83 116.611 335.887C116.316 335.945 116.008 335.973 115.688 335.973C115.239 335.973 114.836 335.899 114.478 335.751C114.12 335.599 113.836 335.338 113.626 334.971C113.416 334.603 113.311 334.095 113.311 333.446V329.186H112.23V328.435L113.39 327.841L113.941 326.144H115.001V327.905H117.27V329.186H115.001V333.425C115.001 333.826 115.101 334.124 115.301 334.32C115.502 334.515 115.767 334.613 116.096 334.613ZM125.854 327.905V335.83H124.529L124.3 334.763H124.207C124.04 335.035 123.828 335.262 123.57 335.443C123.312 335.62 123.026 335.751 122.711 335.837C122.396 335.928 122.064 335.973 121.716 335.973C121.119 335.973 120.609 335.873 120.184 335.673C119.764 335.467 119.442 335.152 119.217 334.728C118.993 334.303 118.881 333.754 118.881 333.081V327.905H120.57V332.766C120.57 333.382 120.695 333.842 120.943 334.148C121.196 334.453 121.587 334.606 122.117 334.606C122.627 334.606 123.033 334.501 123.334 334.291C123.635 334.081 123.847 333.771 123.971 333.36C124.1 332.95 124.164 332.446 124.164 331.85V327.905H125.854ZM130.93 335.973C129.985 335.973 129.226 335.63 128.653 334.942C128.085 334.25 127.801 333.231 127.801 331.885C127.801 330.525 128.09 329.497 128.667 328.8C129.25 328.103 130.016 327.755 130.965 327.755C131.366 327.755 131.717 327.809 132.018 327.919C132.319 328.024 132.576 328.167 132.791 328.349C133.011 328.53 133.197 328.733 133.349 328.957H133.428C133.404 328.809 133.376 328.597 133.342 328.32C133.314 328.039 133.299 327.778 133.299 327.54V324.691H134.989V335.83H133.672L133.371 334.749H133.299C133.156 334.978 132.975 335.186 132.755 335.372C132.54 335.553 132.283 335.699 131.982 335.809C131.686 335.918 131.335 335.973 130.93 335.973ZM131.402 334.606C132.123 334.606 132.631 334.398 132.927 333.983C133.223 333.568 133.376 332.945 133.385 332.115V331.893C133.385 331.005 133.242 330.325 132.956 329.852C132.669 329.375 132.147 329.136 131.388 329.136C130.782 329.136 130.319 329.382 129.999 329.874C129.684 330.361 129.526 331.041 129.526 331.914C129.526 332.787 129.684 333.456 129.999 333.919C130.319 334.377 130.786 334.606 131.402 334.606ZM139.084 327.905V335.83H137.401V327.905H139.084ZM138.253 324.869C138.511 324.869 138.733 324.939 138.919 325.077C139.11 325.216 139.206 325.454 139.206 325.793C139.206 326.127 139.11 326.366 138.919 326.509C138.733 326.647 138.511 326.717 138.253 326.717C137.986 326.717 137.759 326.647 137.573 326.509C137.392 326.366 137.301 326.127 137.301 325.793C137.301 325.454 137.392 325.216 137.573 325.077C137.759 324.939 137.986 324.869 138.253 324.869ZM144.654 327.755C145.36 327.755 145.966 327.9 146.472 328.191C146.978 328.482 147.367 328.895 147.639 329.43C147.911 329.964 148.047 330.604 148.047 331.348V332.251H142.756C142.776 333.019 142.981 333.611 143.372 334.026C143.768 334.441 144.322 334.649 145.033 334.649C145.539 334.649 145.992 334.601 146.393 334.506C146.799 334.405 147.217 334.26 147.646 334.069V335.436C147.25 335.622 146.847 335.758 146.436 335.844C146.026 335.93 145.534 335.973 144.961 335.973C144.184 335.973 143.499 335.823 142.907 335.522C142.32 335.217 141.859 334.763 141.525 334.162C141.196 333.561 141.031 332.814 141.031 331.921C141.031 331.033 141.181 330.279 141.482 329.659C141.783 329.038 142.205 328.566 142.749 328.241C143.293 327.917 143.928 327.755 144.654 327.755ZM144.654 329.022C144.124 329.022 143.694 329.194 143.365 329.537C143.04 329.881 142.85 330.384 142.792 331.048H146.4C146.396 330.652 146.329 330.301 146.2 329.995C146.076 329.69 145.885 329.451 145.627 329.279C145.374 329.108 145.05 329.022 144.654 329.022ZM155.271 333.568C155.271 334.088 155.144 334.527 154.891 334.885C154.638 335.243 154.268 335.515 153.782 335.701C153.299 335.883 152.708 335.973 152.006 335.973C151.452 335.973 150.975 335.933 150.574 335.852C150.178 335.775 149.803 335.656 149.45 335.494V334.04C149.827 334.217 150.25 334.37 150.717 334.498C151.19 334.627 151.636 334.692 152.056 334.692C152.61 334.692 153.008 334.606 153.252 334.434C153.495 334.257 153.617 334.024 153.617 333.732C153.617 333.561 153.567 333.408 153.467 333.274C153.371 333.136 153.19 332.995 152.922 332.852C152.66 332.704 152.273 332.527 151.763 332.322C151.261 332.122 150.839 331.921 150.495 331.721C150.152 331.52 149.892 331.279 149.715 330.998C149.539 330.711 149.45 330.346 149.45 329.902C149.45 329.201 149.727 328.669 150.281 328.306C150.839 327.938 151.576 327.755 152.493 327.755C152.98 327.755 153.438 327.805 153.867 327.905C154.302 328 154.727 328.141 155.142 328.327L154.612 329.594C154.254 329.437 153.894 329.308 153.531 329.208C153.173 329.103 152.808 329.05 152.436 329.05C152.001 329.05 151.67 329.117 151.44 329.251C151.216 329.384 151.104 329.575 151.104 329.824C151.104 330.01 151.159 330.167 151.269 330.296C151.378 330.425 151.567 330.554 151.834 330.683C152.106 330.812 152.483 330.971 152.965 331.162C153.438 331.344 153.846 331.535 154.19 331.735C154.538 331.931 154.805 332.172 154.991 332.458C155.178 332.745 155.271 333.114 155.271 333.568Z" fill="#808080"/>
<rect x="24.6838" y="34.4707" width="13.8007" height="13.8007" rx="6.90034" fill="#D9D9D9"/>
<path d="M63.0715 47.3711H61.3533V42.6532H56.528V47.3711H54.817V36.9045H56.528V41.1856H61.3533V36.9045H63.0715V47.3711ZM70.6028 47.3711L70.2664 46.2686H70.2091C69.8273 46.7506 69.4431 47.08 69.0565 47.2565C68.6699 47.4284 68.1735 47.5143 67.5674 47.5143C66.7894 47.5143 66.1809 47.3043 65.7418 46.8843C65.3075 46.4643 65.0903 45.8701 65.0903 45.1017C65.0903 44.2855 65.3934 43.6698 65.9995 43.2546C66.6057 42.8394 67.5292 42.6127 68.7701 42.5745L70.1375 42.5315V42.1092C70.1375 41.6032 70.0182 41.2262 69.7795 40.978C69.5457 40.7251 69.1806 40.5986 68.6842 40.5986C68.2785 40.5986 67.8895 40.6582 67.5173 40.7776C67.145 40.8969 66.787 41.0377 66.4434 41.1999L65.8993 39.9972C66.3288 39.7729 66.799 39.6035 67.3096 39.4889C67.8203 39.3696 68.3024 39.3099 68.7558 39.3099C69.7628 39.3099 70.5217 39.5295 71.0324 39.9686C71.5478 40.4077 71.8056 41.0973 71.8056 42.0376V47.3711H70.6028ZM68.0971 46.2256C68.7081 46.2256 69.1973 46.0562 69.5648 45.7173C69.937 45.3737 70.1232 44.894 70.1232 44.2784V43.5911L69.1066 43.634C68.3143 43.6627 67.7368 43.7963 67.3741 44.035C67.0161 44.2688 66.8371 44.6292 66.8371 45.116C66.8371 45.4692 66.9421 45.7436 67.1521 45.9393C67.3621 46.1302 67.6771 46.2256 68.0971 46.2256ZM78.1986 39.3099C79.1866 39.3099 79.955 39.6679 80.5039 40.3838C81.0575 41.0997 81.3343 42.1044 81.3343 43.3978C81.3343 44.696 81.0551 45.7078 80.4967 46.4333C79.9383 47.1539 79.1627 47.5143 78.17 47.5143C77.1677 47.5143 76.3898 47.1539 75.8361 46.4333H75.7216L75.4137 47.3711H74.1537V36.2315H75.8361V38.8804C75.8361 39.0761 75.8266 39.3672 75.8075 39.7538C75.7884 40.1404 75.7741 40.3862 75.7645 40.4912H75.8361C76.3707 39.7037 77.1582 39.3099 78.1986 39.3099ZM77.7619 40.6845C77.0842 40.6845 76.595 40.8849 76.2943 41.2859C75.9984 41.682 75.8457 42.3478 75.8361 43.2832V43.3978C75.8361 44.3619 75.9889 45.0611 76.2943 45.4954C76.5998 45.925 77.0985 46.1397 77.7906 46.1397C78.3872 46.1397 78.8382 45.9035 79.1436 45.431C79.4539 44.9585 79.609 44.276 79.609 43.3835C79.609 41.5842 78.9933 40.6845 77.7619 40.6845ZM84.9712 47.3711H83.2888V39.4531H84.9712V47.3711ZM83.1885 37.3555C83.1885 37.0548 83.2697 36.8233 83.4319 36.6611C83.599 36.4988 83.8352 36.4177 84.1407 36.4177C84.4366 36.4177 84.6657 36.4988 84.828 36.6611C84.995 36.8233 85.0785 37.0548 85.0785 37.3555C85.0785 37.6419 84.995 37.8686 84.828 38.0356C84.6657 38.1979 84.4366 38.279 84.1407 38.279C83.8352 38.279 83.599 38.1979 83.4319 38.0356C83.2697 37.8686 83.1885 37.6419 83.1885 37.3555ZM90.3333 46.154C90.7438 46.154 91.1542 46.0896 91.5647 45.9608V47.2279C91.3785 47.309 91.1375 47.3759 90.8416 47.4284C90.5505 47.4856 90.2474 47.5143 89.9324 47.5143C88.3383 47.5143 87.5413 46.6743 87.5413 44.9943V40.7274H86.4602V39.9829L87.62 39.3672L88.1927 37.692H89.2308V39.4531H91.4859V40.7274H89.2308V44.9656C89.2308 45.3713 89.331 45.672 89.5315 45.8677C89.7367 46.0586 90.004 46.154 90.3333 46.154ZM98.4732 45.116C98.4732 45.8892 98.1916 46.4834 97.6284 46.8986C97.0653 47.309 96.2587 47.5143 95.2087 47.5143C94.1539 47.5143 93.3067 47.3544 92.6672 47.0346V45.5813C93.5979 46.0109 94.4641 46.2256 95.2659 46.2256C96.3016 46.2256 96.8195 45.913 96.8195 45.2878C96.8195 45.0873 96.7622 44.9203 96.6477 44.7867C96.5331 44.653 96.3446 44.5146 96.0821 44.3714C95.8196 44.2282 95.4545 44.066 94.9867 43.8846C94.0751 43.5314 93.4571 43.1782 93.1325 42.8251C92.8128 42.4719 92.6529 42.0137 92.6529 41.4505C92.6529 40.7728 92.9249 40.2478 93.469 39.8755C94.0179 39.4985 94.7624 39.3099 95.7026 39.3099C96.6333 39.3099 97.5139 39.4985 98.3444 39.8755L97.8003 41.1427C96.9459 40.7895 96.2276 40.6129 95.6454 40.6129C94.7576 40.6129 94.3138 40.8659 94.3138 41.3718C94.3138 41.6199 94.4283 41.8299 94.6574 42.0018C94.8913 42.1736 95.3972 42.4098 96.1751 42.7105C96.829 42.9635 97.3039 43.195 97.5998 43.405C97.8957 43.615 98.1153 43.8584 98.2584 44.1352C98.4016 44.4072 98.4732 44.7342 98.4732 45.116Z" fill="black"/>
<path d="M32.4085 78.1938L31.6496 75.7025H27.8338L27.075 78.1938H24.6838L28.3779 67.6843H31.0912L34.7997 78.1938H32.4085ZM31.1199 73.8411L30.361 71.407C30.3133 71.2447 30.2488 71.0371 30.1677 70.7842C30.0913 70.5264 30.0126 70.2663 29.9315 70.0038C29.8551 69.7366 29.7931 69.5051 29.7453 69.3094C29.6976 69.5051 29.6308 69.7485 29.5449 70.0396C29.4637 70.326 29.385 70.598 29.3086 70.8558C29.2323 71.1135 29.1774 71.2972 29.144 71.407L28.3923 73.8411H31.1199ZM40.4195 70.0396C40.5293 70.0396 40.6558 70.0468 40.799 70.0611C40.9469 70.0707 41.0663 70.085 41.1569 70.1041L40.9923 72.1516C40.9207 72.1277 40.8181 72.111 40.6844 72.1015C40.5556 72.0871 40.4434 72.08 40.348 72.08C40.0664 72.08 39.7919 72.1158 39.5247 72.1874C39.2622 72.259 39.0259 72.3759 38.8159 72.5382C38.6059 72.6957 38.4389 72.9057 38.3148 73.1682C38.1955 73.4259 38.1358 73.7433 38.1358 74.1203V78.1938H35.9523V70.19H37.606L37.9282 71.5359H38.0356C38.1931 71.2638 38.3887 71.0157 38.6226 70.7913C38.8612 70.5622 39.1309 70.3809 39.4316 70.2472C39.737 70.1088 40.0664 70.0396 40.4195 70.0396ZM45.9822 76.5974C46.2208 76.5974 46.4523 76.5735 46.6766 76.5258C46.9057 76.478 47.1324 76.4184 47.3567 76.3468V77.9719C47.1229 78.0769 46.8317 78.1628 46.4833 78.2296C46.1397 78.3012 45.7626 78.337 45.3522 78.337C44.8749 78.337 44.4453 78.2607 44.0635 78.1079C43.6865 77.9504 43.3882 77.6808 43.1686 77.299C42.9539 76.9124 42.8465 76.3754 42.8465 75.6882V71.8294H41.8013V70.9059L43.004 70.1757L43.634 68.4861H45.03V70.19H47.2708V71.8294H45.03V75.6882C45.03 75.9936 45.1159 76.2227 45.2877 76.3754C45.4643 76.5234 45.6958 76.5974 45.9822 76.5974ZM56.0693 70.0253C57.1432 70.0253 57.9665 70.2592 58.5392 70.7269C59.112 71.1946 59.3983 71.9058 59.3983 72.8603V78.1938H57.8734L57.4511 77.1057H57.3938C57.1647 77.392 56.9308 77.6259 56.6922 77.8073C56.4536 77.9886 56.1791 78.1223 55.8689 78.2082C55.5587 78.2941 55.1816 78.337 54.7378 78.337C54.2653 78.337 53.8405 78.2463 53.4634 78.065C53.0912 77.8836 52.7976 77.6068 52.5829 77.2345C52.3681 76.8575 52.2607 76.3802 52.2607 75.8027C52.2607 74.9532 52.559 74.3279 53.1556 73.927C53.7522 73.5213 54.6471 73.297 55.8403 73.2541L57.2291 73.2111V72.8603C57.2291 72.4403 57.1193 72.1325 56.8998 71.9368C56.6803 71.7411 56.3748 71.6433 55.9834 71.6433C55.5968 71.6433 55.2174 71.6982 54.8451 71.8079C54.4729 71.9177 54.1006 72.0561 53.7283 72.2232L53.0052 70.7484C53.43 70.5241 53.9049 70.3475 54.4299 70.2186C54.9597 70.0897 55.5062 70.0253 56.0693 70.0253ZM57.2291 74.4854L56.3843 74.5141C55.678 74.5332 55.1864 74.6596 54.9096 74.8935C54.6375 75.1274 54.5015 75.4352 54.5015 75.817C54.5015 76.1511 54.5993 76.3898 54.795 76.5329C54.9907 76.6713 55.246 76.7405 55.561 76.7405C56.0288 76.7405 56.4225 76.6021 56.7423 76.3253C57.0668 76.0485 57.2291 75.6548 57.2291 75.1441V74.4854ZM66.1995 70.0396C67.0538 70.0396 67.7411 70.2735 68.2613 70.7412C68.7815 71.2042 69.0416 71.9487 69.0416 72.9749V78.1938H66.8581V73.519C66.8581 72.9462 66.7531 72.5143 66.5431 72.2232C66.3379 71.932 66.0133 71.7865 65.5695 71.7865C64.9013 71.7865 64.4455 72.0132 64.2021 72.4666C63.9587 72.92 63.837 73.5738 63.837 74.4282V78.1938H61.6534V70.19H63.3215L63.615 71.2137H63.7367C63.9086 70.9369 64.1209 70.7126 64.3739 70.5408C64.6316 70.3689 64.9156 70.2425 65.2258 70.1613C65.5408 70.0802 65.8654 70.0396 66.1995 70.0396ZM73.8239 78.337C72.9314 78.337 72.2036 77.9886 71.6404 77.2918C71.082 76.5902 70.8028 75.5617 70.8028 74.2062C70.8028 72.8365 71.0868 71.8008 71.6547 71.0992C72.2227 70.3928 72.9648 70.0396 73.8812 70.0396C74.263 70.0396 74.5995 70.0921 74.8906 70.1971C75.1818 70.3021 75.4323 70.4429 75.6423 70.6195C75.8571 70.7961 76.0385 70.9942 76.1864 71.2137H76.258C76.2294 71.061 76.1936 70.8367 76.1506 70.5408C76.1124 70.2401 76.0934 69.9322 76.0934 69.6172V67.0543H78.284V78.1938H76.6088L76.1864 77.1558H76.0934C75.9549 77.3753 75.7807 77.5758 75.5707 77.7571C75.3655 77.9337 75.1197 78.0745 74.8334 78.1795C74.547 78.2845 74.2105 78.337 73.8239 78.337ZM74.5899 76.5974C75.1865 76.5974 75.6065 76.4208 75.8499 76.0676C76.0981 75.7096 76.2294 75.1727 76.2437 74.4568V74.2205C76.2437 73.4426 76.1244 72.8484 75.8857 72.4379C75.6471 72.0227 75.2032 71.8151 74.5541 71.8151C74.0721 71.8151 73.6951 72.0227 73.423 72.4379C73.151 72.8532 73.0149 73.4521 73.0149 74.2349C73.0149 75.0176 73.151 75.607 73.423 76.0032C73.6998 76.3993 74.0888 76.5974 74.5899 76.5974ZM86.56 67.0543V69.3237C86.56 69.7199 86.5456 70.0969 86.517 70.4549C86.4931 70.8128 86.4741 71.0658 86.4597 71.2137H86.5743C86.7461 70.9369 86.9489 70.7126 87.1828 70.5408C87.4214 70.3689 87.6839 70.2425 87.9703 70.1613C88.2567 70.0802 88.5645 70.0396 88.8938 70.0396C89.4713 70.0396 89.9749 70.1422 90.4044 70.3475C90.8339 70.5479 91.168 70.8653 91.4067 71.2996C91.6453 71.7292 91.7646 72.2876 91.7646 72.9749V78.1938H89.5811V73.519C89.5811 72.9462 89.4761 72.5143 89.2661 72.2232C89.0561 71.932 88.7316 71.7865 88.2925 71.7865C87.8534 71.7865 87.5074 71.8891 87.2544 72.0943C87.0014 72.2947 86.8225 72.593 86.7175 72.9892C86.6125 73.3805 86.56 73.8602 86.56 74.4282V78.1938H84.3764V67.0543H86.56ZM101.358 70.19V78.1938H99.6826L99.3891 77.1701H99.2745C99.1027 77.4421 98.8879 77.6641 98.6302 77.8359C98.3725 78.0077 98.0885 78.1342 97.7783 78.2153C97.4681 78.2965 97.1459 78.337 96.8118 78.337C96.2391 78.337 95.7403 78.2368 95.3155 78.0363C94.8908 77.8311 94.5591 77.5137 94.3204 77.0842C94.0866 76.6546 93.9696 76.0962 93.9696 75.409V70.19H96.1532V74.8649C96.1532 75.4376 96.2558 75.8695 96.461 76.1607C96.6662 76.4518 96.9932 76.5974 97.4418 76.5974C97.8857 76.5974 98.2341 76.4971 98.487 76.2967C98.74 76.0915 98.9166 75.7932 99.0168 75.4018C99.1218 75.0057 99.1743 74.5236 99.1743 73.9557V70.19H101.358ZM113.049 70.0396C113.955 70.0396 114.64 70.2735 115.103 70.7412C115.571 71.2042 115.805 71.9487 115.805 72.9749V78.1938H113.614V73.519C113.614 72.9462 113.516 72.5143 113.321 72.2232C113.125 71.932 112.822 71.7865 112.411 71.7865C111.834 71.7865 111.424 71.9941 111.18 72.4093C110.937 72.8197 110.815 73.4092 110.815 74.1776V78.1938H108.631V73.519C108.631 73.1371 108.589 72.8174 108.503 72.5596C108.417 72.3019 108.285 72.1086 108.109 71.9797C107.932 71.8509 107.706 71.7865 107.429 71.7865C107.023 71.7865 106.703 71.8891 106.469 72.0943C106.24 72.2947 106.076 72.593 105.975 72.9892C105.88 73.3805 105.832 73.8602 105.832 74.4282V78.1938H103.649V70.19H105.317L105.61 71.2137H105.732C105.894 70.9369 106.097 70.7126 106.341 70.5408C106.589 70.3689 106.861 70.2425 107.157 70.1613C107.453 70.0802 107.753 70.0396 108.059 70.0396C108.646 70.0396 109.142 70.1351 109.548 70.326C109.958 70.5169 110.273 70.8128 110.493 71.2137H110.686C110.925 70.8033 111.261 70.505 111.696 70.3188C112.135 70.1327 112.586 70.0396 113.049 70.0396ZM121.332 70.0253C122.406 70.0253 123.229 70.2592 123.802 70.7269C124.374 71.1946 124.661 71.9058 124.661 72.8603V78.1938H123.136L122.713 77.1057H122.656C122.427 77.392 122.193 77.6259 121.955 77.8073C121.716 77.9886 121.442 78.1223 121.131 78.2082C120.821 78.2941 120.444 78.337 120 78.337C119.528 78.337 119.103 78.2463 118.726 78.065C118.354 77.8836 118.06 77.6068 117.845 77.2345C117.63 76.8575 117.523 76.3802 117.523 75.8027C117.523 74.9532 117.821 74.3279 118.418 73.927C119.015 73.5213 119.909 73.297 121.103 73.2541L122.492 73.2111V72.8603C122.492 72.4403 122.382 72.1325 122.162 71.9368C121.943 71.7411 121.637 71.6433 121.246 71.6433C120.859 71.6433 120.48 71.6982 120.108 71.8079C119.735 71.9177 119.363 72.0561 118.991 72.2232L118.268 70.7484C118.692 70.5241 119.167 70.3475 119.692 70.2186C120.222 70.0897 120.769 70.0253 121.332 70.0253ZM122.492 74.4854L121.647 74.5141C120.94 74.5332 120.449 74.6596 120.172 74.8935C119.9 75.1274 119.764 75.4352 119.764 75.817C119.764 76.1511 119.862 76.3898 120.057 76.5329C120.253 76.6713 120.508 76.7405 120.823 76.7405C121.291 76.7405 121.685 76.6021 122.005 76.3253C122.329 76.0485 122.492 75.6548 122.492 75.1441V74.4854ZM131.462 70.0396C132.316 70.0396 133.003 70.2735 133.524 70.7412C134.044 71.2042 134.304 71.9487 134.304 72.9749V78.1938H132.12V73.519C132.12 72.9462 132.015 72.5143 131.805 72.2232C131.6 71.932 131.276 71.7865 130.832 71.7865C130.164 71.7865 129.708 72.0132 129.464 72.4666C129.221 72.92 129.099 73.5738 129.099 74.4282V78.1938H126.916V70.19H128.584L128.877 71.2137H128.999C129.171 70.9369 129.383 70.7126 129.636 70.5408C129.894 70.3689 130.178 70.2425 130.488 70.1613C130.803 70.0802 131.128 70.0396 131.462 70.0396ZM138.736 70.19V78.1938H136.552V70.19H138.736ZM137.647 67.0543C137.972 67.0543 138.251 67.1306 138.485 67.2834C138.719 67.4313 138.836 67.7105 138.836 68.121C138.836 68.5267 138.719 68.8083 138.485 68.9658C138.251 69.1185 137.972 69.1949 137.647 69.1949C137.318 69.1949 137.036 69.1185 136.803 68.9658C136.573 68.8083 136.459 68.5267 136.459 68.121C136.459 67.7105 136.573 67.4313 136.803 67.2834C137.036 67.1306 137.318 67.0543 137.647 67.0543ZM144.406 76.5974C144.644 76.5974 144.876 76.5735 145.1 76.5258C145.329 76.478 145.556 76.4184 145.78 76.3468V77.9719C145.546 78.0769 145.255 78.1628 144.907 78.2296C144.563 78.3012 144.186 78.337 143.776 78.337C143.298 78.337 142.869 78.2607 142.487 78.1079C142.11 77.9504 141.812 77.6808 141.592 77.299C141.377 76.9124 141.27 76.3754 141.27 75.6882V71.8294H140.225V70.9059L141.427 70.1757L142.057 68.4861H143.453V70.19H145.694V71.8294H143.453V75.6882C143.453 75.9936 143.539 76.2227 143.711 76.3754C143.888 76.5234 144.119 76.5974 144.406 76.5974ZM149.589 70.19V78.1938H147.405V70.19H149.589ZM148.501 67.0543C148.825 67.0543 149.104 67.1306 149.338 67.2834C149.572 67.4313 149.689 67.7105 149.689 68.121C149.689 68.5267 149.572 68.8083 149.338 68.9658C149.104 69.1185 148.825 69.1949 148.501 69.1949C148.171 69.1949 147.89 69.1185 147.656 68.9658C147.427 68.8083 147.312 68.5267 147.312 68.121C147.312 67.7105 147.427 67.4313 147.656 67.2834C147.89 67.1306 148.171 67.0543 148.501 67.0543ZM155.187 70.0396C155.927 70.0396 156.564 70.1828 157.099 70.4692C157.633 70.7508 158.046 71.1612 158.337 71.7005C158.628 72.2399 158.774 72.8985 158.774 73.6765V74.736H153.612C153.636 75.3517 153.82 75.8361 154.163 76.1893C154.512 76.5377 154.994 76.7119 155.61 76.7119C156.12 76.7119 156.588 76.6594 157.013 76.5544C157.437 76.4494 157.874 76.2919 158.323 76.0819V77.7715C157.927 77.9671 157.511 78.1103 157.077 78.201C156.648 78.2917 156.125 78.337 155.509 78.337C154.707 78.337 153.996 78.1891 153.376 77.8932C152.76 77.5973 152.276 77.1462 151.923 76.5401C151.574 75.934 151.4 75.1703 151.4 74.2492C151.4 73.3137 151.557 72.5358 151.872 71.9153C152.192 71.2901 152.636 70.8224 153.204 70.5121C153.772 70.1971 154.433 70.0396 155.187 70.0396ZM155.201 71.5932C154.777 71.5932 154.423 71.7292 154.142 72.0012C153.865 72.2733 153.705 72.7004 153.662 73.2827H156.726C156.722 72.9582 156.662 72.6694 156.547 72.4165C156.438 72.1635 156.271 71.963 156.046 71.8151C155.827 71.6671 155.545 71.5932 155.201 71.5932ZM166.133 75.817C166.133 76.3611 166.005 76.8217 165.747 77.1987C165.494 77.571 165.114 77.855 164.609 78.0507C164.103 78.2416 163.473 78.337 162.719 78.337C162.16 78.337 161.68 78.3012 161.28 78.2296C160.883 78.1581 160.482 78.0387 160.077 77.8717V76.0676C160.511 76.2633 160.976 76.4255 161.473 76.5544C161.974 76.6785 162.413 76.7405 162.79 76.7405C163.215 76.7405 163.518 76.6785 163.699 76.5544C163.885 76.4255 163.979 76.2585 163.979 76.0533C163.979 75.9196 163.94 75.8003 163.864 75.6953C163.792 75.5855 163.635 75.4638 163.391 75.3302C163.148 75.1918 162.766 75.0128 162.246 74.7933C161.745 74.5833 161.332 74.3709 161.007 74.1561C160.688 73.9413 160.449 73.6884 160.292 73.3972C160.139 73.1013 160.062 72.7267 160.062 72.2733C160.062 71.5335 160.349 70.9775 160.922 70.6052C161.499 70.2282 162.27 70.0396 163.234 70.0396C163.73 70.0396 164.203 70.0897 164.651 70.19C165.105 70.2902 165.57 70.4501 166.047 70.6696L165.389 72.2446C164.993 72.0728 164.618 71.932 164.265 71.8222C163.916 71.7125 163.561 71.6576 163.198 71.6576C162.878 71.6576 162.637 71.7005 162.475 71.7865C162.313 71.8724 162.232 72.0036 162.232 72.1802C162.232 72.3091 162.272 72.4236 162.353 72.5238C162.439 72.6241 162.602 72.7362 162.84 72.8603C163.084 72.9796 163.439 73.1347 163.907 73.3257C164.36 73.5118 164.754 73.7075 165.088 73.9127C165.422 74.1132 165.68 74.3637 165.861 74.6644C166.043 74.9603 166.133 75.3445 166.133 75.817Z" fill="#098CF3"/>
</g>
<defs>
<filter id="filter0_d_599_703" x="0.596523" y="0.945941" width="277.004" height="415.043" filterUnits="userSpaceOnUse" color-interpolation-filters="sRGB">
<feFlood flood-opacity="0" result="BackgroundImageFix"/>
<feColorMatrix in="SourceAlpha" type="matrix" values="0 0 0 0 0 0 0 0 0 0 0 0 0 0 0 0 0 0 127 0" result="hardAlpha"/>
<feOffset dy="3.70574"/>
<feGaussianBlur stdDeviation="5.55861"/>
<feComposite in2="hardAlpha" operator="out"/>
<feColorMatrix type="matrix" values="0 0 0 0 0 0 0 0 0 0 0 0 0 0 0 0 0 0 0.15 0"/>
<feBlend mode="normal" in2="BackgroundImageFix" result="effect1_dropShadow_599_703"/>
<feBlend mode="normal" in="SourceGraphic" in2="effect1_dropShadow_599_703" result="shape"/>
</filter>
</defs>
</svg>
