<svg width="599" height="92" viewBox="0 0 599 92" fill="none" xmlns="http://www.w3.org/2000/svg">
<path d="M281.122 35.4306L280.398 33.4751H277.936L277.212 35.4306H276.613L278.535 30.3068C278.573 30.2128 278.699 29.8367 278.699 29.7522C278.699 29.3572 278.255 29.3572 277.955 29.3103V29.1034H279.77L282.126 35.4305L281.122 35.4306ZM279.133 30.288L278.1 33.0332H280.234L279.133 30.288ZM289.394 35.4306L287.685 32.5068H287.086V35.4306H286.024V30.3819C286.024 29.4793 286.024 29.4419 285.107 29.3102V29.1034H287.588C288.756 29.1034 290.205 29.3478 290.205 30.7862C290.205 31.7357 289.645 32.1964 288.727 32.3374L290.504 35.4305L289.394 35.4306ZM287.733 29.5452C287.038 29.5452 287.086 29.7991 287.086 30.3913V32.0648H287.636C288.476 32.0648 289.143 31.7639 289.143 30.8426C289.143 29.9119 288.65 29.5452 287.733 29.5452ZM296.65 35.5245C294.429 35.5245 293.802 34.1238 293.802 32.1776C293.802 30.3632 294.419 29.0751 296.495 29.0751C297.152 29.0751 297.808 29.1597 298.426 29.3571L298.484 30.9272H298.204C298.185 30.7298 298.108 30.523 298.001 30.3537C297.702 29.846 297.2 29.5264 296.592 29.5264C295.134 29.5264 294.941 31.087 294.941 32.1776C294.941 33.3433 295.308 34.9981 296.814 34.9981C297.451 34.9981 297.982 34.8758 298.503 34.5185V35.1672C297.895 35.4306 297.316 35.5245 296.65 35.5245ZM306.446 35.4306V32.3563H303.82V35.4306H302.758V30.3444C302.758 29.5265 302.603 29.5076 301.792 29.4231V29.2163L303.82 29V31.9144H306.446V29.1034H307.508V35.4305L306.446 35.4306ZM311.239 35.4306V35.1956C311.963 35.1956 312.06 35.0076 312.06 34.3212V30.2786C312.06 29.5924 311.963 29.4043 311.239 29.4043V29.1692H313.943V29.4043C313.218 29.4043 313.122 29.6017 313.122 30.2786V34.3212C313.122 34.9982 313.218 35.1956 313.943 35.1956V35.4306H311.239ZM320.994 35.4306H320.154L318.262 30.3068C317.972 29.517 317.924 29.4607 317.094 29.3102V29.1034H318.967L320.859 34.2553H320.878L322.722 29.1034H323.35L320.994 35.4306ZM330.971 35.4306H327.119V30.3819C327.119 29.4793 327.109 29.4513 326.202 29.3102V29.1034H330.826L330.855 30.4948H330.585C330.585 29.7897 330.228 29.5452 329.542 29.5452H328.789C328.345 29.5452 328.181 29.5546 328.181 30.0341V31.905H329.349C329.899 31.905 330.054 31.6605 330.141 31.1811H330.411V33.1555H330.141C330.141 32.6289 329.909 32.3469 329.349 32.3469H328.181V34.4434C328.181 34.9606 328.297 34.9887 328.789 34.9887H329.861C330.517 34.9887 330.681 34.6691 330.73 34.0673H331L330.971 35.4306ZM280.312 88.8307H326.871V91.1557H280.312V88.8307ZM282.149 84.3594H325.127V87.5788H282.149V84.3594ZM281.873 47.6955H324.622V52.1667H281.873V47.6955ZM303.247 39.8708L280.863 44.968L282.149 46.354H324.346L325.632 44.968L303.247 39.8708ZM271.498 91.4604H271.256C271.256 90.7554 271.063 90.6613 270.358 90.6613H266.207C265.502 90.6613 265.309 90.7554 265.309 91.4604H265.068V88.828H265.309C265.309 89.5332 265.512 89.6272 266.207 89.6272H270.358C271.053 89.6272 271.256 89.5332 271.256 88.828H271.498V91.4604ZM271.498 81.1285L266.004 84.231V84.2498H271.498V84.842H266.236C265.328 84.842 265.367 84.983 265.212 85.7821H265V83.7984L270.252 80.8369V80.8181H265V80.2259H271.498V81.1285ZM266.429 71.8306C265.676 71.8306 265.454 72.1502 265.454 72.8554V73.4946H271.498V74.5288H265.454V75.1775C265.454 75.892 265.666 76.1364 266.4 76.1929V76.4562L265 76.4186V71.605L266.429 71.5674V71.8306ZM271.498 64.0368V67.7881H266.313C265.386 67.7881 265.357 67.7975 265.212 68.6813H265V64.1779L266.429 64.1497V64.4129C265.705 64.4129 265.454 64.7608 265.454 65.4283V66.1616C265.454 66.594 265.463 66.7538 265.956 66.7538H267.877V65.6163C267.877 65.0805 267.626 64.9301 267.134 64.8453V64.5822H269.161V64.8453C268.621 64.8453 268.331 65.0709 268.331 65.6163V66.7538H270.484C271.015 66.7538 271.044 66.641 271.044 66.1616V65.1181C271.044 64.4787 270.716 64.319 270.098 64.272V64.0088L271.498 64.0368ZM271.498 56.4688L268.495 58.1328V58.7157H271.498V59.7498H266.313C265.386 59.7498 265.348 59.7498 265.212 60.643H265V58.2269C265 57.0893 265.251 55.679 266.728 55.679C267.703 55.679 268.176 56.2243 268.321 57.1175L271.497 55.3877L271.498 56.4688ZM265.454 58.0858C265.454 58.7628 265.714 58.7157 266.323 58.7157H268.041V58.1798C268.041 57.3619 267.732 56.7132 266.786 56.7132C265.83 56.7132 265.454 57.1927 265.454 58.0858ZM271.498 47.6315L266.004 50.734V50.7529H271.498V51.3451H266.236C265.328 51.3451 265.367 51.4861 265.212 52.2853H265V50.3016L270.252 47.3402V47.3214H265V46.7291H271.498V47.6315ZM271.498 38.39V42.1413H266.313C265.386 42.1413 265.357 42.1506 265.212 43.0343H265V38.5311L266.429 38.5029V38.7662C265.705 38.7662 265.454 39.114 265.454 39.7815V40.5148C265.454 40.9473 265.463 41.1071 265.956 41.1071H267.877V39.9695C267.877 39.4336 267.626 39.2832 267.134 39.1986V38.9353H269.161V39.1986C268.621 39.1986 268.331 39.4242 268.331 39.9695V41.1071H270.484C271.015 41.1071 271.044 40.9943 271.044 40.5148V39.4712C271.044 38.8319 270.716 38.6721 270.098 38.6251V38.3618L271.498 38.39ZM266.429 30.3049C265.676 30.3049 265.454 30.6245 265.454 31.3297V31.969H271.498V33.0031H265.454V33.6518C265.454 34.3664 265.666 34.6108 266.4 34.6672V34.9305L265 34.8928V30.0792L266.429 30.0416V30.3049ZM288.039 66.3213C288.002 64.1254 287.944 61.9294 287.856 59.7351C287.772 57.6675 287.636 55.602 287.532 53.5351C287.523 53.3566 287.446 53.3181 287.294 53.2857C286.668 53.1528 286.038 53.0903 285.406 53.0894C284.774 53.0903 284.144 53.1528 283.518 53.2857C283.366 53.318 283.288 53.3566 283.279 53.5351C283.176 55.602 283.039 57.6675 282.956 59.7351C282.868 61.9294 282.809 64.1254 282.772 66.3213C282.746 67.8775 282.762 69.4348 282.788 70.9914C282.816 72.7183 282.855 74.4455 282.927 76.171C283.004 78.0228 283.123 79.8732 283.227 81.7238C283.247 82.0785 283.285 82.4322 283.313 82.7769C284.015 82.9547 284.711 83.0574 285.406 83.0659C286.101 83.0574 286.797 82.9547 287.499 82.7769C287.527 82.4322 287.564 82.0784 287.584 81.7238C287.689 79.8732 287.808 78.0228 287.885 76.171C287.957 74.4455 287.996 72.7183 288.024 70.9914C288.049 69.4348 288.065 67.8775 288.039 66.3213ZM299.679 66.3213C299.642 64.1254 299.583 61.9294 299.495 59.7351C299.412 57.6675 299.275 55.602 299.172 53.5351C299.163 53.3566 299.085 53.3181 298.933 53.2857C298.307 53.1528 297.677 53.0903 297.045 53.0894C296.413 53.0903 295.783 53.1528 295.157 53.2857C295.005 53.318 294.927 53.3566 294.919 53.5351C294.815 55.602 294.678 57.6675 294.595 59.7351C294.507 61.9294 294.448 64.1254 294.412 66.3213C294.386 67.8775 294.402 69.4348 294.427 70.9914C294.455 72.7183 294.494 74.4455 294.566 76.171C294.643 78.0228 294.762 79.8732 294.867 81.7238C294.887 82.0785 294.924 82.4322 294.952 82.7769C295.654 82.9547 296.35 83.0574 297.045 83.0659C297.74 83.0574 298.436 82.9547 299.138 82.7769C299.166 82.4322 299.203 82.0784 299.223 81.7238C299.328 79.8732 299.447 78.0228 299.524 76.171C299.596 74.4455 299.635 72.7183 299.663 70.9914C299.688 69.4348 299.705 67.8775 299.679 66.3213ZM313.177 66.3213C313.14 64.1254 313.082 61.9294 312.994 59.7351C312.91 57.6675 312.774 55.602 312.67 53.5351C312.661 53.3566 312.584 53.3181 312.432 53.2857C311.806 53.1528 311.176 53.0903 310.544 53.0894C309.912 53.0903 309.282 53.1528 308.656 53.2857C308.504 53.318 308.426 53.3566 308.417 53.5351C308.314 55.602 308.177 57.6675 308.094 59.7351C308.006 61.9294 307.947 64.1254 307.91 66.3213C307.884 67.8775 307.901 69.4348 307.926 70.9914C307.954 72.7183 307.993 74.4455 308.065 76.171C308.142 78.0228 308.261 79.8732 308.365 81.7238C308.386 82.0785 308.423 82.4322 308.451 82.7769C309.153 82.9547 309.849 83.0574 310.544 83.0659C311.239 83.0574 311.935 82.9547 312.637 82.7769C312.665 82.4322 312.702 82.0784 312.722 81.7238C312.827 79.8732 312.946 78.0228 313.023 76.171C313.094 74.4455 313.134 72.7183 313.162 70.9914C313.187 69.4348 313.203 67.8775 313.177 66.3213ZM324.541 66.3213C324.504 64.1254 324.446 61.9294 324.357 59.7351C324.274 57.6675 324.137 55.602 324.034 53.5351C324.025 53.3566 323.947 53.3181 323.795 53.2857C323.169 53.1528 322.54 53.0903 321.907 53.0894C321.275 53.0903 320.646 53.1528 320.02 53.2857C319.867 53.318 319.79 53.3566 319.781 53.5351C319.678 55.602 319.541 57.6675 319.458 59.7351C319.369 61.9294 319.311 64.1254 319.274 66.3213C319.248 67.8775 319.264 69.4348 319.289 70.9914C319.317 72.7183 319.357 74.4455 319.429 76.171C319.506 78.0228 319.625 79.8732 319.729 81.7238C319.749 82.0785 319.786 82.4322 319.815 82.7769C320.517 82.9547 321.212 83.0574 321.907 83.0659C322.603 83.0574 323.299 82.9547 324 82.7769C324.029 82.4322 324.066 82.0784 324.086 81.7238C324.19 79.8732 324.309 78.0228 324.386 76.171C324.458 74.4455 324.497 72.7183 324.525 70.9914C324.551 69.4348 324.567 67.8775 324.541 66.3213Z" fill="#F5F5F5"/>
<path d="M49.5916 31.6555C50.1008 32.2704 50.7443 32.7602 51.4725 33.0873C52.2008 33.4143 52.9944 33.5699 53.7922 33.542C54.4241 33.5754 55.0559 33.4749 55.6463 33.2473C56.2367 33.0196 56.7724 32.6699 57.2184 32.221C57.625 31.806 57.9455 31.3145 58.1612 30.775C58.3769 30.2355 58.4836 29.6586 58.4752 29.0776C58.5026 28.5255 58.4083 27.9741 58.1989 27.4625C57.9895 26.951 57.6701 26.4917 57.2635 26.1172C56.5679 25.446 55.6449 25.0617 54.6785 25.0409C54.2992 25.0524 53.9221 25.1009 53.5523 25.1858C53.2591 25.2718 52.9584 25.3291 52.6542 25.3569C51.9889 25.3569 51.6563 24.9546 51.6563 24.1499C51.6563 22.7956 52.3302 21.6322 53.6782 20.6596C54.0631 20.3828 54.4682 20.135 54.8899 19.9184C56.2089 19.347 57.6344 19.0635 59.0716 19.0868C61.973 19.0414 64.8208 19.8701 67.2449 21.4651L65.4581 24.0311L67.9363 25.6634L71.2911 20.8759L70.21 20.0276C67.0547 17.4814 63.1066 16.1219 59.0526 16.1857C52.5164 16.1857 47.945 20.1963 47.945 25.9414V26.35C47.9522 28.6072 48.5224 30.3915 49.5916 31.6555ZM66.4917 30.1539C65.8596 30.1199 65.2274 30.2198 64.6366 30.4471C64.0458 30.6743 63.5096 31.0238 63.0632 31.4726C62.6565 31.8876 62.3361 32.379 62.1204 32.9186C61.9046 33.4581 61.7979 34.035 61.8063 34.616C61.7826 35.1655 61.8795 35.7135 62.09 36.2216C62.3006 36.7297 62.6198 37.1857 63.0252 37.5574C63.7248 38.2445 64.6607 38.638 65.6411 38.6574C66.0202 38.6469 66.3975 38.5991 66.7673 38.5149C67.0604 38.4289 67.3612 38.3716 67.6654 38.3438C68.3307 38.3438 68.6633 38.7461 68.6633 39.5508C68.6642 39.8345 68.6332 40.1175 68.5706 40.3943C67.4634 43.11 64.6171 44.6686 60.5043 44.6686C57.0592 44.6818 53.7024 43.579 50.9364 41.5252L53.1745 38.9117L50.8128 37.0869L46.7832 41.8578L47.8049 42.775C51.2916 45.8818 55.8033 47.5911 60.4734 47.5744C61.0009 47.5744 61.5117 47.5744 62.0083 47.5031C64.7086 47.4074 67.2967 46.399 69.3499 44.6424C71.3093 42.8795 72.289 40.4426 72.289 37.3317C72.289 35.0777 71.7568 33.3179 70.6923 32.0523C70.1846 31.4348 69.5417 30.9423 68.8134 30.6128C68.085 30.2832 67.2907 30.1278 66.4917 30.1539Z" fill="#2698A4"/>
<path d="M144.347 23.551H146.2V39.9593H144.347V23.551ZM162.815 31.4795C163.594 31.194 164.264 30.6718 164.731 29.9862C165.198 29.3006 165.438 28.4859 165.419 27.6566C165.419 25.1429 163.304 23.551 160.073 23.551H153.085V39.9593H160.377C163.965 39.9593 166.329 38.2937 166.329 35.4592C166.329 33.1569 164.758 32.0616 162.815 31.4795ZM154.908 25.2189H159.938C162.28 25.2189 163.57 26.2738 163.57 27.9156C163.57 29.8639 162.024 30.8689 159.797 30.8689H154.908V25.2118V25.2189ZM160.415 38.3009H154.908V32.5273H160.087C162.948 32.5273 164.45 33.5609 164.45 35.3642C164.45 37.1699 162.91 38.3009 160.427 38.3009H160.415ZM111.896 38.5313C108.287 38.5313 105.54 35.5519 105.54 31.7361C105.54 27.9204 108.263 24.9861 111.896 24.9861C112.863 24.9921 113.819 25.1947 114.705 25.5815C115.591 25.9683 116.39 26.5312 117.052 27.2361L118.309 25.877C117.482 25.0216 116.485 24.3483 115.383 23.9003C114.281 23.4523 113.097 23.2395 111.908 23.2754C107.08 23.2754 103.611 27.0983 103.611 31.786C103.611 36.4738 107.132 40.2444 111.853 40.2444C113.096 40.2724 114.329 40.0291 115.468 39.5313C116.607 39.0336 117.623 38.2934 118.447 37.3624L117.187 36.1696C115.624 37.6665 114.146 38.5313 111.896 38.5313ZM93.3518 30.8689C89.738 30.0967 88.9016 29.2295 88.9016 27.6566C88.9016 26.0861 90.2535 24.9861 92.3895 24.9861C94.1299 24.9879 95.8109 25.6191 97.1224 26.7633L98.2058 25.3377C96.5974 23.9783 94.5445 23.2594 92.4394 23.3181C89.296 23.3181 87.046 25.2046 87.046 27.8206C87.046 30.4341 88.7804 31.7623 92.5535 32.5796C95.9986 33.309 96.8207 34.1762 96.8207 35.723C96.8207 37.3861 95.3713 38.5385 93.1617 38.5385C92.1117 38.5517 91.0698 38.3532 90.0982 37.9547C89.1266 37.5563 88.2453 36.9662 87.5069 36.2195L86.3855 37.5572C88.1931 39.2759 90.5987 40.2234 93.0928 40.1992C96.3502 40.1992 98.6953 38.3698 98.6953 35.5329C98.6953 33.0001 97.006 31.6672 93.3518 30.8689ZM136.872 28.4549C136.872 25.5016 134.553 23.5605 130.937 23.5605H123.885V39.9664H125.738V33.5846H130.428L135.187 39.9593H137.464L132.434 33.252C135 32.7934 136.872 31.1968 136.872 28.4549ZM125.738 31.9001V25.2617H130.806C133.453 25.2617 135.004 26.4805 135.004 28.5167C135.004 30.5529 133.239 31.9001 130.775 31.9001H125.745H125.738ZM179.278 23.551H173.585V39.9593H179.28C184.436 39.9593 188 36.3716 188 31.7314C188 27.0911 184.45 23.551 179.278 23.551ZM179.278 38.2486H175.434V25.2617H179.28C183.429 25.2617 186.075 28.1223 186.075 31.7813C186.075 35.4402 183.426 38.2486 179.278 38.2486Z" fill="#F3F3F5"/>
<path d="M457.843 24.982H556.413M457.714 50.2824H556.284M412.791 29.3012L434.244 17.4877M434.273 16.6582L451.965 27.2846" stroke="#D3CCB0" stroke-width="0.715103" stroke-miterlimit="10"/>
<path d="M451.607 44.4475L414.693 47.2221C412.577 47.3795 410.717 45.7776 410.56 43.6609L409.745 32.7198C409.587 30.6031 411.189 28.7439 413.306 28.5865L450.22 25.8119C452.336 25.6546 454.196 27.2564 454.353 29.3731L455.168 40.3142C455.325 42.4309 453.724 44.2902 451.607 44.4475Z" fill="#518ABE"/>
<path d="M416.896 32.1905C417.969 32.1046 418.912 32.262 419.728 32.6338C420.529 33.02 421.172 33.5921 421.63 34.3644C422.087 35.1367 422.359 36.0806 422.445 37.1676C422.502 37.9685 422.445 38.7122 422.288 39.3844C422.116 40.0566 421.83 40.6573 421.43 41.1722C421.029 41.687 420.529 42.1018 419.914 42.4021C419.299 42.7025 418.583 42.8884 417.768 42.9456C416.953 43.0028 416.209 42.9313 415.551 42.7168C414.894 42.5023 414.321 42.1733 413.85 41.7299C413.378 41.2866 413.02 40.7288 412.748 40.0709C412.477 39.413 412.319 38.6979 412.248 37.9113C412.19 37.1104 412.248 36.3667 412.434 35.6802C412.62 34.9937 412.906 34.4073 413.306 33.9067C413.706 33.4061 414.207 33.0057 414.822 32.7053C415.437 32.405 416.095 32.2477 416.896 32.1905ZM420.3 37.3249C420.243 36.5669 420.071 35.909 419.785 35.3655C419.499 34.822 419.113 34.4359 418.641 34.1784C418.169 33.921 417.625 33.8209 417.039 33.8638C416.624 33.8924 416.238 34.0068 415.895 34.1928C415.551 34.3787 415.265 34.6361 415.022 34.9508C414.793 35.2797 414.608 35.6802 414.493 36.1521C414.379 36.6384 414.35 37.1676 414.393 37.754C414.436 38.3404 414.55 38.8695 414.736 39.3415C414.922 39.8135 415.165 40.1853 415.451 40.4857C415.752 40.786 416.081 40.9862 416.438 41.115C416.796 41.2437 417.196 41.3009 417.611 41.258C418.154 41.2151 418.641 41.0434 419.07 40.7431C419.499 40.4428 419.828 39.9994 420.057 39.413C420.271 38.8409 420.357 38.1401 420.3 37.3249ZM428.366 37.897L426.435 38.04L426.65 40.9862C426.678 41.401 426.607 41.7299 426.421 41.9731C426.235 42.2019 425.992 42.3306 425.692 42.3592C425.377 42.3878 425.105 42.2877 424.905 42.0875C424.69 41.8873 424.576 41.5726 424.547 41.1579L423.947 33.1344C423.918 32.6767 423.99 32.3335 424.19 32.119C424.39 31.9044 424.719 31.7757 425.177 31.7471L427.88 31.5469C428.681 31.4897 429.296 31.504 429.739 31.5898C430.168 31.6756 430.554 31.8472 430.883 32.0903C431.212 32.3478 431.47 32.6624 431.67 33.0486C431.856 33.4347 431.97 33.8781 432.013 34.3787C432.099 35.437 431.827 36.2666 431.212 36.8672C430.612 37.4536 429.653 37.7969 428.366 37.897ZM427.494 33.163L426.078 33.2631L426.321 36.4525L427.737 36.3524C428.237 36.3095 428.652 36.2379 428.967 36.1092C429.296 35.9805 429.539 35.7946 429.696 35.5371C429.854 35.294 429.911 34.9651 429.882 34.5932C429.854 34.1355 429.682 33.7637 429.396 33.5063C429.067 33.2059 428.438 33.0915 427.494 33.163ZM440.537 32.2334L435.789 32.5909L435.975 35.151L440.351 34.822C440.68 34.7934 440.923 34.8506 441.095 34.9794C441.267 35.1081 441.352 35.294 441.381 35.5371C441.395 35.7803 441.338 35.9662 441.195 36.1378C441.052 36.3095 440.809 36.3953 440.494 36.4096L436.118 36.7385L436.347 39.699L441.267 39.3272C441.596 39.2986 441.853 39.3558 442.039 39.4988C442.225 39.6418 442.325 39.8421 442.339 40.0995C442.354 40.3426 442.282 40.5572 442.139 40.7145C441.982 40.8861 441.739 40.9719 441.41 41.0005L435.674 41.4296C435.217 41.4582 434.874 41.3867 434.659 41.2008C434.444 41.0148 434.316 40.6859 434.287 40.2425L433.701 32.4193C433.672 32.119 433.701 31.8615 433.787 31.6613C433.858 31.4611 433.987 31.318 434.173 31.2036C434.359 31.0892 434.602 31.0463 434.902 31.0177L440.466 30.6029C440.795 30.5743 441.052 30.6315 441.238 30.7746C441.41 30.9176 441.51 31.1035 441.524 31.3466C441.538 31.5898 441.481 31.79 441.324 31.9616C441.109 32.1046 440.866 32.2048 440.537 32.2334ZM446.086 31.2751L450.606 37.1104L450.148 30.9176C450.12 30.5171 450.177 30.2025 450.334 29.9879C450.491 29.7734 450.72 29.659 451.006 29.6304C451.307 29.6018 451.55 29.6876 451.75 29.8735C451.936 30.0595 452.05 30.3598 452.079 30.7603L452.694 38.9553C452.765 39.8707 452.422 40.3569 451.664 40.4142C451.478 40.4285 451.307 40.4142 451.149 40.3712C450.992 40.3283 450.849 40.2568 450.706 40.1424C450.563 40.028 450.434 39.8993 450.305 39.7563C450.177 39.6132 450.048 39.4559 449.934 39.2986L445.5 33.5206L445.958 39.6275C445.986 40.028 445.915 40.3283 445.743 40.5572C445.571 40.7717 445.343 40.9004 445.057 40.9147C444.756 40.9433 444.513 40.8575 444.313 40.6573C444.113 40.4714 443.998 40.171 443.97 39.7849L443.369 31.7471C443.34 31.4038 443.355 31.1321 443.426 30.9319C443.498 30.7173 443.641 30.5314 443.841 30.3741C444.041 30.2168 444.256 30.1453 444.499 30.1167C444.685 30.1024 444.856 30.1167 444.999 30.1739C445.142 30.2311 445.257 30.3026 445.371 30.4027C445.486 30.5028 445.6 30.6315 445.715 30.7889C445.829 30.9319 445.958 31.1035 446.086 31.2751Z" fill="#F5F5F5"/>
<path d="M434.688 18.5183C435.659 18.5183 436.447 17.7307 436.447 16.7592C436.447 15.7876 435.659 15 434.688 15C433.716 15 432.928 15.7876 432.928 16.7592C432.928 17.7307 433.716 18.5183 434.688 18.5183Z" fill="#F3F3F5"/>
<path d="M462.019 39.1128C462.019 42.3021 462.105 43.7037 462.491 44.0899C462.834 44.4331 463.406 44.5905 465.094 44.5905C466.252 44.5905 467.196 44.5618 467.725 43.9326C468.011 43.5893 468.226 43.0458 468.283 42.6311C468.312 42.4594 468.355 42.345 468.483 42.345C468.598 42.345 468.612 42.4308 468.612 42.674C468.612 42.9171 468.455 44.2186 468.283 44.8479C468.126 45.3485 468.069 45.4343 466.91 45.4343C465.351 45.4343 464.221 45.3914 463.306 45.3628C462.391 45.3199 461.719 45.2913 461.089 45.2913C461.003 45.2913 460.632 45.3199 460.203 45.3199C459.773 45.3485 459.287 45.3628 458.958 45.3628C458.715 45.3628 458.615 45.3199 458.615 45.1911C458.615 45.1196 458.658 45.0624 458.787 45.0624C458.987 45.0624 459.244 45.0195 459.445 44.9766C459.874 44.8908 459.988 44.4188 460.074 43.7752C460.188 42.8599 460.188 41.1437 460.188 39.0556V35.2369C460.188 31.8473 460.188 31.2323 460.145 30.5458C460.102 29.8021 459.931 29.4589 459.216 29.3015C459.044 29.2586 458.672 29.23 458.472 29.23C458.386 29.23 458.3 29.1871 458.3 29.1013C458.3 28.9726 458.415 28.9297 458.644 28.9297C459.616 28.9297 460.989 29.0012 461.104 29.0012C461.218 29.0012 462.791 28.9297 463.449 28.9297C463.692 28.9297 463.792 28.9726 463.792 29.1013C463.792 29.1871 463.707 29.23 463.621 29.23C463.463 29.23 463.163 29.2586 462.906 29.3015C462.276 29.416 462.105 29.7735 462.062 30.5458C462.019 31.2466 462.019 31.8473 462.019 35.2369V39.1128ZM474.876 39.0699C474.876 41.158 474.876 42.8742 474.991 43.7895C475.062 44.4188 475.191 44.8908 475.835 44.9909C476.135 45.0338 476.621 45.0767 476.807 45.0767C476.936 45.0767 476.979 45.1482 476.979 45.2054C476.979 45.3199 476.864 45.3771 476.636 45.3771C475.434 45.3771 474.076 45.3056 473.961 45.3056C473.847 45.3056 472.488 45.3771 471.83 45.3771C471.587 45.3771 471.487 45.3342 471.487 45.2054C471.487 45.1339 471.53 45.0767 471.658 45.0767C471.859 45.0767 472.116 45.0338 472.316 44.9909C472.745 44.9051 472.86 44.4331 472.946 43.7895C473.06 42.8742 473.06 41.158 473.06 39.0699V35.2512C473.06 31.8616 473.06 31.2466 473.017 30.5601C472.974 29.8164 472.76 29.4589 472.273 29.3444C472.03 29.2729 471.759 29.2586 471.601 29.2586C471.515 29.2586 471.43 29.2157 471.43 29.1299C471.43 29.0012 471.544 28.9583 471.773 28.9583C472.488 28.9583 473.861 29.0298 473.961 29.0298C474.076 29.0298 475.434 28.9583 476.092 28.9583C476.335 28.9583 476.435 29.0012 476.435 29.1299C476.435 29.2157 476.35 29.2586 476.264 29.2586C476.106 29.2586 475.978 29.2872 475.72 29.3301C475.134 29.4446 474.962 29.8021 474.919 30.5744C474.876 31.2752 474.876 31.8759 474.876 35.2655V39.0699ZM482.614 35.2512C482.614 31.8616 482.614 31.2466 482.571 30.5601C482.528 29.8164 482.356 29.4732 481.641 29.3158C481.47 29.2729 481.098 29.2443 480.898 29.2443C480.812 29.2443 480.726 29.2014 480.726 29.1156C480.726 28.9869 480.84 28.944 481.069 28.944C482.042 28.944 483.415 29.0155 483.529 29.0155C484.044 29.0155 484.902 28.944 485.903 28.944C489.465 28.944 490.251 31.1179 490.251 32.2049C490.251 33.9926 489.236 35.051 488.206 36.1093C489.808 36.6099 491.967 38.1545 491.967 40.7003C491.967 43.0315 490.137 45.4343 486.433 45.4343C486.189 45.4343 485.503 45.3914 484.874 45.3628C484.244 45.3199 483.629 45.2913 483.544 45.2913C483.501 45.2913 483.129 45.2913 482.671 45.3199C482.242 45.3199 481.741 45.3628 481.412 45.3628C481.169 45.3628 481.069 45.3199 481.069 45.1911C481.069 45.1196 481.112 45.0624 481.241 45.0624C481.441 45.0624 481.699 45.0195 481.899 44.9766C482.328 44.8908 482.442 44.4188 482.528 43.7752C482.642 42.8599 482.642 41.1437 482.642 39.0556V35.2512H482.614ZM484.344 35.7232C484.344 35.8805 484.387 35.9234 484.502 35.9663C484.63 35.9949 485.017 36.0521 485.832 36.0521C487.048 36.0521 487.348 36.0092 487.806 35.4943C488.263 34.9795 488.592 34.1928 488.592 33.3061C488.592 31.5041 487.791 29.5733 485.66 29.5733C485.417 29.5733 484.959 29.6019 484.616 29.6877C484.416 29.7306 484.359 29.8021 484.359 29.9308V35.7232H484.344ZM484.344 38.0258C484.344 39.6991 484.344 42.3879 484.373 42.7169C484.445 43.7752 484.445 44.0899 485.117 44.4045C485.703 44.6906 486.633 44.7335 487.033 44.7335C488.206 44.7335 490.094 44.1042 490.094 41.6442C490.094 40.3427 489.665 38.4549 487.991 37.2964C487.248 36.7958 486.704 36.7243 486.189 36.6671C485.903 36.6242 484.816 36.6242 484.502 36.6242C484.416 36.6242 484.373 36.6671 484.373 36.7815V38.0258H484.344ZM497.216 35.2512C497.216 31.8616 497.216 31.2466 497.173 30.5601C497.13 29.8164 496.959 29.4732 496.244 29.3158C496.072 29.2729 495.7 29.2443 495.5 29.2443C495.414 29.2443 495.328 29.2014 495.328 29.1156C495.328 28.9869 495.443 28.944 495.672 28.944C496.644 28.944 498.017 29.0155 498.132 29.0155C498.375 29.0155 500.019 28.944 500.692 28.944C502.065 28.944 503.509 29.0727 504.668 29.9022C505.211 30.2884 506.169 31.361 506.169 32.8628C506.169 34.4646 505.497 36.0807 503.538 37.8828C505.326 40.1711 506.799 42.1019 508.057 43.4463C509.23 44.6906 510.16 44.9194 510.703 45.0052C511.118 45.0767 511.418 45.0767 511.547 45.0767C511.661 45.0767 511.747 45.1482 511.747 45.2054C511.747 45.3342 511.618 45.3771 511.232 45.3771H509.688C508.472 45.3771 507.929 45.2626 507.356 44.9623C506.427 44.4617 505.669 43.4034 504.425 41.7729C503.509 40.5716 502.494 39.1271 502.05 38.555C501.965 38.4692 501.893 38.4263 501.764 38.4263L499.09 38.3834C498.975 38.3834 498.933 38.4549 498.933 38.555V39.0699C498.933 41.158 498.933 42.8742 499.047 43.7895C499.118 44.4188 499.247 44.8908 499.891 44.9909C500.191 45.0338 500.677 45.0767 500.863 45.0767C500.992 45.0767 501.035 45.1482 501.035 45.2054C501.035 45.3199 500.921 45.3771 500.692 45.3771C499.49 45.3771 498.132 45.3056 498.017 45.3056C497.989 45.3056 496.63 45.3771 495.972 45.3771C495.729 45.3771 495.629 45.3342 495.629 45.2054C495.629 45.1339 495.672 45.0767 495.8 45.0767C496.001 45.0767 496.258 45.0338 496.458 44.9909C496.887 44.9051 497.002 44.4331 497.088 43.7895C497.202 42.8742 497.202 41.158 497.202 39.0699V35.2512H497.216ZM498.947 37.1391C498.947 37.2535 498.99 37.3393 499.104 37.3965C499.433 37.5967 500.434 37.7398 501.392 37.7398C501.907 37.7398 502.522 37.6683 503.023 37.325C503.781 36.8101 504.353 35.6374 504.353 33.9783C504.353 31.2609 502.923 29.6305 500.592 29.6305C499.934 29.6305 499.347 29.702 499.133 29.7592C499.018 29.8021 498.961 29.8879 498.961 30.0166V37.1391H498.947Z" fill="#F3F3F5"/>
<path d="M516.824 29.4874C517.082 28.7723 517.168 28.6436 517.296 28.6436C517.425 28.6436 517.511 28.758 517.768 29.4302C518.097 30.2597 521.501 39.2271 522.831 42.5309C523.618 44.4616 524.247 44.8192 524.705 44.9479C525.034 45.0623 525.363 45.0766 525.577 45.0766C525.706 45.0766 525.792 45.1052 525.792 45.2053C525.792 45.3341 525.592 45.377 525.363 45.377C525.034 45.377 523.446 45.377 521.945 45.3341C521.53 45.3055 521.287 45.3055 521.287 45.1767C521.287 45.0909 521.358 45.048 521.444 45.0194C521.573 44.9765 521.701 44.7763 521.573 44.433L519.556 39.0841C519.513 38.9983 519.47 38.9553 519.356 38.9553H514.679C514.565 38.9553 514.507 39.0269 514.465 39.127L513.163 42.9742C512.963 43.5177 512.863 44.0326 512.863 44.433C512.863 44.8621 513.32 45.0623 513.692 45.0623H513.907C514.064 45.0623 514.121 45.1052 514.121 45.191C514.121 45.3198 513.993 45.3627 513.792 45.3627C513.277 45.3627 512.334 45.2912 512.105 45.2912C511.876 45.2912 510.674 45.3627 509.645 45.3627C509.359 45.3627 509.23 45.3198 509.23 45.191C509.23 45.1052 509.316 45.0623 509.43 45.0623C509.588 45.0623 509.888 45.0337 510.06 45.0194C511.061 44.8907 511.49 44.0612 511.89 42.9742L516.824 29.4874ZM519.084 38.183C519.199 38.183 519.199 38.1115 519.17 38.0257L517.11 32.1619C516.996 31.8329 516.896 31.8329 516.781 32.1619L514.865 38.0257C514.822 38.1401 514.865 38.183 514.937 38.183H519.084ZM528.91 35.2511C528.91 31.8615 528.91 31.2465 528.867 30.56C528.824 29.8163 528.652 29.4731 527.937 29.3158C527.765 29.2728 527.394 29.2442 527.193 29.2442C527.108 29.2442 527.022 29.2013 527.022 29.1155C527.022 28.9868 527.136 28.9439 527.365 28.9439C528.338 28.9439 529.711 29.0154 529.825 29.0154C530.068 29.0154 531.713 28.9439 532.385 28.9439C533.758 28.9439 535.203 29.0726 536.361 29.9021C536.904 30.2883 537.863 31.3609 537.863 32.8627C537.863 34.4645 537.191 36.0806 535.231 37.8827C537.019 40.171 538.492 42.1018 539.751 43.4462C540.923 44.6905 541.853 44.9193 542.396 45.0051C542.811 45.0766 543.112 45.0766 543.24 45.0766C543.355 45.0766 543.441 45.1481 543.441 45.2053C543.441 45.3341 543.312 45.377 542.926 45.377H541.381C540.165 45.377 539.622 45.2626 539.05 44.9622C538.12 44.4616 537.362 43.4033 536.118 41.7729C535.203 40.5715 534.187 39.127 533.744 38.5549C533.658 38.4691 533.586 38.4262 533.458 38.4262L530.783 38.3833C530.669 38.3833 530.626 38.4548 530.626 38.5549V39.0698C530.626 41.1579 530.626 42.8741 530.74 43.7894C530.812 44.4187 530.941 44.8907 531.584 44.9908C531.884 45.0337 532.371 45.0766 532.557 45.0766C532.685 45.0766 532.728 45.1481 532.728 45.2053C532.728 45.3198 532.614 45.377 532.385 45.377C531.184 45.377 529.825 45.3055 529.711 45.3055C529.682 45.3055 528.323 45.377 527.665 45.377C527.422 45.377 527.322 45.3341 527.322 45.2053C527.322 45.1338 527.365 45.0766 527.494 45.0766C527.694 45.0766 527.951 45.0337 528.152 44.9908C528.581 44.905 528.695 44.433 528.781 43.7894C528.895 42.8741 528.895 41.1579 528.895 39.0698V35.2511H528.91ZM530.654 37.139C530.654 37.2534 530.697 37.3392 530.812 37.3964C531.141 37.5966 532.142 37.7397 533.1 37.7397C533.615 37.7397 534.23 37.6682 534.731 37.3249C535.489 36.81 536.061 35.6373 536.061 33.9782C536.061 31.2608 534.63 29.6304 532.299 29.6304C531.641 29.6304 531.055 29.7019 530.84 29.7591C530.726 29.802 530.669 29.8878 530.669 30.0166V37.139H530.654ZM547.273 39.742C547.273 38.5692 547.059 38.0972 546.773 37.4536C546.616 37.1104 543.712 32.3192 542.954 31.1893C542.411 30.3884 541.867 29.8449 541.481 29.5875C541.152 29.373 540.737 29.2442 540.552 29.2442C540.437 29.2442 540.337 29.2013 540.337 29.0869C540.337 29.0011 540.423 28.9296 540.623 28.9296C541.038 28.9296 542.668 29.0011 542.768 29.0011C542.926 29.0011 543.741 28.9296 544.599 28.9296C544.842 28.9296 544.885 29.0011 544.885 29.0869C544.885 29.1727 544.756 29.2013 544.556 29.2871C544.384 29.373 544.27 29.5017 544.27 29.6733C544.27 29.9307 544.384 30.1882 544.556 30.5171C544.899 31.1464 548.16 36.7528 548.561 37.3821C548.975 36.4668 551.736 31.7042 552.165 30.9891C552.451 30.5314 552.537 30.1596 552.537 29.8878C552.537 29.5875 552.451 29.3444 552.193 29.2728C551.993 29.2013 551.864 29.1584 551.864 29.0583C551.864 28.9725 551.993 28.9296 552.208 28.9296C552.765 28.9296 553.466 29.0011 553.638 29.0011C553.767 29.0011 555.326 28.9296 555.74 28.9296C555.898 28.9296 556.026 28.9725 556.026 29.0583C556.026 29.1727 555.912 29.2299 555.74 29.2299C555.497 29.2299 555.082 29.3158 554.739 29.5303C554.31 29.7877 554.067 30.0452 553.581 30.6315C552.866 31.504 549.819 36.6098 549.433 37.5394C549.104 38.3261 549.104 38.9983 549.104 39.7134V41.5869C549.104 41.9302 549.104 42.8455 549.176 43.7608C549.219 44.3901 549.419 44.8621 550.062 44.9622C550.363 45.0051 550.849 45.048 551.035 45.048C551.164 45.048 551.207 45.1195 551.207 45.1767C551.207 45.2912 551.092 45.3484 550.863 45.3484C549.662 45.3484 548.303 45.2769 548.189 45.2769C548.074 45.2769 546.716 45.3484 546.058 45.3484C545.815 45.3484 545.715 45.3055 545.715 45.1767C545.715 45.1052 545.757 45.048 545.886 45.048C546.086 45.048 546.344 45.0051 546.544 44.9622C546.973 44.8764 547.173 44.4044 547.216 43.7608C547.288 42.8455 547.288 41.9302 547.288 41.5869V39.742H547.273Z" fill="#F3F3F5"/>
<path d="M599 85.8063H397.811C391.877 85.8063 387.067 80.9958 387.067 75.0619V12.7444C387.067 6.81043 382.256 2 376.322 2H298.291H220.26C214.326 2 209.516 6.81043 209.516 12.7444V75.0619C209.516 80.9958 204.705 85.8063 198.771 85.8063H0" stroke="url(#paint0_linear_895_2377)" stroke-width="3"/>
<defs>
<linearGradient id="paint0_linear_895_2377" x1="599" y1="85.5385" x2="1.31048e-05" y2="85.5386" gradientUnits="userSpaceOnUse">
<stop stop-color="#4468F2" stop-opacity="0"/>
<stop offset="0.386431" stop-color="#4468F2"/>
<stop offset="0.648724" stop-color="#4468F2"/>
<stop offset="1" stop-color="#4468F2" stop-opacity="0"/>
</linearGradient>
</defs>
</svg>
