<svg width="1440" height="871" viewBox="0 0 1440 871" fill="none" xmlns="http://www.w3.org/2000/svg">
<path d="M0.459977 179.019L-0.5 179.215V871V871.5H0H1440H1440.5V871V73.8982L1439.53 73.7261L1440 73.8982C1439.53 73.7261 1439.53 73.7269 1439.53 73.7287L1439.53 73.7369L1439.51 73.7699L1439.47 73.9018L1439.39 74.1198L1439.27 74.4239C1439.1 74.8848 1438.84 75.5688 1438.5 76.4605C1437.83 78.2438 1436.82 80.8577 1435.51 84.1783C1432.89 90.8196 1429.05 100.287 1424.16 111.591C1414.39 134.2 1400.43 164.147 1383.72 193.509C1367.01 222.878 1347.55 251.634 1326.77 271.881C1305.97 292.143 1283.96 303.779 1262.1 299.186C1248.89 296.409 1238.36 286.394 1229.15 272.635C1219.99 258.955 1212.19 241.665 1204.37 224.336L1204.25 224.054C1196.4 206.651 1188.52 189.228 1179.24 175.518C1169.97 161.812 1159.22 151.723 1145.59 149.125C1130.38 146.225 1118.83 151.622 1109.2 160.889C1100.01 169.725 1092.53 182.115 1085.23 194.21C1084.9 194.761 1084.57 195.312 1084.23 195.862C1076.59 208.512 1069.07 220.632 1059.89 228.044C1055.31 231.741 1050.33 234.251 1044.72 235.074C1039.12 235.896 1032.86 235.038 1025.7 231.931C1010.3 225.247 997.387 210.386 985.753 191.159C974.125 171.941 963.82 148.442 953.592 124.575C952.77 122.657 951.949 120.736 951.127 118.815C941.732 96.8493 932.32 74.8433 921.937 55.8953C910.651 35.2985 898.181 18.2419 883.268 8.77179C870.108 0.414768 858.282 -1.28147 847.499 2.2092C836.744 5.69088 827.115 14.3049 818.266 26.3783C800.572 50.5189 785.822 88.7359 771.364 128.414C769.702 132.977 768.043 137.559 766.384 142.141C753.602 177.452 740.805 212.804 726.143 239.567C717.861 254.684 709.007 267.018 699.259 275.049C689.525 283.069 678.919 286.786 667.086 284.727C652.628 282.212 641.482 274.158 631.979 263.216C622.468 252.265 614.63 238.456 606.777 224.471L606.174 223.397C598.532 209.783 590.834 196.071 581.546 184.845C572.006 173.316 560.759 164.371 546.117 160.832C523.217 155.295 505.337 164.111 490.012 180.353C474.711 196.57 461.896 220.249 449.076 244.577C448.356 245.943 447.637 247.311 446.916 248.679C434.791 271.723 422.531 295.023 408.013 312.983C392.639 332.001 374.798 344.948 351.992 345.294C315.47 345.848 291.634 318.55 267.617 290.434C267.296 290.058 266.975 289.682 266.654 289.307C254.989 275.647 243.248 261.898 229.98 251.28C216.335 240.361 201.048 232.728 182.523 231.89C170.679 231.354 160.168 234.869 150.395 240.062C142.636 244.186 135.314 249.385 128.158 254.466C126.313 255.776 124.479 257.078 122.652 258.351C113.714 264.581 104.923 270.14 95.6405 272.773C86.3844 275.399 76.6242 275.12 65.725 269.63C57.2894 265.38 48.9853 257.614 41.2638 248.312C33.5477 239.016 26.4411 228.22 20.3928 217.949C14.3453 207.68 9.3612 197.946 5.88883 190.778C4.15279 187.194 2.79497 184.253 1.87143 182.208C1.40967 181.186 1.0565 180.388 0.818913 179.846C0.700123 179.575 0.610232 179.368 0.550117 179.228L0.482386 179.071L0.465475 179.032L0.461295 179.022L0.460277 179.019C0.460068 179.019 0.459977 179.019 0 179.215L0.459977 179.019Z" fill="url(#paint0_linear_599_881)"/>
<path d="M0.459977 179.019L-0.5 179.215V871V871.5H0H1440H1440.5V871V73.8982L1439.53 73.7261L1440 73.8982C1439.53 73.7261 1439.53 73.7269 1439.53 73.7287L1439.53 73.7369L1439.51 73.7699L1439.47 73.9018L1439.39 74.1198L1439.27 74.4239C1439.1 74.8848 1438.84 75.5688 1438.5 76.4605C1437.83 78.2438 1436.82 80.8577 1435.51 84.1783C1432.89 90.8196 1429.05 100.287 1424.16 111.591C1414.39 134.2 1400.43 164.147 1383.72 193.509C1367.01 222.878 1347.55 251.634 1326.77 271.881C1305.97 292.143 1283.96 303.779 1262.1 299.186C1248.89 296.409 1238.36 286.394 1229.15 272.635C1219.99 258.955 1212.19 241.665 1204.37 224.336L1204.25 224.054C1196.4 206.651 1188.52 189.228 1179.24 175.518C1169.97 161.812 1159.22 151.723 1145.59 149.125C1130.38 146.225 1118.83 151.622 1109.2 160.889C1100.01 169.725 1092.53 182.115 1085.23 194.21C1084.9 194.761 1084.57 195.312 1084.23 195.862C1076.59 208.512 1069.07 220.632 1059.89 228.044C1055.31 231.741 1050.33 234.251 1044.72 235.074C1039.12 235.896 1032.86 235.038 1025.7 231.931C1010.3 225.247 997.387 210.386 985.753 191.159C974.125 171.941 963.82 148.442 953.592 124.575C952.77 122.657 951.949 120.736 951.127 118.815C941.732 96.8493 932.32 74.8433 921.937 55.8953C910.651 35.2985 898.181 18.2419 883.268 8.77179C870.108 0.414768 858.282 -1.28147 847.499 2.2092C836.744 5.69088 827.115 14.3049 818.266 26.3783C800.572 50.5189 785.822 88.7359 771.364 128.414C769.702 132.977 768.043 137.559 766.384 142.141C753.602 177.452 740.805 212.804 726.143 239.567C717.861 254.684 709.007 267.018 699.259 275.049C689.525 283.069 678.919 286.786 667.086 284.727C652.628 282.212 641.482 274.158 631.979 263.216C622.468 252.265 614.63 238.456 606.777 224.471L606.174 223.397C598.532 209.783 590.834 196.071 581.546 184.845C572.006 173.316 560.759 164.371 546.117 160.832C523.217 155.295 505.337 164.111 490.012 180.353C474.711 196.57 461.896 220.249 449.076 244.577C448.356 245.943 447.637 247.311 446.916 248.679C434.791 271.723 422.531 295.023 408.013 312.983C392.639 332.001 374.798 344.948 351.992 345.294C315.47 345.848 291.634 318.55 267.617 290.434C267.296 290.058 266.975 289.682 266.654 289.307C254.989 275.647 243.248 261.898 229.98 251.28C216.335 240.361 201.048 232.728 182.523 231.89C170.679 231.354 160.168 234.869 150.395 240.062C142.636 244.186 135.314 249.385 128.158 254.466C126.313 255.776 124.479 257.078 122.652 258.351C113.714 264.581 104.923 270.14 95.6405 272.773C86.3844 275.399 76.6242 275.12 65.725 269.63C57.2894 265.38 48.9853 257.614 41.2638 248.312C33.5477 239.016 26.4411 228.22 20.3928 217.949C14.3453 207.68 9.3612 197.946 5.88883 190.778C4.15279 187.194 2.79497 184.253 1.87143 182.208C1.40967 181.186 1.0565 180.388 0.818913 179.846C0.700123 179.575 0.610232 179.368 0.550117 179.228L0.482386 179.071L0.465475 179.032L0.461295 179.022L0.460277 179.019C0.460068 179.019 0.459977 179.019 0 179.215L0.459977 179.019Z" stroke="#709CEE"/>
<path d="M0.459977 179.019L-0.5 179.215V871V871.5H0H1440H1440.5V871V73.8982L1439.53 73.7261L1440 73.8982C1439.53 73.7261 1439.53 73.7269 1439.53 73.7287L1439.53 73.7369L1439.51 73.7699L1439.47 73.9018L1439.39 74.1198L1439.27 74.4239C1439.1 74.8848 1438.84 75.5688 1438.5 76.4605C1437.83 78.2438 1436.82 80.8577 1435.51 84.1783C1432.89 90.8196 1429.05 100.287 1424.16 111.591C1414.39 134.2 1400.43 164.147 1383.72 193.509C1367.01 222.878 1347.55 251.634 1326.77 271.881C1305.97 292.143 1283.96 303.779 1262.1 299.186C1248.89 296.409 1238.36 286.394 1229.15 272.635C1219.99 258.955 1212.19 241.665 1204.37 224.336L1204.25 224.054C1196.4 206.651 1188.52 189.228 1179.24 175.518C1169.97 161.812 1159.22 151.723 1145.59 149.125C1130.38 146.225 1118.83 151.622 1109.2 160.889C1100.01 169.725 1092.53 182.115 1085.23 194.21C1084.9 194.761 1084.57 195.312 1084.23 195.862C1076.59 208.512 1069.07 220.632 1059.89 228.044C1055.31 231.741 1050.33 234.251 1044.72 235.074C1039.12 235.896 1032.86 235.038 1025.7 231.931C1010.3 225.247 997.387 210.386 985.753 191.159C974.125 171.941 963.82 148.442 953.592 124.575C952.77 122.657 951.949 120.736 951.127 118.815C941.732 96.8493 932.32 74.8433 921.937 55.8953C910.651 35.2985 898.181 18.2419 883.268 8.77179C870.108 0.414768 858.282 -1.28147 847.499 2.2092C836.744 5.69088 827.115 14.3049 818.266 26.3783C800.572 50.5189 785.822 88.7359 771.364 128.414C769.702 132.977 768.043 137.559 766.384 142.141C753.602 177.452 740.805 212.804 726.143 239.567C717.861 254.684 709.007 267.018 699.259 275.049C689.525 283.069 678.919 286.786 667.086 284.727C652.628 282.212 641.482 274.158 631.979 263.216C622.468 252.265 614.63 238.456 606.777 224.471L606.174 223.397C598.532 209.783 590.834 196.071 581.546 184.845C572.006 173.316 560.759 164.371 546.117 160.832C523.217 155.295 505.337 164.111 490.012 180.353C474.711 196.57 461.896 220.249 449.076 244.577C448.356 245.943 447.637 247.311 446.916 248.679C434.791 271.723 422.531 295.023 408.013 312.983C392.639 332.001 374.798 344.948 351.992 345.294C315.47 345.848 291.634 318.55 267.617 290.434C267.296 290.058 266.975 289.682 266.654 289.307C254.989 275.647 243.248 261.898 229.98 251.28C216.335 240.361 201.048 232.728 182.523 231.89C170.679 231.354 160.168 234.869 150.395 240.062C142.636 244.186 135.314 249.385 128.158 254.466C126.313 255.776 124.479 257.078 122.652 258.351C113.714 264.581 104.923 270.14 95.6405 272.773C86.3844 275.399 76.6242 275.12 65.725 269.63C57.2894 265.38 48.9853 257.614 41.2638 248.312C33.5477 239.016 26.4411 228.22 20.3928 217.949C14.3453 207.68 9.3612 197.946 5.88883 190.778C4.15279 187.194 2.79497 184.253 1.87143 182.208C1.40967 181.186 1.0565 180.388 0.818913 179.846C0.700123 179.575 0.610232 179.368 0.550117 179.228L0.482386 179.071L0.465475 179.032L0.461295 179.022L0.460277 179.019C0.460068 179.019 0.459977 179.019 0 179.215L0.459977 179.019Z" stroke="#709CEE"/>
<path d="M0.459977 179.019L-0.5 179.215V871V871.5H0H1440H1440.5V871V73.8982L1439.53 73.7261L1440 73.8982C1439.53 73.7261 1439.53 73.7269 1439.53 73.7287L1439.53 73.7369L1439.51 73.7699L1439.47 73.9018L1439.39 74.1198L1439.27 74.4239C1439.1 74.8848 1438.84 75.5688 1438.5 76.4605C1437.83 78.2438 1436.82 80.8577 1435.51 84.1783C1432.89 90.8196 1429.05 100.287 1424.16 111.591C1414.39 134.2 1400.43 164.147 1383.72 193.509C1367.01 222.878 1347.55 251.634 1326.77 271.881C1305.97 292.143 1283.96 303.779 1262.1 299.186C1248.89 296.409 1238.36 286.394 1229.15 272.635C1219.99 258.955 1212.19 241.665 1204.37 224.336L1204.25 224.054C1196.4 206.651 1188.52 189.228 1179.24 175.518C1169.97 161.812 1159.22 151.723 1145.59 149.125C1130.38 146.225 1118.83 151.622 1109.2 160.889C1100.01 169.725 1092.53 182.115 1085.23 194.21C1084.9 194.761 1084.57 195.312 1084.23 195.862C1076.59 208.512 1069.07 220.632 1059.89 228.044C1055.31 231.741 1050.33 234.251 1044.72 235.074C1039.12 235.896 1032.86 235.038 1025.7 231.931C1010.3 225.247 997.387 210.386 985.753 191.159C974.125 171.941 963.82 148.442 953.592 124.575C952.77 122.657 951.949 120.736 951.127 118.815C941.732 96.8493 932.32 74.8433 921.937 55.8953C910.651 35.2985 898.181 18.2419 883.268 8.77179C870.108 0.414768 858.282 -1.28147 847.499 2.2092C836.744 5.69088 827.115 14.3049 818.266 26.3783C800.572 50.5189 785.822 88.7359 771.364 128.414C769.702 132.977 768.043 137.559 766.384 142.141C753.602 177.452 740.805 212.804 726.143 239.567C717.861 254.684 709.007 267.018 699.259 275.049C689.525 283.069 678.919 286.786 667.086 284.727C652.628 282.212 641.482 274.158 631.979 263.216C622.468 252.265 614.63 238.456 606.777 224.471L606.174 223.397C598.532 209.783 590.834 196.071 581.546 184.845C572.006 173.316 560.759 164.371 546.117 160.832C523.217 155.295 505.337 164.111 490.012 180.353C474.711 196.57 461.896 220.249 449.076 244.577C448.356 245.943 447.637 247.311 446.916 248.679C434.791 271.723 422.531 295.023 408.013 312.983C392.639 332.001 374.798 344.948 351.992 345.294C315.47 345.848 291.634 318.55 267.617 290.434C267.296 290.058 266.975 289.682 266.654 289.307C254.989 275.647 243.248 261.898 229.98 251.28C216.335 240.361 201.048 232.728 182.523 231.89C170.679 231.354 160.168 234.869 150.395 240.062C142.636 244.186 135.314 249.385 128.158 254.466C126.313 255.776 124.479 257.078 122.652 258.351C113.714 264.581 104.923 270.14 95.6405 272.773C86.3844 275.399 76.6242 275.12 65.725 269.63C57.2894 265.38 48.9853 257.614 41.2638 248.312C33.5477 239.016 26.4411 228.22 20.3928 217.949C14.3453 207.68 9.3612 197.946 5.88883 190.778C4.15279 187.194 2.79497 184.253 1.87143 182.208C1.40967 181.186 1.0565 180.388 0.818913 179.846C0.700123 179.575 0.610232 179.368 0.550117 179.228L0.482386 179.071L0.465475 179.032L0.461295 179.022L0.460277 179.019C0.460068 179.019 0.459977 179.019 0 179.215L0.459977 179.019Z" stroke="#709CEE"/>
<path d="M0.459977 179.019L-0.5 179.215V871V871.5H0H1440H1440.5V871V73.8982L1439.53 73.7261L1440 73.8982C1439.53 73.7261 1439.53 73.7269 1439.53 73.7287L1439.53 73.7369L1439.51 73.7699L1439.47 73.9018L1439.39 74.1198L1439.27 74.4239C1439.1 74.8848 1438.84 75.5688 1438.5 76.4605C1437.83 78.2438 1436.82 80.8577 1435.51 84.1783C1432.89 90.8196 1429.05 100.287 1424.16 111.591C1414.39 134.2 1400.43 164.147 1383.72 193.509C1367.01 222.878 1347.55 251.634 1326.77 271.881C1305.97 292.143 1283.96 303.779 1262.1 299.186C1248.89 296.409 1238.36 286.394 1229.15 272.635C1219.99 258.955 1212.19 241.665 1204.37 224.336L1204.25 224.054C1196.4 206.651 1188.52 189.228 1179.24 175.518C1169.97 161.812 1159.22 151.723 1145.59 149.125C1130.38 146.225 1118.83 151.622 1109.2 160.889C1100.01 169.725 1092.53 182.115 1085.23 194.21C1084.9 194.761 1084.57 195.312 1084.23 195.862C1076.59 208.512 1069.07 220.632 1059.89 228.044C1055.31 231.741 1050.33 234.251 1044.72 235.074C1039.12 235.896 1032.86 235.038 1025.7 231.931C1010.3 225.247 997.387 210.386 985.753 191.159C974.125 171.941 963.82 148.442 953.592 124.575C952.77 122.657 951.949 120.736 951.127 118.815C941.732 96.8493 932.32 74.8433 921.937 55.8953C910.651 35.2985 898.181 18.2419 883.268 8.77179C870.108 0.414768 858.282 -1.28147 847.499 2.2092C836.744 5.69088 827.115 14.3049 818.266 26.3783C800.572 50.5189 785.822 88.7359 771.364 128.414C769.702 132.977 768.043 137.559 766.384 142.141C753.602 177.452 740.805 212.804 726.143 239.567C717.861 254.684 709.007 267.018 699.259 275.049C689.525 283.069 678.919 286.786 667.086 284.727C652.628 282.212 641.482 274.158 631.979 263.216C622.468 252.265 614.63 238.456 606.777 224.471L606.174 223.397C598.532 209.783 590.834 196.071 581.546 184.845C572.006 173.316 560.759 164.371 546.117 160.832C523.217 155.295 505.337 164.111 490.012 180.353C474.711 196.57 461.896 220.249 449.076 244.577C448.356 245.943 447.637 247.311 446.916 248.679C434.791 271.723 422.531 295.023 408.013 312.983C392.639 332.001 374.798 344.948 351.992 345.294C315.47 345.848 291.634 318.55 267.617 290.434C267.296 290.058 266.975 289.682 266.654 289.307C254.989 275.647 243.248 261.898 229.98 251.28C216.335 240.361 201.048 232.728 182.523 231.89C170.679 231.354 160.168 234.869 150.395 240.062C142.636 244.186 135.314 249.385 128.158 254.466C126.313 255.776 124.479 257.078 122.652 258.351C113.714 264.581 104.923 270.14 95.6405 272.773C86.3844 275.399 76.6242 275.12 65.725 269.63C57.2894 265.38 48.9853 257.614 41.2638 248.312C33.5477 239.016 26.4411 228.22 20.3928 217.949C14.3453 207.68 9.3612 197.946 5.88883 190.778C4.15279 187.194 2.79497 184.253 1.87143 182.208C1.40967 181.186 1.0565 180.388 0.818913 179.846C0.700123 179.575 0.610232 179.368 0.550117 179.228L0.482386 179.071L0.465475 179.032L0.461295 179.022L0.460277 179.019C0.460068 179.019 0.459977 179.019 0 179.215L0.459977 179.019Z" stroke="#709CEE"/>
<path d="M0.459977 179.019L-0.5 179.215V871V871.5H0H1440H1440.5V871V73.8982L1439.53 73.7261L1440 73.8982C1439.53 73.7261 1439.53 73.7269 1439.53 73.7287L1439.53 73.7369L1439.51 73.7699L1439.47 73.9018L1439.39 74.1198L1439.27 74.4239C1439.1 74.8848 1438.84 75.5688 1438.5 76.4605C1437.83 78.2438 1436.82 80.8577 1435.51 84.1783C1432.89 90.8196 1429.05 100.287 1424.16 111.591C1414.39 134.2 1400.43 164.147 1383.72 193.509C1367.01 222.878 1347.55 251.634 1326.77 271.881C1305.97 292.143 1283.96 303.779 1262.1 299.186C1248.89 296.409 1238.36 286.394 1229.15 272.635C1219.99 258.955 1212.19 241.665 1204.37 224.336L1204.25 224.054C1196.4 206.651 1188.52 189.228 1179.24 175.518C1169.97 161.812 1159.22 151.723 1145.59 149.125C1130.38 146.225 1118.83 151.622 1109.2 160.889C1100.01 169.725 1092.53 182.115 1085.23 194.21C1084.9 194.761 1084.57 195.312 1084.23 195.862C1076.59 208.512 1069.07 220.632 1059.89 228.044C1055.31 231.741 1050.33 234.251 1044.72 235.074C1039.12 235.896 1032.86 235.038 1025.7 231.931C1010.3 225.247 997.387 210.386 985.753 191.159C974.125 171.941 963.82 148.442 953.592 124.575C952.77 122.657 951.949 120.736 951.127 118.815C941.732 96.8493 932.32 74.8433 921.937 55.8953C910.651 35.2985 898.181 18.2419 883.268 8.77179C870.108 0.414768 858.282 -1.28147 847.499 2.2092C836.744 5.69088 827.115 14.3049 818.266 26.3783C800.572 50.5189 785.822 88.7359 771.364 128.414C769.702 132.977 768.043 137.559 766.384 142.141C753.602 177.452 740.805 212.804 726.143 239.567C717.861 254.684 709.007 267.018 699.259 275.049C689.525 283.069 678.919 286.786 667.086 284.727C652.628 282.212 641.482 274.158 631.979 263.216C622.468 252.265 614.63 238.456 606.777 224.471L606.174 223.397C598.532 209.783 590.834 196.071 581.546 184.845C572.006 173.316 560.759 164.371 546.117 160.832C523.217 155.295 505.337 164.111 490.012 180.353C474.711 196.57 461.896 220.249 449.076 244.577C448.356 245.943 447.637 247.311 446.916 248.679C434.791 271.723 422.531 295.023 408.013 312.983C392.639 332.001 374.798 344.948 351.992 345.294C315.47 345.848 291.634 318.55 267.617 290.434C267.296 290.058 266.975 289.682 266.654 289.307C254.989 275.647 243.248 261.898 229.98 251.28C216.335 240.361 201.048 232.728 182.523 231.89C170.679 231.354 160.168 234.869 150.395 240.062C142.636 244.186 135.314 249.385 128.158 254.466C126.313 255.776 124.479 257.078 122.652 258.351C113.714 264.581 104.923 270.14 95.6405 272.773C86.3844 275.399 76.6242 275.12 65.725 269.63C57.2894 265.38 48.9853 257.614 41.2638 248.312C33.5477 239.016 26.4411 228.22 20.3928 217.949C14.3453 207.68 9.3612 197.946 5.88883 190.778C4.15279 187.194 2.79497 184.253 1.87143 182.208C1.40967 181.186 1.0565 180.388 0.818913 179.846C0.700123 179.575 0.610232 179.368 0.550117 179.228L0.482386 179.071L0.465475 179.032L0.461295 179.022L0.460277 179.019C0.460068 179.019 0.459977 179.019 0 179.215L0.459977 179.019Z" stroke="#709CEE"/>
<path d="M0.459977 179.019L-0.5 179.215V871V871.5H0H1440H1440.5V871V73.8982L1439.53 73.7261L1440 73.8982C1439.53 73.7261 1439.53 73.7269 1439.53 73.7287L1439.53 73.7369L1439.51 73.7699L1439.47 73.9018L1439.39 74.1198L1439.27 74.4239C1439.1 74.8848 1438.84 75.5688 1438.5 76.4605C1437.83 78.2438 1436.82 80.8577 1435.51 84.1783C1432.89 90.8196 1429.05 100.287 1424.16 111.591C1414.39 134.2 1400.43 164.147 1383.72 193.509C1367.01 222.878 1347.55 251.634 1326.77 271.881C1305.97 292.143 1283.96 303.779 1262.1 299.186C1248.89 296.409 1238.36 286.394 1229.15 272.635C1219.99 258.955 1212.19 241.665 1204.37 224.336L1204.25 224.054C1196.4 206.651 1188.52 189.228 1179.24 175.518C1169.97 161.812 1159.22 151.723 1145.59 149.125C1130.38 146.225 1118.83 151.622 1109.2 160.889C1100.01 169.725 1092.53 182.115 1085.23 194.21C1084.9 194.761 1084.57 195.312 1084.23 195.862C1076.59 208.512 1069.07 220.632 1059.89 228.044C1055.31 231.741 1050.33 234.251 1044.72 235.074C1039.12 235.896 1032.86 235.038 1025.7 231.931C1010.3 225.247 997.387 210.386 985.753 191.159C974.125 171.941 963.82 148.442 953.592 124.575C952.77 122.657 951.949 120.736 951.127 118.815C941.732 96.8493 932.32 74.8433 921.937 55.8953C910.651 35.2985 898.181 18.2419 883.268 8.77179C870.108 0.414768 858.282 -1.28147 847.499 2.2092C836.744 5.69088 827.115 14.3049 818.266 26.3783C800.572 50.5189 785.822 88.7359 771.364 128.414C769.702 132.977 768.043 137.559 766.384 142.141C753.602 177.452 740.805 212.804 726.143 239.567C717.861 254.684 709.007 267.018 699.259 275.049C689.525 283.069 678.919 286.786 667.086 284.727C652.628 282.212 641.482 274.158 631.979 263.216C622.468 252.265 614.63 238.456 606.777 224.471L606.174 223.397C598.532 209.783 590.834 196.071 581.546 184.845C572.006 173.316 560.759 164.371 546.117 160.832C523.217 155.295 505.337 164.111 490.012 180.353C474.711 196.57 461.896 220.249 449.076 244.577C448.356 245.943 447.637 247.311 446.916 248.679C434.791 271.723 422.531 295.023 408.013 312.983C392.639 332.001 374.798 344.948 351.992 345.294C315.47 345.848 291.634 318.55 267.617 290.434C267.296 290.058 266.975 289.682 266.654 289.307C254.989 275.647 243.248 261.898 229.98 251.28C216.335 240.361 201.048 232.728 182.523 231.89C170.679 231.354 160.168 234.869 150.395 240.062C142.636 244.186 135.314 249.385 128.158 254.466C126.313 255.776 124.479 257.078 122.652 258.351C113.714 264.581 104.923 270.14 95.6405 272.773C86.3844 275.399 76.6242 275.12 65.725 269.63C57.2894 265.38 48.9853 257.614 41.2638 248.312C33.5477 239.016 26.4411 228.22 20.3928 217.949C14.3453 207.68 9.3612 197.946 5.88883 190.778C4.15279 187.194 2.79497 184.253 1.87143 182.208C1.40967 181.186 1.0565 180.388 0.818913 179.846C0.700123 179.575 0.610232 179.368 0.550117 179.228L0.482386 179.071L0.465475 179.032L0.461295 179.022L0.460277 179.019C0.460068 179.019 0.459977 179.019 0 179.215L0.459977 179.019Z" stroke="#709CEE"/>
<defs>
<linearGradient id="paint0_linear_599_881" x1="720" y1="1" x2="720" y2="871" gradientUnits="userSpaceOnUse">
<stop stop-color="#4468F2" stop-opacity="0.23"/>
<stop offset="0.515" stop-color="#12131E" stop-opacity="0.46"/>
<stop offset="1" stop-color="#121217"/>
</linearGradient>
</defs>
</svg>
