<svg width="393" height="418" viewBox="0 0 393 418" fill="none" xmlns="http://www.w3.org/2000/svg">
<circle cx="196.5" cy="208.5" r="57.5" fill="#D9D9D9"/>
<ellipse cx="196" cy="49.6403" rx="50" ry="49.6403" fill="#D9D9D9"/>
<circle cx="343" cy="283" r="50" fill="#D9D9D9"/>
<ellipse cx="59" cy="283.365" rx="50" ry="50.365" fill="#D9D9D9"/>
<ellipse cx="196" cy="367.64" rx="50" ry="49.6403" fill="#D9D9D9"/>
<circle cx="335" cy="119" r="50" fill="#D9D9D9"/>
<ellipse cx="50" cy="118.638" rx="50" ry="49.6377" fill="#D9D9D9"/>
<path d="M168.607 219.243V200.282H170.812V217.246H179.177V219.243H168.607ZM194.351 212.123C194.351 214.44 193.768 216.252 192.6 217.557C191.433 218.854 189.821 219.503 187.763 219.503C186.492 219.503 185.363 219.204 184.378 218.608C183.392 218.011 182.631 217.155 182.095 216.04C181.559 214.924 181.291 213.619 181.291 212.123C181.291 209.806 181.87 208.003 183.029 206.715C184.188 205.418 185.796 204.769 187.854 204.769C189.842 204.769 191.42 205.431 192.587 206.754C193.763 208.076 194.351 209.866 194.351 212.123ZM183.522 212.123C183.522 213.939 183.885 215.322 184.611 216.273C185.338 217.224 186.405 217.7 187.815 217.7C189.224 217.7 190.292 217.229 191.018 216.286C191.753 215.335 192.121 213.947 192.121 212.123C192.121 210.316 191.753 208.945 191.018 208.012C190.292 207.069 189.215 206.598 187.789 206.598C186.379 206.598 185.316 207.06 184.598 207.986C183.881 208.911 183.522 210.29 183.522 212.123ZM209.772 205.029V206.39L207.139 206.702C207.381 207.004 207.598 207.402 207.788 207.895C207.978 208.379 208.073 208.928 208.073 209.542C208.073 210.934 207.598 212.045 206.646 212.875C205.695 213.705 204.39 214.12 202.73 214.12C202.306 214.12 201.908 214.086 201.536 214.016C200.62 214.501 200.162 215.11 200.162 215.845C200.162 216.234 200.322 216.524 200.642 216.714C200.961 216.896 201.511 216.986 202.289 216.986H204.805C206.344 216.986 207.524 217.311 208.345 217.959C209.176 218.608 209.591 219.55 209.591 220.787C209.591 222.36 208.959 223.558 207.697 224.379C206.435 225.209 204.593 225.624 202.172 225.624C200.313 225.624 198.878 225.278 197.866 224.587C196.863 223.895 196.362 222.918 196.362 221.655C196.362 220.791 196.638 220.043 197.192 219.412C197.745 218.781 198.523 218.353 199.526 218.128C199.163 217.964 198.856 217.708 198.605 217.363C198.363 217.017 198.242 216.615 198.242 216.156C198.242 215.638 198.381 215.184 198.657 214.795C198.934 214.406 199.371 214.029 199.967 213.666C199.232 213.364 198.631 212.849 198.164 212.123C197.706 211.397 197.477 210.567 197.477 209.633C197.477 208.076 197.944 206.879 198.878 206.04C199.812 205.193 201.134 204.769 202.846 204.769C203.59 204.769 204.26 204.856 204.857 205.029H209.772ZM198.437 221.63C198.437 222.399 198.761 222.983 199.409 223.38C200.058 223.778 200.987 223.977 202.198 223.977C204.005 223.977 205.341 223.705 206.205 223.16C207.079 222.624 207.515 221.893 207.515 220.968C207.515 220.199 207.278 219.663 206.802 219.36C206.327 219.066 205.432 218.919 204.117 218.919H201.536C200.559 218.919 199.799 219.152 199.254 219.619C198.709 220.086 198.437 220.756 198.437 221.63ZM199.604 209.581C199.604 210.575 199.885 211.327 200.447 211.838C201.009 212.348 201.792 212.603 202.795 212.603C204.896 212.603 205.946 211.583 205.946 209.542C205.946 207.406 204.883 206.339 202.756 206.339C201.744 206.339 200.966 206.611 200.421 207.156C199.876 207.7 199.604 208.509 199.604 209.581ZM224.959 212.123C224.959 214.44 224.376 216.252 223.209 217.557C222.041 218.854 220.429 219.503 218.371 219.503C217.1 219.503 215.972 219.204 214.986 218.608C214 218.011 213.239 217.155 212.703 216.04C212.167 214.924 211.899 213.619 211.899 212.123C211.899 209.806 212.478 208.003 213.637 206.715C214.796 205.418 216.404 204.769 218.462 204.769C220.45 204.769 222.028 205.431 223.196 206.754C224.371 208.076 224.959 209.866 224.959 212.123ZM214.13 212.123C214.13 213.939 214.493 215.322 215.219 216.273C215.946 217.224 217.013 217.7 218.423 217.7C219.832 217.7 220.9 217.229 221.626 216.286C222.361 215.335 222.729 213.947 222.729 212.123C222.729 210.316 222.361 208.945 221.626 208.012C220.9 207.069 219.823 206.598 218.397 206.598C216.987 206.598 215.924 207.06 215.206 207.986C214.489 208.911 214.13 210.29 214.13 212.123Z" fill="black"/>
</svg>
