<svg width="800" height="421" viewBox="0 0 800 421" fill="none" xmlns="http://www.w3.org/2000/svg">
<g filter="url(#filter0_d_864_7002)">
<path d="M80 41.2803C80 32.4437 87.1634 25.2803 96 25.2803H800V399.28H96C87.1634 399.28 80 392.117 80 383.28V41.2803Z" fill="#1F2029"/>
<mask id="path-2-inside-1_864_7002" fill="white">
<path d="M188 108.28H800V306.28H188V108.28Z"/>
</mask>
<path d="M188 306.28H187V307.28H188V306.28ZM800 305.28H188V307.28H800V305.28ZM189 306.28V108.28H187V306.28H189Z" fill="#6B6B6B" fill-opacity="0.45" mask="url(#path-2-inside-1_864_7002)"/>
<circle cx="237.5" cy="180.78" r="4.5" fill="#FF9000"/>
<circle cx="237.5" cy="165.78" r="4.5" fill="#709CEE"/>
<circle cx="347.5" cy="162.78" r="4.5" fill="#709CEE"/>
<circle cx="347.5" cy="144.78" r="4.5" fill="#FF9000"/>
<circle cx="457.5" cy="196.78" r="4.5" fill="#709CEE"/>
<circle cx="457.5" cy="191.78" r="4.5" fill="#FF9000"/>
<circle cx="567.5" cy="139.78" r="4.5" fill="#709CEE"/>
<circle cx="677.5" cy="146.78" r="4.5" fill="#FF9000"/>
<circle cx="787.5" cy="131.78" r="4.5" fill="#709CEE"/>
<path d="M787.5 166.28H788V170.28H787.5V174.28H788V178.28H787.5V182.28H788V186.28H787.5V190.28H788V194.28H787.5V198.28H788V202.28H787.5V206.28H788V210.28H787.5V214.28H788V218.28H787.5V222.28H788V226.28H787.5V230.28H788V234.28H787.5V238.28H788V242.28H787.5V246.28H788V250.28H787.5V254.28H788V258.28H787.5V262.28H788V266.28H787.5V270.28H788V274.28H787.5V278.28H788V282.28H787.5V286.28H788V290.28H787.5V291.78H786.004V292.28H782.012V291.78H778.019V292.28H774.026V291.78H770.033V292.28H766.041V291.78H762.048V292.28H758.055V291.78H754.062V292.28H750.07V291.78H746.077V292.28H742.084V291.78H738.091V292.28H734.099V291.78H730.106V292.28H726.113V291.78H722.12V292.28H718.128V291.78H714.135V292.28H710.142V291.78H706.149V292.28H702.156V291.78H698.164V292.28H694.171V291.78H690.178V292.28H686.185V291.78H682.193V292.28H678.2V291.78H674.207V292.28H670.214V291.78H666.222V292.28H662.229V291.78H658.236V292.28H654.243V291.78H650.25V292.28H646.258V291.78H642.265V292.28H638.272V291.78H634.279V292.28H630.287V291.78H626.294V292.28H622.301V291.78H618.308V292.28H614.316V291.78H610.323V292.28H606.33V291.78H602.337V292.28H598.344V291.78H594.352V292.28H590.359V291.78H586.366V292.28H582.373V291.78H578.381V292.28H574.388V291.78H570.395V292.28H566.402V291.78H562.41V292.28H558.417V291.78H554.424V292.28H550.431V291.78H546.439V292.28H542.446V291.78H538.453V292.28H534.46V291.78H530.467V292.28H526.475V291.78H522.482V292.28H518.489V291.78H514.496V292.28H510.504V291.78H506.511V292.28H502.518V291.78H498.525V292.28H494.533V291.78H490.54V292.28H486.547V291.78H482.554V292.28H478.562V291.78H474.569V292.28H470.576V291.78H466.583V292.28H462.591V291.78H458.598V292.28H454.605V291.78H450.612V292.28H446.619V291.78H442.627V292.28H438.634V291.78H434.641V292.28H430.648V291.78H426.656V292.28H422.663V291.78H418.67V292.28H414.677V291.78H410.685V292.28H406.692V291.78H402.699V292.28H398.706V291.78H394.714V292.28H390.721V291.78H386.728V292.28H382.735V291.78H378.743V292.28H374.75V291.78H370.757V292.28H366.764V291.78H362.772V292.28H358.779V291.78H354.786V292.28H350.793V291.78H346.801V292.28H342.808V291.78H338.815V292.28H334.822V291.78H330.83V292.28H326.837V291.78H322.844V292.28H318.851V291.78H314.859V292.28H310.866V291.78H306.873V292.28H302.88V291.78H298.888V292.28H294.895V291.78H290.902V292.28H286.909V291.78H282.917V292.28H278.924V291.78H274.931V292.28H270.938V291.78H266.946V292.28H262.953V291.78H258.96V292.28H254.967V291.78H250.975V292.28H246.982V291.78H242.989V292.28H238.996V291.78H237.5V290.296H237V286.328H237.5V282.36H237V278.391H237.5V274.423H237V270.455H237.5V266.487H237V262.518H237.5V258.55H237V254.582H237.5V250.614H237V246.645H237.5V242.677H237V238.709H237.5V234.741H237V230.772H237.5V226.804H237V222.836H237.5V218.868H237V214.899H237.5V210.931H237V206.963H237.5V202.994H237V199.026H237.5V195.058H237V191.09H237.5V187.121H237V183.153H237.5V181.453C237.554 181.422 237.616 181.385 237.687 181.343C237.972 181.175 238.395 180.928 238.946 180.609L238.696 180.176C239.538 179.689 240.679 179.037 242.086 178.249L242.33 178.686C243.349 178.115 244.508 177.474 245.794 176.773L245.555 176.334C246.618 175.755 247.768 175.135 248.997 174.482L249.232 174.923C250.329 174.34 251.49 173.729 252.709 173.096L252.479 172.653C253.599 172.071 254.769 171.471 255.984 170.855L256.21 171.301C257.344 170.726 258.517 170.138 259.727 169.54L259.505 169.092C260.652 168.524 261.831 167.948 263.041 167.364L263.258 167.814C264.414 167.257 265.597 166.693 266.805 166.125L266.592 165.672C267.759 165.124 268.949 164.571 270.161 164.017L270.369 164.472C271.544 163.934 272.738 163.395 273.951 162.855L273.748 162.398C274.933 161.871 276.136 161.344 277.354 160.819L277.552 161.278C278.744 160.763 279.952 160.25 281.172 159.741L280.979 159.279C282.182 158.777 283.397 158.278 284.623 157.784L284.81 158.247C286.016 157.761 287.233 157.279 288.459 156.802L288.278 156.336C289.495 155.864 290.72 155.397 291.953 154.938L292.128 155.406C293.351 154.95 294.581 154.501 295.818 154.061L295.65 153.59C296.884 153.151 298.123 152.719 299.368 152.298L299.528 152.772C300.767 152.352 302.011 151.942 303.257 151.543L303.105 151.067C304.354 150.666 305.607 150.277 306.861 149.901L307.005 150.379C308.261 150.002 309.518 149.637 310.776 149.286L310.641 148.805C311.909 148.451 313.177 148.111 314.443 147.786L314.568 148.27C315.84 147.944 317.111 147.634 318.379 147.34L318.266 146.853C319.55 146.555 320.832 146.275 322.108 146.014L322.208 146.504C323.496 146.24 324.779 145.996 326.055 145.772L325.968 145.28C327.271 145.052 328.566 144.845 329.854 144.662L329.924 145.157C331.231 144.97 332.528 144.808 333.815 144.671L333.762 144.174C335.081 144.033 336.389 143.92 337.684 143.835L337.717 144.334C339.035 144.247 340.338 144.19 341.626 144.165L341.616 143.665C342.945 143.639 344.257 143.646 345.55 143.688L345.534 144.188C346.184 144.209 346.829 144.24 347.469 144.279C348.153 144.322 348.832 144.375 349.505 144.438L349.551 143.94C350.924 144.07 352.274 144.241 353.602 144.453L353.523 144.947C354.871 145.162 356.196 145.418 357.501 145.713L357.611 145.225C358.95 145.527 360.267 145.87 361.564 146.248L361.423 146.728C362.728 147.11 364.013 147.529 365.278 147.982L365.447 147.511C366.734 147.972 368.002 148.467 369.252 148.994L369.057 149.455C370.307 149.982 371.539 150.541 372.756 151.128L372.973 150.677C374.201 151.27 375.413 151.891 376.61 152.536L376.373 152.977C377.566 153.62 378.745 154.288 379.912 154.977L380.166 154.547C381.338 155.239 382.498 155.953 383.647 156.684L383.379 157.106C384.524 157.834 385.658 158.58 386.784 159.34L387.063 158.926C388.192 159.687 389.312 160.463 390.425 161.248L390.136 161.656C391.247 162.44 392.351 163.234 393.45 164.034L393.744 163.63C394.845 164.432 395.942 165.241 397.035 166.052L396.737 166.453C397.817 167.255 398.895 168.06 399.972 168.864L400.012 168.894L400.311 168.493C401.404 169.309 402.496 170.124 403.588 170.934L403.29 171.336C404.387 172.149 405.485 172.958 406.586 173.759L406.88 173.355C407.984 174.158 409.09 174.952 410.201 175.734L409.914 176.143C411.033 176.931 412.157 177.706 413.288 178.465L413.567 178.05C414.701 178.811 415.841 179.556 416.99 180.279L416.724 180.702C417.884 181.433 419.053 182.143 420.233 182.828L420.484 182.396C421.664 183.081 422.855 183.741 424.059 184.372L423.827 184.815C425.041 185.451 426.269 186.059 427.513 186.633L427.723 186.179C428.959 186.749 430.21 187.286 431.478 187.786L431.295 188.251C432.568 188.752 433.858 189.216 435.169 189.639L435.322 189.163C436.611 189.579 437.919 189.954 439.248 190.284L439.127 190.769C440.449 191.098 441.791 191.383 443.156 191.621L443.242 191.128C444.568 191.359 445.915 191.545 447.286 191.682L447.236 192.179C448.583 192.314 449.953 192.402 451.346 192.439L451.36 191.939C452.697 191.976 454.058 191.965 455.441 191.905L455.463 192.405C456.149 192.375 456.841 192.333 457.539 192.279C458.203 192.227 458.861 192.171 459.513 192.11L459.466 191.612C460.784 191.49 462.075 191.35 463.342 191.193L463.404 191.689C464.721 191.526 466.013 191.344 467.28 191.145L467.203 190.651C468.509 190.446 469.789 190.223 471.044 189.983L471.138 190.474C472.442 190.225 473.72 189.957 474.973 189.672L474.863 189.184C476.151 188.892 477.413 188.581 478.652 188.253L478.779 188.737C480.061 188.398 481.317 188.042 482.551 187.669L482.407 187.191C483.668 186.81 484.906 186.412 486.122 185.999L486.283 186.472C487.534 186.048 488.763 185.607 489.972 185.152L489.796 184.684C491.025 184.222 492.234 183.745 493.425 183.256L493.615 183.718C494.832 183.218 496.031 182.705 497.214 182.181L497.012 181.724C498.208 181.194 499.389 180.653 500.559 180.103L500.772 180.555C501.957 179.998 503.13 179.43 504.294 178.856L504.073 178.408C505.243 177.83 506.404 177.246 507.56 176.656L507.787 177.101C508.949 176.509 510.105 175.911 511.258 175.311L511.028 174.867C512.108 174.305 513.186 173.74 514.266 173.175C514.339 173.137 514.412 173.099 514.486 173.06L514.717 173.503C515.868 172.901 517.019 172.299 518.175 171.698L517.945 171.254C519.095 170.657 520.251 170.06 521.415 169.468L521.642 169.914C522.793 169.328 523.952 168.746 525.123 168.171L524.902 167.722C526.061 167.152 527.232 166.588 528.417 166.031L528.629 166.484C529.794 165.937 530.972 165.398 532.168 164.869L531.965 164.412C533.143 163.89 534.338 163.378 535.552 162.877L535.743 163.339C536.928 162.85 538.132 162.372 539.357 161.906L539.179 161.439C540.381 160.982 541.602 160.537 542.847 160.106L543.011 160.578C544.219 160.16 545.449 159.754 546.703 159.363L546.554 158.886C547.778 158.504 549.025 158.136 550.297 157.783L550.43 158.265C551.659 157.924 552.912 157.597 554.19 157.285L554.071 156.8C555.314 156.497 556.581 156.208 557.874 155.936L557.977 156.425C559.223 156.162 560.493 155.914 561.788 155.681L561.7 155.189C562.958 154.964 564.24 154.753 565.547 154.557L565.621 155.052C566.263 154.956 566.912 154.864 567.567 154.776C568.206 154.69 568.841 154.605 569.471 154.521L569.405 154.025C570.693 153.854 571.963 153.687 573.216 153.524L573.28 154.019C574.567 153.852 575.837 153.689 577.09 153.531L577.027 153.035C578.316 152.871 579.587 152.713 580.842 152.559L580.903 153.055C582.191 152.897 583.462 152.743 584.717 152.594L584.658 152.098C585.947 151.945 587.219 151.796 588.476 151.652L588.533 152.149C589.82 152.002 591.092 151.859 592.35 151.721L592.295 151.224C593.582 151.083 594.855 150.946 596.115 150.814L596.167 151.311C597.454 151.176 598.727 151.046 599.989 150.92L599.939 150.422C601.225 150.294 602.5 150.17 603.764 150.051L603.811 150.548C605.095 150.427 606.369 150.31 607.635 150.198L607.591 149.7C608.875 149.586 610.151 149.476 611.42 149.37L611.462 149.868C612.743 149.762 614.018 149.659 615.29 149.56L615.251 149.062C616.531 148.963 617.808 148.867 619.083 148.775L619.119 149.274C619.758 149.228 620.396 149.183 621.035 149.138C621.7 149.092 622.365 149.047 623.03 149.003L622.997 148.504C624.327 148.415 625.658 148.33 626.993 148.249L627.023 148.748C628.35 148.666 629.681 148.589 631.017 148.514L630.989 148.014C632.315 147.94 633.647 147.868 634.987 147.799L635.013 148.299C636.336 148.231 637.668 148.165 639.01 148.102L638.986 147.602C640.308 147.54 641.64 147.48 642.985 147.421L643.007 147.921C644.327 147.863 645.66 147.808 647.007 147.754L646.987 147.254C648.306 147.201 649.638 147.15 650.986 147.1L651.005 147.599C652.322 147.55 653.655 147.502 655.004 147.455L654.987 146.955C656.304 146.909 657.637 146.864 658.989 146.82L659.005 147.32C660.322 147.276 661.655 147.234 663.007 147.191L662.992 146.692C664.308 146.651 665.641 146.61 666.994 146.569L667.009 147.069C668.324 147.03 669.658 146.99 671.01 146.951L670.996 146.451C672.311 146.413 673.645 146.375 674.998 146.337L675.013 146.836L677.014 146.78C677.673 146.762 678.338 146.748 679.006 146.738L678.999 146.238C680.326 146.219 681.67 146.217 683.03 146.231L683.024 146.731C684.35 146.745 685.69 146.774 687.044 146.818L687.06 146.318C688.391 146.361 689.735 146.418 691.088 146.488L691.062 146.987C692.392 147.056 693.731 147.137 695.079 147.23L695.113 146.731C696.446 146.824 697.786 146.927 699.133 147.041L699.091 147.54C700.419 147.652 701.754 147.776 703.093 147.908L703.142 147.411C704.474 147.543 705.81 147.685 707.148 147.835L707.092 148.332C708.422 148.481 709.755 148.64 711.088 148.806L711.15 148.309C712.482 148.475 713.815 148.649 715.146 148.83L715.079 149.326C716.409 149.506 717.738 149.694 719.064 149.888L719.137 149.394C720.468 149.589 721.796 149.79 723.12 149.997L723.043 150.491C724.372 150.699 725.696 150.912 727.014 151.13L727.096 150.637C728.428 150.857 729.753 151.083 731.07 151.313L730.985 151.805C732.315 152.037 733.637 152.274 734.95 152.514L735.04 152.022C736.372 152.265 737.693 152.512 739.003 152.762L738.909 153.253C740.24 153.507 741.559 153.764 742.863 154.023L742.96 153.532C744.293 153.797 745.61 154.063 746.911 154.331L746.81 154.821C748.143 155.095 749.457 155.37 750.751 155.646L750.855 155.157C752.191 155.441 753.505 155.725 754.794 156.009L754.687 156.497C756.024 156.791 757.336 157.084 758.618 157.375L758.728 156.887C760.071 157.191 761.382 157.493 762.657 157.79L762.544 158.277C763.89 158.591 765.198 158.901 766.463 159.204L766.58 158.718C767.933 159.043 769.238 159.36 770.49 159.669L770.37 160.154C771.733 160.49 773.033 160.816 774.263 161.127L774.386 160.642C775.788 160.998 777.1 161.335 778.313 161.651L778.187 162.135C779.629 162.51 780.93 162.856 782.078 163.163L782.207 162.681C783.819 163.113 785.127 163.473 786.089 163.74L785.955 164.222C786.576 164.395 787.053 164.53 787.374 164.621L787.5 164.657V166.28Z" fill="url(#paint0_linear_864_7002)" stroke="#FF9000" stroke-dasharray="4 4"/>
<circle cx="567.5" cy="153.78" r="4.5" fill="#FF9000"/>
<path d="M237 171.233V167.265H237.5V165.744L237.533 165.742C237.86 165.718 238.345 165.682 238.976 165.637L238.941 165.139C239.918 165.069 241.245 164.977 242.879 164.867L242.913 165.366C244.075 165.288 245.392 165.202 246.85 165.109L246.818 164.61C248.046 164.532 249.373 164.45 250.791 164.364L250.821 164.863C252.061 164.788 253.371 164.71 254.743 164.631L254.714 164.132C255.976 164.059 257.291 163.985 258.655 163.911L258.682 164.41C259.956 164.34 261.273 164.27 262.628 164.199L262.602 163.7C263.885 163.634 265.202 163.567 266.55 163.501L266.575 164C267.863 163.937 269.179 163.874 270.521 163.812L270.498 163.313C271.79 163.253 273.107 163.194 274.445 163.136L274.466 163.636C275.763 163.58 277.079 163.525 278.412 163.471L278.392 162.972C279.692 162.919 281.009 162.869 282.34 162.819L282.359 163.319C283.662 163.271 284.978 163.224 286.307 163.179L286.29 162.68C287.596 162.636 288.913 162.593 290.241 162.553L290.256 163.053C291.564 163.013 292.881 162.976 294.206 162.94L294.192 162.441C295.503 162.406 296.821 162.373 298.144 162.343L298.155 162.843C299.466 162.813 300.782 162.785 302.102 162.76L302.092 162.26C303.406 162.236 304.722 162.214 306.041 162.194L306.049 162.694C307.363 162.675 308.68 162.659 309.997 162.646L309.992 162.146C311.309 162.132 312.627 162.122 313.944 162.116L313.946 162.616C315.264 162.609 316.581 162.606 317.895 162.606L317.895 162.106C319.215 162.106 320.532 162.11 321.845 162.118L321.842 162.618C323.162 162.625 324.477 162.637 325.786 162.653L325.792 162.153C327.116 162.169 328.434 162.19 329.743 162.215L329.734 162.715C331.06 162.74 332.377 162.77 333.683 162.805L333.696 162.305C335.025 162.34 336.343 162.381 337.647 162.427L337.63 162.926C338.959 162.973 340.275 163.026 341.575 163.084L341.597 162.584C342.93 162.644 344.246 162.71 345.544 162.782L345.516 163.282C346.172 163.318 346.823 163.357 347.469 163.397C348.124 163.437 348.774 163.484 349.418 163.538L349.46 163.04C350.772 163.149 352.063 163.285 353.335 163.446L353.272 163.942C354.57 164.106 355.847 164.297 357.105 164.511L357.189 164.018C358.484 164.239 359.759 164.485 361.015 164.755L360.91 165.244C362.186 165.518 363.443 165.816 364.682 166.136L364.808 165.652C366.077 165.98 367.327 166.331 368.56 166.703L368.416 167.182C369.663 167.558 370.893 167.955 372.108 168.371L372.27 167.898C373.507 168.322 374.728 168.765 375.934 169.225L375.756 169.693C376.972 170.156 378.173 170.637 379.361 171.133L379.553 170.671C380.758 171.174 381.95 171.691 383.13 172.22L382.925 172.676C384.111 173.209 385.287 173.753 386.453 174.307L386.667 173.856C387.844 174.415 389.012 174.984 390.172 175.56L389.95 176.008C391.115 176.586 392.272 177.171 393.425 177.761L393.653 177.316C394.812 177.909 395.966 178.506 397.117 179.104L396.886 179.548C397.692 179.967 398.496 180.386 399.299 180.805C399.647 180.986 399.995 181.168 400.343 181.349L400.574 180.906C401.728 181.507 402.881 182.107 404.035 182.701L403.805 183.146C404.963 183.742 406.121 184.334 407.283 184.918L407.508 184.471C408.669 185.055 409.834 185.63 411.004 186.195L410.786 186.645C411.96 187.211 413.138 187.766 414.324 188.307L414.532 187.852C415.713 188.391 416.902 188.915 418.1 189.423L417.905 189.883C419.104 190.39 420.313 190.881 421.534 191.351L421.713 190.885C422.922 191.35 424.142 191.796 425.375 192.218L425.213 192.691C426.442 193.112 427.685 193.511 428.944 193.884L429.086 193.405C430.324 193.771 431.577 194.113 432.846 194.427L432.726 194.913C433.984 195.224 435.259 195.508 436.553 195.763L436.65 195.272C437.912 195.52 439.191 195.74 440.491 195.929L440.419 196.424C441.697 196.609 442.995 196.765 444.313 196.889L444.36 196.391C445.636 196.511 446.931 196.6 448.247 196.656L448.225 197.156C449.512 197.211 450.818 197.236 452.146 197.227L452.142 196.727C453.42 196.719 454.717 196.679 456.036 196.608L456.063 197.107C456.717 197.071 457.375 197.028 458.039 196.976C458.708 196.924 459.37 196.864 460.026 196.796L459.974 196.298C461.295 196.161 462.59 195.991 463.859 195.79L463.937 196.284C465.256 196.075 466.549 195.833 467.816 195.56L467.711 195.071C469.006 194.792 470.274 194.481 471.518 194.139L471.651 194.621C472.935 194.269 474.193 193.883 475.427 193.469L475.268 192.995C476.519 192.574 477.745 192.123 478.949 191.643L479.134 192.107C480.366 191.616 481.574 191.095 482.761 190.548L482.551 190.094C483.745 189.543 484.917 188.965 486.07 188.362L486.302 188.805C487.472 188.193 488.622 187.556 489.754 186.896L489.502 186.464C490.635 185.804 491.75 185.121 492.849 184.419L493.118 184.84C494.227 184.132 495.32 183.404 496.399 182.658L496.115 182.247C497.191 181.504 498.255 180.743 499.307 179.969L499.604 180.371C500.66 179.594 501.706 178.802 502.743 177.999L502.436 177.604C503.47 176.803 504.495 175.992 505.514 175.172L505.827 175.561C506.848 174.74 507.861 173.911 508.871 173.077L508.553 172.691C509.56 171.859 510.564 171.021 511.567 170.18L511.888 170.563C512.64 169.933 513.391 169.301 514.142 168.669C514.392 168.459 514.642 168.249 514.891 168.039L514.57 167.656C515.57 166.815 516.571 165.975 517.576 165.137L517.896 165.521C518.899 164.685 519.905 163.852 520.917 163.026L520.601 162.639C521.612 161.812 522.63 160.991 523.656 160.179L523.967 160.571C524.989 159.762 526.018 158.962 527.058 158.174L526.756 157.776C527.797 156.987 528.848 156.21 529.912 155.447L530.204 155.853C531.26 155.095 532.329 154.352 533.413 153.625L533.135 153.21C534.218 152.484 535.316 151.775 536.431 151.085L536.694 151.51C537.797 150.828 538.916 150.166 540.054 149.525L539.808 149.089C540.942 148.451 542.094 147.834 543.268 147.242L543.493 147.688C544.646 147.106 545.819 146.547 547.014 146.015L546.81 145.558C547.994 145.03 549.201 144.528 550.431 144.053L550.611 144.519C551.81 144.056 553.032 143.619 554.279 143.212L554.124 142.736C555.351 142.335 556.603 141.961 557.88 141.617L558.01 142.099C559.246 141.766 560.507 141.461 561.793 141.186L561.689 140.697C562.948 140.428 564.231 140.187 565.54 139.977L565.62 140.47C566.262 140.367 566.911 140.271 567.567 140.183C568.236 140.093 568.901 140.011 569.561 139.936L569.505 139.439C570.853 139.286 572.182 139.165 573.492 139.073L573.527 139.572C574.872 139.478 576.197 139.415 577.504 139.381L577.492 138.881C578.845 138.847 580.179 138.843 581.495 138.868L581.486 139.368C582.829 139.393 584.154 139.449 585.463 139.532L585.495 139.033C586.841 139.119 588.169 139.234 589.482 139.375L589.429 139.872C590.761 140.016 592.077 140.187 593.379 140.383L593.453 139.888C594.785 140.088 596.101 140.314 597.404 140.563L597.311 141.054C598.624 141.304 599.925 141.578 601.215 141.871L601.326 141.384C602.633 141.682 603.929 142 605.216 142.336L605.09 142.82C606.381 143.157 607.663 143.511 608.938 143.88L609.077 143.4C610.362 143.772 611.639 144.158 612.912 144.556L612.762 145.033C614.035 145.431 615.303 145.84 616.569 146.258L616.725 145.783C617.993 146.201 619.258 146.627 620.523 147.058L620.361 147.532C621.623 147.962 622.884 148.396 624.148 148.833L624.311 148.36C624.579 148.453 624.847 148.545 625.116 148.638C626.108 148.981 627.102 149.325 628.098 149.667L627.936 150.14C629.196 150.573 630.461 151.004 631.732 151.43L631.891 150.956C633.152 151.38 634.42 151.798 635.695 152.208L635.542 152.684C636.81 153.092 638.087 153.491 639.374 153.88L639.518 153.401C640.79 153.786 642.072 154.159 643.366 154.518L643.232 155C644.515 155.357 645.81 155.7 647.12 156.026L647.24 155.541C648.527 155.862 649.827 156.166 651.143 156.452L651.036 156.941C652.335 157.223 653.648 157.487 654.978 157.729L655.068 157.238C656.368 157.475 657.684 157.692 659.018 157.887L658.946 158.382C660.258 158.573 661.588 158.743 662.936 158.888L662.99 158.391C664.301 158.532 665.63 158.651 666.979 158.744L666.944 159.243C668.265 159.334 669.604 159.401 670.963 159.441L670.978 158.942C672.294 158.981 673.628 158.996 674.983 158.984L674.987 159.484C675.658 159.478 676.333 159.466 677.014 159.447C677.688 159.428 678.367 159.403 679.051 159.374L679.029 158.874C680.374 158.816 681.737 158.737 683.116 158.638L683.152 159.137C684.502 159.04 685.867 158.925 687.244 158.793L687.196 158.295C688.542 158.166 689.9 158.02 691.268 157.859L691.326 158.355C692.675 158.196 694.033 158.022 695.399 157.835L695.33 157.339C696.674 157.155 698.026 156.957 699.383 156.746L699.46 157.24C700.803 157.032 702.152 156.812 703.505 156.58L703.421 156.087C704.76 155.858 706.103 155.618 707.448 155.369L707.539 155.86C708.88 155.611 710.222 155.352 711.565 155.085L711.467 154.594C712.804 154.328 714.141 154.053 715.477 153.77L715.581 154.259C716.918 153.975 718.253 153.684 719.586 153.386L719.477 152.898C720.81 152.6 722.141 152.295 723.467 151.984L723.581 152.471C724.914 152.158 726.242 151.839 727.564 151.515L727.445 151.03C728.775 150.704 730.099 150.373 731.415 150.037L731.538 150.522C732.87 150.183 734.194 149.839 735.507 149.492L735.379 149.009C736.709 148.658 738.028 148.304 739.335 147.947L739.466 148.429C740.797 148.066 742.114 147.701 743.417 147.334L743.281 146.853C744.61 146.479 745.923 146.104 747.219 145.729L747.358 146.209C748.687 145.824 749.999 145.439 751.29 145.055L751.147 144.576C752.477 144.181 753.784 143.787 755.067 143.395L755.213 143.873C756.545 143.467 757.851 143.063 759.128 142.664L758.979 142.187C760.313 141.77 761.616 141.358 762.883 140.952L763.035 141.429C764.375 141 765.675 140.579 766.933 140.167L766.777 139.692C768.12 139.253 769.414 138.824 770.655 138.409L770.814 138.883C772.171 138.429 773.465 137.99 774.689 137.571L774.527 137.098C775.915 136.623 777.213 136.173 778.414 135.753L778.579 136.225C780.01 135.724 781.302 135.265 782.441 134.856L782.272 134.385C783.866 133.813 785.158 133.34 786.109 132.988L786.283 133.457C786.786 133.271 787.193 133.119 787.5 133.004V134.28H788V138.28H787.5V142.28H788V146.28H787.5V150.28H788V154.28H787.5V158.28H788V162.28H787.5V166.28H788V170.28H787.5V174.28H788V178.28H787.5V182.28H788V186.28H787.5V190.28H788V194.28H787.5V198.28H788V202.28H787.5V206.28H788V210.28H787.5V214.28H788V218.28H787.5V222.28H788V226.28H787.5V230.28H788V234.28H787.5V238.28H788V242.28H787.5V246.28H788V250.28H787.5V254.28H788V258.28H787.5V262.28H788V266.28H787.5V270.28H788V274.28H787.5V278.28H788V282.28H787.5V286.28H788V290.28H787.5V291.78H786.004V292.28H782.012V291.78H778.019V292.28H774.026V291.78H770.033V292.28H766.041V291.78H762.048V292.28H758.055V291.78H754.062V292.28H750.07V291.78H746.077V292.28H742.084V291.78H738.091V292.28H734.099V291.78H730.106V292.28H726.113V291.78H722.12V292.28H718.128V291.78H714.135V292.28H710.142V291.78H706.149V292.28H702.156V291.78H698.164V292.28H694.171V291.78H690.178V292.28H686.185V291.78H682.193V292.28H678.2V291.78H674.207V292.28H670.214V291.78H666.222V292.28H662.229V291.78H658.236V292.28H654.243V291.78H650.25V292.28H646.258V291.78H642.265V292.28H638.272V291.78H634.279V292.28H630.287V291.78H626.294V292.28H622.301V291.78H618.308V292.28H614.316V291.78H610.323V292.28H606.33V291.78H602.337V292.28H598.344V291.78H594.352V292.28H590.359V291.78H586.366V292.28H582.373V291.78H578.381V292.28H574.388V291.78H570.395V292.28H566.402V291.78H562.41V292.28H558.417V291.78H554.424V292.28H550.431V291.78H546.439V292.28H542.446V291.78H538.453V292.28H534.46V291.78H530.467V292.28H526.475V291.78H522.482V292.28H518.489V291.78H514.496V292.28H510.504V291.78H506.511V292.28H502.518V291.78H498.525V292.28H494.533V291.78H490.54V292.28H486.547V291.78H482.554V292.28H478.562V291.78H474.569V292.28H470.576V291.78H466.583V292.28H462.591V291.78H458.598V292.28H454.605V291.78H450.612V292.28H446.619V291.78H442.627V292.28H438.634V291.78H434.641V292.28H430.648V291.78H426.656V292.28H422.663V291.78H418.67V292.28H414.677V291.78H410.685V292.28H406.692V291.78H402.699V292.28H398.706V291.78H394.714V292.28H390.721V291.78H386.728V292.28H382.735V291.78H378.743V292.28H374.75V291.78H370.757V292.28H366.764V291.78H362.772V292.28H358.779V291.78H354.786V292.28H350.793V291.78H346.801V292.28H342.808V291.78H338.815V292.28H334.822V291.78H330.83V292.28H326.837V291.78H322.844V292.28H318.851V291.78H314.859V292.28H310.866V291.78H306.873V292.28H302.88V291.78H298.888V292.28H294.895V291.78H290.902V292.28H286.909V291.78H282.917V292.28H278.924V291.78H274.931V292.28H270.938V291.78H266.946V292.28H262.953V291.78H258.96V292.28H254.967V291.78H250.975V292.28H246.982V291.78H242.989V292.28H238.996V291.78H237.5V290.296H237V286.327H237.5V282.358H237V278.39H237.5V274.421H237V270.452H237.5V266.483H237V262.515H237.5V258.546H237V254.577H237.5V250.608H237V246.64H237.5V242.671H237V238.702H237.5V234.733H237V230.765H237.5V226.796H237V222.827H237.5V218.858H237V214.89H237.5V210.921H237V206.952H237.5V202.983H237V199.015H237.5V195.046H237V191.077H237.5V187.108H237V183.14H237.5V179.171H237V175.202H237.5V171.233H237Z" fill="url(#paint1_linear_864_7002)" stroke="#709CEE" stroke-dasharray="4 4"/>
<rect x="218" y="285.28" width="574" height="14" fill="#1F2029"/>
<path d="M148.248 132.28H146.438V127.323C146.438 127.187 146.439 127.019 146.443 126.819C146.447 126.616 146.453 126.409 146.461 126.198C146.469 125.983 146.477 125.79 146.484 125.618C146.441 125.669 146.354 125.757 146.221 125.882C146.092 126.003 145.971 126.112 145.857 126.21L144.873 127.001L144 125.911L146.76 123.714H148.248V132.28ZM156.58 127.997C156.58 128.688 156.525 129.306 156.416 129.849C156.311 130.392 156.139 130.853 155.9 131.231C155.666 131.61 155.357 131.899 154.975 132.099C154.592 132.298 154.127 132.397 153.58 132.397C152.893 132.397 152.328 132.224 151.887 131.876C151.445 131.524 151.119 131.021 150.908 130.364C150.697 129.704 150.592 128.915 150.592 127.997C150.592 127.071 150.688 126.28 150.879 125.624C151.074 124.964 151.391 124.458 151.828 124.106C152.266 123.755 152.85 123.579 153.58 123.579C154.264 123.579 154.826 123.755 155.268 124.106C155.713 124.454 156.043 124.958 156.258 125.618C156.473 126.274 156.58 127.067 156.58 127.997ZM152.391 127.997C152.391 128.649 152.426 129.194 152.496 129.632C152.57 130.065 152.693 130.392 152.865 130.61C153.037 130.829 153.275 130.938 153.58 130.938C153.881 130.938 154.117 130.831 154.289 130.616C154.465 130.397 154.59 130.071 154.664 129.638C154.738 129.2 154.775 128.653 154.775 127.997C154.775 127.345 154.738 126.8 154.664 126.362C154.59 125.925 154.465 125.597 154.289 125.378C154.117 125.155 153.881 125.044 153.58 125.044C153.275 125.044 153.037 125.155 152.865 125.378C152.693 125.597 152.57 125.925 152.496 126.362C152.426 126.8 152.391 127.345 152.391 127.997ZM163.447 127.997C163.447 128.688 163.393 129.306 163.283 129.849C163.178 130.392 163.006 130.853 162.768 131.231C162.533 131.61 162.225 131.899 161.842 132.099C161.459 132.298 160.994 132.397 160.447 132.397C159.76 132.397 159.195 132.224 158.754 131.876C158.312 131.524 157.986 131.021 157.775 130.364C157.564 129.704 157.459 128.915 157.459 127.997C157.459 127.071 157.555 126.28 157.746 125.624C157.941 124.964 158.258 124.458 158.695 124.106C159.133 123.755 159.717 123.579 160.447 123.579C161.131 123.579 161.693 123.755 162.135 124.106C162.58 124.454 162.91 124.958 163.125 125.618C163.34 126.274 163.447 127.067 163.447 127.997ZM159.258 127.997C159.258 128.649 159.293 129.194 159.363 129.632C159.438 130.065 159.561 130.392 159.732 130.61C159.904 130.829 160.143 130.938 160.447 130.938C160.748 130.938 160.984 130.831 161.156 130.616C161.332 130.397 161.457 130.071 161.531 129.638C161.605 129.2 161.643 128.653 161.643 127.997C161.643 127.345 161.605 126.8 161.531 126.362C161.457 125.925 161.332 125.597 161.156 125.378C160.984 125.155 160.748 125.044 160.447 125.044C160.143 125.044 159.904 125.155 159.732 125.378C159.561 125.597 159.438 125.925 159.363 126.362C159.293 126.8 159.258 127.345 159.258 127.997ZM166.283 123.591C166.955 123.591 167.465 123.825 167.812 124.294C168.16 124.763 168.334 125.421 168.334 126.269C168.334 127.116 168.17 127.778 167.842 128.255C167.514 128.731 166.994 128.97 166.283 128.97C165.623 128.97 165.121 128.731 164.777 128.255C164.434 127.778 164.262 127.116 164.262 126.269C164.262 125.421 164.422 124.763 164.742 124.294C165.066 123.825 165.58 123.591 166.283 123.591ZM166.295 124.815C166.104 124.815 165.963 124.937 165.873 125.179C165.783 125.421 165.738 125.788 165.738 126.28C165.738 126.772 165.783 127.142 165.873 127.388C165.963 127.634 166.104 127.757 166.295 127.757C166.486 127.757 166.627 127.636 166.717 127.394C166.811 127.147 166.857 126.776 166.857 126.28C166.857 125.788 166.811 125.421 166.717 125.179C166.627 124.937 166.486 124.815 166.295 124.815ZM172.365 123.714L167.613 132.28H166.207L170.959 123.714H172.365ZM172.283 127.013C172.955 127.013 173.465 127.247 173.812 127.716C174.16 128.185 174.334 128.843 174.334 129.69C174.334 130.534 174.17 131.194 173.842 131.671C173.514 132.147 172.994 132.386 172.283 132.386C171.623 132.386 171.121 132.147 170.777 131.671C170.434 131.194 170.262 130.534 170.262 129.69C170.262 128.843 170.422 128.185 170.742 127.716C171.066 127.247 171.58 127.013 172.283 127.013ZM172.295 128.237C172.104 128.237 171.963 128.358 171.873 128.601C171.783 128.843 171.738 129.21 171.738 129.702C171.738 130.194 171.783 130.563 171.873 130.81C171.963 131.056 172.104 131.179 172.295 131.179C172.486 131.179 172.627 131.058 172.717 130.815C172.811 130.569 172.857 130.198 172.857 129.702C172.857 129.21 172.811 128.843 172.717 128.601C172.627 128.358 172.486 128.237 172.295 128.237Z" fill="#838383"/>
<path d="M153.658 197.37C153.658 197.862 153.621 198.351 153.547 198.835C153.477 199.319 153.352 199.776 153.172 200.206C152.992 200.632 152.74 201.011 152.416 201.343C152.092 201.671 151.68 201.929 151.18 202.116C150.68 202.304 150.074 202.397 149.363 202.397C149.195 202.397 148.998 202.39 148.771 202.374C148.545 202.362 148.357 202.343 148.209 202.315V200.862C148.365 200.901 148.531 200.933 148.707 200.956C148.883 200.976 149.061 200.985 149.24 200.985C149.955 200.985 150.506 200.872 150.893 200.646C151.283 200.419 151.557 200.104 151.713 199.702C151.873 199.3 151.965 198.835 151.988 198.308H151.918C151.805 198.495 151.67 198.665 151.514 198.817C151.361 198.966 151.166 199.085 150.928 199.175C150.689 199.261 150.387 199.304 150.02 199.304C149.531 199.304 149.105 199.198 148.742 198.987C148.383 198.772 148.104 198.464 147.904 198.062C147.709 197.655 147.611 197.165 147.611 196.591C147.611 195.97 147.729 195.438 147.963 194.997C148.201 194.552 148.539 194.21 148.977 193.972C149.414 193.733 149.93 193.614 150.523 193.614C150.961 193.614 151.369 193.69 151.748 193.843C152.127 193.991 152.459 194.22 152.744 194.528C153.033 194.837 153.258 195.228 153.418 195.7C153.578 196.173 153.658 196.729 153.658 197.37ZM150.559 195.067C150.207 195.067 149.92 195.188 149.697 195.431C149.475 195.673 149.363 196.052 149.363 196.567C149.363 196.981 149.459 197.31 149.65 197.552C149.842 197.794 150.133 197.915 150.523 197.915C150.793 197.915 151.027 197.856 151.227 197.739C151.426 197.618 151.58 197.468 151.689 197.288C151.803 197.104 151.859 196.917 151.859 196.726C151.859 196.526 151.832 196.329 151.777 196.134C151.723 195.938 151.641 195.761 151.531 195.601C151.422 195.44 151.285 195.312 151.121 195.214C150.961 195.116 150.773 195.067 150.559 195.067ZM160.514 197.997C160.514 198.688 160.459 199.306 160.35 199.849C160.244 200.392 160.072 200.853 159.834 201.231C159.6 201.61 159.291 201.899 158.908 202.099C158.525 202.298 158.061 202.397 157.514 202.397C156.826 202.397 156.262 202.224 155.82 201.876C155.379 201.524 155.053 201.021 154.842 200.364C154.631 199.704 154.525 198.915 154.525 197.997C154.525 197.071 154.621 196.28 154.812 195.624C155.008 194.964 155.324 194.458 155.762 194.106C156.199 193.755 156.783 193.579 157.514 193.579C158.197 193.579 158.76 193.755 159.201 194.106C159.646 194.454 159.977 194.958 160.191 195.618C160.406 196.274 160.514 197.067 160.514 197.997ZM156.324 197.997C156.324 198.649 156.359 199.194 156.43 199.632C156.504 200.065 156.627 200.392 156.799 200.61C156.971 200.829 157.209 200.938 157.514 200.938C157.814 200.938 158.051 200.831 158.223 200.616C158.398 200.397 158.523 200.071 158.598 199.638C158.672 199.2 158.709 198.653 158.709 197.997C158.709 197.345 158.672 196.8 158.598 196.362C158.523 195.925 158.398 195.597 158.223 195.378C158.051 195.155 157.814 195.044 157.514 195.044C157.209 195.044 156.971 195.155 156.799 195.378C156.627 195.597 156.504 195.925 156.43 196.362C156.359 196.8 156.324 197.345 156.324 197.997ZM163.35 193.591C164.021 193.591 164.531 193.825 164.879 194.294C165.227 194.763 165.4 195.421 165.4 196.269C165.4 197.116 165.236 197.778 164.908 198.255C164.58 198.731 164.061 198.97 163.35 198.97C162.689 198.97 162.188 198.731 161.844 198.255C161.5 197.778 161.328 197.116 161.328 196.269C161.328 195.421 161.488 194.763 161.809 194.294C162.133 193.825 162.646 193.591 163.35 193.591ZM163.361 194.815C163.17 194.815 163.029 194.937 162.939 195.179C162.85 195.421 162.805 195.788 162.805 196.28C162.805 196.772 162.85 197.142 162.939 197.388C163.029 197.634 163.17 197.757 163.361 197.757C163.553 197.757 163.693 197.636 163.783 197.394C163.877 197.147 163.924 196.776 163.924 196.28C163.924 195.788 163.877 195.421 163.783 195.179C163.693 194.937 163.553 194.815 163.361 194.815ZM169.432 193.714L164.68 202.28H163.273L168.025 193.714H169.432ZM169.35 197.013C170.021 197.013 170.531 197.247 170.879 197.716C171.227 198.185 171.4 198.843 171.4 199.69C171.4 200.534 171.236 201.194 170.908 201.671C170.58 202.147 170.061 202.386 169.35 202.386C168.689 202.386 168.188 202.147 167.844 201.671C167.5 201.194 167.328 200.534 167.328 199.69C167.328 198.843 167.488 198.185 167.809 197.716C168.133 197.247 168.646 197.013 169.35 197.013ZM169.361 198.237C169.17 198.237 169.029 198.358 168.939 198.601C168.85 198.843 168.805 199.21 168.805 199.702C168.805 200.194 168.85 200.563 168.939 200.81C169.029 201.056 169.17 201.179 169.361 201.179C169.553 201.179 169.693 201.058 169.783 200.815C169.877 200.569 169.924 200.198 169.924 199.702C169.924 199.21 169.877 198.843 169.783 198.601C169.693 198.358 169.553 198.237 169.361 198.237Z" fill="#838383"/>
<line x1="237.5" y1="292.28" x2="237.5" y2="173.28" stroke="#606060" stroke-dasharray="4 4"/>
<line x1="347.5" y1="292.28" x2="347.5" y2="153.28" stroke="#606060" stroke-dasharray="4 4"/>
<line x1="457.5" y1="292.28" x2="457.5" y2="187.28" stroke="#606060" stroke-dasharray="4 4"/>
<line x1="567.5" y1="292.28" x2="567.5" y2="130.28" stroke="#606060" stroke-dasharray="4 4"/>
<line x1="677.5" y1="292.28" x2="677.5" y2="138.28" stroke="#606060" stroke-dasharray="4 4"/>
<circle cx="677.5" cy="158.78" r="4.5" fill="#709CEE"/>
<line x1="787.5" y1="292.28" x2="787.5" y2="124.28" stroke="#606060" stroke-dasharray="4 4"/>
<circle cx="787.5" cy="164.78" r="4.5" fill="#FF9000"/>
</g>
<g filter="url(#filter1_d_864_7002)">
<rect x="12" y="3.28027" width="169" height="83" rx="8" fill="#1F2029" shape-rendering="crispEdges"/>
<circle cx="32.5" cy="26.7803" r="4.5" fill="#FF9000"/>
<path d="M58.7051 31.7803L58.084 29.7412H54.9609L54.3398 31.7803H52.3828L55.4062 23.1787H57.627L60.6621 31.7803H58.7051ZM57.6504 28.2178L57.0293 26.2256C56.9902 26.0928 56.9375 25.9229 56.8711 25.7158C56.8086 25.5049 56.7441 25.292 56.6777 25.0771C56.6152 24.8584 56.5645 24.6689 56.5254 24.5088C56.4863 24.6689 56.4316 24.8682 56.3613 25.1064C56.2949 25.3408 56.2305 25.5635 56.168 25.7744C56.1055 25.9854 56.0605 26.1357 56.0332 26.2256L55.418 28.2178H57.6504ZM64.2656 31.8975C63.6172 31.8975 63.0645 31.7803 62.6074 31.5459C62.1504 31.3076 61.8027 30.9404 61.5645 30.4443C61.3262 29.9482 61.207 29.3135 61.207 28.54C61.207 27.7393 61.3418 27.0869 61.6113 26.583C61.8848 26.0752 62.2617 25.7021 62.7422 25.4639C63.2266 25.2256 63.7871 25.1064 64.4238 25.1064C64.877 25.1064 65.2676 25.1514 65.5957 25.2412C65.9277 25.3271 66.2168 25.4307 66.4629 25.5518L65.9355 26.9346C65.6543 26.8213 65.3926 26.7295 65.1504 26.6592C64.9082 26.585 64.666 26.5479 64.4238 26.5479C64.1113 26.5479 63.8516 26.6221 63.6445 26.7705C63.4375 26.915 63.2832 27.1338 63.1816 27.4268C63.0801 27.7197 63.0293 28.0869 63.0293 28.5283C63.0293 28.9619 63.084 29.3213 63.1934 29.6064C63.3027 29.8916 63.4609 30.1045 63.668 30.2451C63.875 30.3818 64.127 30.4502 64.4238 30.4502C64.7949 30.4502 65.125 30.4014 65.4141 30.3037C65.7031 30.2021 65.9844 30.0615 66.2578 29.8818V31.4111C65.9844 31.583 65.6973 31.7061 65.3965 31.7803C65.0996 31.8584 64.7227 31.8975 64.2656 31.8975ZM70.4414 31.8975C69.793 31.8975 69.2402 31.7803 68.7832 31.5459C68.3262 31.3076 67.9785 30.9404 67.7402 30.4443C67.502 29.9482 67.3828 29.3135 67.3828 28.54C67.3828 27.7393 67.5176 27.0869 67.7871 26.583C68.0605 26.0752 68.4375 25.7021 68.918 25.4639C69.4023 25.2256 69.9629 25.1064 70.5996 25.1064C71.0527 25.1064 71.4434 25.1514 71.7715 25.2412C72.1035 25.3271 72.3926 25.4307 72.6387 25.5518L72.1113 26.9346C71.8301 26.8213 71.5684 26.7295 71.3262 26.6592C71.084 26.585 70.8418 26.5479 70.5996 26.5479C70.2871 26.5479 70.0273 26.6221 69.8203 26.7705C69.6133 26.915 69.459 27.1338 69.3574 27.4268C69.2559 27.7197 69.2051 28.0869 69.2051 28.5283C69.2051 28.9619 69.2598 29.3213 69.3691 29.6064C69.4785 29.8916 69.6367 30.1045 69.8438 30.2451C70.0508 30.3818 70.3027 30.4502 70.5996 30.4502C70.9707 30.4502 71.3008 30.4014 71.5898 30.3037C71.8789 30.2021 72.1602 30.0615 72.4336 29.8818V31.4111C72.1602 31.583 71.873 31.7061 71.5723 31.7803C71.2754 31.8584 70.8984 31.8975 70.4414 31.8975ZM79.9688 25.2295V31.7803H78.5977L78.3574 30.9424H78.2637C78.123 31.165 77.9473 31.3467 77.7363 31.4873C77.5254 31.6279 77.293 31.7314 77.0391 31.7979C76.7852 31.8643 76.5215 31.8975 76.248 31.8975C75.7793 31.8975 75.3711 31.8154 75.0234 31.6514C74.6758 31.4834 74.4043 31.2236 74.209 30.8721C74.0176 30.5205 73.9219 30.0635 73.9219 29.501V25.2295H75.709V29.0557C75.709 29.5244 75.793 29.8779 75.9609 30.1162C76.1289 30.3545 76.3965 30.4736 76.7637 30.4736C77.127 30.4736 77.4121 30.3916 77.6191 30.2275C77.8262 30.0596 77.9707 29.8154 78.0527 29.4951C78.1387 29.1709 78.1816 28.7764 78.1816 28.3115V25.2295H79.9688ZM85.5 25.1064C85.5898 25.1064 85.6934 25.1123 85.8105 25.124C85.9316 25.1318 86.0293 25.1436 86.1035 25.1592L85.9688 26.835C85.9102 26.8154 85.8262 26.8018 85.7168 26.7939C85.6113 26.7822 85.5195 26.7764 85.4414 26.7764C85.2109 26.7764 84.9863 26.8057 84.7676 26.8643C84.5527 26.9229 84.3594 27.0186 84.1875 27.1514C84.0156 27.2803 83.8789 27.4521 83.7773 27.667C83.6797 27.8779 83.6309 28.1377 83.6309 28.4463V31.7803H81.8438V25.2295H83.1973L83.4609 26.3311H83.5488C83.6777 26.1084 83.8379 25.9053 84.0293 25.7217C84.2246 25.5342 84.4453 25.3857 84.6914 25.2764C84.9414 25.1631 85.2109 25.1064 85.5 25.1064ZM89.9766 25.0947C90.8555 25.0947 91.5293 25.2861 91.998 25.6689C92.4668 26.0518 92.7012 26.6338 92.7012 27.415V31.7803H91.4531L91.1074 30.8896H91.0605C90.873 31.124 90.6816 31.3154 90.4863 31.4639C90.291 31.6123 90.0664 31.7217 89.8125 31.792C89.5586 31.8623 89.25 31.8975 88.8867 31.8975C88.5 31.8975 88.1523 31.8232 87.8438 31.6748C87.5391 31.5264 87.2988 31.2998 87.123 30.9951C86.9473 30.6865 86.8594 30.2959 86.8594 29.8232C86.8594 29.1279 87.1035 28.6162 87.5918 28.2881C88.0801 27.9561 88.8125 27.7725 89.7891 27.7373L90.9258 27.7021V27.415C90.9258 27.0713 90.8359 26.8193 90.6562 26.6592C90.4766 26.499 90.2266 26.4189 89.9062 26.4189C89.5898 26.4189 89.2793 26.4639 88.9746 26.5537C88.6699 26.6436 88.3652 26.7568 88.0605 26.8936L87.4688 25.6865C87.8164 25.5029 88.2051 25.3584 88.6348 25.2529C89.0684 25.1475 89.5156 25.0947 89.9766 25.0947ZM90.9258 28.7451L90.2344 28.7686C89.6562 28.7842 89.2539 28.8877 89.0273 29.0791C88.8047 29.2705 88.6934 29.5225 88.6934 29.835C88.6934 30.1084 88.7734 30.3037 88.9336 30.4209C89.0938 30.5342 89.3027 30.5908 89.5605 30.5908C89.9434 30.5908 90.2656 30.4775 90.5273 30.251C90.793 30.0244 90.9258 29.7021 90.9258 29.2842V28.7451ZM97.207 31.8975C96.5586 31.8975 96.0059 31.7803 95.5488 31.5459C95.0918 31.3076 94.7441 30.9404 94.5059 30.4443C94.2676 29.9482 94.1484 29.3135 94.1484 28.54C94.1484 27.7393 94.2832 27.0869 94.5527 26.583C94.8262 26.0752 95.2031 25.7021 95.6836 25.4639C96.168 25.2256 96.7285 25.1064 97.3652 25.1064C97.8184 25.1064 98.209 25.1514 98.5371 25.2412C98.8691 25.3271 99.1582 25.4307 99.4043 25.5518L98.877 26.9346C98.5957 26.8213 98.334 26.7295 98.0918 26.6592C97.8496 26.585 97.6074 26.5479 97.3652 26.5479C97.0527 26.5479 96.793 26.6221 96.5859 26.7705C96.3789 26.915 96.2246 27.1338 96.123 27.4268C96.0215 27.7197 95.9707 28.0869 95.9707 28.5283C95.9707 28.9619 96.0254 29.3213 96.1348 29.6064C96.2441 29.8916 96.4023 30.1045 96.6094 30.2451C96.8164 30.3818 97.0684 30.4502 97.3652 30.4502C97.7363 30.4502 98.0664 30.4014 98.3555 30.3037C98.6445 30.2021 98.9258 30.0615 99.1992 29.8818V31.4111C98.9258 31.583 98.6387 31.7061 98.3379 31.7803C98.041 31.8584 97.6641 31.8975 97.207 31.8975ZM99.7852 25.2295H101.742L102.979 28.915C103.018 29.0322 103.051 29.1514 103.078 29.2725C103.105 29.3936 103.129 29.5186 103.148 29.6475C103.168 29.7764 103.184 29.9111 103.195 30.0518H103.23C103.254 29.8408 103.285 29.6436 103.324 29.46C103.367 29.2764 103.42 29.0947 103.482 28.915L104.695 25.2295H106.611L103.84 32.6182C103.672 33.0713 103.453 33.4482 103.184 33.749C102.914 34.0537 102.604 34.2822 102.252 34.4346C101.904 34.5869 101.521 34.6631 101.104 34.6631C100.9 34.6631 100.725 34.6514 100.576 34.6279C100.428 34.6084 100.301 34.5869 100.195 34.5635V33.1455C100.277 33.165 100.381 33.1826 100.506 33.1982C100.631 33.2139 100.762 33.2217 100.898 33.2217C101.148 33.2217 101.363 33.1689 101.543 33.0635C101.723 32.958 101.873 32.8154 101.994 32.6357C102.115 32.46 102.211 32.2666 102.281 32.0557L102.387 31.7334L99.7852 25.2295Z" fill="white"/>
<circle cx="32.5" cy="62.7803" r="4.5" fill="#709CEE"/>
<path d="M58.043 67.7803H53.1094V59.2139H58.043V60.7021H54.9258V62.583H57.8262V64.0713H54.9258V66.2803H58.043V67.7803ZM63.3164 62.5713H61.7695V67.7803H59.9824V62.5713H58.998V61.71L59.9824 61.2295V60.749C59.9824 60.1904 60.0762 59.7568 60.2637 59.4482C60.4551 59.1357 60.7227 58.917 61.0664 58.792C61.4141 58.6631 61.8242 58.5986 62.2969 58.5986C62.6445 58.5986 62.9609 58.6279 63.2461 58.6865C63.5312 58.7412 63.7637 58.8037 63.9434 58.874L63.4863 60.1865C63.3496 60.1436 63.2012 60.1045 63.041 60.0693C62.8809 60.0342 62.6973 60.0166 62.4902 60.0166C62.2402 60.0166 62.0566 60.0928 61.9395 60.2451C61.8262 60.3936 61.7695 60.585 61.7695 60.8193V61.2295H63.3164V62.5713ZM67.9629 62.5713H66.416V67.7803H64.6289V62.5713H63.6445V61.71L64.6289 61.2295V60.749C64.6289 60.1904 64.7227 59.7568 64.9102 59.4482C65.1016 59.1357 65.3691 58.917 65.7129 58.792C66.0605 58.6631 66.4707 58.5986 66.9434 58.5986C67.291 58.5986 67.6074 58.6279 67.8926 58.6865C68.1777 58.7412 68.4102 58.8037 68.5898 58.874L68.1328 60.1865C67.9961 60.1436 67.8477 60.1045 67.6875 60.0693C67.5273 60.0342 67.3438 60.0166 67.1367 60.0166C66.8867 60.0166 66.7031 60.0928 66.5859 60.2451C66.4727 60.3936 66.416 60.585 66.416 60.8193V61.2295H67.9629V62.5713ZM71.6895 61.1064C72.2949 61.1064 72.8164 61.2236 73.2539 61.458C73.6914 61.6885 74.0293 62.0244 74.2676 62.4658C74.5059 62.9072 74.625 63.4463 74.625 64.083V64.9502H70.4004C70.4199 65.4541 70.5703 65.8506 70.8516 66.1396C71.1367 66.4248 71.5312 66.5674 72.0352 66.5674C72.4531 66.5674 72.8359 66.5244 73.1836 66.4385C73.5312 66.3525 73.8887 66.2236 74.2559 66.0518V67.4346C73.9316 67.5947 73.5918 67.7119 73.2363 67.7861C72.8848 67.8604 72.457 67.8975 71.9531 67.8975C71.2969 67.8975 70.7148 67.7764 70.207 67.5342C69.7031 67.292 69.3066 66.9229 69.0176 66.4268C68.7324 65.9307 68.5898 65.3057 68.5898 64.5518C68.5898 63.7861 68.7188 63.1494 68.9766 62.6416C69.2383 62.1299 69.6016 61.7471 70.0664 61.4932C70.5312 61.2354 71.0723 61.1064 71.6895 61.1064ZM71.7012 62.3779C71.3535 62.3779 71.0645 62.4893 70.834 62.7119C70.6074 62.9346 70.4766 63.2842 70.4414 63.7607H72.9492C72.9453 63.4951 72.8965 63.2588 72.8027 63.0518C72.7129 62.8447 72.5762 62.6807 72.3926 62.5596C72.2129 62.4385 71.9824 62.3779 71.7012 62.3779ZM78.7383 67.8975C78.0898 67.8975 77.5371 67.7803 77.0801 67.5459C76.623 67.3076 76.2754 66.9404 76.0371 66.4443C75.7988 65.9482 75.6797 65.3135 75.6797 64.54C75.6797 63.7393 75.8145 63.0869 76.084 62.583C76.3574 62.0752 76.7344 61.7021 77.2148 61.4639C77.6992 61.2256 78.2598 61.1064 78.8965 61.1064C79.3496 61.1064 79.7402 61.1514 80.0684 61.2412C80.4004 61.3271 80.6895 61.4307 80.9355 61.5518L80.4082 62.9346C80.127 62.8213 79.8652 62.7295 79.623 62.6592C79.3809 62.585 79.1387 62.5479 78.8965 62.5479C78.584 62.5479 78.3242 62.6221 78.1172 62.7705C77.9102 62.915 77.7559 63.1338 77.6543 63.4268C77.5527 63.7197 77.502 64.0869 77.502 64.5283C77.502 64.9619 77.5566 65.3213 77.666 65.6064C77.7754 65.8916 77.9336 66.1045 78.1406 66.2451C78.3477 66.3818 78.5996 66.4502 78.8965 66.4502C79.2676 66.4502 79.5977 66.4014 79.8867 66.3037C80.1758 66.2021 80.457 66.0615 80.7305 65.8818V67.4111C80.457 67.583 80.1699 67.7061 79.8691 67.7803C79.5723 67.8584 79.1953 67.8975 78.7383 67.8975ZM84.041 61.2295V67.7803H82.2539V61.2295H84.041ZM83.1504 58.6631C83.416 58.6631 83.6445 58.7256 83.8359 58.8506C84.0273 58.9717 84.123 59.2002 84.123 59.5361C84.123 59.8682 84.0273 60.0986 83.8359 60.2275C83.6445 60.3525 83.416 60.415 83.1504 60.415C82.8809 60.415 82.6504 60.3525 82.459 60.2275C82.2715 60.0986 82.1777 59.8682 82.1777 59.5361C82.1777 59.2002 82.2715 58.9717 82.459 58.8506C82.6504 58.7256 82.8809 58.6631 83.1504 58.6631ZM88.623 61.1064C89.2285 61.1064 89.75 61.2236 90.1875 61.458C90.625 61.6885 90.9629 62.0244 91.2012 62.4658C91.4395 62.9072 91.5586 63.4463 91.5586 64.083V64.9502H87.334C87.3535 65.4541 87.5039 65.8506 87.7852 66.1396C88.0703 66.4248 88.4648 66.5674 88.9688 66.5674C89.3867 66.5674 89.7695 66.5244 90.1172 66.4385C90.4648 66.3525 90.8223 66.2236 91.1895 66.0518V67.4346C90.8652 67.5947 90.5254 67.7119 90.1699 67.7861C89.8184 67.8604 89.3906 67.8975 88.8867 67.8975C88.2305 67.8975 87.6484 67.7764 87.1406 67.5342C86.6367 67.292 86.2402 66.9229 85.9512 66.4268C85.666 65.9307 85.5234 65.3057 85.5234 64.5518C85.5234 63.7861 85.6523 63.1494 85.9102 62.6416C86.1719 62.1299 86.5352 61.7471 87 61.4932C87.4648 61.2354 88.0059 61.1064 88.623 61.1064ZM88.6348 62.3779C88.2871 62.3779 87.998 62.4893 87.7676 62.7119C87.541 62.9346 87.4102 63.2842 87.375 63.7607H89.8828C89.8789 63.4951 89.8301 63.2588 89.7363 63.0518C89.6465 62.8447 89.5098 62.6807 89.3262 62.5596C89.1465 62.4385 88.916 62.3779 88.6348 62.3779ZM96.7324 61.1064C97.4316 61.1064 97.9941 61.2979 98.4199 61.6807C98.8457 62.0596 99.0586 62.6689 99.0586 63.5088V67.7803H97.2715V63.9541C97.2715 63.4854 97.1855 63.1318 97.0137 62.8936C96.8457 62.6553 96.5801 62.5361 96.2168 62.5361C95.6699 62.5361 95.2969 62.7217 95.0977 63.0928C94.8984 63.4639 94.7988 63.999 94.7988 64.6982V67.7803H93.0117V61.2295H94.377L94.6172 62.0674H94.7168C94.8574 61.8408 95.0312 61.6572 95.2383 61.5166C95.4492 61.376 95.6816 61.2725 95.9355 61.2061C96.1934 61.1396 96.459 61.1064 96.7324 61.1064ZM103.559 67.8975C102.91 67.8975 102.357 67.7803 101.9 67.5459C101.443 67.3076 101.096 66.9404 100.857 66.4443C100.619 65.9482 100.5 65.3135 100.5 64.54C100.5 63.7393 100.635 63.0869 100.904 62.583C101.178 62.0752 101.555 61.7021 102.035 61.4639C102.52 61.2256 103.08 61.1064 103.717 61.1064C104.17 61.1064 104.561 61.1514 104.889 61.2412C105.221 61.3271 105.51 61.4307 105.756 61.5518L105.229 62.9346C104.947 62.8213 104.686 62.7295 104.443 62.6592C104.201 62.585 103.959 62.5479 103.717 62.5479C103.404 62.5479 103.145 62.6221 102.938 62.7705C102.73 62.915 102.576 63.1338 102.475 63.4268C102.373 63.7197 102.322 64.0869 102.322 64.5283C102.322 64.9619 102.377 65.3213 102.486 65.6064C102.596 65.8916 102.754 66.1045 102.961 66.2451C103.168 66.3818 103.42 66.4502 103.717 66.4502C104.088 66.4502 104.418 66.4014 104.707 66.3037C104.996 66.2021 105.277 66.0615 105.551 65.8818V67.4111C105.277 67.583 104.99 67.7061 104.689 67.7803C104.393 67.8584 104.016 67.8975 103.559 67.8975ZM106.137 61.2295H108.094L109.33 64.915C109.369 65.0322 109.402 65.1514 109.43 65.2725C109.457 65.3936 109.48 65.5186 109.5 65.6475C109.52 65.7764 109.535 65.9111 109.547 66.0518H109.582C109.605 65.8408 109.637 65.6436 109.676 65.46C109.719 65.2764 109.771 65.0947 109.834 64.915L111.047 61.2295H112.963L110.191 68.6182C110.023 69.0713 109.805 69.4482 109.535 69.749C109.266 70.0537 108.955 70.2822 108.604 70.4346C108.256 70.5869 107.873 70.6631 107.455 70.6631C107.252 70.6631 107.076 70.6514 106.928 70.6279C106.779 70.6084 106.652 70.5869 106.547 70.5635V69.1455C106.629 69.165 106.732 69.1826 106.857 69.1982C106.982 69.2139 107.113 69.2217 107.25 69.2217C107.5 69.2217 107.715 69.1689 107.895 69.0635C108.074 68.958 108.225 68.8154 108.346 68.6357C108.467 68.46 108.562 68.2666 108.633 68.0557L108.738 67.7334L106.137 61.2295Z" fill="white"/>
</g>
<defs>
<filter id="filter0_d_864_7002" x="68" y="22.2803" width="744" height="398" filterUnits="userSpaceOnUse" color-interpolation-filters="sRGB">
<feFlood flood-opacity="0" result="BackgroundImageFix"/>
<feColorMatrix in="SourceAlpha" type="matrix" values="0 0 0 0 0 0 0 0 0 0 0 0 0 0 0 0 0 0 127 0" result="hardAlpha"/>
<feOffset dy="9"/>
<feGaussianBlur stdDeviation="6"/>
<feComposite in2="hardAlpha" operator="out"/>
<feColorMatrix type="matrix" values="0 0 0 0 0 0 0 0 0 0 0 0 0 0 0 0 0 0 0.25 0"/>
<feBlend mode="normal" in2="BackgroundImageFix" result="effect1_dropShadow_864_7002"/>
<feBlend mode="normal" in="SourceGraphic" in2="effect1_dropShadow_864_7002" result="shape"/>
</filter>
<filter id="filter1_d_864_7002" x="0" y="0.280273" width="193" height="107" filterUnits="userSpaceOnUse" color-interpolation-filters="sRGB">
<feFlood flood-opacity="0" result="BackgroundImageFix"/>
<feColorMatrix in="SourceAlpha" type="matrix" values="0 0 0 0 0 0 0 0 0 0 0 0 0 0 0 0 0 0 127 0" result="hardAlpha"/>
<feOffset dy="9"/>
<feGaussianBlur stdDeviation="6"/>
<feComposite in2="hardAlpha" operator="out"/>
<feColorMatrix type="matrix" values="0 0 0 0 0 0 0 0 0 0 0 0 0 0 0 0 0 0 0.25 0"/>
<feBlend mode="normal" in2="BackgroundImageFix" result="effect1_dropShadow_864_7002"/>
<feBlend mode="normal" in="SourceGraphic" in2="effect1_dropShadow_864_7002" result="shape"/>
</filter>
<linearGradient id="paint0_linear_864_7002" x1="532" y1="152.78" x2="532" y2="292.28" gradientUnits="userSpaceOnUse">
<stop stop-color="#FF9000" stop-opacity="0.15"/>
<stop offset="0.527455" stop-color="#1F2029" stop-opacity="0.03"/>
<stop offset="1" stop-color="#1F2029"/>
</linearGradient>
<linearGradient id="paint1_linear_864_7002" x1="532" y1="152.78" x2="533" y2="292" gradientUnits="userSpaceOnUse">
<stop stop-color="#709CEE" stop-opacity="0.25"/>
<stop offset="1" stop-color="#1F2029" stop-opacity="0.28"/>
</linearGradient>
</defs>
</svg>
