<svg width="102" height="102" viewBox="0 0 102 102" fill="none" xmlns="http://www.w3.org/2000/svg">
<g clip-path="url(#clip0_1439_8756)">
<path d="M12.75 63.75V70.125H24.1804L6.375 87.9304L10.8821 92.4375L28.6875 74.6321V86.0625H35.0625V63.75H12.75Z" fill="#F4F4F4"/>
<path d="M82.875 31.875H60.5625V38.25H82.875V31.875Z" fill="#F4F4F4"/>
<path d="M82.875 47.8125H60.5625V54.1875H82.875V47.8125Z" fill="#F4F4F4"/>
<path d="M82.875 63.75H60.5625V70.125H82.875V63.75Z" fill="#F4F4F4"/>
<path d="M89.25 15.9375H12.75C11.0598 15.9392 9.43924 16.6114 8.24406 17.8066C7.04888 19.0017 6.37669 20.6223 6.375 22.3125V54.1875H12.75V22.3125H47.8125V86.0625H89.25C90.9402 86.0608 92.5608 85.3886 93.7559 84.1934C94.9511 82.9983 95.6233 81.3777 95.625 79.6875V22.3125C95.6233 20.6223 94.9511 19.0017 93.7559 17.8066C92.5608 16.6114 90.9402 15.9392 89.25 15.9375ZM54.1875 79.6875V22.3125H89.25L89.2548 79.6875H54.1875Z" fill="#F4F4F4"/>
</g>
<defs>
<clipPath id="clip0_1439_8756">
<rect width="102" height="102" fill="white"/>
</clipPath>
</defs>
</svg>
