<svg width="23" height="22" viewBox="0 0 23 22" fill="none" xmlns="http://www.w3.org/2000/svg">
<g clip-path="url(#clip0_695_6194)">
<path d="M14.5804 15.4C14.5804 15.4 18.2377 15.4 18.5836 15.4C20.5042 15.4 22.0604 13.8437 22.0604 11.9236C22.0604 10.0034 20.5042 8.44669 18.5836 8.44669C18.5748 8.44669 18.5668 8.44801 18.558 8.44801C18.5849 8.23065 18.6034 8.01065 18.6034 7.78625C18.6034 4.83385 16.2102 2.44025 13.2574 2.44025C10.9566 2.44025 9.00167 3.89621 8.24751 5.93429C7.76923 5.45513 7.10747 5.15813 6.37707 5.15813C4.91671 5.15813 3.73311 6.34173 3.73311 7.80165C3.73311 7.83905 3.73751 7.87513 3.73883 7.91209C2.12623 8.35781 0.94043 9.83137 0.94043 11.5856C0.94043 13.6924 2.64807 15.4 4.75523 15.4C5.11911 15.4 8.42043 15.4 8.42043 15.4" stroke="#F4F4F4" stroke-width="1.5" stroke-miterlimit="10" stroke-linecap="round" stroke-linejoin="round"/>
<path d="M9.2998 12.32L11.4998 10.12L13.6998 12.32" stroke="#F4F4F4" stroke-width="0.88" stroke-miterlimit="10" stroke-linecap="round"/>
<path d="M11.5 18.92V10.2665" stroke="#F4F4F4" stroke-width="1.5" stroke-miterlimit="10" stroke-linecap="round"/>
</g>
<defs>
<clipPath id="clip0_695_6194">
<rect width="22" height="22" fill="white" transform="translate(0.5)"/>
</clipPath>
</defs>
</svg>
