<svg width="126" height="126" viewBox="0 0 126 126" fill="none" xmlns="http://www.w3.org/2000/svg">
<path d="M67.9506 61.0048L66.749 61.2487V62.4748V98.2499H59.249V62.4748V61.2487L58.0474 61.0048C46.751 58.7118 38.249 48.722 38.249 36.7499C38.249 23.0809 49.33 11.9999 62.999 11.9999C76.6681 11.9999 87.749 23.0809 87.749 36.7499C87.749 48.722 79.2471 58.7118 67.9506 61.0048ZM80.249 83.6508V76.0106C90.0776 77.2237 98.4497 79.492 104.413 82.6157C110.753 85.9368 113.999 90.0021 113.999 94.4999C113.999 100.053 109.007 104.958 99.585 108.533C90.3092 112.052 77.3802 114 62.999 114C48.6179 114 35.6889 112.052 26.4131 108.533C16.9906 104.958 11.999 100.053 11.999 94.4999C11.999 90.0021 15.2447 85.9368 21.585 82.6157C27.5484 79.492 35.9205 77.2237 45.749 76.0106V83.6508C38.5285 84.6331 32.3272 86.1528 27.8231 87.8429C25.4443 88.7355 23.4727 89.7001 22.0662 90.7C21.3632 91.1998 20.7495 91.7447 20.2993 92.3397C19.8501 92.9334 19.499 93.6654 19.499 94.4999C19.499 95.5919 20.0945 96.5099 20.7748 97.2116C21.475 97.9337 22.438 98.6091 23.5679 99.2383C25.8364 100.502 29.036 101.72 32.8967 102.785C40.6354 104.919 51.2703 106.5 62.999 106.5C74.7277 106.5 85.3626 104.919 93.1013 102.785C96.9621 101.72 100.162 100.502 102.43 99.2383C103.56 98.6091 104.523 97.9337 105.223 97.2116C105.904 96.5099 106.499 95.5919 106.499 94.4999C106.499 93.6654 106.148 92.9334 105.699 92.3397C105.249 91.7447 104.635 91.1998 103.932 90.7C102.525 89.7001 100.554 88.7355 98.175 87.8429C93.6709 86.1528 87.4695 84.6331 80.249 83.6508ZM62.999 53.9999C72.5259 53.9999 80.249 46.2769 80.249 36.7499C80.249 27.223 72.5259 19.4999 62.999 19.4999C53.4721 19.4999 45.749 27.223 45.749 36.7499C45.749 46.2769 53.4721 53.9999 62.999 53.9999Z" fill="#F4F4F4" stroke="#1F2029" stroke-width="3"/>
</svg>
