<svg width="24" height="24" viewBox="0 0 24 24" fill="none" xmlns="http://www.w3.org/2000/svg">
<path d="M18.0784 3.43435L18.0788 3.4356L21.228 15.0227L21.2288 15.0256L22.2277 18.8815C22.2277 18.8817 22.2278 18.8819 22.2278 18.8821C22.2728 19.0599 22.2552 19.2477 22.1783 19.414C22.1297 19.4968 22.0656 19.5694 21.9895 19.6281C21.9109 19.6886 21.8212 19.7329 21.7254 19.7585L16.9145 21.0434C16.8525 21.0493 16.7901 21.0487 16.7283 21.0416L16.7099 21.0395L16.6914 21.0402C16.5221 21.046 16.3558 20.9943 16.2196 20.8935C16.0834 20.7927 15.9854 20.6488 15.9414 20.4852L13.7415 12.2654L13.25 12.33V20.33C13.25 20.5289 13.171 20.7197 13.0303 20.8604C12.8897 21.001 12.6989 21.08 12.5 21.08H2.5C2.30109 21.08 2.11032 21.001 1.96967 20.8604C1.82902 20.7197 1.75 20.5289 1.75 20.33V4.33003C1.75 4.13112 1.82902 3.94035 1.96967 3.7997C2.11032 3.65905 2.30109 3.58003 2.5 3.58003H12.4983C12.6012 3.58151 12.7027 3.60414 12.7965 3.64654C12.8907 3.68913 12.9751 3.75074 13.0444 3.82751L13.1459 3.93998L13.2925 3.90208L17.1625 2.90208L17.1634 2.90185C17.3554 2.85152 17.5594 2.8793 17.7309 2.9791C17.9024 3.07891 18.0274 3.24261 18.0784 3.43435ZM6.47 19.62H6.72V19.37V17.37V17.12H6.47H3.47H3.22V17.37V19.37V19.62H3.47H6.47ZM6.47 15.62H6.72V15.37V9.37003V9.12003H6.47H3.47H3.22V9.37003V15.37V15.62H3.47H6.47ZM6.47 7.62003H6.72V7.37003V5.37003V5.12003H6.47H3.47H3.22V5.37003V7.37003V7.62003H3.47H6.47ZM11.47 19.62H11.72V19.37V17.37V17.12H11.47H8.47H8.22V17.37V19.37V19.62H8.47H11.47ZM11.47 15.62H11.72V15.37V9.37003V9.12003H11.47H8.47H8.22V9.37003V15.37V15.62H8.47H11.47ZM11.47 7.62003H11.72V7.37003V5.37003V5.12003H11.47H8.47H8.22V5.37003V7.37003V7.62003H8.47H11.47ZM13.6551 5.38861L13.4135 5.45357L13.4786 5.69507L13.9986 7.62507L14.0636 7.86636L14.3049 7.80145L17.2049 7.02145L17.4465 6.95649L17.3814 6.71499L16.8614 4.78499L16.7964 4.5437L16.5551 4.60861L13.6551 5.38861ZM16.0685 15.3546L16.1331 15.5965L16.3749 15.5315L19.2749 14.7515L19.516 14.6866L19.4515 14.4455L17.9015 8.64548L17.8369 8.40357L17.5951 8.46861L14.6951 9.24861L14.454 9.31344L14.5185 9.55457L16.0685 15.3546ZM17.0686 19.2151L17.1336 19.4564L17.3749 19.3915L20.2749 18.6115L20.5165 18.5465L20.4514 18.305L19.9314 16.375L19.8664 16.1337L19.6251 16.1986L16.7251 16.9786L16.4835 17.0436L16.5486 17.2851L17.0686 19.2151Z" fill="#CACACA" stroke="#1F2029" stroke-width="0.5"/>
</svg>
