<svg width="24" height="24" viewBox="0 0 24 24" fill="none" xmlns="http://www.w3.org/2000/svg">
<g clip-path="url(#clip0_1087_2081)">
<path d="M10.6099 16.6091C10.6291 17.7688 10.9909 18.8978 11.6511 19.8534C12.3319 20.8389 13.2975 21.593 14.4186 22.0146C15.5398 22.4362 16.7629 22.5054 17.9244 22.2127C19.0859 21.9201 20.1303 21.2796 20.9178 20.3771L21.1091 20.1579V20.4488V22.3909H22.3909V18.1091H18.1091V19.3909H19.8444H20.0869L19.9261 19.5724C19.4966 20.0569 18.969 20.4445 18.3783 20.7094C17.7875 20.9744 17.1472 21.1106 16.4998 21.1091M10.6099 16.6091L16.5 21M10.6099 16.6091H11.8923M10.6099 16.6091H11.8923M16.4998 21.1091L16.5 21M16.4998 21.1091C16.4998 21.1091 16.4998 21.1091 16.4999 21.1091L16.5 21M16.4998 21.1091C15.2778 21.1077 14.1064 20.6217 13.2423 19.7577C12.404 18.9193 11.9215 17.7915 11.8923 16.6091M16.5 21C15.3069 20.9987 14.1631 20.5242 13.3195 19.6805C12.4758 18.8369 12.0013 17.6931 12 16.5V16.6091H11.8923M19.7444 19.6091H19.8444V19.5M19.7444 19.6091L19.6972 19.5C19.7193 19.4761 19.7412 19.452 19.7628 19.4276L19.8444 19.5M19.7444 19.6091C19.7783 19.5733 19.8117 19.5369 19.8444 19.5M19.7444 19.6091L19.8444 19.5" fill="#CACACA" stroke="#CACACA" stroke-width="0.218182"/>
<path d="M22.3898 16.3909H21.1077C21.0785 15.2085 20.596 14.0807 19.7577 13.2423C18.8936 12.3783 17.7221 11.8923 16.5002 11.8909C16.5002 11.8909 16.5002 11.8909 16.5003 11.8909L22.3898 16.3909ZM22.3898 16.3909C22.3599 14.8686 21.7421 13.4151 20.6635 12.3365C19.5592 11.2322 18.0619 10.611 16.5002 10.6091L22.3898 16.3909Z" fill="#CACACA" stroke="#CACACA" stroke-width="0.218182"/>
<path d="M4.39091 21V21.1091H4.5H8.89091V22.3909H4.5C4.13111 22.3909 3.77732 22.2444 3.51648 21.9835C3.25563 21.7227 3.10909 21.3689 3.10909 21V18V17.8909H3H1.60909V16.6091H3H3.10909V16.5V12.75V12.6409H3H1.60909V11.3591H3H3.10909V11.25V7.5V7.39091H3H1.60909V6.10909H3H3.10909V6V3C3.10909 2.63111 3.25563 2.27732 3.51648 2.01648C3.77732 1.75563 4.13111 1.60909 4.5 1.60909H18C18.3689 1.60909 18.7227 1.75563 18.9835 2.01648C19.2444 2.27732 19.3909 2.63111 19.3909 3V8.89091H18.1091V3V2.89091H18H4.5H4.39091V3V6V6.10909H4.5H5.89091V7.39091H4.5H4.39091V7.5V11.25V11.3591H4.5H5.89091V12.6409H4.5H4.39091V12.75V16.5V16.6091H4.5H5.89091V17.8909H4.5H4.39091V18V21Z" fill="#CACACA" stroke="#CACACA" stroke-width="0.218182"/>
</g>
<defs>
<clipPath id="clip0_1087_2081">
<rect width="24" height="24" fill="white"/>
</clipPath>
</defs>
</svg>
